<svg width="13446" height="5894" viewBox="0 0 13446 5894" fill="none" xmlns="http://www.w3.org/2000/svg">
<rect width="13446" height="5894" fill="white"/>
<g filter="url(#filter0_d_93_30)">
<rect x="646" y="1291" width="1888" height="1711" fill="#0E1ED8"/>
</g>
<g filter="url(#filter1_d_93_30)">
<rect x="646" y="3363" width="1888" height="1711" fill="#0E1ED8"/>
</g>
<g filter="url(#filter2_d_93_30)">
<rect x="5742" y="1236" width="1888" height="1711" fill="#0E1ED8"/>
</g>
<g filter="url(#filter3_d_93_30)">
<rect x="7944" y="1236" width="1888" height="1711" fill="#0E1ED8"/>
</g>
<g filter="url(#filter4_d_93_30)">
<rect x="3071" y="1291" width="1888" height="1711" fill="#0E1ED8"/>
</g>
<g filter="url(#filter5_d_93_30)">
<rect x="10566" y="1291" width="1888" height="1711" fill="#0E1ED8"/>
</g>
<path d="M1718.6 664.6C1718.6 650.733 1721.6 638.4 1727.6 627.6C1733.6 616.667 1741.93 608.2 1752.6 602.2C1763.4 596.067 1775.6 593 1789.2 593C1805.87 593 1820.13 597.4 1832 606.2C1843.87 615 1851.8 627 1855.8 642.2H1818.2C1815.4 636.333 1811.4 631.867 1806.2 628.8C1801.13 625.733 1795.33 624.2 1788.8 624.2C1778.27 624.2 1769.73 627.867 1763.2 635.2C1756.67 642.533 1753.4 652.333 1753.4 664.6C1753.4 676.867 1756.67 686.667 1763.2 694C1769.73 701.333 1778.27 705 1788.8 705C1795.33 705 1801.13 703.467 1806.2 700.4C1811.4 697.333 1815.4 692.867 1818.2 687H1855.8C1851.8 702.2 1843.87 714.2 1832 723C1820.13 731.667 1805.87 736 1789.2 736C1775.6 736 1763.4 733 1752.6 727C1741.93 720.867 1733.6 712.4 1727.6 701.6C1721.6 690.8 1718.6 678.467 1718.6 664.6ZM1927.54 736.6C1916.61 736.6 1906.74 734.267 1897.94 729.6C1889.28 724.933 1882.41 718.267 1877.34 709.6C1872.41 700.933 1869.94 690.8 1869.94 679.2C1869.94 667.733 1872.48 657.667 1877.54 649C1882.61 640.2 1889.54 633.467 1898.34 628.8C1907.14 624.133 1917.01 621.8 1927.94 621.8C1938.88 621.8 1948.74 624.133 1957.54 628.8C1966.34 633.467 1973.28 640.2 1978.34 649C1983.41 657.667 1985.94 667.733 1985.94 679.2C1985.94 690.667 1983.34 700.8 1978.14 709.6C1973.08 718.267 1966.08 724.933 1957.14 729.6C1948.34 734.267 1938.48 736.6 1927.54 736.6ZM1927.54 707C1934.08 707 1939.61 704.6 1944.14 699.8C1948.81 695 1951.14 688.133 1951.14 679.2C1951.14 670.267 1948.88 663.4 1944.34 658.6C1939.94 653.8 1934.48 651.4 1927.94 651.4C1921.28 651.4 1915.74 653.8 1911.34 658.6C1906.94 663.267 1904.74 670.133 1904.74 679.2C1904.74 688.133 1906.88 695 1911.14 699.8C1915.54 704.6 1921.01 707 1927.54 707ZM2146.49 622.2C2160.35 622.2 2171.35 626.4 2179.49 634.8C2187.75 643.2 2191.89 654.867 2191.89 669.8V735H2157.89V674.4C2157.89 667.2 2155.95 661.667 2152.09 657.8C2148.35 653.8 2143.15 651.8 2136.49 651.8C2129.82 651.8 2124.55 653.8 2120.69 657.8C2116.95 661.667 2115.09 667.2 2115.09 674.4V735H2081.09V674.4C2081.09 667.2 2079.15 661.667 2075.29 657.8C2071.55 653.8 2066.35 651.8 2059.69 651.8C2053.02 651.8 2047.75 653.8 2043.89 657.8C2040.15 661.667 2038.29 667.2 2038.29 674.4V735H2004.09V623.4H2038.29V637.4C2041.75 632.733 2046.29 629.067 2051.89 626.4C2057.49 623.6 2063.82 622.2 2070.89 622.2C2079.29 622.2 2086.75 624 2093.29 627.6C2099.95 631.2 2105.15 636.333 2108.89 643C2112.75 636.867 2118.02 631.867 2124.69 628C2131.35 624.133 2138.62 622.2 2146.49 622.2ZM2358.21 622.2C2372.07 622.2 2383.07 626.4 2391.21 634.8C2399.47 643.2 2403.61 654.867 2403.61 669.8V735H2369.61V674.4C2369.61 667.2 2367.67 661.667 2363.81 657.8C2360.07 653.8 2354.87 651.8 2348.21 651.8C2341.54 651.8 2336.27 653.8 2332.41 657.8C2328.67 661.667 2326.81 667.2 2326.81 674.4V735H2292.81V674.4C2292.81 667.2 2290.87 661.667 2287.01 657.8C2283.27 653.8 2278.07 651.8 2271.41 651.8C2264.74 651.8 2259.47 653.8 2255.61 657.8C2251.87 661.667 2250.01 667.2 2250.01 674.4V735H2215.81V623.4H2250.01V637.4C2253.47 632.733 2258.01 629.067 2263.61 626.4C2269.21 623.6 2275.54 622.2 2282.61 622.2C2291.01 622.2 2298.47 624 2305.01 627.6C2311.67 631.2 2316.87 636.333 2320.61 643C2324.47 636.867 2329.74 631.867 2336.41 628C2343.07 624.133 2350.34 622.2 2358.21 622.2ZM2537.73 623.4V735H2503.53V719.8C2500.06 724.733 2495.33 728.733 2489.33 731.8C2483.46 734.733 2476.93 736.2 2469.73 736.2C2461.19 736.2 2453.66 734.333 2447.13 730.6C2440.59 726.733 2435.53 721.2 2431.93 714C2428.33 706.8 2426.53 698.333 2426.53 688.6V623.4H2460.53V684C2460.53 691.467 2462.46 697.267 2466.33 701.4C2470.19 705.533 2475.39 707.6 2481.93 707.6C2488.59 707.6 2493.86 705.533 2497.73 701.4C2501.59 697.267 2503.53 691.467 2503.53 684V623.4H2537.73ZM2630.29 622.2C2643.36 622.2 2653.76 626.467 2661.49 635C2669.36 643.4 2673.29 655 2673.29 669.8V735H2639.29V674.4C2639.29 666.933 2637.36 661.133 2633.49 657C2629.62 652.867 2624.42 650.8 2617.89 650.8C2611.36 650.8 2606.16 652.867 2602.29 657C2598.42 661.133 2596.49 666.933 2596.49 674.4V735H2562.29V623.4H2596.49V638.2C2599.96 633.267 2604.62 629.4 2610.49 626.6C2616.36 623.667 2622.96 622.2 2630.29 622.2ZM2714.26 611.8C2708.26 611.8 2703.32 610.067 2699.46 606.6C2695.72 603 2693.86 598.6 2693.86 593.4C2693.86 588.067 2695.72 583.667 2699.46 580.2C2703.32 576.6 2708.26 574.8 2714.26 574.8C2720.12 574.8 2724.92 576.6 2728.66 580.2C2732.52 583.667 2734.46 588.067 2734.46 593.4C2734.46 598.6 2732.52 603 2728.66 606.6C2724.92 610.067 2720.12 611.8 2714.26 611.8ZM2731.26 623.4V735H2697.06V623.4H2731.26ZM2749.24 679.2C2749.24 667.6 2751.57 657.467 2756.24 648.8C2761.04 640.133 2767.64 633.467 2776.04 628.8C2784.57 624.133 2794.31 621.8 2805.24 621.8C2819.24 621.8 2830.91 625.467 2840.24 632.8C2849.71 640.133 2855.91 650.467 2858.84 663.8H2822.44C2819.37 655.267 2813.44 651 2804.64 651C2798.37 651 2793.37 653.467 2789.64 658.4C2785.91 663.2 2784.04 670.133 2784.04 679.2C2784.04 688.267 2785.91 695.267 2789.64 700.2C2793.37 705 2798.37 707.4 2804.64 707.4C2813.44 707.4 2819.37 703.133 2822.44 694.6H2858.84C2855.91 707.667 2849.71 717.933 2840.24 725.4C2830.77 732.867 2819.11 736.6 2805.24 736.6C2794.31 736.6 2784.57 734.267 2776.04 729.6C2767.64 724.933 2761.04 718.267 2756.24 709.6C2751.57 700.933 2749.24 690.8 2749.24 679.2ZM2870.33 679C2870.33 667.533 2872.47 657.467 2876.73 648.8C2881.13 640.133 2887.07 633.467 2894.53 628.8C2902 624.133 2910.33 621.8 2919.53 621.8C2927.4 621.8 2934.27 623.4 2940.13 626.6C2946.13 629.8 2950.73 634 2953.93 639.2V623.4H2988.13V735H2953.93V719.2C2950.6 724.4 2945.93 728.6 2939.93 731.8C2934.07 735 2927.2 736.6 2919.33 736.6C2910.27 736.6 2902 734.267 2894.53 729.6C2887.07 724.8 2881.13 718.067 2876.73 709.4C2872.47 700.6 2870.33 690.467 2870.33 679ZM2953.93 679.2C2953.93 670.667 2951.53 663.933 2946.73 659C2942.07 654.067 2936.33 651.6 2929.53 651.6C2922.73 651.6 2916.93 654.067 2912.13 659C2907.47 663.8 2905.13 670.467 2905.13 679C2905.13 687.533 2907.47 694.333 2912.13 699.4C2916.93 704.333 2922.73 706.8 2929.53 706.8C2936.33 706.8 2942.07 704.333 2946.73 699.4C2951.53 694.467 2953.93 687.733 2953.93 679.2ZM3075.08 706V735H3057.68C3045.28 735 3035.61 732 3028.68 726C3021.74 719.867 3018.28 709.933 3018.28 696.2V651.8H3004.68V623.4H3018.28V596.2H3052.48V623.4H3074.88V651.8H3052.48V696.6C3052.48 699.933 3053.28 702.333 3054.88 703.8C3056.48 705.267 3059.14 706 3062.88 706H3075.08ZM3111.33 611.8C3105.33 611.8 3100.39 610.067 3096.53 606.6C3092.79 603 3090.93 598.6 3090.93 593.4C3090.93 588.067 3092.79 583.667 3096.53 580.2C3100.39 576.6 3105.33 574.8 3111.33 574.8C3117.19 574.8 3121.99 576.6 3125.73 580.2C3129.59 583.667 3131.53 588.067 3131.53 593.4C3131.53 598.6 3129.59 603 3125.73 606.6C3121.99 610.067 3117.19 611.8 3111.33 611.8ZM3128.33 623.4V735H3094.13V623.4H3128.33ZM3203.91 736.6C3192.98 736.6 3183.11 734.267 3174.31 729.6C3165.64 724.933 3158.78 718.267 3153.71 709.6C3148.78 700.933 3146.31 690.8 3146.31 679.2C3146.31 667.733 3148.84 657.667 3153.91 649C3158.98 640.2 3165.91 633.467 3174.71 628.8C3183.51 624.133 3193.38 621.8 3204.31 621.8C3215.24 621.8 3225.11 624.133 3233.91 628.8C3242.71 633.467 3249.64 640.2 3254.71 649C3259.78 657.667 3262.31 667.733 3262.31 679.2C3262.31 690.667 3259.71 700.8 3254.51 709.6C3249.44 718.267 3242.44 724.933 3233.51 729.6C3224.71 734.267 3214.84 736.6 3203.91 736.6ZM3203.91 707C3210.44 707 3215.98 704.6 3220.51 699.8C3225.18 695 3227.51 688.133 3227.51 679.2C3227.51 670.267 3225.24 663.4 3220.71 658.6C3216.31 653.8 3210.84 651.4 3204.31 651.4C3197.64 651.4 3192.11 653.8 3187.71 658.6C3183.31 663.267 3181.11 670.133 3181.11 679.2C3181.11 688.133 3183.24 695 3187.51 699.8C3191.91 704.6 3197.38 707 3203.91 707ZM3348.45 622.2C3361.52 622.2 3371.92 626.467 3379.65 635C3387.52 643.4 3391.45 655 3391.45 669.8V735H3357.45V674.4C3357.45 666.933 3355.52 661.133 3351.65 657C3347.79 652.867 3342.59 650.8 3336.05 650.8C3329.52 650.8 3324.32 652.867 3320.45 657C3316.59 661.133 3314.65 666.933 3314.65 674.4V735H3280.45V623.4H3314.65V638.2C3318.12 633.267 3322.79 629.4 3328.65 626.6C3334.52 623.667 3341.12 622.2 3348.45 622.2Z" fill="black"/>
<path d="M10570 770H10535.8L10478.6 683.4V770H10444.4V629.6H10478.6L10535.8 716.6V629.6H10570V770ZM10645.6 771.6C10634.7 771.6 10624.8 769.267 10616 764.6C10607.3 759.933 10600.5 753.267 10595.4 744.6C10590.5 735.933 10588 725.8 10588 714.2C10588 702.733 10590.5 692.667 10595.6 684C10600.7 675.2 10607.6 668.467 10616.4 663.8C10625.2 659.133 10635.1 656.8 10646 656.8C10656.9 656.8 10666.8 659.133 10675.6 663.8C10684.4 668.467 10691.3 675.2 10696.4 684C10701.5 692.667 10704 702.733 10704 714.2C10704 725.667 10701.4 735.8 10696.2 744.6C10691.1 753.267 10684.1 759.933 10675.2 764.6C10666.4 769.267 10656.5 771.6 10645.6 771.6ZM10645.6 742C10652.1 742 10657.7 739.6 10662.2 734.8C10666.9 730 10669.2 723.133 10669.2 714.2C10669.2 705.267 10666.9 698.4 10662.4 693.6C10658 688.8 10652.5 686.4 10646 686.4C10639.3 686.4 10633.8 688.8 10629.4 693.6C10625 698.267 10622.8 705.133 10622.8 714.2C10622.8 723.133 10624.9 730 10629.2 734.8C10633.6 739.6 10639.1 742 10645.6 742ZM10784.3 741V770H10766.9C10754.5 770 10744.9 767 10737.9 761C10731 754.867 10727.5 744.933 10727.5 731.2V686.8H10713.9V658.4H10727.5V631.2H10761.7V658.4H10784.1V686.8H10761.7V731.6C10761.7 734.933 10762.5 737.333 10764.1 738.8C10765.7 740.267 10768.4 741 10772.1 741H10784.3ZM10820.6 646.8C10814.6 646.8 10809.7 645.067 10805.8 641.6C10802.1 638 10800.2 633.6 10800.2 628.4C10800.2 623.067 10802.1 618.667 10805.8 615.2C10809.7 611.6 10814.6 609.8 10820.6 609.8C10826.5 609.8 10831.3 611.6 10835 615.2C10838.9 618.667 10840.8 623.067 10840.8 628.4C10840.8 633.6 10838.9 638 10835 641.6C10831.3 645.067 10826.5 646.8 10820.6 646.8ZM10837.6 658.4V770H10803.4V658.4H10837.6ZM10918.4 686.8H10900V770H10865.8V686.8H10853.4V658.4H10865.8V655.2C10865.8 641.467 10869.7 631.067 10877.6 624C10885.4 616.8 10897 613.2 10912.2 613.2C10914.7 613.2 10916.6 613.267 10917.8 613.4V642.4C10911.2 642 10906.6 642.933 10904 645.2C10901.3 647.467 10900 651.533 10900 657.4V658.4H10918.4V686.8ZM10951.6 646.8C10945.6 646.8 10940.7 645.067 10936.8 641.6C10933.1 638 10931.2 633.6 10931.2 628.4C10931.2 623.067 10933.1 618.667 10936.8 615.2C10940.7 611.6 10945.6 609.8 10951.6 609.8C10957.5 609.8 10962.3 611.6 10966 615.2C10969.9 618.667 10971.8 623.067 10971.8 628.4C10971.8 633.6 10969.9 638 10966 641.6C10962.3 645.067 10957.5 646.8 10951.6 646.8ZM10968.6 658.4V770H10934.4V658.4H10968.6ZM10986.6 714.2C10986.6 702.6 10989 692.467 10993.6 683.8C10998.4 675.133 11005 668.467 11013.4 663.8C11022 659.133 11031.7 656.8 11042.6 656.8C11056.6 656.8 11068.3 660.467 11077.6 667.8C11087.1 675.133 11093.3 685.467 11096.2 698.8H11059.8C11056.8 690.267 11050.8 686 11042 686C11035.8 686 11030.8 688.467 11027 693.4C11023.3 698.2 11021.4 705.133 11021.4 714.2C11021.4 723.267 11023.3 730.267 11027 735.2C11030.8 740 11035.8 742.4 11042 742.4C11050.8 742.4 11056.8 738.133 11059.8 729.6H11096.2C11093.3 742.667 11087.1 752.933 11077.6 760.4C11068.2 767.867 11056.5 771.6 11042.6 771.6C11031.7 771.6 11022 769.267 11013.4 764.6C11005 759.933 10998.4 753.267 10993.6 744.6C10989 735.933 10986.6 725.8 10986.6 714.2ZM11107.7 714C11107.7 702.533 11109.9 692.467 11114.1 683.8C11118.5 675.133 11124.5 668.467 11131.9 663.8C11139.4 659.133 11147.7 656.8 11156.9 656.8C11164.8 656.8 11171.7 658.4 11177.5 661.6C11183.5 664.8 11188.1 669 11191.3 674.2V658.4H11225.5V770H11191.3V754.2C11188 759.4 11183.3 763.6 11177.3 766.8C11171.5 770 11164.6 771.6 11156.7 771.6C11147.7 771.6 11139.4 769.267 11131.9 764.6C11124.5 759.8 11118.5 753.067 11114.1 744.4C11109.9 735.6 11107.7 725.467 11107.7 714ZM11191.3 714.2C11191.3 705.667 11188.9 698.933 11184.1 694C11179.5 689.067 11173.7 686.6 11166.9 686.6C11160.1 686.6 11154.3 689.067 11149.5 694C11144.9 698.8 11142.5 705.467 11142.5 714C11142.5 722.533 11144.9 729.333 11149.5 734.4C11154.3 739.333 11160.1 741.8 11166.9 741.8C11173.7 741.8 11179.5 739.333 11184.1 734.4C11188.9 729.467 11191.3 722.733 11191.3 714.2ZM11312.5 741V770H11295.1C11282.7 770 11273 767 11266.1 761C11259.1 754.867 11255.7 744.933 11255.7 731.2V686.8H11242.1V658.4H11255.7V631.2H11289.9V658.4H11312.3V686.8H11289.9V731.6C11289.9 734.933 11290.7 737.333 11292.3 738.8C11293.9 740.267 11296.5 741 11300.3 741H11312.5ZM11348.7 646.8C11342.7 646.8 11337.8 645.067 11333.9 641.6C11330.2 638 11328.3 633.6 11328.3 628.4C11328.3 623.067 11330.2 618.667 11333.9 615.2C11337.8 611.6 11342.7 609.8 11348.7 609.8C11354.6 609.8 11359.4 611.6 11363.1 615.2C11367 618.667 11368.9 623.067 11368.9 628.4C11368.9 633.6 11367 638 11363.1 641.6C11359.4 645.067 11354.6 646.8 11348.7 646.8ZM11365.7 658.4V770H11331.5V658.4H11365.7ZM11441.3 771.6C11430.4 771.6 11420.5 769.267 11411.7 764.6C11403 759.933 11396.2 753.267 11391.1 744.6C11386.2 735.933 11383.7 725.8 11383.7 714.2C11383.7 702.733 11386.2 692.667 11391.3 684C11396.4 675.2 11403.3 668.467 11412.1 663.8C11420.9 659.133 11430.8 656.8 11441.7 656.8C11452.6 656.8 11462.5 659.133 11471.3 663.8C11480.1 668.467 11487 675.2 11492.1 684C11497.2 692.667 11499.7 702.733 11499.7 714.2C11499.7 725.667 11497.1 735.8 11491.9 744.6C11486.8 753.267 11479.8 759.933 11470.9 764.6C11462.1 769.267 11452.2 771.6 11441.3 771.6ZM11441.3 742C11447.8 742 11453.4 739.6 11457.9 734.8C11462.6 730 11464.9 723.133 11464.9 714.2C11464.9 705.267 11462.6 698.4 11458.1 693.6C11453.7 688.8 11448.2 686.4 11441.7 686.4C11435 686.4 11429.5 688.8 11425.1 693.6C11420.7 698.267 11418.5 705.133 11418.5 714.2C11418.5 723.133 11420.6 730 11424.9 734.8C11429.3 739.6 11434.8 742 11441.3 742ZM11585.8 657.2C11598.9 657.2 11609.3 661.467 11617 670C11624.9 678.4 11628.8 690 11628.8 704.8V770H11594.8V709.4C11594.8 701.933 11592.9 696.133 11589 692C11585.2 687.867 11580 685.8 11573.4 685.8C11566.9 685.8 11561.7 687.867 11557.8 692C11554 696.133 11552 701.933 11552 709.4V770H11517.8V658.4H11552V673.2C11555.5 668.267 11560.2 664.4 11566 661.6C11571.9 658.667 11578.5 657.2 11585.8 657.2ZM11786.4 629.6V657H11729.2V686.6H11772V713.2H11729.2V770H11695V629.6H11786.4ZM11909.6 712.4C11909.6 715.6 11909.4 718.933 11909 722.4H11831.6C11832.1 729.333 11834.3 734.667 11838.2 738.4C11842.2 742 11847 743.8 11852.8 743.8C11861.3 743.8 11867.2 740.2 11870.6 733H11907C11905.1 740.333 11901.7 746.933 11896.8 752.8C11892 758.667 11885.9 763.267 11878.6 766.6C11871.2 769.933 11863 771.6 11854 771.6C11843 771.6 11833.3 769.267 11824.8 764.6C11816.2 759.933 11809.6 753.267 11804.8 744.6C11800 735.933 11797.6 725.8 11797.6 714.2C11797.6 702.6 11799.9 692.467 11804.6 683.8C11809.4 675.133 11816 668.467 11824.6 663.8C11833.1 659.133 11842.9 656.8 11854 656.8C11864.8 656.8 11874.4 659.067 11882.8 663.6C11891.2 668.133 11897.7 674.6 11902.4 683C11907.2 691.4 11909.6 701.2 11909.6 712.4ZM11874.6 703.4C11874.6 697.533 11872.6 692.867 11868.6 689.4C11864.6 685.933 11859.6 684.2 11853.6 684.2C11847.8 684.2 11843 685.867 11839 689.2C11835.1 692.533 11832.7 697.267 11831.8 703.4H11874.6ZM11920.8 714C11920.8 702.533 11922.9 692.467 11927.2 683.8C11931.6 675.133 11937.5 668.467 11945 663.8C11952.5 659.133 11960.8 656.8 11970 656.8C11977.9 656.8 11984.7 658.4 11990.6 661.6C11996.6 664.8 12001.2 669 12004.4 674.2V658.4H12038.6V770H12004.4V754.2C12001.1 759.4 11996.4 763.6 11990.4 766.8C11984.5 770 11977.7 771.6 11969.8 771.6C11960.7 771.6 11952.5 769.267 11945 764.6C11937.5 759.8 11931.6 753.067 11927.2 744.4C11922.9 735.6 11920.8 725.467 11920.8 714ZM12004.4 714.2C12004.4 705.667 12002 698.933 11997.2 694C11992.5 689.067 11986.8 686.6 11980 686.6C11973.2 686.6 11967.4 689.067 11962.6 694C11957.9 698.8 11955.6 705.467 11955.6 714C11955.6 722.533 11957.9 729.333 11962.6 734.4C11967.4 739.333 11973.2 741.8 11980 741.8C11986.8 741.8 11992.5 739.333 11997.2 734.4C12002 729.467 12004.4 722.733 12004.4 714.2ZM12125.5 741V770H12108.1C12095.7 770 12086.1 767 12079.1 761C12072.2 754.867 12068.7 744.933 12068.7 731.2V686.8H12055.1V658.4H12068.7V631.2H12102.9V658.4H12125.3V686.8H12102.9V731.6C12102.9 734.933 12103.7 737.333 12105.3 738.8C12106.9 740.267 12109.6 741 12113.3 741H12125.5ZM12254.8 658.4V770H12220.6V754.8C12217.1 759.733 12212.4 763.733 12206.4 766.8C12200.5 769.733 12194 771.2 12186.8 771.2C12178.3 771.2 12170.7 769.333 12164.2 765.6C12157.7 761.733 12152.6 756.2 12149 749C12145.4 741.8 12143.6 733.333 12143.6 723.6V658.4H12177.6V719C12177.6 726.467 12179.5 732.267 12183.4 736.4C12187.3 740.533 12192.5 742.6 12199 742.6C12205.7 742.6 12210.9 740.533 12214.8 736.4C12218.7 732.267 12220.6 726.467 12220.6 719V658.4H12254.8ZM12313.6 677C12317.6 670.867 12322.6 666.067 12328.6 662.6C12334.6 659 12341.2 657.2 12348.6 657.2V693.4H12339.2C12330.6 693.4 12324.2 695.267 12320 699C12315.7 702.6 12313.6 709 12313.6 718.2V770H12279.4V658.4H12313.6V677ZM12470.1 712.4C12470.1 715.6 12469.9 718.933 12469.5 722.4H12392.1C12392.6 729.333 12394.8 734.667 12398.7 738.4C12402.7 742 12407.6 743.8 12413.3 743.8C12421.8 743.8 12427.8 740.2 12431.1 733H12467.5C12465.6 740.333 12462.2 746.933 12457.3 752.8C12452.5 758.667 12446.4 763.267 12439.1 766.6C12431.8 769.933 12423.6 771.6 12414.5 771.6C12403.6 771.6 12393.8 769.267 12385.3 764.6C12376.8 759.933 12370.1 753.267 12365.3 744.6C12360.5 735.933 12358.1 725.8 12358.1 714.2C12358.1 702.6 12360.4 692.467 12365.1 683.8C12369.9 675.133 12376.6 668.467 12385.1 663.8C12393.6 659.133 12403.4 656.8 12414.5 656.8C12425.3 656.8 12434.9 659.067 12443.3 663.6C12451.7 668.133 12458.2 674.6 12462.9 683C12467.7 691.4 12470.1 701.2 12470.1 712.4ZM12435.1 703.4C12435.1 697.533 12433.1 692.867 12429.1 689.4C12425.1 685.933 12420.1 684.2 12414.1 684.2C12408.4 684.2 12403.5 685.867 12399.5 689.2C12395.6 692.533 12393.2 697.267 12392.3 703.4H12435.1ZM12533.6 771.6C12523.8 771.6 12515.2 769.933 12507.6 766.6C12500 763.267 12494 758.733 12489.6 753C12485.2 747.133 12482.7 740.6 12482.2 733.4H12516C12516.4 737.267 12518.2 740.4 12521.4 742.8C12524.6 745.2 12528.5 746.4 12533.2 746.4C12537.4 746.4 12540.7 745.6 12543 744C12545.4 742.267 12546.6 740.067 12546.6 737.4C12546.6 734.2 12544.9 731.867 12541.6 730.4C12538.2 728.8 12532.8 727.067 12525.4 725.2C12517.4 723.333 12510.7 721.4 12505.4 719.4C12500 717.267 12495.4 714 12491.6 709.6C12487.7 705.067 12485.8 699 12485.8 691.4C12485.8 685 12487.5 679.2 12491 674C12494.6 668.667 12499.8 664.467 12506.6 661.4C12513.5 658.333 12521.7 656.8 12531.2 656.8C12545.2 656.8 12556.2 660.267 12564.2 667.2C12572.3 674.133 12577 683.333 12578.2 694.8H12546.6C12546 690.933 12544.3 687.867 12541.4 685.6C12538.6 683.333 12534.8 682.2 12530.2 682.2C12526.2 682.2 12523.1 683 12521 684.6C12518.8 686.067 12517.8 688.133 12517.8 690.8C12517.8 694 12519.4 696.4 12522.8 698C12526.2 699.6 12531.6 701.2 12538.8 702.8C12547 704.933 12553.8 707.067 12559 709.2C12564.2 711.2 12568.7 714.533 12572.6 719.2C12576.6 723.733 12578.6 729.867 12578.8 737.6C12578.8 744.133 12576.9 750 12573.2 755.2C12569.6 760.267 12564.3 764.267 12557.4 767.2C12550.6 770.133 12542.6 771.6 12533.6 771.6Z" fill="black"/>
<path d="M6582.4 674.8C6582.4 682.933 6580.53 690.4 6576.8 697.2C6573.07 703.867 6567.33 709.267 6559.6 713.4C6551.87 717.533 6542.27 719.6 6530.8 719.6H6509.6V770H6475.4V629.6H6530.8C6542 629.6 6551.47 631.533 6559.2 635.4C6566.93 639.267 6572.73 644.6 6576.6 651.4C6580.47 658.2 6582.4 666 6582.4 674.8ZM6528.2 692.4C6534.73 692.4 6539.6 690.867 6542.8 687.8C6546 684.733 6547.6 680.4 6547.6 674.8C6547.6 669.2 6546 664.867 6542.8 661.8C6539.6 658.733 6534.73 657.2 6528.2 657.2H6509.6V692.4H6528.2ZM6634.4 677C6638.4 670.867 6643.4 666.067 6649.4 662.6C6655.4 659 6662.07 657.2 6669.4 657.2V693.4H6660C6651.47 693.4 6645.07 695.267 6640.8 699C6636.54 702.6 6634.4 709 6634.4 718.2V770H6600.2V658.4H6634.4V677ZM6736.55 771.6C6725.62 771.6 6715.75 769.267 6706.95 764.6C6698.28 759.933 6691.42 753.267 6686.35 744.6C6681.42 735.933 6678.95 725.8 6678.95 714.2C6678.95 702.733 6681.48 692.667 6686.55 684C6691.62 675.2 6698.55 668.467 6707.35 663.8C6716.15 659.133 6726.02 656.8 6736.95 656.8C6747.88 656.8 6757.75 659.133 6766.55 663.8C6775.35 668.467 6782.28 675.2 6787.35 684C6792.42 692.667 6794.95 702.733 6794.95 714.2C6794.95 725.667 6792.35 735.8 6787.15 744.6C6782.08 753.267 6775.08 759.933 6766.15 764.6C6757.35 769.267 6747.48 771.6 6736.55 771.6ZM6736.55 742C6743.08 742 6748.62 739.6 6753.15 734.8C6757.82 730 6760.15 723.133 6760.15 714.2C6760.15 705.267 6757.88 698.4 6753.35 693.6C6748.95 688.8 6743.48 686.4 6736.95 686.4C6730.28 686.4 6724.75 688.8 6720.35 693.6C6715.95 698.267 6713.75 705.133 6713.75 714.2C6713.75 723.133 6715.88 730 6720.15 734.8C6724.55 739.6 6730.02 742 6736.55 742ZM6855.5 656.8C6863.36 656.8 6870.23 658.4 6876.1 661.6C6882.1 664.8 6886.7 669 6889.9 674.2V658.4H6924.1V769.8C6924.1 780.067 6922.03 789.333 6917.9 797.6C6913.9 806 6907.7 812.667 6899.3 817.6C6891.03 822.533 6880.7 825 6868.3 825C6851.76 825 6838.36 821.067 6828.1 813.2C6817.83 805.467 6811.96 794.933 6810.5 781.6H6844.3C6845.36 785.867 6847.9 789.2 6851.9 791.6C6855.9 794.133 6860.83 795.4 6866.7 795.4C6873.76 795.4 6879.36 793.333 6883.5 789.2C6887.76 785.2 6889.9 778.733 6889.9 769.8V754C6886.56 759.2 6881.96 763.467 6876.1 766.8C6870.23 770 6863.36 771.6 6855.5 771.6C6846.3 771.6 6837.96 769.267 6830.5 764.6C6823.03 759.8 6817.1 753.067 6812.7 744.4C6808.43 735.6 6806.3 725.467 6806.3 714C6806.3 702.533 6808.43 692.467 6812.7 683.8C6817.1 675.133 6823.03 668.467 6830.5 663.8C6837.96 659.133 6846.3 656.8 6855.5 656.8ZM6889.9 714.2C6889.9 705.667 6887.5 698.933 6882.7 694C6878.03 689.067 6872.3 686.6 6865.5 686.6C6858.7 686.6 6852.9 689.067 6848.1 694C6843.43 698.8 6841.1 705.467 6841.1 714C6841.1 722.533 6843.43 729.333 6848.1 734.4C6852.9 739.333 6858.7 741.8 6865.5 741.8C6872.3 741.8 6878.03 739.333 6882.7 734.4C6887.5 729.467 6889.9 722.733 6889.9 714.2ZM6983.04 677C6987.04 670.867 6992.04 666.067 6998.04 662.6C7004.04 659 7010.7 657.2 7018.04 657.2V693.4H7008.64C7000.1 693.4 6993.7 695.267 6989.44 699C6985.17 702.6 6983.04 709 6983.04 718.2V770H6948.84V658.4H6983.04V677ZM7139.58 712.4C7139.58 715.6 7139.38 718.933 7138.98 722.4H7061.58C7062.12 729.333 7064.32 734.667 7068.18 738.4C7072.18 742 7077.05 743.8 7082.78 743.8C7091.32 743.8 7097.25 740.2 7100.58 733H7136.98C7135.12 740.333 7131.72 746.933 7126.78 752.8C7121.98 758.667 7115.92 763.267 7108.58 766.6C7101.25 769.933 7093.05 771.6 7083.98 771.6C7073.05 771.6 7063.32 769.267 7054.78 764.6C7046.25 759.933 7039.58 753.267 7034.78 744.6C7029.98 735.933 7027.58 725.8 7027.58 714.2C7027.58 702.6 7029.92 692.467 7034.58 683.8C7039.38 675.133 7046.05 668.467 7054.58 663.8C7063.12 659.133 7072.92 656.8 7083.98 656.8C7094.78 656.8 7104.38 659.067 7112.78 663.6C7121.18 668.133 7127.72 674.6 7132.38 683C7137.18 691.4 7139.58 701.2 7139.58 712.4ZM7104.58 703.4C7104.58 697.533 7102.58 692.867 7098.58 689.4C7094.58 685.933 7089.58 684.2 7083.58 684.2C7077.85 684.2 7072.98 685.867 7068.98 689.2C7065.12 692.533 7062.72 697.267 7061.78 703.4H7104.58ZM7203.03 771.6C7193.29 771.6 7184.63 769.933 7177.03 766.6C7169.43 763.267 7163.43 758.733 7159.03 753C7154.63 747.133 7152.16 740.6 7151.63 733.4H7185.43C7185.83 737.267 7187.63 740.4 7190.83 742.8C7194.03 745.2 7197.96 746.4 7202.63 746.4C7206.89 746.4 7210.16 745.6 7212.43 744C7214.83 742.267 7216.03 740.067 7216.03 737.4C7216.03 734.2 7214.36 731.867 7211.03 730.4C7207.69 728.8 7202.29 727.067 7194.83 725.2C7186.83 723.333 7180.16 721.4 7174.83 719.4C7169.49 717.267 7164.89 714 7161.03 709.6C7157.16 705.067 7155.23 699 7155.23 691.4C7155.23 685 7156.96 679.2 7160.43 674C7164.03 668.667 7169.23 664.467 7176.03 661.4C7182.96 658.333 7191.16 656.8 7200.63 656.8C7214.63 656.8 7225.63 660.267 7233.63 667.2C7241.76 674.133 7246.43 683.333 7247.63 694.8H7216.03C7215.49 690.933 7213.76 687.867 7210.83 685.6C7208.03 683.333 7204.29 682.2 7199.63 682.2C7195.63 682.2 7192.56 683 7190.43 684.6C7188.29 686.067 7187.23 688.133 7187.23 690.8C7187.23 694 7188.89 696.4 7192.23 698C7195.69 699.6 7201.03 701.2 7208.23 702.8C7216.49 704.933 7223.23 707.067 7228.43 709.2C7233.63 711.2 7238.16 714.533 7242.03 719.2C7246.03 723.733 7248.09 729.867 7248.23 737.6C7248.23 744.133 7246.36 750 7242.63 755.2C7239.03 760.267 7233.76 764.267 7226.83 767.2C7220.03 770.133 7212.09 771.6 7203.03 771.6ZM7314.55 771.6C7304.82 771.6 7296.15 769.933 7288.55 766.6C7280.95 763.267 7274.95 758.733 7270.55 753C7266.15 747.133 7263.68 740.6 7263.15 733.4H7296.95C7297.35 737.267 7299.15 740.4 7302.35 742.8C7305.55 745.2 7309.48 746.4 7314.15 746.4C7318.42 746.4 7321.68 745.6 7323.95 744C7326.35 742.267 7327.55 740.067 7327.55 737.4C7327.55 734.2 7325.88 731.867 7322.55 730.4C7319.22 728.8 7313.82 727.067 7306.35 725.2C7298.35 723.333 7291.68 721.4 7286.35 719.4C7281.02 717.267 7276.42 714 7272.55 709.6C7268.68 705.067 7266.75 699 7266.75 691.4C7266.75 685 7268.48 679.2 7271.95 674C7275.55 668.667 7280.75 664.467 7287.55 661.4C7294.48 658.333 7302.68 656.8 7312.15 656.8C7326.15 656.8 7337.15 660.267 7345.15 667.2C7353.28 674.133 7357.95 683.333 7359.15 694.8H7327.55C7327.02 690.933 7325.28 687.867 7322.35 685.6C7319.55 683.333 7315.82 682.2 7311.15 682.2C7307.15 682.2 7304.08 683 7301.95 684.6C7299.82 686.067 7298.75 688.133 7298.75 690.8C7298.75 694 7300.42 696.4 7303.75 698C7307.22 699.6 7312.55 701.2 7319.75 702.8C7328.02 704.933 7334.75 707.067 7339.95 709.2C7345.15 711.2 7349.68 714.533 7353.55 719.2C7357.55 723.733 7359.62 729.867 7359.75 737.6C7359.75 744.133 7357.88 750 7354.15 755.2C7350.55 760.267 7345.28 764.267 7338.35 767.2C7331.55 770.133 7323.62 771.6 7314.55 771.6ZM7524.06 629.6V657H7486.86V770H7452.66V657H7415.46V629.6H7524.06ZM7575.42 677C7579.42 670.867 7584.42 666.067 7590.42 662.6C7596.42 659 7603.09 657.2 7610.42 657.2V693.4H7601.02C7592.49 693.4 7586.09 695.267 7581.82 699C7577.55 702.6 7575.42 709 7575.42 718.2V770H7541.22V658.4H7575.42V677ZM7619.97 714C7619.97 702.533 7622.1 692.467 7626.37 683.8C7630.77 675.133 7636.7 668.467 7644.17 663.8C7651.63 659.133 7659.97 656.8 7669.17 656.8C7677.03 656.8 7683.9 658.4 7689.77 661.6C7695.77 664.8 7700.37 669 7703.57 674.2V658.4H7737.77V770H7703.57V754.2C7700.23 759.4 7695.57 763.6 7689.57 766.8C7683.7 770 7676.83 771.6 7668.97 771.6C7659.9 771.6 7651.63 769.267 7644.17 764.6C7636.7 759.8 7630.77 753.067 7626.37 744.4C7622.1 735.6 7619.97 725.467 7619.97 714ZM7703.57 714.2C7703.57 705.667 7701.17 698.933 7696.37 694C7691.7 689.067 7685.97 686.6 7679.17 686.6C7672.37 686.6 7666.57 689.067 7661.77 694C7657.1 698.8 7654.77 705.467 7654.77 714C7654.77 722.533 7657.1 729.333 7661.77 734.4C7666.57 739.333 7672.37 741.8 7679.17 741.8C7685.97 741.8 7691.7 739.333 7696.37 734.4C7701.17 729.467 7703.57 722.733 7703.57 714.2ZM7755.71 714.2C7755.71 702.6 7758.04 692.467 7762.71 683.8C7767.51 675.133 7774.11 668.467 7782.51 663.8C7791.04 659.133 7800.78 656.8 7811.71 656.8C7825.71 656.8 7837.38 660.467 7846.71 667.8C7856.18 675.133 7862.38 685.467 7865.31 698.8H7828.91C7825.84 690.267 7819.91 686 7811.11 686C7804.84 686 7799.84 688.467 7796.11 693.4C7792.38 698.2 7790.51 705.133 7790.51 714.2C7790.51 723.267 7792.38 730.267 7796.11 735.2C7799.84 740 7804.84 742.4 7811.11 742.4C7819.91 742.4 7825.84 738.133 7828.91 729.6H7865.31C7862.38 742.667 7856.18 752.933 7846.71 760.4C7837.24 767.867 7825.58 771.6 7811.71 771.6C7800.78 771.6 7791.04 769.267 7782.51 764.6C7774.11 759.933 7767.51 753.267 7762.71 744.6C7758.04 735.933 7755.71 725.8 7755.71 714.2ZM7951.8 770L7917.8 723.2V770H7883.6V622H7917.8V703.8L7951.6 658.4H7993.8L7947.4 714.4L7994.2 770H7951.8ZM8024.44 646.8C8018.44 646.8 8013.5 645.067 8009.64 641.6C8005.9 638 8004.04 633.6 8004.04 628.4C8004.04 623.067 8005.9 618.667 8009.64 615.2C8013.5 611.6 8018.44 609.8 8024.44 609.8C8030.3 609.8 8035.1 611.6 8038.84 615.2C8042.7 618.667 8044.64 623.067 8044.64 628.4C8044.64 633.6 8042.7 638 8038.84 641.6C8035.1 645.067 8030.3 646.8 8024.44 646.8ZM8041.44 658.4V770H8007.24V658.4H8041.44ZM8134.22 657.2C8147.29 657.2 8157.69 661.467 8165.42 670C8173.29 678.4 8177.22 690 8177.22 704.8V770H8143.22V709.4C8143.22 701.933 8141.29 696.133 8137.42 692C8133.55 687.867 8128.35 685.8 8121.82 685.8C8115.29 685.8 8110.09 687.867 8106.22 692C8102.35 696.133 8100.42 701.933 8100.42 709.4V770H8066.22V658.4H8100.42V673.2C8103.89 668.267 8108.55 664.4 8114.42 661.6C8120.29 658.667 8126.89 657.2 8134.22 657.2ZM8243.39 656.8C8251.25 656.8 8258.12 658.4 8263.99 661.6C8269.99 664.8 8274.59 669 8277.79 674.2V658.4H8311.99V769.8C8311.99 780.067 8309.92 789.333 8305.79 797.6C8301.79 806 8295.59 812.667 8287.19 817.6C8278.92 822.533 8268.59 825 8256.19 825C8239.65 825 8226.25 821.067 8215.99 813.2C8205.72 805.467 8199.85 794.933 8198.39 781.6H8232.19C8233.25 785.867 8235.79 789.2 8239.79 791.6C8243.79 794.133 8248.72 795.4 8254.59 795.4C8261.65 795.4 8267.25 793.333 8271.39 789.2C8275.65 785.2 8277.79 778.733 8277.79 769.8V754C8274.45 759.2 8269.85 763.467 8263.99 766.8C8258.12 770 8251.25 771.6 8243.39 771.6C8234.19 771.6 8225.85 769.267 8218.39 764.6C8210.92 759.8 8204.99 753.067 8200.59 744.4C8196.32 735.6 8194.19 725.467 8194.19 714C8194.19 702.533 8196.32 692.467 8200.59 683.8C8204.99 675.133 8210.92 668.467 8218.39 663.8C8225.85 659.133 8234.19 656.8 8243.39 656.8ZM8277.79 714.2C8277.79 705.667 8275.39 698.933 8270.59 694C8265.92 689.067 8260.19 686.6 8253.39 686.6C8246.59 686.6 8240.79 689.067 8235.99 694C8231.32 698.8 8228.99 705.467 8228.99 714C8228.99 722.533 8231.32 729.333 8235.99 734.4C8240.79 739.333 8246.59 741.8 8253.39 741.8C8260.19 741.8 8265.92 739.333 8270.59 734.4C8275.39 729.467 8277.79 722.733 8277.79 714.2ZM8470.51 629.6V657H8413.31V686.6H8456.11V713.2H8413.31V770H8379.11V629.6H8470.51ZM8593.69 712.4C8593.69 715.6 8593.49 718.933 8593.09 722.4H8515.69C8516.22 729.333 8518.42 734.667 8522.29 738.4C8526.29 742 8531.15 743.8 8536.89 743.8C8545.42 743.8 8551.35 740.2 8554.69 733H8591.09C8589.22 740.333 8585.82 746.933 8580.89 752.8C8576.09 758.667 8570.02 763.267 8562.69 766.6C8555.35 769.933 8547.15 771.6 8538.09 771.6C8527.15 771.6 8517.42 769.267 8508.89 764.6C8500.35 759.933 8493.69 753.267 8488.89 744.6C8484.09 735.933 8481.69 725.8 8481.69 714.2C8481.69 702.6 8484.02 692.467 8488.69 683.8C8493.49 675.133 8500.15 668.467 8508.69 663.8C8517.22 659.133 8527.02 656.8 8538.09 656.8C8548.89 656.8 8558.49 659.067 8566.89 663.6C8575.29 668.133 8581.82 674.6 8586.49 683C8591.29 691.4 8593.69 701.2 8593.69 712.4ZM8558.69 703.4C8558.69 697.533 8556.69 692.867 8552.69 689.4C8548.69 685.933 8543.69 684.2 8537.69 684.2C8531.95 684.2 8527.09 685.867 8523.09 689.2C8519.22 692.533 8516.82 697.267 8515.89 703.4H8558.69ZM8604.93 714C8604.93 702.533 8607.06 692.467 8611.33 683.8C8615.73 675.133 8621.66 668.467 8629.13 663.8C8636.59 659.133 8644.93 656.8 8654.13 656.8C8661.99 656.8 8668.86 658.4 8674.73 661.6C8680.73 664.8 8685.33 669 8688.53 674.2V658.4H8722.73V770H8688.53V754.2C8685.19 759.4 8680.53 763.6 8674.53 766.8C8668.66 770 8661.79 771.6 8653.93 771.6C8644.86 771.6 8636.59 769.267 8629.13 764.6C8621.66 759.8 8615.73 753.067 8611.33 744.4C8607.06 735.6 8604.93 725.467 8604.93 714ZM8688.53 714.2C8688.53 705.667 8686.13 698.933 8681.33 694C8676.66 689.067 8670.93 686.6 8664.13 686.6C8657.33 686.6 8651.53 689.067 8646.73 694C8642.06 698.8 8639.73 705.467 8639.73 714C8639.73 722.533 8642.06 729.333 8646.73 734.4C8651.53 739.333 8657.33 741.8 8664.13 741.8C8670.93 741.8 8676.66 739.333 8681.33 734.4C8686.13 729.467 8688.53 722.733 8688.53 714.2ZM8809.67 741V770H8792.27C8779.87 770 8770.2 767 8763.27 761C8756.34 754.867 8752.87 744.933 8752.87 731.2V686.8H8739.27V658.4H8752.87V631.2H8787.07V658.4H8809.47V686.8H8787.07V731.6C8787.07 734.933 8787.87 737.333 8789.47 738.8C8791.07 740.267 8793.74 741 8797.47 741H8809.67ZM8938.92 658.4V770H8904.72V754.8C8901.25 759.733 8896.52 763.733 8890.52 766.8C8884.65 769.733 8878.12 771.2 8870.92 771.2C8862.39 771.2 8854.85 769.333 8848.32 765.6C8841.79 761.733 8836.72 756.2 8833.12 749C8829.52 741.8 8827.72 733.333 8827.72 723.6V658.4H8861.72V719C8861.72 726.467 8863.65 732.267 8867.52 736.4C8871.39 740.533 8876.59 742.6 8883.12 742.6C8889.79 742.6 8895.05 740.533 8898.92 736.4C8902.79 732.267 8904.72 726.467 8904.72 719V658.4H8938.92ZM8997.69 677C9001.69 670.867 9006.69 666.067 9012.69 662.6C9018.69 659 9025.35 657.2 9032.69 657.2V693.4H9023.29C9014.75 693.4 9008.35 695.267 9004.09 699C8999.82 702.6 8997.69 709 8997.69 718.2V770H8963.49V658.4H8997.69V677ZM9154.23 712.4C9154.23 715.6 9154.03 718.933 9153.63 722.4H9076.23C9076.77 729.333 9078.97 734.667 9082.83 738.4C9086.83 742 9091.7 743.8 9097.43 743.8C9105.97 743.8 9111.9 740.2 9115.23 733H9151.63C9149.77 740.333 9146.37 746.933 9141.43 752.8C9136.63 758.667 9130.57 763.267 9123.23 766.6C9115.9 769.933 9107.7 771.6 9098.63 771.6C9087.7 771.6 9077.97 769.267 9069.43 764.6C9060.9 759.933 9054.23 753.267 9049.43 744.6C9044.63 735.933 9042.23 725.8 9042.23 714.2C9042.23 702.6 9044.57 692.467 9049.23 683.8C9054.03 675.133 9060.7 668.467 9069.23 663.8C9077.77 659.133 9087.57 656.8 9098.63 656.8C9109.43 656.8 9119.03 659.067 9127.43 663.6C9135.83 668.133 9142.37 674.6 9147.03 683C9151.83 691.4 9154.23 701.2 9154.23 712.4ZM9119.23 703.4C9119.23 697.533 9117.23 692.867 9113.23 689.4C9109.23 685.933 9104.23 684.2 9098.23 684.2C9092.5 684.2 9087.63 685.867 9083.63 689.2C9079.77 692.533 9077.37 697.267 9076.43 703.4H9119.23Z" fill="black"/>
<path d="M1209.2 2006.6L1159.4 2147H1116.6L1066.8 2006.6H1103.2L1138 2112.6L1173 2006.6H1209.2ZM1240.69 2023.8C1234.69 2023.8 1229.76 2022.07 1225.89 2018.6C1222.16 2015 1220.29 2010.6 1220.29 2005.4C1220.29 2000.07 1222.16 1995.67 1225.89 1992.2C1229.76 1988.6 1234.69 1986.8 1240.69 1986.8C1246.56 1986.8 1251.36 1988.6 1255.09 1992.2C1258.96 1995.67 1260.89 2000.07 1260.89 2005.4C1260.89 2010.6 1258.96 2015 1255.09 2018.6C1251.36 2022.07 1246.56 2023.8 1240.69 2023.8ZM1257.69 2035.4V2147H1223.49V2035.4H1257.69ZM1275.68 2091C1275.68 2079.53 1277.81 2069.47 1282.08 2060.8C1286.48 2052.13 1292.41 2045.47 1299.88 2040.8C1307.34 2036.13 1315.68 2033.8 1324.88 2033.8C1332.21 2033.8 1338.88 2035.33 1344.88 2038.4C1351.01 2041.47 1355.81 2045.6 1359.28 2050.8V1999H1393.48V2147H1359.28V2131C1356.08 2136.33 1351.48 2140.6 1345.48 2143.8C1339.61 2147 1332.74 2148.6 1324.88 2148.6C1315.68 2148.6 1307.34 2146.27 1299.88 2141.6C1292.41 2136.8 1286.48 2130.07 1282.08 2121.4C1277.81 2112.6 1275.68 2102.47 1275.68 2091ZM1359.28 2091.2C1359.28 2082.67 1356.88 2075.93 1352.08 2071C1347.41 2066.07 1341.68 2063.6 1334.88 2063.6C1328.08 2063.6 1322.28 2066.07 1317.48 2071C1312.81 2075.8 1310.48 2082.47 1310.48 2091C1310.48 2099.53 1312.81 2106.33 1317.48 2111.4C1322.28 2116.33 1328.08 2118.8 1334.88 2118.8C1341.68 2118.8 1347.41 2116.33 1352.08 2111.4C1356.88 2106.47 1359.28 2099.73 1359.28 2091.2ZM1523.42 2089.4C1523.42 2092.6 1523.22 2095.93 1522.82 2099.4H1445.42C1445.95 2106.33 1448.15 2111.67 1452.02 2115.4C1456.02 2119 1460.89 2120.8 1466.62 2120.8C1475.15 2120.8 1481.09 2117.2 1484.42 2110H1520.82C1518.95 2117.33 1515.55 2123.93 1510.62 2129.8C1505.82 2135.67 1499.75 2140.27 1492.42 2143.6C1485.09 2146.93 1476.89 2148.6 1467.82 2148.6C1456.89 2148.6 1447.15 2146.27 1438.62 2141.6C1430.09 2136.93 1423.42 2130.27 1418.62 2121.6C1413.82 2112.93 1411.42 2102.8 1411.42 2091.2C1411.42 2079.6 1413.75 2069.47 1418.42 2060.8C1423.22 2052.13 1429.89 2045.47 1438.42 2040.8C1446.95 2036.13 1456.75 2033.8 1467.82 2033.8C1478.62 2033.8 1488.22 2036.07 1496.62 2040.6C1505.02 2045.13 1511.55 2051.6 1516.22 2060C1521.02 2068.4 1523.42 2078.2 1523.42 2089.4ZM1488.42 2080.4C1488.42 2074.53 1486.42 2069.87 1482.42 2066.4C1478.42 2062.93 1473.42 2061.2 1467.42 2061.2C1461.69 2061.2 1456.82 2062.87 1452.82 2066.2C1448.95 2069.53 1446.55 2074.27 1445.62 2080.4H1488.42ZM1592.26 2148.6C1581.33 2148.6 1571.46 2146.27 1562.66 2141.6C1554 2136.93 1547.13 2130.27 1542.06 2121.6C1537.13 2112.93 1534.66 2102.8 1534.66 2091.2C1534.66 2079.73 1537.2 2069.67 1542.26 2061C1547.33 2052.2 1554.26 2045.47 1563.06 2040.8C1571.86 2036.13 1581.73 2033.8 1592.66 2033.8C1603.6 2033.8 1613.46 2036.13 1622.26 2040.8C1631.06 2045.47 1638 2052.2 1643.06 2061C1648.13 2069.67 1650.66 2079.73 1650.66 2091.2C1650.66 2102.67 1648.06 2112.8 1642.86 2121.6C1637.8 2130.27 1630.8 2136.93 1621.86 2141.6C1613.06 2146.27 1603.2 2148.6 1592.26 2148.6ZM1592.26 2119C1598.8 2119 1604.33 2116.6 1608.86 2111.8C1613.53 2107 1615.86 2100.13 1615.86 2091.2C1615.86 2082.27 1613.6 2075.4 1609.06 2070.6C1604.66 2065.8 1599.2 2063.4 1592.66 2063.4C1586 2063.4 1580.46 2065.8 1576.06 2070.6C1571.66 2075.27 1569.46 2082.13 1569.46 2091.2C1569.46 2100.13 1571.6 2107 1575.86 2111.8C1580.26 2116.6 1585.73 2119 1592.26 2119ZM1747.77 2076.6C1747.77 2062.73 1750.77 2050.4 1756.77 2039.6C1762.77 2028.67 1771.11 2020.2 1781.77 2014.2C1792.57 2008.07 1804.77 2005 1818.37 2005C1835.04 2005 1849.31 2009.4 1861.17 2018.2C1873.04 2027 1880.97 2039 1884.97 2054.2H1847.37C1844.57 2048.33 1840.57 2043.87 1835.37 2040.8C1830.31 2037.73 1824.51 2036.2 1817.97 2036.2C1807.44 2036.2 1798.91 2039.87 1792.37 2047.2C1785.84 2054.53 1782.57 2064.33 1782.57 2076.6C1782.57 2088.87 1785.84 2098.67 1792.37 2106C1798.91 2113.33 1807.44 2117 1817.97 2117C1824.51 2117 1830.31 2115.47 1835.37 2112.4C1840.57 2109.33 1844.57 2104.87 1847.37 2099H1884.97C1880.97 2114.2 1873.04 2126.2 1861.17 2135C1849.31 2143.67 1835.04 2148 1818.37 2148C1804.77 2148 1792.57 2145 1781.77 2139C1771.11 2132.87 1762.77 2124.4 1756.77 2113.6C1750.77 2102.8 1747.77 2090.47 1747.77 2076.6ZM1899.12 2091C1899.12 2079.53 1901.25 2069.47 1905.52 2060.8C1909.92 2052.13 1915.85 2045.47 1923.32 2040.8C1930.78 2036.13 1939.12 2033.8 1948.32 2033.8C1956.18 2033.8 1963.05 2035.4 1968.92 2038.6C1974.92 2041.8 1979.52 2046 1982.72 2051.2V2035.4H2016.92V2147H1982.72V2131.2C1979.38 2136.4 1974.72 2140.6 1968.72 2143.8C1962.85 2147 1955.98 2148.6 1948.12 2148.6C1939.05 2148.6 1930.78 2146.27 1923.32 2141.6C1915.85 2136.8 1909.92 2130.07 1905.52 2121.4C1901.25 2112.6 1899.12 2102.47 1899.12 2091ZM1982.72 2091.2C1982.72 2082.67 1980.32 2075.93 1975.52 2071C1970.85 2066.07 1965.12 2063.6 1958.32 2063.6C1951.52 2063.6 1945.72 2066.07 1940.92 2071C1936.25 2075.8 1933.92 2082.47 1933.92 2091C1933.92 2099.53 1936.25 2106.33 1940.92 2111.4C1945.72 2116.33 1951.52 2118.8 1958.32 2118.8C1965.12 2118.8 1970.85 2116.33 1975.52 2111.4C1980.32 2106.47 1982.72 2099.73 1982.72 2091.2ZM2075.86 1999V2147H2041.66V1999H2075.86ZM2134.84 1999V2147H2100.64V1999H2134.84Z" fill="white"/>
<path d="M6029.8 1837.2H5977.4L5969 1862H5933.2L5984 1721.6H6023.6L6074.4 1862H6038.2L6029.8 1837.2ZM6021 1810.8L6003.6 1759.4L5986.4 1810.8H6021ZM6135.26 1863.6C6125.53 1863.6 6116.86 1861.93 6109.26 1858.6C6101.66 1855.27 6095.66 1850.73 6091.26 1845C6086.86 1839.13 6084.39 1832.6 6083.86 1825.4H6117.66C6118.06 1829.27 6119.86 1832.4 6123.06 1834.8C6126.26 1837.2 6130.19 1838.4 6134.86 1838.4C6139.13 1838.4 6142.39 1837.6 6144.66 1836C6147.06 1834.27 6148.26 1832.07 6148.26 1829.4C6148.26 1826.2 6146.59 1823.87 6143.26 1822.4C6139.93 1820.8 6134.53 1819.07 6127.06 1817.2C6119.06 1815.33 6112.39 1813.4 6107.06 1811.4C6101.73 1809.27 6097.13 1806 6093.26 1801.6C6089.39 1797.07 6087.46 1791 6087.46 1783.4C6087.46 1777 6089.19 1771.2 6092.66 1766C6096.26 1760.67 6101.46 1756.47 6108.26 1753.4C6115.19 1750.33 6123.39 1748.8 6132.86 1748.8C6146.86 1748.8 6157.86 1752.27 6165.86 1759.2C6173.99 1766.13 6178.66 1775.33 6179.86 1786.8H6148.26C6147.73 1782.93 6145.99 1779.87 6143.06 1777.6C6140.26 1775.33 6136.53 1774.2 6131.86 1774.2C6127.86 1774.2 6124.79 1775 6122.66 1776.6C6120.53 1778.07 6119.46 1780.13 6119.46 1782.8C6119.46 1786 6121.13 1788.4 6124.46 1790C6127.93 1791.6 6133.26 1793.2 6140.46 1794.8C6148.73 1796.93 6155.46 1799.07 6160.66 1801.2C6165.86 1803.2 6170.39 1806.53 6174.26 1811.2C6178.26 1815.73 6180.33 1821.87 6180.46 1829.6C6180.46 1836.13 6178.59 1842 6174.86 1847.2C6171.26 1852.27 6165.99 1856.27 6159.06 1859.2C6152.26 1862.13 6144.33 1863.6 6135.26 1863.6ZM6246.78 1863.6C6237.05 1863.6 6228.38 1861.93 6220.78 1858.6C6213.18 1855.27 6207.18 1850.73 6202.78 1845C6198.38 1839.13 6195.92 1832.6 6195.38 1825.4H6229.18C6229.58 1829.27 6231.38 1832.4 6234.58 1834.8C6237.78 1837.2 6241.72 1838.4 6246.38 1838.4C6250.65 1838.4 6253.92 1837.6 6256.18 1836C6258.58 1834.27 6259.78 1832.07 6259.78 1829.4C6259.78 1826.2 6258.12 1823.87 6254.78 1822.4C6251.45 1820.8 6246.05 1819.07 6238.58 1817.2C6230.58 1815.33 6223.92 1813.4 6218.58 1811.4C6213.25 1809.27 6208.65 1806 6204.78 1801.6C6200.92 1797.07 6198.98 1791 6198.98 1783.4C6198.98 1777 6200.72 1771.2 6204.18 1766C6207.78 1760.67 6212.98 1756.47 6219.78 1753.4C6226.72 1750.33 6234.92 1748.8 6244.38 1748.8C6258.38 1748.8 6269.38 1752.27 6277.38 1759.2C6285.52 1766.13 6290.18 1775.33 6291.38 1786.8H6259.78C6259.25 1782.93 6257.52 1779.87 6254.58 1777.6C6251.78 1775.33 6248.05 1774.2 6243.38 1774.2C6239.38 1774.2 6236.32 1775 6234.18 1776.6C6232.05 1778.07 6230.98 1780.13 6230.98 1782.8C6230.98 1786 6232.65 1788.4 6235.98 1790C6239.45 1791.6 6244.78 1793.2 6251.98 1794.8C6260.25 1796.93 6266.98 1799.07 6272.18 1801.2C6277.38 1803.2 6281.92 1806.53 6285.78 1811.2C6289.78 1815.73 6291.85 1821.87 6291.98 1829.6C6291.98 1836.13 6290.12 1842 6286.38 1847.2C6282.78 1852.27 6277.52 1856.27 6270.58 1859.2C6263.78 1862.13 6255.85 1863.6 6246.78 1863.6ZM6330.11 1738.8C6324.11 1738.8 6319.17 1737.07 6315.31 1733.6C6311.57 1730 6309.71 1725.6 6309.71 1720.4C6309.71 1715.07 6311.57 1710.67 6315.31 1707.2C6319.17 1703.6 6324.11 1701.8 6330.11 1701.8C6335.97 1701.8 6340.77 1703.6 6344.51 1707.2C6348.37 1710.67 6350.31 1715.07 6350.31 1720.4C6350.31 1725.6 6348.37 1730 6344.51 1733.6C6340.77 1737.07 6335.97 1738.8 6330.11 1738.8ZM6347.11 1750.4V1862H6312.91V1750.4H6347.11ZM6414.29 1748.8C6422.16 1748.8 6429.03 1750.4 6434.89 1753.6C6440.89 1756.8 6445.49 1761 6448.69 1766.2V1750.4H6482.89V1861.8C6482.89 1872.07 6480.83 1881.33 6476.69 1889.6C6472.69 1898 6466.49 1904.67 6458.09 1909.6C6449.83 1914.53 6439.49 1917 6427.09 1917C6410.56 1917 6397.16 1913.07 6386.89 1905.2C6376.63 1897.47 6370.76 1886.93 6369.29 1873.6H6403.09C6404.16 1877.87 6406.69 1881.2 6410.69 1883.6C6414.69 1886.13 6419.63 1887.4 6425.49 1887.4C6432.56 1887.4 6438.16 1885.33 6442.29 1881.2C6446.56 1877.2 6448.69 1870.73 6448.69 1861.8V1846C6445.36 1851.2 6440.76 1855.47 6434.89 1858.8C6429.03 1862 6422.16 1863.6 6414.29 1863.6C6405.09 1863.6 6396.76 1861.27 6389.29 1856.6C6381.83 1851.8 6375.89 1845.07 6371.49 1836.4C6367.23 1827.6 6365.09 1817.47 6365.09 1806C6365.09 1794.53 6367.23 1784.47 6371.49 1775.8C6375.89 1767.13 6381.83 1760.47 6389.29 1755.8C6396.76 1751.13 6405.09 1748.8 6414.29 1748.8ZM6448.69 1806.2C6448.69 1797.67 6446.29 1790.93 6441.49 1786C6436.83 1781.07 6431.09 1778.6 6424.29 1778.6C6417.49 1778.6 6411.69 1781.07 6406.89 1786C6402.23 1790.8 6399.89 1797.47 6399.89 1806C6399.89 1814.53 6402.23 1821.33 6406.89 1826.4C6411.69 1831.33 6417.49 1833.8 6424.29 1833.8C6431.09 1833.8 6436.83 1831.33 6441.49 1826.4C6446.29 1821.47 6448.69 1814.73 6448.69 1806.2ZM6575.63 1749.2C6588.7 1749.2 6599.1 1753.47 6606.83 1762C6614.7 1770.4 6618.63 1782 6618.63 1796.8V1862H6584.63V1801.4C6584.63 1793.93 6582.7 1788.13 6578.83 1784C6574.97 1779.87 6569.77 1777.8 6563.23 1777.8C6556.7 1777.8 6551.5 1779.87 6547.63 1784C6543.77 1788.13 6541.83 1793.93 6541.83 1801.4V1862H6507.63V1750.4H6541.83V1765.2C6545.3 1760.27 6549.97 1756.4 6555.83 1753.6C6561.7 1750.67 6568.3 1749.2 6575.63 1749.2ZM6784.8 1749.2C6798.67 1749.2 6809.67 1753.4 6817.8 1761.8C6826.07 1770.2 6830.2 1781.87 6830.2 1796.8V1862H6796.2V1801.4C6796.2 1794.2 6794.27 1788.67 6790.4 1784.8C6786.67 1780.8 6781.47 1778.8 6774.8 1778.8C6768.13 1778.8 6762.87 1780.8 6759 1784.8C6755.27 1788.67 6753.4 1794.2 6753.4 1801.4V1862H6719.4V1801.4C6719.4 1794.2 6717.47 1788.67 6713.6 1784.8C6709.87 1780.8 6704.67 1778.8 6698 1778.8C6691.33 1778.8 6686.07 1780.8 6682.2 1784.8C6678.47 1788.67 6676.6 1794.2 6676.6 1801.4V1862H6642.4V1750.4H6676.6V1764.4C6680.07 1759.73 6684.6 1756.07 6690.2 1753.4C6695.8 1750.6 6702.13 1749.2 6709.2 1749.2C6717.6 1749.2 6725.07 1751 6731.6 1754.6C6738.27 1758.2 6743.47 1763.33 6747.2 1770C6751.07 1763.87 6756.33 1758.87 6763 1755C6769.67 1751.13 6776.93 1749.2 6784.8 1749.2ZM6959.32 1804.4C6959.32 1807.6 6959.12 1810.93 6958.72 1814.4H6881.32C6881.85 1821.33 6884.05 1826.67 6887.92 1830.4C6891.92 1834 6896.79 1835.8 6902.52 1835.8C6911.05 1835.8 6916.99 1832.2 6920.32 1825H6956.72C6954.85 1832.33 6951.45 1838.93 6946.52 1844.8C6941.72 1850.67 6935.65 1855.27 6928.32 1858.6C6920.99 1861.93 6912.79 1863.6 6903.72 1863.6C6892.79 1863.6 6883.05 1861.27 6874.52 1856.6C6865.99 1851.93 6859.32 1845.27 6854.52 1836.6C6849.72 1827.93 6847.32 1817.8 6847.32 1806.2C6847.32 1794.6 6849.65 1784.47 6854.32 1775.8C6859.12 1767.13 6865.79 1760.47 6874.32 1755.8C6882.85 1751.13 6892.65 1748.8 6903.72 1748.8C6914.52 1748.8 6924.12 1751.07 6932.52 1755.6C6940.92 1760.13 6947.45 1766.6 6952.12 1775C6956.92 1783.4 6959.32 1793.2 6959.32 1804.4ZM6924.32 1795.4C6924.32 1789.53 6922.32 1784.87 6918.32 1781.4C6914.32 1777.93 6909.32 1776.2 6903.32 1776.2C6897.59 1776.2 6892.72 1777.87 6888.72 1781.2C6884.85 1784.53 6882.45 1789.27 6881.52 1795.4H6924.32ZM7045.36 1749.2C7058.43 1749.2 7068.83 1753.47 7076.56 1762C7084.43 1770.4 7088.36 1782 7088.36 1796.8V1862H7054.36V1801.4C7054.36 1793.93 7052.43 1788.13 7048.56 1784C7044.69 1779.87 7039.49 1777.8 7032.96 1777.8C7026.43 1777.8 7021.23 1779.87 7017.36 1784C7013.49 1788.13 7011.56 1793.93 7011.56 1801.4V1862H6977.36V1750.4H7011.56V1765.2C7015.03 1760.27 7019.69 1756.4 7025.56 1753.6C7031.43 1750.67 7038.03 1749.2 7045.36 1749.2ZM7174.33 1833V1862H7156.93C7144.53 1862 7134.86 1859 7127.93 1853C7120.99 1846.87 7117.53 1836.93 7117.53 1823.2V1778.8H7103.93V1750.4H7117.53V1723.2H7151.73V1750.4H7174.13V1778.8H7151.73V1823.6C7151.73 1826.93 7152.53 1829.33 7154.13 1830.8C7155.73 1832.27 7158.39 1833 7162.13 1833H7174.33ZM6043.4 2021.6V2049H6006.2V2162H5972V2049H5934.8V2021.6H6043.4ZM6094.76 2069C6098.76 2062.87 6103.76 2058.07 6109.76 2054.6C6115.76 2051 6122.43 2049.2 6129.76 2049.2V2085.4H6120.36C6111.83 2085.4 6105.43 2087.27 6101.16 2091C6096.9 2094.6 6094.76 2101 6094.76 2110.2V2162H6060.56V2050.4H6094.76V2069ZM6139.31 2106C6139.31 2094.53 6141.44 2084.47 6145.71 2075.8C6150.11 2067.13 6156.04 2060.47 6163.51 2055.8C6170.98 2051.13 6179.31 2048.8 6188.51 2048.8C6196.38 2048.8 6203.24 2050.4 6209.11 2053.6C6215.11 2056.8 6219.71 2061 6222.91 2066.2V2050.4H6257.11V2162H6222.91V2146.2C6219.58 2151.4 6214.91 2155.6 6208.91 2158.8C6203.04 2162 6196.18 2163.6 6188.31 2163.6C6179.24 2163.6 6170.98 2161.27 6163.51 2156.6C6156.04 2151.8 6150.11 2145.07 6145.71 2136.4C6141.44 2127.6 6139.31 2117.47 6139.31 2106ZM6222.91 2106.2C6222.91 2097.67 6220.51 2090.93 6215.71 2086C6211.04 2081.07 6205.31 2078.6 6198.51 2078.6C6191.71 2078.6 6185.91 2081.07 6181.11 2086C6176.44 2090.8 6174.11 2097.47 6174.11 2106C6174.11 2114.53 6176.44 2121.33 6181.11 2126.4C6185.91 2131.33 6191.71 2133.8 6198.51 2133.8C6205.31 2133.8 6211.04 2131.33 6215.71 2126.4C6220.51 2121.47 6222.91 2114.73 6222.91 2106.2ZM6275.05 2106.2C6275.05 2094.6 6277.39 2084.47 6282.05 2075.8C6286.85 2067.13 6293.45 2060.47 6301.85 2055.8C6310.39 2051.13 6320.12 2048.8 6331.05 2048.8C6345.05 2048.8 6356.72 2052.47 6366.05 2059.8C6375.52 2067.13 6381.72 2077.47 6384.65 2090.8H6348.25C6345.19 2082.27 6339.25 2078 6330.45 2078C6324.19 2078 6319.19 2080.47 6315.45 2085.4C6311.72 2090.2 6309.85 2097.13 6309.85 2106.2C6309.85 2115.27 6311.72 2122.27 6315.45 2127.2C6319.19 2132 6324.19 2134.4 6330.45 2134.4C6339.25 2134.4 6345.19 2130.13 6348.25 2121.6H6384.65C6381.72 2134.67 6375.52 2144.93 6366.05 2152.4C6356.59 2159.87 6344.92 2163.6 6331.05 2163.6C6320.12 2163.6 6310.39 2161.27 6301.85 2156.6C6293.45 2151.93 6286.85 2145.27 6282.05 2136.6C6277.39 2127.93 6275.05 2117.8 6275.05 2106.2ZM6471.15 2162L6437.15 2115.2V2162H6402.95V2014H6437.15V2095.8L6470.95 2050.4H6513.15L6466.75 2106.4L6513.55 2162H6471.15ZM6631.78 2104.4C6631.78 2107.6 6631.58 2110.93 6631.18 2114.4H6553.78C6554.31 2121.33 6556.51 2126.67 6560.38 2130.4C6564.38 2134 6569.25 2135.8 6574.98 2135.8C6583.51 2135.8 6589.45 2132.2 6592.78 2125H6629.18C6627.31 2132.33 6623.91 2138.93 6618.98 2144.8C6614.18 2150.67 6608.11 2155.27 6600.78 2158.6C6593.45 2161.93 6585.25 2163.6 6576.18 2163.6C6565.25 2163.6 6555.51 2161.27 6546.98 2156.6C6538.45 2151.93 6531.78 2145.27 6526.98 2136.6C6522.18 2127.93 6519.78 2117.8 6519.78 2106.2C6519.78 2094.6 6522.11 2084.47 6526.78 2075.8C6531.58 2067.13 6538.25 2060.47 6546.78 2055.8C6555.31 2051.13 6565.11 2048.8 6576.18 2048.8C6586.98 2048.8 6596.58 2051.07 6604.98 2055.6C6613.38 2060.13 6619.91 2066.6 6624.58 2075C6629.38 2083.4 6631.78 2093.2 6631.78 2104.4ZM6596.78 2095.4C6596.78 2089.53 6594.78 2084.87 6590.78 2081.4C6586.78 2077.93 6581.78 2076.2 6575.78 2076.2C6570.05 2076.2 6565.18 2077.87 6561.18 2081.2C6557.31 2084.53 6554.91 2089.27 6553.98 2095.4H6596.78ZM6684.02 2069C6688.02 2062.87 6693.02 2058.07 6699.02 2054.6C6705.02 2051 6711.69 2049.2 6719.02 2049.2V2085.4H6709.62C6701.09 2085.4 6694.69 2087.27 6690.42 2091C6686.16 2094.6 6684.02 2101 6684.02 2110.2V2162H6649.82V2050.4H6684.02V2069Z" fill="white"/>
<path d="M10982.4 1766.8C10982.4 1774.93 10980.5 1782.4 10976.8 1789.2C10973.1 1795.87 10967.3 1801.27 10959.6 1805.4C10951.9 1809.53 10942.3 1811.6 10930.8 1811.6H10909.6V1862H10875.4V1721.6H10930.8C10942 1721.6 10951.5 1723.53 10959.2 1727.4C10966.9 1731.27 10972.7 1736.6 10976.6 1743.4C10980.5 1750.2 10982.4 1758 10982.4 1766.8ZM10928.2 1784.4C10934.7 1784.4 10939.6 1782.87 10942.8 1779.8C10946 1776.73 10947.6 1772.4 10947.6 1766.8C10947.6 1761.2 10946 1756.87 10942.8 1753.8C10939.6 1750.73 10934.7 1749.2 10928.2 1749.2H10909.6V1784.4H10928.2ZM11110.4 1750.4V1862H11076.2V1846.8C11072.7 1851.73 11068 1855.73 11062 1858.8C11056.1 1861.73 11049.6 1863.2 11042.4 1863.2C11033.9 1863.2 11026.3 1861.33 11019.8 1857.6C11013.3 1853.73 11008.2 1848.2 11004.6 1841C11001 1833.8 10999.2 1825.33 10999.2 1815.6V1750.4H11033.2V1811C11033.2 1818.47 11035.1 1824.27 11039 1828.4C11042.9 1832.53 11048.1 1834.6 11054.6 1834.6C11061.3 1834.6 11066.5 1832.53 11070.4 1828.4C11074.3 1824.27 11076.2 1818.47 11076.2 1811V1750.4H11110.4ZM11180.4 1863.6C11170.6 1863.6 11162 1861.93 11154.4 1858.6C11146.8 1855.27 11140.8 1850.73 11136.4 1845C11132 1839.13 11129.5 1832.6 11129 1825.4H11162.8C11163.2 1829.27 11165 1832.4 11168.2 1834.8C11171.4 1837.2 11175.3 1838.4 11180 1838.4C11184.2 1838.4 11187.5 1837.6 11189.8 1836C11192.2 1834.27 11193.4 1832.07 11193.4 1829.4C11193.4 1826.2 11191.7 1823.87 11188.4 1822.4C11185 1820.8 11179.6 1819.07 11172.2 1817.2C11164.2 1815.33 11157.5 1813.4 11152.2 1811.4C11146.8 1809.27 11142.2 1806 11138.4 1801.6C11134.5 1797.07 11132.6 1791 11132.6 1783.4C11132.6 1777 11134.3 1771.2 11137.8 1766C11141.4 1760.67 11146.6 1756.47 11153.4 1753.4C11160.3 1750.33 11168.5 1748.8 11178 1748.8C11192 1748.8 11203 1752.27 11211 1759.2C11219.1 1766.13 11223.8 1775.33 11225 1786.8H11193.4C11192.8 1782.93 11191.1 1779.87 11188.2 1777.6C11185.4 1775.33 11181.6 1774.2 11177 1774.2C11173 1774.2 11169.9 1775 11167.8 1776.6C11165.6 1778.07 11164.6 1780.13 11164.6 1782.8C11164.6 1786 11166.2 1788.4 11169.6 1790C11173 1791.6 11178.4 1793.2 11185.6 1794.8C11193.8 1796.93 11200.6 1799.07 11205.8 1801.2C11211 1803.2 11215.5 1806.53 11219.4 1811.2C11223.4 1815.73 11225.4 1821.87 11225.6 1829.6C11225.6 1836.13 11223.7 1842 11220 1847.2C11216.4 1852.27 11211.1 1856.27 11204.2 1859.2C11197.4 1862.13 11189.4 1863.6 11180.4 1863.6ZM11315.1 1749.2C11327.9 1749.2 11338.2 1753.47 11345.9 1762C11353.6 1770.4 11357.5 1782 11357.5 1796.8V1862H11323.5V1801.4C11323.5 1793.93 11321.6 1788.13 11317.7 1784C11313.8 1779.87 11308.6 1777.8 11302.1 1777.8C11295.6 1777.8 11290.4 1779.87 11286.5 1784C11282.6 1788.13 11280.7 1793.93 11280.7 1801.4V1862H11246.5V1714H11280.7V1765.4C11284.2 1760.47 11288.9 1756.53 11294.9 1753.6C11300.9 1750.67 11307.6 1749.2 11315.1 1749.2ZM11001 2162H10966.8L10909.6 2075.4V2162H10875.4V2021.6H10909.6L10966.8 2108.6V2021.6H11001V2162ZM11076.6 2163.6C11065.7 2163.6 11055.8 2161.27 11047 2156.6C11038.3 2151.93 11031.5 2145.27 11026.4 2136.6C11021.5 2127.93 11019 2117.8 11019 2106.2C11019 2094.73 11021.5 2084.67 11026.6 2076C11031.7 2067.2 11038.6 2060.47 11047.4 2055.8C11056.2 2051.13 11066.1 2048.8 11077 2048.8C11087.9 2048.8 11097.8 2051.13 11106.6 2055.8C11115.4 2060.47 11122.3 2067.2 11127.4 2076C11132.5 2084.67 11135 2094.73 11135 2106.2C11135 2117.67 11132.4 2127.8 11127.2 2136.6C11122.1 2145.27 11115.1 2151.93 11106.2 2156.6C11097.4 2161.27 11087.5 2163.6 11076.6 2163.6ZM11076.6 2134C11083.1 2134 11088.7 2131.6 11093.2 2126.8C11097.9 2122 11100.2 2115.13 11100.2 2106.2C11100.2 2097.27 11097.9 2090.4 11093.4 2085.6C11089 2080.8 11083.5 2078.4 11077 2078.4C11070.3 2078.4 11064.8 2080.8 11060.4 2085.6C11056 2090.27 11053.8 2097.13 11053.8 2106.2C11053.8 2115.13 11055.9 2122 11060.2 2126.8C11064.6 2131.6 11070.1 2134 11076.6 2134ZM11215.3 2133V2162H11197.9C11185.5 2162 11175.9 2159 11168.9 2153C11162 2146.87 11158.5 2136.93 11158.5 2123.2V2078.8H11144.9V2050.4H11158.5V2023.2H11192.7V2050.4H11215.1V2078.8H11192.7V2123.6C11192.7 2126.93 11193.5 2129.33 11195.1 2130.8C11196.7 2132.27 11199.4 2133 11203.1 2133H11215.3ZM11251.6 2038.8C11245.6 2038.8 11240.7 2037.07 11236.8 2033.6C11233.1 2030 11231.2 2025.6 11231.2 2020.4C11231.2 2015.07 11233.1 2010.67 11236.8 2007.2C11240.7 2003.6 11245.6 2001.8 11251.6 2001.8C11257.5 2001.8 11262.3 2003.6 11266 2007.2C11269.9 2010.67 11271.8 2015.07 11271.8 2020.4C11271.8 2025.6 11269.9 2030 11266 2033.6C11262.3 2037.07 11257.5 2038.8 11251.6 2038.8ZM11268.6 2050.4V2162H11234.4V2050.4H11268.6ZM11349.4 2078.8H11331V2162H11296.8V2078.8H11284.4V2050.4H11296.8V2047.2C11296.8 2033.47 11300.7 2023.07 11308.6 2016C11316.4 2008.8 11328 2005.2 11343.2 2005.2C11345.7 2005.2 11347.6 2005.27 11348.8 2005.4V2034.4C11342.2 2034 11337.6 2034.93 11335 2037.2C11332.3 2039.47 11331 2043.53 11331 2049.4V2050.4H11349.4V2078.8ZM11382.6 2038.8C11376.6 2038.8 11371.7 2037.07 11367.8 2033.6C11364.1 2030 11362.2 2025.6 11362.2 2020.4C11362.2 2015.07 11364.1 2010.67 11367.8 2007.2C11371.7 2003.6 11376.6 2001.8 11382.6 2001.8C11388.5 2001.8 11393.3 2003.6 11397 2007.2C11400.9 2010.67 11402.8 2015.07 11402.8 2020.4C11402.8 2025.6 11400.9 2030 11397 2033.6C11393.3 2037.07 11388.5 2038.8 11382.6 2038.8ZM11399.6 2050.4V2162H11365.4V2050.4H11399.6ZM11417.6 2106.2C11417.6 2094.6 11420 2084.47 11424.6 2075.8C11429.4 2067.13 11436 2060.47 11444.4 2055.8C11453 2051.13 11462.7 2048.8 11473.6 2048.8C11487.6 2048.8 11499.3 2052.47 11508.6 2059.8C11518.1 2067.13 11524.3 2077.47 11527.2 2090.8H11490.8C11487.8 2082.27 11481.8 2078 11473 2078C11466.8 2078 11461.8 2080.47 11458 2085.4C11454.3 2090.2 11452.4 2097.13 11452.4 2106.2C11452.4 2115.27 11454.3 2122.27 11458 2127.2C11461.8 2132 11466.8 2134.4 11473 2134.4C11481.8 2134.4 11487.8 2130.13 11490.8 2121.6H11527.2C11524.3 2134.67 11518.1 2144.93 11508.6 2152.4C11499.2 2159.87 11487.5 2163.6 11473.6 2163.6C11462.7 2163.6 11453 2161.27 11444.4 2156.6C11436 2151.93 11429.4 2145.27 11424.6 2136.6C11420 2127.93 11417.6 2117.8 11417.6 2106.2ZM11538.7 2106C11538.7 2094.53 11540.9 2084.47 11545.1 2075.8C11549.5 2067.13 11555.5 2060.47 11562.9 2055.8C11570.4 2051.13 11578.7 2048.8 11587.9 2048.8C11595.8 2048.8 11602.7 2050.4 11608.5 2053.6C11614.5 2056.8 11619.1 2061 11622.3 2066.2V2050.4H11656.5V2162H11622.3V2146.2C11619 2151.4 11614.3 2155.6 11608.3 2158.8C11602.5 2162 11595.6 2163.6 11587.7 2163.6C11578.7 2163.6 11570.4 2161.27 11562.9 2156.6C11555.5 2151.8 11549.5 2145.07 11545.1 2136.4C11540.9 2127.6 11538.7 2117.47 11538.7 2106ZM11622.3 2106.2C11622.3 2097.67 11619.9 2090.93 11615.1 2086C11610.5 2081.07 11604.7 2078.6 11597.9 2078.6C11591.1 2078.6 11585.3 2081.07 11580.5 2086C11575.9 2090.8 11573.5 2097.47 11573.5 2106C11573.5 2114.53 11575.9 2121.33 11580.5 2126.4C11585.3 2131.33 11591.1 2133.8 11597.9 2133.8C11604.7 2133.8 11610.5 2131.33 11615.1 2126.4C11619.9 2121.47 11622.3 2114.73 11622.3 2106.2ZM11743.5 2133V2162H11726.1C11713.7 2162 11704 2159 11697.1 2153C11690.1 2146.87 11686.7 2136.93 11686.7 2123.2V2078.8H11673.1V2050.4H11686.7V2023.2H11720.9V2050.4H11743.3V2078.8H11720.9V2123.6C11720.9 2126.93 11721.7 2129.33 11723.3 2130.8C11724.9 2132.27 11727.5 2133 11731.3 2133H11743.5ZM11779.7 2038.8C11773.7 2038.8 11768.8 2037.07 11764.9 2033.6C11761.2 2030 11759.3 2025.6 11759.3 2020.4C11759.3 2015.07 11761.2 2010.67 11764.9 2007.2C11768.8 2003.6 11773.7 2001.8 11779.7 2001.8C11785.6 2001.8 11790.4 2003.6 11794.1 2007.2C11798 2010.67 11799.9 2015.07 11799.9 2020.4C11799.9 2025.6 11798 2030 11794.1 2033.6C11790.4 2037.07 11785.6 2038.8 11779.7 2038.8ZM11796.7 2050.4V2162H11762.5V2050.4H11796.7ZM11872.3 2163.6C11861.4 2163.6 11851.5 2161.27 11842.7 2156.6C11834 2151.93 11827.2 2145.27 11822.1 2136.6C11817.2 2127.93 11814.7 2117.8 11814.7 2106.2C11814.7 2094.73 11817.2 2084.67 11822.3 2076C11827.4 2067.2 11834.3 2060.47 11843.1 2055.8C11851.9 2051.13 11861.8 2048.8 11872.7 2048.8C11883.6 2048.8 11893.5 2051.13 11902.3 2055.8C11911.1 2060.47 11918 2067.2 11923.1 2076C11928.2 2084.67 11930.7 2094.73 11930.7 2106.2C11930.7 2117.67 11928.1 2127.8 11922.9 2136.6C11917.8 2145.27 11910.8 2151.93 11901.9 2156.6C11893.1 2161.27 11883.2 2163.6 11872.3 2163.6ZM11872.3 2134C11878.8 2134 11884.4 2131.6 11888.9 2126.8C11893.6 2122 11895.9 2115.13 11895.9 2106.2C11895.9 2097.27 11893.6 2090.4 11889.1 2085.6C11884.7 2080.8 11879.2 2078.4 11872.7 2078.4C11866 2078.4 11860.5 2080.8 11856.1 2085.6C11851.7 2090.27 11849.5 2097.13 11849.5 2106.2C11849.5 2115.13 11851.6 2122 11855.9 2126.8C11860.3 2131.6 11865.8 2134 11872.3 2134ZM12016.8 2049.2C12029.9 2049.2 12040.3 2053.47 12048 2062C12055.9 2070.4 12059.8 2082 12059.8 2096.8V2162H12025.8V2101.4C12025.8 2093.93 12023.9 2088.13 12020 2084C12016.2 2079.87 12011 2077.8 12004.4 2077.8C11997.9 2077.8 11992.7 2079.87 11988.8 2084C11985 2088.13 11983 2093.93 11983 2101.4V2162H11948.8V2050.4H11983V2065.2C11986.5 2060.27 11991.2 2056.4 11997 2053.6C12002.9 2050.67 12009.5 2049.2 12016.8 2049.2ZM12129 2163.6C12119.3 2163.6 12110.6 2161.93 12103 2158.6C12095.4 2155.27 12089.4 2150.73 12085 2145C12080.6 2139.13 12078.1 2132.6 12077.6 2125.4H12111.4C12111.8 2129.27 12113.6 2132.4 12116.8 2134.8C12120 2137.2 12123.9 2138.4 12128.6 2138.4C12132.9 2138.4 12136.1 2137.6 12138.4 2136C12140.8 2134.27 12142 2132.07 12142 2129.4C12142 2126.2 12140.3 2123.87 12137 2122.4C12133.7 2120.8 12128.3 2119.07 12120.8 2117.2C12112.8 2115.33 12106.1 2113.4 12100.8 2111.4C12095.5 2109.27 12090.9 2106 12087 2101.6C12083.1 2097.07 12081.2 2091 12081.2 2083.4C12081.2 2077 12082.9 2071.2 12086.4 2066C12090 2060.67 12095.2 2056.47 12102 2053.4C12108.9 2050.33 12117.1 2048.8 12126.6 2048.8C12140.6 2048.8 12151.6 2052.27 12159.6 2059.2C12167.7 2066.13 12172.4 2075.33 12173.6 2086.8H12142C12141.5 2082.93 12139.7 2079.87 12136.8 2077.6C12134 2075.33 12130.3 2074.2 12125.6 2074.2C12121.6 2074.2 12118.5 2075 12116.4 2076.6C12114.3 2078.07 12113.2 2080.13 12113.2 2082.8C12113.2 2086 12114.9 2088.4 12118.2 2090C12121.7 2091.6 12127 2093.2 12134.2 2094.8C12142.5 2096.93 12149.2 2099.07 12154.4 2101.2C12159.6 2103.2 12164.1 2106.53 12168 2111.2C12172 2115.73 12174.1 2121.87 12174.2 2129.6C12174.2 2136.13 12172.3 2142 12168.6 2147.2C12165 2152.27 12159.7 2156.27 12152.8 2159.2C12146 2162.13 12138.1 2163.6 12129 2163.6Z" fill="white"/>
<path d="M8488.6 1835.6H8533.4V1862H8454.4V1721.6H8488.6V1835.6ZM8654.91 1804.4C8654.91 1807.6 8654.71 1810.93 8654.31 1814.4H8576.91C8577.45 1821.33 8579.65 1826.67 8583.51 1830.4C8587.51 1834 8592.38 1835.8 8598.11 1835.8C8606.65 1835.8 8612.58 1832.2 8615.91 1825H8652.31C8650.45 1832.33 8647.05 1838.93 8642.11 1844.8C8637.31 1850.67 8631.25 1855.27 8623.91 1858.6C8616.58 1861.93 8608.38 1863.6 8599.31 1863.6C8588.38 1863.6 8578.65 1861.27 8570.11 1856.6C8561.58 1851.93 8554.91 1845.27 8550.11 1836.6C8545.31 1827.93 8542.91 1817.8 8542.91 1806.2C8542.91 1794.6 8545.25 1784.47 8549.91 1775.8C8554.71 1767.13 8561.38 1760.47 8569.91 1755.8C8578.45 1751.13 8588.25 1748.8 8599.31 1748.8C8610.11 1748.8 8619.71 1751.07 8628.11 1755.6C8636.51 1760.13 8643.05 1766.6 8647.71 1775C8652.51 1783.4 8654.91 1793.2 8654.91 1804.4ZM8619.91 1795.4C8619.91 1789.53 8617.91 1784.87 8613.91 1781.4C8609.91 1777.93 8604.91 1776.2 8598.91 1776.2C8593.18 1776.2 8588.31 1777.87 8584.31 1781.2C8580.45 1784.53 8578.05 1789.27 8577.11 1795.4H8619.91ZM8718.35 1863.6C8708.62 1863.6 8699.95 1861.93 8692.35 1858.6C8684.75 1855.27 8678.75 1850.73 8674.35 1845C8669.95 1839.13 8667.49 1832.6 8666.95 1825.4H8700.75C8701.15 1829.27 8702.95 1832.4 8706.15 1834.8C8709.35 1837.2 8713.29 1838.4 8717.95 1838.4C8722.22 1838.4 8725.49 1837.6 8727.75 1836C8730.15 1834.27 8731.35 1832.07 8731.35 1829.4C8731.35 1826.2 8729.69 1823.87 8726.35 1822.4C8723.02 1820.8 8717.62 1819.07 8710.15 1817.2C8702.15 1815.33 8695.49 1813.4 8690.15 1811.4C8684.82 1809.27 8680.22 1806 8676.35 1801.6C8672.49 1797.07 8670.55 1791 8670.55 1783.4C8670.55 1777 8672.29 1771.2 8675.75 1766C8679.35 1760.67 8684.55 1756.47 8691.35 1753.4C8698.29 1750.33 8706.49 1748.8 8715.95 1748.8C8729.95 1748.8 8740.95 1752.27 8748.95 1759.2C8757.09 1766.13 8761.75 1775.33 8762.95 1786.8H8731.35C8730.82 1782.93 8729.09 1779.87 8726.15 1777.6C8723.35 1775.33 8719.62 1774.2 8714.95 1774.2C8710.95 1774.2 8707.89 1775 8705.75 1776.6C8703.62 1778.07 8702.55 1780.13 8702.55 1782.8C8702.55 1786 8704.22 1788.4 8707.55 1790C8711.02 1791.6 8716.35 1793.2 8723.55 1794.8C8731.82 1796.93 8738.55 1799.07 8743.75 1801.2C8748.95 1803.2 8753.49 1806.53 8757.35 1811.2C8761.35 1815.73 8763.42 1821.87 8763.55 1829.6C8763.55 1836.13 8761.69 1842 8757.95 1847.2C8754.35 1852.27 8749.09 1856.27 8742.15 1859.2C8735.35 1862.13 8727.42 1863.6 8718.35 1863.6ZM8829.88 1863.6C8820.14 1863.6 8811.48 1861.93 8803.88 1858.6C8796.28 1855.27 8790.28 1850.73 8785.88 1845C8781.48 1839.13 8779.01 1832.6 8778.48 1825.4H8812.28C8812.68 1829.27 8814.48 1832.4 8817.68 1834.8C8820.88 1837.2 8824.81 1838.4 8829.48 1838.4C8833.74 1838.4 8837.01 1837.6 8839.28 1836C8841.68 1834.27 8842.88 1832.07 8842.88 1829.4C8842.88 1826.2 8841.21 1823.87 8837.88 1822.4C8834.54 1820.8 8829.14 1819.07 8821.68 1817.2C8813.68 1815.33 8807.01 1813.4 8801.68 1811.4C8796.34 1809.27 8791.74 1806 8787.88 1801.6C8784.01 1797.07 8782.08 1791 8782.08 1783.4C8782.08 1777 8783.81 1771.2 8787.28 1766C8790.88 1760.67 8796.08 1756.47 8802.88 1753.4C8809.81 1750.33 8818.01 1748.8 8827.48 1748.8C8841.48 1748.8 8852.48 1752.27 8860.48 1759.2C8868.61 1766.13 8873.28 1775.33 8874.48 1786.8H8842.88C8842.34 1782.93 8840.61 1779.87 8837.68 1777.6C8834.88 1775.33 8831.14 1774.2 8826.48 1774.2C8822.48 1774.2 8819.41 1775 8817.28 1776.6C8815.14 1778.07 8814.08 1780.13 8814.08 1782.8C8814.08 1786 8815.74 1788.4 8819.08 1790C8822.54 1791.6 8827.88 1793.2 8835.08 1794.8C8843.34 1796.93 8850.08 1799.07 8855.28 1801.2C8860.48 1803.2 8865.01 1806.53 8868.88 1811.2C8872.88 1815.73 8874.94 1821.87 8875.08 1829.6C8875.08 1836.13 8873.21 1842 8869.48 1847.2C8865.88 1852.27 8860.61 1856.27 8853.68 1859.2C8846.88 1862.13 8838.94 1863.6 8829.88 1863.6ZM8946.8 1863.6C8935.87 1863.6 8926 1861.27 8917.2 1856.6C8908.53 1851.93 8901.67 1845.27 8896.6 1836.6C8891.67 1827.93 8889.2 1817.8 8889.2 1806.2C8889.2 1794.73 8891.73 1784.67 8896.8 1776C8901.87 1767.2 8908.8 1760.47 8917.6 1755.8C8926.4 1751.13 8936.27 1748.8 8947.2 1748.8C8958.13 1748.8 8968 1751.13 8976.8 1755.8C8985.6 1760.47 8992.53 1767.2 8997.6 1776C9002.67 1784.67 9005.2 1794.73 9005.2 1806.2C9005.2 1817.67 9002.6 1827.8 8997.4 1836.6C8992.33 1845.27 8985.33 1851.93 8976.4 1856.6C8967.6 1861.27 8957.73 1863.6 8946.8 1863.6ZM8946.8 1834C8953.33 1834 8958.87 1831.6 8963.4 1826.8C8968.07 1822 8970.4 1815.13 8970.4 1806.2C8970.4 1797.27 8968.13 1790.4 8963.6 1785.6C8959.2 1780.8 8953.73 1778.4 8947.2 1778.4C8940.53 1778.4 8935 1780.8 8930.6 1785.6C8926.2 1790.27 8924 1797.13 8924 1806.2C8924 1815.13 8926.13 1822 8930.4 1826.8C8934.8 1831.6 8940.27 1834 8946.8 1834ZM9091.35 1749.2C9104.41 1749.2 9114.81 1753.47 9122.55 1762C9130.41 1770.4 9134.35 1782 9134.35 1796.8V1862H9100.35V1801.4C9100.35 1793.93 9098.41 1788.13 9094.55 1784C9090.68 1779.87 9085.48 1777.8 9078.95 1777.8C9072.41 1777.8 9067.21 1779.87 9063.35 1784C9059.48 1788.13 9057.55 1793.93 9057.55 1801.4V1862H9023.35V1750.4H9057.55V1765.2C9061.01 1760.27 9065.68 1756.4 9071.55 1753.6C9077.41 1750.67 9084.01 1749.2 9091.35 1749.2ZM8561.4 2066.8C8561.4 2074.93 8559.53 2082.4 8555.8 2089.2C8552.07 2095.87 8546.33 2101.27 8538.6 2105.4C8530.87 2109.53 8521.27 2111.6 8509.8 2111.6H8488.6V2162H8454.4V2021.6H8509.8C8521 2021.6 8530.47 2023.53 8538.2 2027.4C8545.93 2031.27 8551.73 2036.6 8555.6 2043.4C8559.47 2050.2 8561.4 2058 8561.4 2066.8ZM8507.2 2084.4C8513.73 2084.4 8518.6 2082.87 8521.8 2079.8C8525 2076.73 8526.6 2072.4 8526.6 2066.8C8526.6 2061.2 8525 2056.87 8521.8 2053.8C8518.6 2050.73 8513.73 2049.2 8507.2 2049.2H8488.6V2084.4H8507.2ZM8613.4 2069C8617.4 2062.87 8622.4 2058.07 8628.4 2054.6C8634.4 2051 8641.07 2049.2 8648.4 2049.2V2085.4H8639C8630.47 2085.4 8624.07 2087.27 8619.8 2091C8615.54 2094.6 8613.4 2101 8613.4 2110.2V2162H8579.2V2050.4H8613.4V2069ZM8715.55 2163.6C8704.62 2163.6 8694.75 2161.27 8685.95 2156.6C8677.28 2151.93 8670.42 2145.27 8665.35 2136.6C8660.42 2127.93 8657.95 2117.8 8657.95 2106.2C8657.95 2094.73 8660.48 2084.67 8665.55 2076C8670.62 2067.2 8677.55 2060.47 8686.35 2055.8C8695.15 2051.13 8705.02 2048.8 8715.95 2048.8C8726.88 2048.8 8736.75 2051.13 8745.55 2055.8C8754.35 2060.47 8761.28 2067.2 8766.35 2076C8771.42 2084.67 8773.95 2094.73 8773.95 2106.2C8773.95 2117.67 8771.35 2127.8 8766.15 2136.6C8761.08 2145.27 8754.08 2151.93 8745.15 2156.6C8736.35 2161.27 8726.48 2163.6 8715.55 2163.6ZM8715.55 2134C8722.08 2134 8727.62 2131.6 8732.15 2126.8C8736.82 2122 8739.15 2115.13 8739.15 2106.2C8739.15 2097.27 8736.88 2090.4 8732.35 2085.6C8727.95 2080.8 8722.48 2078.4 8715.95 2078.4C8709.28 2078.4 8703.75 2080.8 8699.35 2085.6C8694.95 2090.27 8692.75 2097.13 8692.75 2106.2C8692.75 2115.13 8694.88 2122 8699.15 2126.8C8703.55 2131.6 8709.02 2134 8715.55 2134ZM8834.5 2048.8C8842.36 2048.8 8849.23 2050.4 8855.1 2053.6C8861.1 2056.8 8865.7 2061 8868.9 2066.2V2050.4H8903.1V2161.8C8903.1 2172.07 8901.03 2181.33 8896.9 2189.6C8892.9 2198 8886.7 2204.67 8878.3 2209.6C8870.03 2214.53 8859.7 2217 8847.3 2217C8830.76 2217 8817.36 2213.07 8807.1 2205.2C8796.83 2197.47 8790.96 2186.93 8789.5 2173.6H8823.3C8824.36 2177.87 8826.9 2181.2 8830.9 2183.6C8834.9 2186.13 8839.83 2187.4 8845.7 2187.4C8852.76 2187.4 8858.36 2185.33 8862.5 2181.2C8866.76 2177.2 8868.9 2170.73 8868.9 2161.8V2146C8865.56 2151.2 8860.96 2155.47 8855.1 2158.8C8849.23 2162 8842.36 2163.6 8834.5 2163.6C8825.3 2163.6 8816.96 2161.27 8809.5 2156.6C8802.03 2151.8 8796.1 2145.07 8791.7 2136.4C8787.43 2127.6 8785.3 2117.47 8785.3 2106C8785.3 2094.53 8787.43 2084.47 8791.7 2075.8C8796.1 2067.13 8802.03 2060.47 8809.5 2055.8C8816.96 2051.13 8825.3 2048.8 8834.5 2048.8ZM8868.9 2106.2C8868.9 2097.67 8866.5 2090.93 8861.7 2086C8857.03 2081.07 8851.3 2078.6 8844.5 2078.6C8837.7 2078.6 8831.9 2081.07 8827.1 2086C8822.43 2090.8 8820.1 2097.47 8820.1 2106C8820.1 2114.53 8822.43 2121.33 8827.1 2126.4C8831.9 2131.33 8837.7 2133.8 8844.5 2133.8C8851.3 2133.8 8857.03 2131.33 8861.7 2126.4C8866.5 2121.47 8868.9 2114.73 8868.9 2106.2ZM8962.04 2069C8966.04 2062.87 8971.04 2058.07 8977.04 2054.6C8983.04 2051 8989.7 2049.2 8997.04 2049.2V2085.4H8987.64C8979.1 2085.4 8972.7 2087.27 8968.44 2091C8964.17 2094.6 8962.04 2101 8962.04 2110.2V2162H8927.84V2050.4H8962.04V2069ZM9118.58 2104.4C9118.58 2107.6 9118.38 2110.93 9117.98 2114.4H9040.58C9041.12 2121.33 9043.32 2126.67 9047.18 2130.4C9051.18 2134 9056.05 2135.8 9061.78 2135.8C9070.32 2135.8 9076.25 2132.2 9079.58 2125H9115.98C9114.12 2132.33 9110.72 2138.93 9105.78 2144.8C9100.98 2150.67 9094.92 2155.27 9087.58 2158.6C9080.25 2161.93 9072.05 2163.6 9062.98 2163.6C9052.05 2163.6 9042.32 2161.27 9033.78 2156.6C9025.25 2151.93 9018.58 2145.27 9013.78 2136.6C9008.98 2127.93 9006.58 2117.8 9006.58 2106.2C9006.58 2094.6 9008.92 2084.47 9013.58 2075.8C9018.38 2067.13 9025.05 2060.47 9033.58 2055.8C9042.12 2051.13 9051.92 2048.8 9062.98 2048.8C9073.78 2048.8 9083.38 2051.07 9091.78 2055.6C9100.18 2060.13 9106.72 2066.6 9111.38 2075C9116.18 2083.4 9118.58 2093.2 9118.58 2104.4ZM9083.58 2095.4C9083.58 2089.53 9081.58 2084.87 9077.58 2081.4C9073.58 2077.93 9068.58 2076.2 9062.58 2076.2C9056.85 2076.2 9051.98 2077.87 9047.98 2081.2C9044.12 2084.53 9041.72 2089.27 9040.78 2095.4H9083.58ZM9182.03 2163.6C9172.29 2163.6 9163.63 2161.93 9156.03 2158.6C9148.43 2155.27 9142.43 2150.73 9138.03 2145C9133.63 2139.13 9131.16 2132.6 9130.63 2125.4H9164.43C9164.83 2129.27 9166.63 2132.4 9169.83 2134.8C9173.03 2137.2 9176.96 2138.4 9181.63 2138.4C9185.89 2138.4 9189.16 2137.6 9191.43 2136C9193.83 2134.27 9195.03 2132.07 9195.03 2129.4C9195.03 2126.2 9193.36 2123.87 9190.03 2122.4C9186.69 2120.8 9181.29 2119.07 9173.83 2117.2C9165.83 2115.33 9159.16 2113.4 9153.83 2111.4C9148.49 2109.27 9143.89 2106 9140.03 2101.6C9136.16 2097.07 9134.23 2091 9134.23 2083.4C9134.23 2077 9135.96 2071.2 9139.43 2066C9143.03 2060.67 9148.23 2056.47 9155.03 2053.4C9161.96 2050.33 9170.16 2048.8 9179.63 2048.8C9193.63 2048.8 9204.63 2052.27 9212.63 2059.2C9220.76 2066.13 9225.43 2075.33 9226.63 2086.8H9195.03C9194.49 2082.93 9192.76 2079.87 9189.83 2077.6C9187.03 2075.33 9183.29 2074.2 9178.63 2074.2C9174.63 2074.2 9171.56 2075 9169.43 2076.6C9167.29 2078.07 9166.23 2080.13 9166.23 2082.8C9166.23 2086 9167.89 2088.4 9171.23 2090C9174.69 2091.6 9180.03 2093.2 9187.23 2094.8C9195.49 2096.93 9202.23 2099.07 9207.43 2101.2C9212.63 2103.2 9217.16 2106.53 9221.03 2111.2C9225.03 2115.73 9227.09 2121.87 9227.23 2129.6C9227.23 2136.13 9225.36 2142 9221.63 2147.2C9218.03 2152.27 9212.76 2156.27 9205.83 2159.2C9199.03 2162.13 9191.09 2163.6 9182.03 2163.6ZM9293.55 2163.6C9283.82 2163.6 9275.15 2161.93 9267.55 2158.6C9259.95 2155.27 9253.95 2150.73 9249.55 2145C9245.15 2139.13 9242.68 2132.6 9242.15 2125.4H9275.95C9276.35 2129.27 9278.15 2132.4 9281.35 2134.8C9284.55 2137.2 9288.48 2138.4 9293.15 2138.4C9297.42 2138.4 9300.68 2137.6 9302.95 2136C9305.35 2134.27 9306.55 2132.07 9306.55 2129.4C9306.55 2126.2 9304.88 2123.87 9301.55 2122.4C9298.22 2120.8 9292.82 2119.07 9285.35 2117.2C9277.35 2115.33 9270.68 2113.4 9265.35 2111.4C9260.02 2109.27 9255.42 2106 9251.55 2101.6C9247.68 2097.07 9245.75 2091 9245.75 2083.4C9245.75 2077 9247.48 2071.2 9250.95 2066C9254.55 2060.67 9259.75 2056.47 9266.55 2053.4C9273.48 2050.33 9281.68 2048.8 9291.15 2048.8C9305.15 2048.8 9316.15 2052.27 9324.15 2059.2C9332.28 2066.13 9336.95 2075.33 9338.15 2086.8H9306.55C9306.02 2082.93 9304.28 2079.87 9301.35 2077.6C9298.55 2075.33 9294.82 2074.2 9290.15 2074.2C9286.15 2074.2 9283.08 2075 9280.95 2076.6C9278.82 2078.07 9277.75 2080.13 9277.75 2082.8C9277.75 2086 9279.42 2088.4 9282.75 2090C9286.22 2091.6 9291.55 2093.2 9298.75 2094.8C9307.02 2096.93 9313.75 2099.07 9318.95 2101.2C9324.15 2103.2 9328.68 2106.53 9332.55 2111.2C9336.55 2115.73 9338.62 2121.87 9338.75 2129.6C9338.75 2136.13 9336.88 2142 9333.15 2147.2C9329.55 2152.27 9324.28 2156.27 9317.35 2159.2C9310.55 2162.13 9302.62 2163.6 9293.55 2163.6ZM8555.4 2321.6V2349H8518.2V2462H8484V2349H8446.8V2321.6H8555.4ZM8606.76 2369C8610.76 2362.87 8615.76 2358.07 8621.76 2354.6C8627.76 2351 8634.43 2349.2 8641.76 2349.2V2385.4H8632.36C8623.83 2385.4 8617.43 2387.27 8613.16 2391C8608.9 2394.6 8606.76 2401 8606.76 2410.2V2462H8572.56V2350.4H8606.76V2369ZM8651.31 2406C8651.31 2394.53 8653.44 2384.47 8657.71 2375.8C8662.11 2367.13 8668.04 2360.47 8675.51 2355.8C8682.98 2351.13 8691.31 2348.8 8700.51 2348.8C8708.38 2348.8 8715.24 2350.4 8721.11 2353.6C8727.11 2356.8 8731.71 2361 8734.91 2366.2V2350.4H8769.11V2462H8734.91V2446.2C8731.58 2451.4 8726.91 2455.6 8720.91 2458.8C8715.04 2462 8708.18 2463.6 8700.31 2463.6C8691.24 2463.6 8682.98 2461.27 8675.51 2456.6C8668.04 2451.8 8662.11 2445.07 8657.71 2436.4C8653.44 2427.6 8651.31 2417.47 8651.31 2406ZM8734.91 2406.2C8734.91 2397.67 8732.51 2390.93 8727.71 2386C8723.04 2381.07 8717.31 2378.6 8710.51 2378.6C8703.71 2378.6 8697.91 2381.07 8693.11 2386C8688.44 2390.8 8686.11 2397.47 8686.11 2406C8686.11 2414.53 8688.44 2421.33 8693.11 2426.4C8697.91 2431.33 8703.71 2433.8 8710.51 2433.8C8717.31 2433.8 8723.04 2431.33 8727.71 2426.4C8732.51 2421.47 8734.91 2414.73 8734.91 2406.2ZM8787.05 2406.2C8787.05 2394.6 8789.39 2384.47 8794.05 2375.8C8798.85 2367.13 8805.45 2360.47 8813.85 2355.8C8822.39 2351.13 8832.12 2348.8 8843.05 2348.8C8857.05 2348.8 8868.72 2352.47 8878.05 2359.8C8887.52 2367.13 8893.72 2377.47 8896.65 2390.8H8860.25C8857.19 2382.27 8851.25 2378 8842.45 2378C8836.19 2378 8831.19 2380.47 8827.45 2385.4C8823.72 2390.2 8821.85 2397.13 8821.85 2406.2C8821.85 2415.27 8823.72 2422.27 8827.45 2427.2C8831.19 2432 8836.19 2434.4 8842.45 2434.4C8851.25 2434.4 8857.19 2430.13 8860.25 2421.6H8896.65C8893.72 2434.67 8887.52 2444.93 8878.05 2452.4C8868.59 2459.87 8856.92 2463.6 8843.05 2463.6C8832.12 2463.6 8822.39 2461.27 8813.85 2456.6C8805.45 2451.93 8798.85 2445.27 8794.05 2436.6C8789.39 2427.93 8787.05 2417.8 8787.05 2406.2ZM8983.15 2462L8949.15 2415.2V2462H8914.95V2314H8949.15V2395.8L8982.95 2350.4H9025.15L8978.75 2406.4L9025.55 2462H8983.15ZM9143.78 2404.4C9143.78 2407.6 9143.58 2410.93 9143.18 2414.4H9065.78C9066.31 2421.33 9068.51 2426.67 9072.38 2430.4C9076.38 2434 9081.25 2435.8 9086.98 2435.8C9095.51 2435.8 9101.45 2432.2 9104.78 2425H9141.18C9139.31 2432.33 9135.91 2438.93 9130.98 2444.8C9126.18 2450.67 9120.11 2455.27 9112.78 2458.6C9105.45 2461.93 9097.25 2463.6 9088.18 2463.6C9077.25 2463.6 9067.51 2461.27 9058.98 2456.6C9050.45 2451.93 9043.78 2445.27 9038.98 2436.6C9034.18 2427.93 9031.78 2417.8 9031.78 2406.2C9031.78 2394.6 9034.11 2384.47 9038.78 2375.8C9043.58 2367.13 9050.25 2360.47 9058.78 2355.8C9067.31 2351.13 9077.11 2348.8 9088.18 2348.8C9098.98 2348.8 9108.58 2351.07 9116.98 2355.6C9125.38 2360.13 9131.91 2366.6 9136.58 2375C9141.38 2383.4 9143.78 2393.2 9143.78 2404.4ZM9108.78 2395.4C9108.78 2389.53 9106.78 2384.87 9102.78 2381.4C9098.78 2377.93 9093.78 2376.2 9087.78 2376.2C9082.05 2376.2 9077.18 2377.87 9073.18 2381.2C9069.31 2384.53 9066.91 2389.27 9065.98 2395.4H9108.78ZM9196.02 2369C9200.02 2362.87 9205.02 2358.07 9211.02 2354.6C9217.02 2351 9223.69 2349.2 9231.02 2349.2V2385.4H9221.62C9213.09 2385.4 9206.69 2387.27 9202.42 2391C9198.16 2394.6 9196.02 2401 9196.02 2410.2V2462H9161.82V2350.4H9196.02V2369Z" fill="white"/>
<path d="M1196.4 4078.6V4219H1162.2V4134.8L1130.8 4219H1103.2L1071.6 4134.6V4219H1037.4V4078.6H1077.8L1117.2 4175.8L1156.2 4078.6H1196.4ZM1326.19 4161.4C1326.19 4164.6 1325.99 4167.93 1325.59 4171.4H1248.19C1248.73 4178.33 1250.93 4183.67 1254.79 4187.4C1258.79 4191 1263.66 4192.8 1269.39 4192.8C1277.93 4192.8 1283.86 4189.2 1287.19 4182H1323.59C1321.73 4189.33 1318.33 4195.93 1313.39 4201.8C1308.59 4207.67 1302.53 4212.27 1295.19 4215.6C1287.86 4218.93 1279.66 4220.6 1270.59 4220.6C1259.66 4220.6 1249.93 4218.27 1241.39 4213.6C1232.86 4208.93 1226.19 4202.27 1221.39 4193.6C1216.59 4184.93 1214.19 4174.8 1214.19 4163.2C1214.19 4151.6 1216.53 4141.47 1221.19 4132.8C1225.99 4124.13 1232.66 4117.47 1241.19 4112.8C1249.73 4108.13 1259.53 4105.8 1270.59 4105.8C1281.39 4105.8 1290.99 4108.07 1299.39 4112.6C1307.79 4117.13 1314.33 4123.6 1318.99 4132C1323.79 4140.4 1326.19 4150.2 1326.19 4161.4ZM1291.19 4152.4C1291.19 4146.53 1289.19 4141.87 1285.19 4138.4C1281.19 4134.93 1276.19 4133.2 1270.19 4133.2C1264.46 4133.2 1259.59 4134.87 1255.59 4138.2C1251.73 4141.53 1249.33 4146.27 1248.39 4152.4H1291.19ZM1389.64 4220.6C1379.9 4220.6 1371.24 4218.93 1363.64 4215.6C1356.04 4212.27 1350.04 4207.73 1345.64 4202C1341.24 4196.13 1338.77 4189.6 1338.24 4182.4H1372.04C1372.44 4186.27 1374.24 4189.4 1377.44 4191.8C1380.64 4194.2 1384.57 4195.4 1389.24 4195.4C1393.5 4195.4 1396.77 4194.6 1399.04 4193C1401.44 4191.27 1402.64 4189.07 1402.64 4186.4C1402.64 4183.2 1400.97 4180.87 1397.64 4179.4C1394.3 4177.8 1388.9 4176.07 1381.44 4174.2C1373.44 4172.33 1366.77 4170.4 1361.44 4168.4C1356.1 4166.27 1351.5 4163 1347.64 4158.6C1343.77 4154.07 1341.84 4148 1341.84 4140.4C1341.84 4134 1343.57 4128.2 1347.04 4123C1350.64 4117.67 1355.84 4113.47 1362.64 4110.4C1369.57 4107.33 1377.77 4105.8 1387.24 4105.8C1401.24 4105.8 1412.24 4109.27 1420.24 4116.2C1428.37 4123.13 1433.04 4132.33 1434.24 4143.8H1402.64C1402.1 4139.93 1400.37 4136.87 1397.44 4134.6C1394.64 4132.33 1390.9 4131.2 1386.24 4131.2C1382.24 4131.2 1379.17 4132 1377.04 4133.6C1374.9 4135.07 1373.84 4137.13 1373.84 4139.8C1373.84 4143 1375.5 4145.4 1378.84 4147C1382.3 4148.6 1387.64 4150.2 1394.84 4151.8C1403.1 4153.93 1409.84 4156.07 1415.04 4158.2C1420.24 4160.2 1424.77 4163.53 1428.64 4168.2C1432.64 4172.73 1434.7 4178.87 1434.84 4186.6C1434.84 4193.13 1432.97 4199 1429.24 4204.2C1425.64 4209.27 1420.37 4213.27 1413.44 4216.2C1406.64 4219.13 1398.7 4220.6 1389.64 4220.6ZM1501.16 4220.6C1491.43 4220.6 1482.76 4218.93 1475.16 4215.6C1467.56 4212.27 1461.56 4207.73 1457.16 4202C1452.76 4196.13 1450.29 4189.6 1449.76 4182.4H1483.56C1483.96 4186.27 1485.76 4189.4 1488.96 4191.8C1492.16 4194.2 1496.09 4195.4 1500.76 4195.4C1505.03 4195.4 1508.29 4194.6 1510.56 4193C1512.96 4191.27 1514.16 4189.07 1514.16 4186.4C1514.16 4183.2 1512.49 4180.87 1509.16 4179.4C1505.83 4177.8 1500.43 4176.07 1492.96 4174.2C1484.96 4172.33 1478.29 4170.4 1472.96 4168.4C1467.63 4166.27 1463.03 4163 1459.16 4158.6C1455.29 4154.07 1453.36 4148 1453.36 4140.4C1453.36 4134 1455.09 4128.2 1458.56 4123C1462.16 4117.67 1467.36 4113.47 1474.16 4110.4C1481.09 4107.33 1489.29 4105.8 1498.76 4105.8C1512.76 4105.8 1523.76 4109.27 1531.76 4116.2C1539.89 4123.13 1544.56 4132.33 1545.76 4143.8H1514.16C1513.63 4139.93 1511.89 4136.87 1508.96 4134.6C1506.16 4132.33 1502.43 4131.2 1497.76 4131.2C1493.76 4131.2 1490.69 4132 1488.56 4133.6C1486.43 4135.07 1485.36 4137.13 1485.36 4139.8C1485.36 4143 1487.03 4145.4 1490.36 4147C1493.83 4148.6 1499.16 4150.2 1506.36 4151.8C1514.63 4153.93 1521.36 4156.07 1526.56 4158.2C1531.76 4160.2 1536.29 4163.53 1540.16 4168.2C1544.16 4172.73 1546.23 4178.87 1546.36 4186.6C1546.36 4193.13 1544.49 4199 1540.76 4204.2C1537.16 4209.27 1531.89 4213.27 1524.96 4216.2C1518.16 4219.13 1510.23 4220.6 1501.16 4220.6ZM1560.48 4163C1560.48 4151.53 1562.62 4141.47 1566.88 4132.8C1571.28 4124.13 1577.22 4117.47 1584.68 4112.8C1592.15 4108.13 1600.48 4105.8 1609.68 4105.8C1617.55 4105.8 1624.42 4107.4 1630.28 4110.6C1636.28 4113.8 1640.88 4118 1644.08 4123.2V4107.4H1678.28V4219H1644.08V4203.2C1640.75 4208.4 1636.08 4212.6 1630.08 4215.8C1624.22 4219 1617.35 4220.6 1609.48 4220.6C1600.42 4220.6 1592.15 4218.27 1584.68 4213.6C1577.22 4208.8 1571.28 4202.07 1566.88 4193.4C1562.62 4184.6 1560.48 4174.47 1560.48 4163ZM1644.08 4163.2C1644.08 4154.67 1641.68 4147.93 1636.88 4143C1632.22 4138.07 1626.48 4135.6 1619.68 4135.6C1612.88 4135.6 1607.08 4138.07 1602.28 4143C1597.62 4147.8 1595.28 4154.47 1595.28 4163C1595.28 4171.53 1597.62 4178.33 1602.28 4183.4C1607.08 4188.33 1612.88 4190.8 1619.68 4190.8C1626.48 4190.8 1632.22 4188.33 1636.88 4183.4C1641.68 4178.47 1644.08 4171.73 1644.08 4163.2ZM1745.43 4105.8C1753.29 4105.8 1760.16 4107.4 1766.03 4110.6C1772.03 4113.8 1776.63 4118 1779.83 4123.2V4107.4H1814.03V4218.8C1814.03 4229.07 1811.96 4238.33 1807.83 4246.6C1803.83 4255 1797.63 4261.67 1789.23 4266.6C1780.96 4271.53 1770.63 4274 1758.23 4274C1741.69 4274 1728.29 4270.07 1718.03 4262.2C1707.76 4254.47 1701.89 4243.93 1700.43 4230.6H1734.23C1735.29 4234.87 1737.83 4238.2 1741.83 4240.6C1745.83 4243.13 1750.76 4244.4 1756.63 4244.4C1763.69 4244.4 1769.29 4242.33 1773.43 4238.2C1777.69 4234.2 1779.83 4227.73 1779.83 4218.8V4203C1776.49 4208.2 1771.89 4212.47 1766.03 4215.8C1760.16 4219 1753.29 4220.6 1745.43 4220.6C1736.23 4220.6 1727.89 4218.27 1720.43 4213.6C1712.96 4208.8 1707.03 4202.07 1702.63 4193.4C1698.36 4184.6 1696.23 4174.47 1696.23 4163C1696.23 4151.53 1698.36 4141.47 1702.63 4132.8C1707.03 4124.13 1712.96 4117.47 1720.43 4112.8C1727.89 4108.13 1736.23 4105.8 1745.43 4105.8ZM1779.83 4163.2C1779.83 4154.67 1777.43 4147.93 1772.63 4143C1767.96 4138.07 1762.23 4135.6 1755.43 4135.6C1748.63 4135.6 1742.83 4138.07 1738.03 4143C1733.36 4147.8 1731.03 4154.47 1731.03 4163C1731.03 4171.53 1733.36 4178.33 1738.03 4183.4C1742.83 4188.33 1748.63 4190.8 1755.43 4190.8C1762.23 4190.8 1767.96 4188.33 1772.63 4183.4C1777.43 4178.47 1779.83 4171.73 1779.83 4163.2ZM1855.97 4095.8C1849.97 4095.8 1845.03 4094.07 1841.17 4090.6C1837.43 4087 1835.57 4082.6 1835.57 4077.4C1835.57 4072.07 1837.43 4067.67 1841.17 4064.2C1845.03 4060.6 1849.97 4058.8 1855.97 4058.8C1861.83 4058.8 1866.63 4060.6 1870.37 4064.2C1874.23 4067.67 1876.17 4072.07 1876.17 4077.4C1876.17 4082.6 1874.23 4087 1870.37 4090.6C1866.63 4094.07 1861.83 4095.8 1855.97 4095.8ZM1872.97 4107.4V4219H1838.77V4107.4H1872.97ZM1965.75 4106.2C1978.82 4106.2 1989.22 4110.47 1996.95 4119C2004.82 4127.4 2008.75 4139 2008.75 4153.8V4219H1974.75V4158.4C1974.75 4150.93 1972.82 4145.13 1968.95 4141C1965.08 4136.87 1959.88 4134.8 1953.35 4134.8C1946.82 4134.8 1941.62 4136.87 1937.75 4141C1933.88 4145.13 1931.95 4150.93 1931.95 4158.4V4219H1897.75V4107.4H1931.95V4122.2C1935.42 4117.27 1940.08 4113.4 1945.95 4110.6C1951.82 4107.67 1958.42 4106.2 1965.75 4106.2ZM2074.92 4105.8C2082.78 4105.8 2089.65 4107.4 2095.52 4110.6C2101.52 4113.8 2106.12 4118 2109.32 4123.2V4107.4H2143.52V4218.8C2143.52 4229.07 2141.45 4238.33 2137.32 4246.6C2133.32 4255 2127.12 4261.67 2118.72 4266.6C2110.45 4271.53 2100.12 4274 2087.72 4274C2071.18 4274 2057.78 4270.07 2047.52 4262.2C2037.25 4254.47 2031.38 4243.93 2029.92 4230.6H2063.72C2064.78 4234.87 2067.32 4238.2 2071.32 4240.6C2075.32 4243.13 2080.25 4244.4 2086.12 4244.4C2093.18 4244.4 2098.78 4242.33 2102.92 4238.2C2107.18 4234.2 2109.32 4227.73 2109.32 4218.8V4203C2105.98 4208.2 2101.38 4212.47 2095.52 4215.8C2089.65 4219 2082.78 4220.6 2074.92 4220.6C2065.72 4220.6 2057.38 4218.27 2049.92 4213.6C2042.45 4208.8 2036.52 4202.07 2032.12 4193.4C2027.85 4184.6 2025.72 4174.47 2025.72 4163C2025.72 4151.53 2027.85 4141.47 2032.12 4132.8C2036.52 4124.13 2042.45 4117.47 2049.92 4112.8C2057.38 4108.13 2065.72 4105.8 2074.92 4105.8ZM2109.32 4163.2C2109.32 4154.67 2106.92 4147.93 2102.12 4143C2097.45 4138.07 2091.72 4135.6 2084.92 4135.6C2078.12 4135.6 2072.32 4138.07 2067.52 4143C2062.85 4147.8 2060.52 4154.47 2060.52 4163C2060.52 4171.53 2062.85 4178.33 2067.52 4183.4C2072.32 4188.33 2078.12 4190.8 2084.92 4190.8C2091.72 4190.8 2097.45 4188.33 2102.12 4183.4C2106.92 4178.47 2109.32 4171.73 2109.32 4163.2Z" fill="white"/>
<path d="M3468.2 1871.6L3418.4 2012H3375.6L3325.8 1871.6H3362.2L3397 1977.6L3432 1871.6H3468.2ZM3499.69 1888.8C3493.69 1888.8 3488.76 1887.07 3484.89 1883.6C3481.16 1880 3479.29 1875.6 3479.29 1870.4C3479.29 1865.07 3481.16 1860.67 3484.89 1857.2C3488.76 1853.6 3493.69 1851.8 3499.69 1851.8C3505.56 1851.8 3510.36 1853.6 3514.09 1857.2C3517.96 1860.67 3519.89 1865.07 3519.89 1870.4C3519.89 1875.6 3517.96 1880 3514.09 1883.6C3510.36 1887.07 3505.56 1888.8 3499.69 1888.8ZM3516.69 1900.4V2012H3482.49V1900.4H3516.69ZM3534.68 1956C3534.68 1944.53 3536.81 1934.47 3541.08 1925.8C3545.48 1917.13 3551.41 1910.47 3558.88 1905.8C3566.34 1901.13 3574.68 1898.8 3583.88 1898.8C3591.21 1898.8 3597.88 1900.33 3603.88 1903.4C3610.01 1906.47 3614.81 1910.6 3618.28 1915.8V1864H3652.48V2012H3618.28V1996C3615.08 2001.33 3610.48 2005.6 3604.48 2008.8C3598.61 2012 3591.74 2013.6 3583.88 2013.6C3574.68 2013.6 3566.34 2011.27 3558.88 2006.6C3551.41 2001.8 3545.48 1995.07 3541.08 1986.4C3536.81 1977.6 3534.68 1967.47 3534.68 1956ZM3618.28 1956.2C3618.28 1947.67 3615.88 1940.93 3611.08 1936C3606.41 1931.07 3600.68 1928.6 3593.88 1928.6C3587.08 1928.6 3581.28 1931.07 3576.48 1936C3571.81 1940.8 3569.48 1947.47 3569.48 1956C3569.48 1964.53 3571.81 1971.33 3576.48 1976.4C3581.28 1981.33 3587.08 1983.8 3593.88 1983.8C3600.68 1983.8 3606.41 1981.33 3611.08 1976.4C3615.88 1971.47 3618.28 1964.73 3618.28 1956.2ZM3782.42 1954.4C3782.42 1957.6 3782.22 1960.93 3781.82 1964.4H3704.42C3704.95 1971.33 3707.15 1976.67 3711.02 1980.4C3715.02 1984 3719.89 1985.8 3725.62 1985.8C3734.15 1985.8 3740.09 1982.2 3743.42 1975H3779.82C3777.95 1982.33 3774.55 1988.93 3769.62 1994.8C3764.82 2000.67 3758.75 2005.27 3751.42 2008.6C3744.09 2011.93 3735.89 2013.6 3726.82 2013.6C3715.89 2013.6 3706.15 2011.27 3697.62 2006.6C3689.09 2001.93 3682.42 1995.27 3677.62 1986.6C3672.82 1977.93 3670.42 1967.8 3670.42 1956.2C3670.42 1944.6 3672.75 1934.47 3677.42 1925.8C3682.22 1917.13 3688.89 1910.47 3697.42 1905.8C3705.95 1901.13 3715.75 1898.8 3726.82 1898.8C3737.62 1898.8 3747.22 1901.07 3755.62 1905.6C3764.02 1910.13 3770.55 1916.6 3775.22 1925C3780.02 1933.4 3782.42 1943.2 3782.42 1954.4ZM3747.42 1945.4C3747.42 1939.53 3745.42 1934.87 3741.42 1931.4C3737.42 1927.93 3732.42 1926.2 3726.42 1926.2C3720.69 1926.2 3715.82 1927.87 3711.82 1931.2C3707.95 1934.53 3705.55 1939.27 3704.62 1945.4H3747.42ZM3851.26 2013.6C3840.33 2013.6 3830.46 2011.27 3821.66 2006.6C3813 2001.93 3806.13 1995.27 3801.06 1986.6C3796.13 1977.93 3793.66 1967.8 3793.66 1956.2C3793.66 1944.73 3796.2 1934.67 3801.26 1926C3806.33 1917.2 3813.26 1910.47 3822.06 1905.8C3830.86 1901.13 3840.73 1898.8 3851.66 1898.8C3862.6 1898.8 3872.46 1901.13 3881.26 1905.8C3890.06 1910.47 3897 1917.2 3902.06 1926C3907.13 1934.67 3909.66 1944.73 3909.66 1956.2C3909.66 1967.67 3907.06 1977.8 3901.86 1986.6C3896.8 1995.27 3889.8 2001.93 3880.86 2006.6C3872.06 2011.27 3862.2 2013.6 3851.26 2013.6ZM3851.26 1984C3857.8 1984 3863.33 1981.6 3867.86 1976.8C3872.53 1972 3874.86 1965.13 3874.86 1956.2C3874.86 1947.27 3872.6 1940.4 3868.06 1935.6C3863.66 1930.8 3858.2 1928.4 3851.66 1928.4C3845 1928.4 3839.46 1930.8 3835.06 1935.6C3830.66 1940.27 3828.46 1947.13 3828.46 1956.2C3828.46 1965.13 3830.6 1972 3834.86 1976.8C3839.26 1981.6 3844.73 1984 3851.26 1984ZM4006.77 1941.6C4006.77 1927.73 4009.77 1915.4 4015.77 1904.6C4021.77 1893.67 4030.11 1885.2 4040.77 1879.2C4051.57 1873.07 4063.77 1870 4077.37 1870C4094.04 1870 4108.31 1874.4 4120.17 1883.2C4132.04 1892 4139.97 1904 4143.97 1919.2H4106.37C4103.57 1913.33 4099.57 1908.87 4094.37 1905.8C4089.31 1902.73 4083.51 1901.2 4076.97 1901.2C4066.44 1901.2 4057.91 1904.87 4051.37 1912.2C4044.84 1919.53 4041.57 1929.33 4041.57 1941.6C4041.57 1953.87 4044.84 1963.67 4051.37 1971C4057.91 1978.33 4066.44 1982 4076.97 1982C4083.51 1982 4089.31 1980.47 4094.37 1977.4C4099.57 1974.33 4103.57 1969.87 4106.37 1964H4143.97C4139.97 1979.2 4132.04 1991.2 4120.17 2000C4108.31 2008.67 4094.04 2013 4077.37 2013C4063.77 2013 4051.57 2010 4040.77 2004C4030.11 1997.87 4021.77 1989.4 4015.77 1978.6C4009.77 1967.8 4006.77 1955.47 4006.77 1941.6ZM4158.12 1956C4158.12 1944.53 4160.25 1934.47 4164.52 1925.8C4168.92 1917.13 4174.85 1910.47 4182.32 1905.8C4189.78 1901.13 4198.12 1898.8 4207.32 1898.8C4215.18 1898.8 4222.05 1900.4 4227.92 1903.6C4233.92 1906.8 4238.52 1911 4241.72 1916.2V1900.4H4275.92V2012H4241.72V1996.2C4238.38 2001.4 4233.72 2005.6 4227.72 2008.8C4221.85 2012 4214.98 2013.6 4207.12 2013.6C4198.05 2013.6 4189.78 2011.27 4182.32 2006.6C4174.85 2001.8 4168.92 1995.07 4164.52 1986.4C4160.25 1977.6 4158.12 1967.47 4158.12 1956ZM4241.72 1956.2C4241.72 1947.67 4239.32 1940.93 4234.52 1936C4229.85 1931.07 4224.12 1928.6 4217.32 1928.6C4210.52 1928.6 4204.72 1931.07 4199.92 1936C4195.25 1940.8 4192.92 1947.47 4192.92 1956C4192.92 1964.53 4195.25 1971.33 4199.92 1976.4C4204.72 1981.33 4210.52 1983.8 4217.32 1983.8C4224.12 1983.8 4229.85 1981.33 4234.52 1976.4C4239.32 1971.47 4241.72 1964.73 4241.72 1956.2ZM4334.86 1864V2012H4300.66V1864H4334.86ZM4393.84 1864V2012H4359.64V1864H4393.84ZM4435.83 1888.8C4429.83 1888.8 4424.89 1887.07 4421.03 1883.6C4417.29 1880 4415.43 1875.6 4415.43 1870.4C4415.43 1865.07 4417.29 1860.67 4421.03 1857.2C4424.89 1853.6 4429.83 1851.8 4435.83 1851.8C4441.69 1851.8 4446.49 1853.6 4450.23 1857.2C4454.09 1860.67 4456.03 1865.07 4456.03 1870.4C4456.03 1875.6 4454.09 1880 4450.23 1883.6C4446.49 1887.07 4441.69 1888.8 4435.83 1888.8ZM4452.83 1900.4V2012H4418.63V1900.4H4452.83ZM4545.61 1899.2C4558.68 1899.2 4569.08 1903.47 4576.81 1912C4584.68 1920.4 4588.61 1932 4588.61 1946.8V2012H4554.61V1951.4C4554.61 1943.93 4552.68 1938.13 4548.81 1934C4544.94 1929.87 4539.74 1927.8 4533.21 1927.8C4526.68 1927.8 4521.48 1929.87 4517.61 1934C4513.74 1938.13 4511.81 1943.93 4511.81 1951.4V2012H4477.61V1900.4H4511.81V1915.2C4515.28 1910.27 4519.94 1906.4 4525.81 1903.6C4531.68 1900.67 4538.28 1899.2 4545.61 1899.2ZM4654.78 1898.8C4662.64 1898.8 4669.51 1900.4 4675.38 1903.6C4681.38 1906.8 4685.98 1911 4689.18 1916.2V1900.4H4723.38V2011.8C4723.38 2022.07 4721.31 2031.33 4717.18 2039.6C4713.18 2048 4706.98 2054.67 4698.58 2059.6C4690.31 2064.53 4679.98 2067 4667.58 2067C4651.04 2067 4637.64 2063.07 4627.38 2055.2C4617.11 2047.47 4611.24 2036.93 4609.78 2023.6H4643.58C4644.64 2027.87 4647.18 2031.2 4651.18 2033.6C4655.18 2036.13 4660.11 2037.4 4665.98 2037.4C4673.04 2037.4 4678.64 2035.33 4682.78 2031.2C4687.04 2027.2 4689.18 2020.73 4689.18 2011.8V1996C4685.84 2001.2 4681.24 2005.47 4675.38 2008.8C4669.51 2012 4662.64 2013.6 4654.78 2013.6C4645.58 2013.6 4637.24 2011.27 4629.78 2006.6C4622.31 2001.8 4616.38 1995.07 4611.98 1986.4C4607.71 1977.6 4605.58 1967.47 4605.58 1956C4605.58 1944.53 4607.71 1934.47 4611.98 1925.8C4616.38 1917.13 4622.31 1910.47 4629.78 1905.8C4637.24 1901.13 4645.58 1898.8 4654.78 1898.8ZM4689.18 1956.2C4689.18 1947.67 4686.78 1940.93 4681.98 1936C4677.31 1931.07 4671.58 1928.6 4664.78 1928.6C4657.98 1928.6 4652.18 1931.07 4647.38 1936C4642.71 1940.8 4640.38 1947.47 4640.38 1956C4640.38 1964.53 4642.71 1971.33 4647.38 1976.4C4652.18 1981.33 4657.98 1983.8 4664.78 1983.8C4671.58 1983.8 4677.31 1981.33 4681.98 1976.4C4686.78 1971.47 4689.18 1964.73 4689.18 1956.2ZM3427.8 2171.6V2199H3370.6V2228.6H3413.4V2255.2H3370.6V2312H3336.4V2171.6H3427.8ZM3496.58 2313.6C3485.64 2313.6 3475.78 2311.27 3466.98 2306.6C3458.31 2301.93 3451.44 2295.27 3446.38 2286.6C3441.44 2277.93 3438.98 2267.8 3438.98 2256.2C3438.98 2244.73 3441.51 2234.67 3446.57 2226C3451.64 2217.2 3458.58 2210.47 3467.38 2205.8C3476.18 2201.13 3486.04 2198.8 3496.98 2198.8C3507.91 2198.8 3517.78 2201.13 3526.58 2205.8C3535.38 2210.47 3542.31 2217.2 3547.38 2226C3552.44 2234.67 3554.98 2244.73 3554.98 2256.2C3554.98 2267.67 3552.38 2277.8 3547.18 2286.6C3542.11 2295.27 3535.11 2301.93 3526.18 2306.6C3517.38 2311.27 3507.51 2313.6 3496.58 2313.6ZM3496.58 2284C3503.11 2284 3508.64 2281.6 3513.18 2276.8C3517.84 2272 3520.18 2265.13 3520.18 2256.2C3520.18 2247.27 3517.91 2240.4 3513.38 2235.6C3508.98 2230.8 3503.51 2228.4 3496.98 2228.4C3490.31 2228.4 3484.78 2230.8 3480.38 2235.6C3475.98 2240.27 3473.78 2247.13 3473.78 2256.2C3473.78 2265.13 3475.91 2272 3480.18 2276.8C3484.58 2281.6 3490.04 2284 3496.58 2284ZM3607.32 2219C3611.32 2212.87 3616.32 2208.07 3622.32 2204.6C3628.32 2201 3634.99 2199.2 3642.32 2199.2V2235.4H3632.92C3624.39 2235.4 3617.99 2237.27 3613.72 2241C3609.45 2244.6 3607.32 2251 3607.32 2260.2V2312H3573.12V2200.4H3607.32V2219ZM3801.07 2199.2C3814.93 2199.2 3825.93 2203.4 3834.07 2211.8C3842.33 2220.2 3846.47 2231.87 3846.47 2246.8V2312H3812.47V2251.4C3812.47 2244.2 3810.53 2238.67 3806.67 2234.8C3802.93 2230.8 3797.73 2228.8 3791.07 2228.8C3784.4 2228.8 3779.13 2230.8 3775.27 2234.8C3771.53 2238.67 3769.67 2244.2 3769.67 2251.4V2312H3735.67V2251.4C3735.67 2244.2 3733.73 2238.67 3729.87 2234.8C3726.13 2230.8 3720.93 2228.8 3714.27 2228.8C3707.6 2228.8 3702.33 2230.8 3698.47 2234.8C3694.73 2238.67 3692.87 2244.2 3692.87 2251.4V2312H3658.67V2200.4H3692.87V2214.4C3696.33 2209.73 3700.87 2206.07 3706.47 2203.4C3712.07 2200.6 3718.4 2199.2 3725.47 2199.2C3733.87 2199.2 3741.33 2201 3747.87 2204.6C3754.53 2208.2 3759.73 2213.33 3763.47 2220C3767.33 2213.87 3772.6 2208.87 3779.27 2205C3785.93 2201.13 3793.2 2199.2 3801.07 2199.2Z" fill="white"/>
<defs>
<filter id="filter0_d_93_30" x="642" y="1291" width="1896" height="1719" filterUnits="userSpaceOnUse" color-interpolation-filters="sRGB">
<feFlood flood-opacity="0" result="BackgroundImageFix"/>
<feColorMatrix in="SourceAlpha" type="matrix" values="0 0 0 0 0 0 0 0 0 0 0 0 0 0 0 0 0 0 127 0" result="hardAlpha"/>
<feOffset dy="4"/>
<feGaussianBlur stdDeviation="2"/>
<feComposite in2="hardAlpha" operator="out"/>
<feColorMatrix type="matrix" values="0 0 0 0 0.333333 0 0 0 0 0.333333 0 0 0 0 0.333333 0 0 0 1 0"/>
<feBlend mode="normal" in2="BackgroundImageFix" result="effect1_dropShadow_93_30"/>
<feBlend mode="normal" in="SourceGraphic" in2="effect1_dropShadow_93_30" result="shape"/>
</filter>
<filter id="filter1_d_93_30" x="642" y="3363" width="1896" height="1719" filterUnits="userSpaceOnUse" color-interpolation-filters="sRGB">
<feFlood flood-opacity="0" result="BackgroundImageFix"/>
<feColorMatrix in="SourceAlpha" type="matrix" values="0 0 0 0 0 0 0 0 0 0 0 0 0 0 0 0 0 0 127 0" result="hardAlpha"/>
<feOffset dy="4"/>
<feGaussianBlur stdDeviation="2"/>
<feComposite in2="hardAlpha" operator="out"/>
<feColorMatrix type="matrix" values="0 0 0 0 0.333333 0 0 0 0 0.333333 0 0 0 0 0.333333 0 0 0 1 0"/>
<feBlend mode="normal" in2="BackgroundImageFix" result="effect1_dropShadow_93_30"/>
<feBlend mode="normal" in="SourceGraphic" in2="effect1_dropShadow_93_30" result="shape"/>
</filter>
<filter id="filter2_d_93_30" x="5738" y="1236" width="1896" height="1719" filterUnits="userSpaceOnUse" color-interpolation-filters="sRGB">
<feFlood flood-opacity="0" result="BackgroundImageFix"/>
<feColorMatrix in="SourceAlpha" type="matrix" values="0 0 0 0 0 0 0 0 0 0 0 0 0 0 0 0 0 0 127 0" result="hardAlpha"/>
<feOffset dy="4"/>
<feGaussianBlur stdDeviation="2"/>
<feComposite in2="hardAlpha" operator="out"/>
<feColorMatrix type="matrix" values="0 0 0 0 0.333333 0 0 0 0 0.333333 0 0 0 0 0.333333 0 0 0 1 0"/>
<feBlend mode="normal" in2="BackgroundImageFix" result="effect1_dropShadow_93_30"/>
<feBlend mode="normal" in="SourceGraphic" in2="effect1_dropShadow_93_30" result="shape"/>
</filter>
<filter id="filter3_d_93_30" x="7940" y="1236" width="1896" height="1719" filterUnits="userSpaceOnUse" color-interpolation-filters="sRGB">
<feFlood flood-opacity="0" result="BackgroundImageFix"/>
<feColorMatrix in="SourceAlpha" type="matrix" values="0 0 0 0 0 0 0 0 0 0 0 0 0 0 0 0 0 0 127 0" result="hardAlpha"/>
<feOffset dy="4"/>
<feGaussianBlur stdDeviation="2"/>
<feComposite in2="hardAlpha" operator="out"/>
<feColorMatrix type="matrix" values="0 0 0 0 0.333333 0 0 0 0 0.333333 0 0 0 0 0.333333 0 0 0 1 0"/>
<feBlend mode="normal" in2="BackgroundImageFix" result="effect1_dropShadow_93_30"/>
<feBlend mode="normal" in="SourceGraphic" in2="effect1_dropShadow_93_30" result="shape"/>
</filter>
<filter id="filter4_d_93_30" x="3067" y="1291" width="1896" height="1719" filterUnits="userSpaceOnUse" color-interpolation-filters="sRGB">
<feFlood flood-opacity="0" result="BackgroundImageFix"/>
<feColorMatrix in="SourceAlpha" type="matrix" values="0 0 0 0 0 0 0 0 0 0 0 0 0 0 0 0 0 0 127 0" result="hardAlpha"/>
<feOffset dy="4"/>
<feGaussianBlur stdDeviation="2"/>
<feComposite in2="hardAlpha" operator="out"/>
<feColorMatrix type="matrix" values="0 0 0 0 0.333333 0 0 0 0 0.333333 0 0 0 0 0.333333 0 0 0 1 0"/>
<feBlend mode="normal" in2="BackgroundImageFix" result="effect1_dropShadow_93_30"/>
<feBlend mode="normal" in="SourceGraphic" in2="effect1_dropShadow_93_30" result="shape"/>
</filter>
<filter id="filter5_d_93_30" x="10562" y="1291" width="1896" height="1719" filterUnits="userSpaceOnUse" color-interpolation-filters="sRGB">
<feFlood flood-opacity="0" result="BackgroundImageFix"/>
<feColorMatrix in="SourceAlpha" type="matrix" values="0 0 0 0 0 0 0 0 0 0 0 0 0 0 0 0 0 0 127 0" result="hardAlpha"/>
<feOffset dy="4"/>
<feGaussianBlur stdDeviation="2"/>
<feComposite in2="hardAlpha" operator="out"/>
<feColorMatrix type="matrix" values="0 0 0 0 0.333333 0 0 0 0 0.333333 0 0 0 0 0.333333 0 0 0 1 0"/>
<feBlend mode="normal" in2="BackgroundImageFix" result="effect1_dropShadow_93_30"/>
<feBlend mode="normal" in="SourceGraphic" in2="effect1_dropShadow_93_30" result="shape"/>
</filter>
</defs>
</svg>
