<svg width="390" height="844" viewBox="0 0 390 844" fill="none" xmlns="http://www.w3.org/2000/svg">
<rect width="390" height="844" fill="white"/>
<g filter="url(#filter0_d_18_23)">
<rect x="20" y="731" width="350" height="78" rx="38" fill="#1B30EF"/>
</g>
<rect x="20" y="55" width="103" height="9" rx="4.5" fill="#1B30EF"/>
<path d="M185.105 760.938V778H182.832L174.242 764.84V778H171.98V760.938H174.242L182.867 774.133V760.938H185.105ZM194.047 778.234C193.164 778.234 192.363 778.086 191.645 777.789C190.934 777.484 190.32 777.059 189.805 776.512C189.297 775.965 188.906 775.316 188.633 774.566C188.359 773.816 188.223 772.996 188.223 772.105V771.613C188.223 770.582 188.375 769.664 188.68 768.859C188.984 768.047 189.398 767.359 189.922 766.797C190.445 766.234 191.039 765.809 191.703 765.52C192.367 765.23 193.055 765.086 193.766 765.086C194.672 765.086 195.453 765.242 196.109 765.555C196.773 765.867 197.316 766.305 197.738 766.867C198.16 767.422 198.473 768.078 198.676 768.836C198.879 769.586 198.98 770.406 198.98 771.297V772.27H189.512V770.5H196.812V770.336C196.781 769.773 196.664 769.227 196.461 768.695C196.266 768.164 195.953 767.727 195.523 767.383C195.094 767.039 194.508 766.867 193.766 766.867C193.273 766.867 192.82 766.973 192.406 767.184C191.992 767.387 191.637 767.691 191.34 768.098C191.043 768.504 190.812 769 190.648 769.586C190.484 770.172 190.402 770.848 190.402 771.613V772.105C190.402 772.707 190.484 773.273 190.648 773.805C190.82 774.328 191.066 774.789 191.387 775.188C191.715 775.586 192.109 775.898 192.57 776.125C193.039 776.352 193.57 776.465 194.164 776.465C194.93 776.465 195.578 776.309 196.109 775.996C196.641 775.684 197.105 775.266 197.504 774.742L198.816 775.785C198.543 776.199 198.195 776.594 197.773 776.969C197.352 777.344 196.832 777.648 196.215 777.883C195.605 778.117 194.883 778.234 194.047 778.234ZM202.977 765.32L205.754 769.938L208.566 765.32H211.109L206.961 771.578L211.238 778H208.73L205.801 773.242L202.871 778H200.352L204.617 771.578L200.48 765.32H202.977ZM218.727 765.32V766.984H211.871V765.32H218.727ZM214.191 762.238H216.359V774.859C216.359 775.289 216.426 775.613 216.559 775.832C216.691 776.051 216.863 776.195 217.074 776.266C217.285 776.336 217.512 776.371 217.754 776.371C217.934 776.371 218.121 776.355 218.316 776.324C218.52 776.285 218.672 776.254 218.773 776.23L218.785 778C218.613 778.055 218.387 778.105 218.105 778.152C217.832 778.207 217.5 778.234 217.109 778.234C216.578 778.234 216.09 778.129 215.645 777.918C215.199 777.707 214.844 777.355 214.578 776.863C214.32 776.363 214.191 775.691 214.191 774.848V762.238Z" fill="white"/>
<path d="M50.0938 126.164V139.688C49.5625 140.328 48.7422 141.023 47.6328 141.773C46.5234 142.508 45.0938 143.141 43.3438 143.672C41.5938 144.203 39.4766 144.469 36.9922 144.469C34.7891 144.469 32.7812 144.109 30.9688 143.391C29.1562 142.656 27.5938 141.586 26.2812 140.18C24.9844 138.773 23.9844 137.055 23.2812 135.023C22.5781 132.977 22.2266 130.641 22.2266 128.016V125.883C22.2266 123.258 22.5625 120.922 23.2344 118.875C23.9219 116.828 24.8984 115.102 26.1641 113.695C27.4297 112.289 28.9375 111.219 30.6875 110.484C32.4375 109.75 34.3828 109.383 36.5234 109.383C39.4922 109.383 41.9297 109.867 43.8359 110.836C45.7422 111.789 47.1953 113.117 48.1953 114.82C49.2109 116.508 49.8359 118.445 50.0703 120.633H43.25C43.0781 119.477 42.75 118.469 42.2656 117.609C41.7812 116.75 41.0859 116.078 40.1797 115.594C39.2891 115.109 38.1328 114.867 36.7109 114.867C35.5391 114.867 34.4922 115.109 33.5703 115.594C32.6641 116.062 31.8984 116.758 31.2734 117.68C30.6484 118.602 30.1719 119.742 29.8438 121.102C29.5156 122.461 29.3516 124.039 29.3516 125.836V128.016C29.3516 129.797 29.5234 131.375 29.8672 132.75C30.2109 134.109 30.7188 135.258 31.3906 136.195C32.0781 137.117 32.9219 137.812 33.9219 138.281C34.9219 138.75 36.0859 138.984 37.4141 138.984C38.5234 138.984 39.4453 138.891 40.1797 138.703C40.9297 138.516 41.5312 138.289 41.9844 138.023C42.4531 137.742 42.8125 137.477 43.0625 137.227V131.18H36.6406V126.164H50.0938ZM69.0312 138.281V126.984C69.0312 126.172 68.8984 125.477 68.6328 124.898C68.3672 124.305 67.9531 123.844 67.3906 123.516C66.8438 123.188 66.1328 123.023 65.2578 123.023C64.5078 123.023 63.8594 123.156 63.3125 123.422C62.7656 123.672 62.3438 124.039 62.0469 124.523C61.75 124.992 61.6016 125.547 61.6016 126.188H54.8516C54.8516 125.109 55.1016 124.086 55.6016 123.117C56.1016 122.148 56.8281 121.297 57.7812 120.562C58.7344 119.812 59.8672 119.227 61.1797 118.805C62.5078 118.383 63.9922 118.172 65.6328 118.172C67.6016 118.172 69.3516 118.5 70.8828 119.156C72.4141 119.812 73.6172 120.797 74.4922 122.109C75.3828 123.422 75.8281 125.062 75.8281 127.031V137.883C75.8281 139.273 75.9141 140.414 76.0859 141.305C76.2578 142.18 76.5078 142.945 76.8359 143.602V144H70.0156C69.6875 143.312 69.4375 142.453 69.2656 141.422C69.1094 140.375 69.0312 139.328 69.0312 138.281ZM69.9219 128.555L69.9688 132.375H66.1953C65.3047 132.375 64.5312 132.477 63.875 132.68C63.2188 132.883 62.6797 133.172 62.2578 133.547C61.8359 133.906 61.5234 134.328 61.3203 134.812C61.1328 135.297 61.0391 135.828 61.0391 136.406C61.0391 136.984 61.1719 137.508 61.4375 137.977C61.7031 138.43 62.0859 138.789 62.5859 139.055C63.0859 139.305 63.6719 139.43 64.3438 139.43C65.3594 139.43 66.2422 139.227 66.9922 138.82C67.7422 138.414 68.3203 137.914 68.7266 137.32C69.1484 136.727 69.3672 136.164 69.3828 135.633L71.1641 138.492C70.9141 139.133 70.5703 139.797 70.1328 140.484C69.7109 141.172 69.1719 141.82 68.5156 142.43C67.8594 143.023 67.0703 143.516 66.1484 143.906C65.2266 144.281 64.1328 144.469 62.8672 144.469C61.2578 144.469 59.7969 144.148 58.4844 143.508C57.1875 142.852 56.1562 141.953 55.3906 140.812C54.6406 139.656 54.2656 138.344 54.2656 136.875C54.2656 135.547 54.5156 134.367 55.0156 133.336C55.5156 132.305 56.25 131.438 57.2188 130.734C58.2031 130.016 59.4297 129.477 60.8984 129.117C62.3672 128.742 64.0703 128.555 66.0078 128.555H69.9219ZM88.1562 118.641V144H81.3828V118.641H88.1562ZM80.9609 112.031C80.9609 111.047 81.3047 110.234 81.9922 109.594C82.6797 108.953 83.6016 108.633 84.7578 108.633C85.8984 108.633 86.8125 108.953 87.5 109.594C88.2031 110.234 88.5547 111.047 88.5547 112.031C88.5547 113.016 88.2031 113.828 87.5 114.469C86.8125 115.109 85.8984 115.43 84.7578 115.43C83.6016 115.43 82.6797 115.109 81.9922 114.469C81.3047 113.828 80.9609 113.016 80.9609 112.031ZM100.344 124.055V144H93.5938V118.641H99.9219L100.344 124.055ZM99.3594 130.43H97.5312C97.5312 128.555 97.7734 126.867 98.2578 125.367C98.7422 123.852 99.4219 122.562 100.297 121.5C101.172 120.422 102.211 119.602 103.414 119.039C104.633 118.461 105.992 118.172 107.492 118.172C108.68 118.172 109.766 118.344 110.75 118.688C111.734 119.031 112.578 119.578 113.281 120.328C114 121.078 114.547 122.07 114.922 123.305C115.312 124.539 115.508 126.047 115.508 127.828V144H108.711V127.805C108.711 126.68 108.555 125.805 108.242 125.18C107.93 124.555 107.469 124.117 106.859 123.867C106.266 123.602 105.531 123.469 104.656 123.469C103.75 123.469 102.961 123.648 102.289 124.008C101.633 124.367 101.086 124.867 100.648 125.508C100.227 126.133 99.9062 126.867 99.6875 127.711C99.4688 128.555 99.3594 129.461 99.3594 130.43ZM29.375 172.977V209H22.625V172.977H29.375ZM45.3594 183.641L34.3438 196.203L28.4375 202.18L25.9766 197.305L30.6641 191.352L37.25 183.641H45.3594ZM38.3516 209L30.8516 197.281L35.5156 193.203L46.1328 209H38.3516ZM54.875 189.055V209H48.125V183.641H54.4531L54.875 189.055ZM53.8906 195.43H52.0625C52.0625 193.555 52.3047 191.867 52.7891 190.367C53.2734 188.852 53.9531 187.562 54.8281 186.5C55.7031 185.422 56.7422 184.602 57.9453 184.039C59.1641 183.461 60.5234 183.172 62.0234 183.172C63.2109 183.172 64.2969 183.344 65.2812 183.688C66.2656 184.031 67.1094 184.578 67.8125 185.328C68.5312 186.078 69.0781 187.07 69.4531 188.305C69.8438 189.539 70.0391 191.047 70.0391 192.828V209H63.2422V192.805C63.2422 191.68 63.0859 190.805 62.7734 190.18C62.4609 189.555 62 189.117 61.3906 188.867C60.7969 188.602 60.0625 188.469 59.1875 188.469C58.2812 188.469 57.4922 188.648 56.8203 189.008C56.1641 189.367 55.6172 189.867 55.1797 190.508C54.7578 191.133 54.4375 191.867 54.2188 192.711C54 193.555 53.8906 194.461 53.8906 195.43ZM74.0938 196.578V196.086C74.0938 194.227 74.3594 192.516 74.8906 190.953C75.4219 189.375 76.1953 188.008 77.2109 186.852C78.2266 185.695 79.4766 184.797 80.9609 184.156C82.4453 183.5 84.1484 183.172 86.0703 183.172C87.9922 183.172 89.7031 183.5 91.2031 184.156C92.7031 184.797 93.9609 185.695 94.9766 186.852C96.0078 188.008 96.7891 189.375 97.3203 190.953C97.8516 192.516 98.1172 194.227 98.1172 196.086V196.578C98.1172 198.422 97.8516 200.133 97.3203 201.711C96.7891 203.273 96.0078 204.641 94.9766 205.812C93.9609 206.969 92.7109 207.867 91.2266 208.508C89.7422 209.148 88.0391 209.469 86.1172 209.469C84.1953 209.469 82.4844 209.148 80.9844 208.508C79.5 207.867 78.2422 206.969 77.2109 205.812C76.1953 204.641 75.4219 203.273 74.8906 201.711C74.3594 200.133 74.0938 198.422 74.0938 196.578ZM80.8438 196.086V196.578C80.8438 197.641 80.9375 198.633 81.125 199.555C81.3125 200.477 81.6094 201.289 82.0156 201.992C82.4375 202.68 82.9844 203.219 83.6562 203.609C84.3281 204 85.1484 204.195 86.1172 204.195C87.0547 204.195 87.8594 204 88.5312 203.609C89.2031 203.219 89.7422 202.68 90.1484 201.992C90.5547 201.289 90.8516 200.477 91.0391 199.555C91.2422 198.633 91.3438 197.641 91.3438 196.578V196.086C91.3438 195.055 91.2422 194.086 91.0391 193.18C90.8516 192.258 90.5469 191.445 90.125 190.742C89.7188 190.023 89.1797 189.461 88.5078 189.055C87.8359 188.648 87.0234 188.445 86.0703 188.445C85.1172 188.445 84.3047 188.648 83.6328 189.055C82.9766 189.461 82.4375 190.023 82.0156 190.742C81.6094 191.445 81.3125 192.258 81.125 193.18C80.9375 194.086 80.8438 195.055 80.8438 196.086ZM109.508 202.438L114.781 183.641H119.07L117.688 191.023L112.414 209H108.828L109.508 202.438ZM106.836 183.641L110.609 202.414L110.961 209H106.742L100.32 183.641H106.836ZM123.898 202.109L127.578 183.641H134.117L127.695 209H123.5L123.898 202.109ZM119.656 183.641L124.906 202.297L125.633 209H122.023L116.75 191.047L115.414 183.641H119.656ZM144.641 173V209H137.867V173H144.641ZM161.891 209.469C159.922 209.469 158.156 209.156 156.594 208.531C155.031 207.891 153.703 207.008 152.609 205.883C151.531 204.758 150.703 203.453 150.125 201.969C149.547 200.469 149.258 198.875 149.258 197.188V196.25C149.258 194.328 149.531 192.57 150.078 190.977C150.625 189.383 151.406 188 152.422 186.828C153.453 185.656 154.703 184.758 156.172 184.133C157.641 183.492 159.297 183.172 161.141 183.172C162.938 183.172 164.531 183.469 165.922 184.062C167.312 184.656 168.477 185.5 169.414 186.594C170.367 187.688 171.086 189 171.57 190.531C172.055 192.047 172.297 193.734 172.297 195.594V198.406H152.141V193.906H165.664V193.391C165.664 192.453 165.492 191.617 165.148 190.883C164.82 190.133 164.32 189.539 163.648 189.102C162.977 188.664 162.117 188.445 161.07 188.445C160.18 188.445 159.414 188.641 158.773 189.031C158.133 189.422 157.609 189.969 157.203 190.672C156.812 191.375 156.516 192.203 156.312 193.156C156.125 194.094 156.031 195.125 156.031 196.25V197.188C156.031 198.203 156.172 199.141 156.453 200C156.75 200.859 157.164 201.602 157.695 202.227C158.242 202.852 158.898 203.336 159.664 203.68C160.445 204.023 161.328 204.195 162.312 204.195C163.531 204.195 164.664 203.961 165.711 203.492C166.773 203.008 167.688 202.281 168.453 201.312L171.734 204.875C171.203 205.641 170.477 206.375 169.555 207.078C168.648 207.781 167.555 208.359 166.273 208.812C164.992 209.25 163.531 209.469 161.891 209.469ZM191.117 203.469V173H197.914V209H191.797L191.117 203.469ZM175.086 196.625V196.133C175.086 194.195 175.305 192.438 175.742 190.859C176.18 189.266 176.82 187.898 177.664 186.758C178.508 185.617 179.547 184.734 180.781 184.109C182.016 183.484 183.422 183.172 185 183.172C186.484 183.172 187.781 183.484 188.891 184.109C190.016 184.734 190.969 185.625 191.75 186.781C192.547 187.922 193.188 189.273 193.672 190.836C194.156 192.383 194.508 194.078 194.727 195.922V197C194.508 198.766 194.156 200.406 193.672 201.922C193.188 203.438 192.547 204.766 191.75 205.906C190.969 207.031 190.016 207.906 188.891 208.531C187.766 209.156 186.453 209.469 184.953 209.469C183.375 209.469 181.969 209.148 180.734 208.508C179.516 207.867 178.484 206.969 177.641 205.812C176.812 204.656 176.18 203.297 175.742 201.734C175.305 200.172 175.086 198.469 175.086 196.625ZM181.836 196.133V196.625C181.836 197.672 181.914 198.648 182.07 199.555C182.242 200.461 182.516 201.266 182.891 201.969C183.281 202.656 183.781 203.195 184.391 203.586C185.016 203.961 185.773 204.148 186.664 204.148C187.82 204.148 188.773 203.891 189.523 203.375C190.273 202.844 190.844 202.117 191.234 201.195C191.641 200.273 191.875 199.211 191.938 198.008V194.938C191.891 193.953 191.75 193.07 191.516 192.289C191.297 191.492 190.969 190.812 190.531 190.25C190.109 189.688 189.578 189.25 188.938 188.938C188.312 188.625 187.57 188.469 186.711 188.469C185.836 188.469 185.086 188.672 184.461 189.078C183.836 189.469 183.328 190.008 182.938 190.695C182.562 191.383 182.281 192.195 182.094 193.133C181.922 194.055 181.836 195.055 181.836 196.133ZM219.242 183.641H225.359V208.156C225.359 210.469 224.844 212.43 223.812 214.039C222.797 215.664 221.375 216.891 219.547 217.719C217.719 218.562 215.594 218.984 213.172 218.984C212.109 218.984 210.984 218.844 209.797 218.562C208.625 218.281 207.5 217.844 206.422 217.25C205.359 216.656 204.469 215.906 203.75 215L206.727 211.016C207.508 211.922 208.414 212.625 209.445 213.125C210.477 213.641 211.617 213.898 212.867 213.898C214.086 213.898 215.117 213.672 215.961 213.219C216.805 212.781 217.453 212.133 217.906 211.273C218.359 210.43 218.586 209.406 218.586 208.203V189.5L219.242 183.641ZM202.18 196.625V196.133C202.18 194.195 202.414 192.438 202.883 190.859C203.367 189.266 204.047 187.898 204.922 186.758C205.812 185.617 206.891 184.734 208.156 184.109C209.422 183.484 210.852 183.172 212.445 183.172C214.133 183.172 215.547 183.484 216.688 184.109C217.828 184.734 218.766 185.625 219.5 186.781C220.234 187.922 220.805 189.273 221.211 190.836C221.633 192.383 221.961 194.078 222.195 195.922V197C221.961 198.766 221.609 200.406 221.141 201.922C220.672 203.438 220.055 204.766 219.289 205.906C218.523 207.031 217.57 207.906 216.43 208.531C215.305 209.156 213.961 209.469 212.398 209.469C210.836 209.469 209.422 209.148 208.156 208.508C206.906 207.867 205.836 206.969 204.945 205.812C204.055 204.656 203.367 203.297 202.883 201.734C202.414 200.172 202.18 198.469 202.18 196.625ZM208.93 196.133V196.625C208.93 197.672 209.031 198.648 209.234 199.555C209.438 200.461 209.75 201.266 210.172 201.969C210.609 202.656 211.148 203.195 211.789 203.586C212.445 203.961 213.219 204.148 214.109 204.148C215.344 204.148 216.352 203.891 217.133 203.375C217.914 202.844 218.5 202.117 218.891 201.195C219.281 200.273 219.508 199.211 219.57 198.008V194.938C219.539 193.953 219.406 193.07 219.172 192.289C218.938 191.492 218.609 190.812 218.188 190.25C217.766 189.688 217.219 189.25 216.547 188.938C215.875 188.625 215.078 188.469 214.156 188.469C213.266 188.469 212.492 188.672 211.836 189.078C211.195 189.469 210.656 190.008 210.219 190.695C209.797 191.383 209.477 192.195 209.258 193.133C209.039 194.055 208.93 195.055 208.93 196.133ZM242.281 209.469C240.312 209.469 238.547 209.156 236.984 208.531C235.422 207.891 234.094 207.008 233 205.883C231.922 204.758 231.094 203.453 230.516 201.969C229.938 200.469 229.648 198.875 229.648 197.188V196.25C229.648 194.328 229.922 192.57 230.469 190.977C231.016 189.383 231.797 188 232.812 186.828C233.844 185.656 235.094 184.758 236.562 184.133C238.031 183.492 239.688 183.172 241.531 183.172C243.328 183.172 244.922 183.469 246.312 184.062C247.703 184.656 248.867 185.5 249.805 186.594C250.758 187.688 251.477 189 251.961 190.531C252.445 192.047 252.688 193.734 252.688 195.594V198.406H232.531V193.906H246.055V193.391C246.055 192.453 245.883 191.617 245.539 190.883C245.211 190.133 244.711 189.539 244.039 189.102C243.367 188.664 242.508 188.445 241.461 188.445C240.57 188.445 239.805 188.641 239.164 189.031C238.523 189.422 238 189.969 237.594 190.672C237.203 191.375 236.906 192.203 236.703 193.156C236.516 194.094 236.422 195.125 236.422 196.25V197.188C236.422 198.203 236.562 199.141 236.844 200C237.141 200.859 237.555 201.602 238.086 202.227C238.633 202.852 239.289 203.336 240.055 203.68C240.836 204.023 241.719 204.195 242.703 204.195C243.922 204.195 245.055 203.961 246.102 203.492C247.164 203.008 248.078 202.281 248.844 201.312L252.125 204.875C251.594 205.641 250.867 206.375 249.945 207.078C249.039 207.781 247.945 208.359 246.664 208.812C245.383 209.25 243.922 209.469 242.281 209.469Z" fill="#1B30EF"/>
<g clip-path="url(#clip0_18_23)">
<path d="M302.812 588.938V579.562C302.812 576.75 304.687 574.875 307.5 574.875C310.312 574.875 312.188 576.75 312.188 579.562V588.938C312.188 591.75 310.312 593.625 307.5 593.625C304.687 593.625 302.812 591.75 302.812 588.938Z" fill="#42455E"/>
<path d="M274.688 307.688V560.812H68.4375C58.125 560.812 49.6875 569.25 49.6875 579.562V326.438C49.6875 316.125 58.125 307.688 68.4375 307.688H274.688Z" fill="white"/>
<path d="M77.8125 307.688V560.812H68.4375C58.125 560.812 49.6875 569.25 49.6875 579.562V326.438C49.6875 316.125 58.125 307.688 68.4375 307.688H77.8125Z" fill="white"/>
<path d="M274.688 546.75V560.812H68.4375C58.125 560.812 49.6875 569.25 49.6875 579.562V565.5C49.6875 555.188 58.125 546.75 68.4375 546.75H274.688Z" fill="white"/>
<path d="M321.562 382.688V551.438L312.188 579.562H302.812L293.438 551.438V382.688H321.562Z" fill="white"/>
<path d="M274.688 303H68.4375C55.3125 303 45 313.312 45 326.438V579.562C45 592.688 55.3125 603 68.4375 603H274.688C277.5 603 279.375 601.125 279.375 598.312V307.688C279.375 304.875 277.5 303 274.688 303ZM270 556.125H82.5V312.375H270V556.125ZM54.375 326.438C54.375 318.469 60.4688 312.375 68.4375 312.375H73.125V556.125C66.5625 555.188 60.4688 557.062 54.8438 560.344C53.9062 560.812 54.375 578.625 54.375 326.438ZM68.4375 593.625C60.4688 593.625 54.375 587.531 54.375 579.562C54.375 571.594 60.4688 565.5 68.4375 565.5H270V574.875H68.4375C65.625 574.875 63.75 576.75 63.75 579.562C63.75 582.375 65.625 584.25 68.4375 584.25H270V593.625H68.4375Z" fill="#1B30EF"/>
<path d="M105.938 429.562H246.562C249.375 429.562 251.25 427.688 251.25 424.875V359.25C251.25 356.437 249.375 354.562 246.562 354.562H105.938C103.125 354.562 101.25 356.437 101.25 359.25V424.875C101.25 427.688 103.125 429.562 105.938 429.562ZM110.625 363.938H241.875V420.188H110.625V363.938Z" fill="#1B30EF"/>
<path d="M232.5 495.188H120C117.187 495.188 115.312 497.062 115.312 499.875C115.312 502.688 117.187 504.562 120 504.562H232.5C235.312 504.562 237.188 502.688 237.188 499.875C237.188 497.062 235.312 495.188 232.5 495.188Z" fill="#1B30EF"/>
<path d="M223.125 518.625H129.375C126.562 518.625 124.688 520.5 124.688 523.312C124.688 526.125 126.562 528 129.375 528H223.125C225.938 528 227.812 526.125 227.812 523.312C227.812 520.5 225.938 518.625 223.125 518.625Z" fill="#1B30EF"/>
<path d="M343.594 370.969L326.25 352.688V345.188C326.25 342.375 324.375 340.5 321.562 340.5V326.438C321.562 318.469 315.469 312.375 307.5 312.375C299.531 312.375 293.438 318.469 293.438 326.438V340.5C290.625 340.5 288.75 342.375 288.75 345.188V551.438C288.75 552.375 288.281 550.5 298.125 580.969C298.594 582.844 300.938 584.25 302.813 584.25V588.938C302.813 591.75 304.688 593.625 307.5 593.625C310.313 593.625 312.188 591.75 312.188 588.938V584.25C314.063 584.25 316.406 582.844 316.875 580.969C327.188 550.031 326.25 552.375 326.25 551.438V366.281L335.625 376.125V415.5C335.625 418.312 337.5 420.188 340.312 420.188C343.125 420.188 345 418.312 345 415.5C345 371.438 345.469 373.312 343.594 370.969ZM316.875 378H298.125V349.875H316.875V378ZM302.813 326.438C302.813 323.625 304.688 321.75 307.5 321.75C310.313 321.75 312.188 323.625 312.188 326.438V340.5H302.813V326.438ZM316.875 550.5L308.906 574.875H306.094L298.125 550.5V387.375H316.875V550.5Z" fill="#1B30EF"/>
</g>
<defs>
<filter id="filter0_d_18_23" x="16" y="731" width="358" height="86" filterUnits="userSpaceOnUse" color-interpolation-filters="sRGB">
<feFlood flood-opacity="0" result="BackgroundImageFix"/>
<feColorMatrix in="SourceAlpha" type="matrix" values="0 0 0 0 0 0 0 0 0 0 0 0 0 0 0 0 0 0 127 0" result="hardAlpha"/>
<feOffset dy="4"/>
<feGaussianBlur stdDeviation="2"/>
<feComposite in2="hardAlpha" operator="out"/>
<feColorMatrix type="matrix" values="0 0 0 0 0.74902 0 0 0 0 0.921569 0 0 0 0 0.984314 0 0 0 0.38 0"/>
<feBlend mode="normal" in2="BackgroundImageFix" result="effect1_dropShadow_18_23"/>
<feBlend mode="normal" in="SourceGraphic" in2="effect1_dropShadow_18_23" result="shape"/>
</filter>
<clipPath id="clip0_18_23">
<rect width="300" height="300" fill="white" transform="translate(45 303)"/>
</clipPath>
</defs>
</svg>
