<svg width="390" height="844" viewBox="0 0 390 844" fill="none" xmlns="http://www.w3.org/2000/svg">
<rect width="390" height="844" fill="white"/>
<g filter="url(#filter0_d_18_23)">
<rect x="20" y="731" width="350" height="78" rx="38" fill="#1B30EF"/>
</g>
<rect x="20" y="55" width="103" height="9" rx="4.5" fill="#1B30EF"/>
<path d="M185.105 760.938V778H182.832L174.242 764.84V778H171.98V760.938H174.242L182.867 774.133V760.938H185.105ZM194.047 778.234C193.164 778.234 192.363 778.086 191.645 777.789C190.934 777.484 190.32 777.059 189.805 776.512C189.297 775.965 188.906 775.316 188.633 774.566C188.359 773.816 188.223 772.996 188.223 772.105V771.613C188.223 770.582 188.375 769.664 188.68 768.859C188.984 768.047 189.398 767.359 189.922 766.797C190.445 766.234 191.039 765.809 191.703 765.52C192.367 765.23 193.055 765.086 193.766 765.086C194.672 765.086 195.453 765.242 196.109 765.555C196.773 765.867 197.316 766.305 197.738 766.867C198.16 767.422 198.473 768.078 198.676 768.836C198.879 769.586 198.98 770.406 198.98 771.297V772.27H189.512V770.5H196.812V770.336C196.781 769.773 196.664 769.227 196.461 768.695C196.266 768.164 195.953 767.727 195.523 767.383C195.094 767.039 194.508 766.867 193.766 766.867C193.273 766.867 192.82 766.973 192.406 767.184C191.992 767.387 191.637 767.691 191.34 768.098C191.043 768.504 190.812 769 190.648 769.586C190.484 770.172 190.402 770.848 190.402 771.613V772.105C190.402 772.707 190.484 773.273 190.648 773.805C190.82 774.328 191.066 774.789 191.387 775.188C191.715 775.586 192.109 775.898 192.57 776.125C193.039 776.352 193.57 776.465 194.164 776.465C194.93 776.465 195.578 776.309 196.109 775.996C196.641 775.684 197.105 775.266 197.504 774.742L198.816 775.785C198.543 776.199 198.195 776.594 197.773 776.969C197.352 777.344 196.832 777.648 196.215 777.883C195.605 778.117 194.883 778.234 194.047 778.234ZM202.977 765.32L205.754 769.938L208.566 765.32H211.109L206.961 771.578L211.238 778H208.73L205.801 773.242L202.871 778H200.352L204.617 771.578L200.48 765.32H202.977ZM218.727 765.32V766.984H211.871V765.32H218.727ZM214.191 762.238H216.359V774.859C216.359 775.289 216.426 775.613 216.559 775.832C216.691 776.051 216.863 776.195 217.074 776.266C217.285 776.336 217.512 776.371 217.754 776.371C217.934 776.371 218.121 776.355 218.316 776.324C218.52 776.285 218.672 776.254 218.773 776.23L218.785 778C218.613 778.055 218.387 778.105 218.105 778.152C217.832 778.207 217.5 778.234 217.109 778.234C216.578 778.234 216.09 778.129 215.645 777.918C215.199 777.707 214.844 777.355 214.578 776.863C214.32 776.363 214.191 775.691 214.191 774.848V762.238Z" fill="white"/>
<path d="M50.0938 126.164V139.688C49.5625 140.328 48.7422 141.023 47.6328 141.773C46.5234 142.508 45.0938 143.141 43.3438 143.672C41.5938 144.203 39.4766 144.469 36.9922 144.469C34.7891 144.469 32.7812 144.109 30.9688 143.391C29.1562 142.656 27.5938 141.586 26.2812 140.18C24.9844 138.773 23.9844 137.055 23.2812 135.023C22.5781 132.977 22.2266 130.641 22.2266 128.016V125.883C22.2266 123.258 22.5625 120.922 23.2344 118.875C23.9219 116.828 24.8984 115.102 26.1641 113.695C27.4297 112.289 28.9375 111.219 30.6875 110.484C32.4375 109.75 34.3828 109.383 36.5234 109.383C39.4922 109.383 41.9297 109.867 43.8359 110.836C45.7422 111.789 47.1953 113.117 48.1953 114.82C49.2109 116.508 49.8359 118.445 50.0703 120.633H43.25C43.0781 119.477 42.75 118.469 42.2656 117.609C41.7812 116.75 41.0859 116.078 40.1797 115.594C39.2891 115.109 38.1328 114.867 36.7109 114.867C35.5391 114.867 34.4922 115.109 33.5703 115.594C32.6641 116.062 31.8984 116.758 31.2734 117.68C30.6484 118.602 30.1719 119.742 29.8438 121.102C29.5156 122.461 29.3516 124.039 29.3516 125.836V128.016C29.3516 129.797 29.5234 131.375 29.8672 132.75C30.2109 134.109 30.7188 135.258 31.3906 136.195C32.0781 137.117 32.9219 137.812 33.9219 138.281C34.9219 138.75 36.0859 138.984 37.4141 138.984C38.5234 138.984 39.4453 138.891 40.1797 138.703C40.9297 138.516 41.5312 138.289 41.9844 138.023C42.4531 137.742 42.8125 137.477 43.0625 137.227V131.18H36.6406V126.164H50.0938ZM69.0312 138.281V126.984C69.0312 126.172 68.8984 125.477 68.6328 124.898C68.3672 124.305 67.9531 123.844 67.3906 123.516C66.8438 123.188 66.1328 123.023 65.2578 123.023C64.5078 123.023 63.8594 123.156 63.3125 123.422C62.7656 123.672 62.3438 124.039 62.0469 124.523C61.75 124.992 61.6016 125.547 61.6016 126.188H54.8516C54.8516 125.109 55.1016 124.086 55.6016 123.117C56.1016 122.148 56.8281 121.297 57.7812 120.562C58.7344 119.812 59.8672 119.227 61.1797 118.805C62.5078 118.383 63.9922 118.172 65.6328 118.172C67.6016 118.172 69.3516 118.5 70.8828 119.156C72.4141 119.812 73.6172 120.797 74.4922 122.109C75.3828 123.422 75.8281 125.062 75.8281 127.031V137.883C75.8281 139.273 75.9141 140.414 76.0859 141.305C76.2578 142.18 76.5078 142.945 76.8359 143.602V144H70.0156C69.6875 143.312 69.4375 142.453 69.2656 141.422C69.1094 140.375 69.0312 139.328 69.0312 138.281ZM69.9219 128.555L69.9688 132.375H66.1953C65.3047 132.375 64.5312 132.477 63.875 132.68C63.2188 132.883 62.6797 133.172 62.2578 133.547C61.8359 133.906 61.5234 134.328 61.3203 134.812C61.1328 135.297 61.0391 135.828 61.0391 136.406C61.0391 136.984 61.1719 137.508 61.4375 137.977C61.7031 138.43 62.0859 138.789 62.5859 139.055C63.0859 139.305 63.6719 139.43 64.3438 139.43C65.3594 139.43 66.2422 139.227 66.9922 138.82C67.7422 138.414 68.3203 137.914 68.7266 137.32C69.1484 136.727 69.3672 136.164 69.3828 135.633L71.1641 138.492C70.9141 139.133 70.5703 139.797 70.1328 140.484C69.7109 141.172 69.1719 141.82 68.5156 142.43C67.8594 143.023 67.0703 143.516 66.1484 143.906C65.2266 144.281 64.1328 144.469 62.8672 144.469C61.2578 144.469 59.7969 144.148 58.4844 143.508C57.1875 142.852 56.1562 141.953 55.3906 140.812C54.6406 139.656 54.2656 138.344 54.2656 136.875C54.2656 135.547 54.5156 134.367 55.0156 133.336C55.5156 132.305 56.25 131.438 57.2188 130.734C58.2031 130.016 59.4297 129.477 60.8984 129.117C62.3672 128.742 64.0703 128.555 66.0078 128.555H69.9219ZM88.1562 118.641V144H81.3828V118.641H88.1562ZM80.9609 112.031C80.9609 111.047 81.3047 110.234 81.9922 109.594C82.6797 108.953 83.6016 108.633 84.7578 108.633C85.8984 108.633 86.8125 108.953 87.5 109.594C88.2031 110.234 88.5547 111.047 88.5547 112.031C88.5547 113.016 88.2031 113.828 87.5 114.469C86.8125 115.109 85.8984 115.43 84.7578 115.43C83.6016 115.43 82.6797 115.109 81.9922 114.469C81.3047 113.828 80.9609 113.016 80.9609 112.031ZM100.344 124.055V144H93.5938V118.641H99.9219L100.344 124.055ZM99.3594 130.43H97.5312C97.5312 128.555 97.7734 126.867 98.2578 125.367C98.7422 123.852 99.4219 122.562 100.297 121.5C101.172 120.422 102.211 119.602 103.414 119.039C104.633 118.461 105.992 118.172 107.492 118.172C108.68 118.172 109.766 118.344 110.75 118.688C111.734 119.031 112.578 119.578 113.281 120.328C114 121.078 114.547 122.07 114.922 123.305C115.312 124.539 115.508 126.047 115.508 127.828V144H108.711V127.805C108.711 126.68 108.555 125.805 108.242 125.18C107.93 124.555 107.469 124.117 106.859 123.867C106.266 123.602 105.531 123.469 104.656 123.469C103.75 123.469 102.961 123.648 102.289 124.008C101.633 124.367 101.086 124.867 100.648 125.508C100.227 126.133 99.9062 126.867 99.6875 127.711C99.4688 128.555 99.3594 129.461 99.3594 130.43ZM30.0781 174.875V209H23.0469V174.875H30.0781ZM50.5156 174.875L36.9922 191.727L29.1875 200.117L27.9219 193.461L33.1953 186.242L41.8906 174.875H50.5156ZM42.5234 209L32.4688 193.227L37.6719 188.867L50.8438 209H42.5234ZM59.5625 189.055V209H52.8125V183.641H59.1406L59.5625 189.055ZM58.5781 195.43H56.75C56.75 193.555 56.9922 191.867 57.4766 190.367C57.9609 188.852 58.6406 187.562 59.5156 186.5C60.3906 185.422 61.4297 184.602 62.6328 184.039C63.8516 183.461 65.2109 183.172 66.7109 183.172C67.8984 183.172 68.9844 183.344 69.9688 183.688C70.9531 184.031 71.7969 184.578 72.5 185.328C73.2188 186.078 73.7656 187.07 74.1406 188.305C74.5312 189.539 74.7266 191.047 74.7266 192.828V209H67.9297V192.805C67.9297 191.68 67.7734 190.805 67.4609 190.18C67.1484 189.555 66.6875 189.117 66.0781 188.867C65.4844 188.602 64.75 188.469 63.875 188.469C62.9688 188.469 62.1797 188.648 61.5078 189.008C60.8516 189.367 60.3047 189.867 59.8672 190.508C59.4453 191.133 59.125 191.867 58.9062 192.711C58.6875 193.555 58.5781 194.461 58.5781 195.43ZM78.7812 196.578V196.086C78.7812 194.227 79.0469 192.516 79.5781 190.953C80.1094 189.375 80.8828 188.008 81.8984 186.852C82.9141 185.695 84.1641 184.797 85.6484 184.156C87.1328 183.5 88.8359 183.172 90.7578 183.172C92.6797 183.172 94.3906 183.5 95.8906 184.156C97.3906 184.797 98.6484 185.695 99.6641 186.852C100.695 188.008 101.477 189.375 102.008 190.953C102.539 192.516 102.805 194.227 102.805 196.086V196.578C102.805 198.422 102.539 200.133 102.008 201.711C101.477 203.273 100.695 204.641 99.6641 205.812C98.6484 206.969 97.3984 207.867 95.9141 208.508C94.4297 209.148 92.7266 209.469 90.8047 209.469C88.8828 209.469 87.1719 209.148 85.6719 208.508C84.1875 207.867 82.9297 206.969 81.8984 205.812C80.8828 204.641 80.1094 203.273 79.5781 201.711C79.0469 200.133 78.7812 198.422 78.7812 196.578ZM85.5312 196.086V196.578C85.5312 197.641 85.625 198.633 85.8125 199.555C86 200.477 86.2969 201.289 86.7031 201.992C87.125 202.68 87.6719 203.219 88.3438 203.609C89.0156 204 89.8359 204.195 90.8047 204.195C91.7422 204.195 92.5469 204 93.2188 203.609C93.8906 203.219 94.4297 202.68 94.8359 201.992C95.2422 201.289 95.5391 200.477 95.7266 199.555C95.9297 198.633 96.0312 197.641 96.0312 196.578V196.086C96.0312 195.055 95.9297 194.086 95.7266 193.18C95.5391 192.258 95.2344 191.445 94.8125 190.742C94.4062 190.023 93.8672 189.461 93.1953 189.055C92.5234 188.648 91.7109 188.445 90.7578 188.445C89.8047 188.445 88.9922 188.648 88.3203 189.055C87.6641 189.461 87.125 190.023 86.7031 190.742C86.2969 191.445 86 192.258 85.8125 193.18C85.625 194.086 85.5312 195.055 85.5312 196.086ZM114.195 202.438L119.469 183.641H123.758L122.375 191.023L117.102 209H113.516L114.195 202.438ZM111.523 183.641L115.297 202.414L115.648 209H111.43L105.008 183.641H111.523ZM128.586 202.109L132.266 183.641H138.805L132.383 209H128.188L128.586 202.109ZM124.344 183.641L129.594 202.297L130.32 209H126.711L121.438 191.047L120.102 183.641H124.344ZM149.328 173V209H142.555V173H149.328ZM166.578 209.469C164.609 209.469 162.844 209.156 161.281 208.531C159.719 207.891 158.391 207.008 157.297 205.883C156.219 204.758 155.391 203.453 154.812 201.969C154.234 200.469 153.945 198.875 153.945 197.188V196.25C153.945 194.328 154.219 192.57 154.766 190.977C155.312 189.383 156.094 188 157.109 186.828C158.141 185.656 159.391 184.758 160.859 184.133C162.328 183.492 163.984 183.172 165.828 183.172C167.625 183.172 169.219 183.469 170.609 184.062C172 184.656 173.164 185.5 174.102 186.594C175.055 187.688 175.773 189 176.258 190.531C176.742 192.047 176.984 193.734 176.984 195.594V198.406H156.828V193.906H170.352V193.391C170.352 192.453 170.18 191.617 169.836 190.883C169.508 190.133 169.008 189.539 168.336 189.102C167.664 188.664 166.805 188.445 165.758 188.445C164.867 188.445 164.102 188.641 163.461 189.031C162.82 189.422 162.297 189.969 161.891 190.672C161.5 191.375 161.203 192.203 161 193.156C160.812 194.094 160.719 195.125 160.719 196.25V197.188C160.719 198.203 160.859 199.141 161.141 200C161.438 200.859 161.852 201.602 162.383 202.227C162.93 202.852 163.586 203.336 164.352 203.68C165.133 204.023 166.016 204.195 167 204.195C168.219 204.195 169.352 203.961 170.398 203.492C171.461 203.008 172.375 202.281 173.141 201.312L176.422 204.875C175.891 205.641 175.164 206.375 174.242 207.078C173.336 207.781 172.242 208.359 170.961 208.812C169.68 209.25 168.219 209.469 166.578 209.469ZM195.805 203.469V173H202.602V209H196.484L195.805 203.469ZM179.773 196.625V196.133C179.773 194.195 179.992 192.438 180.43 190.859C180.867 189.266 181.508 187.898 182.352 186.758C183.195 185.617 184.234 184.734 185.469 184.109C186.703 183.484 188.109 183.172 189.688 183.172C191.172 183.172 192.469 183.484 193.578 184.109C194.703 184.734 195.656 185.625 196.438 186.781C197.234 187.922 197.875 189.273 198.359 190.836C198.844 192.383 199.195 194.078 199.414 195.922V197C199.195 198.766 198.844 200.406 198.359 201.922C197.875 203.438 197.234 204.766 196.438 205.906C195.656 207.031 194.703 207.906 193.578 208.531C192.453 209.156 191.141 209.469 189.641 209.469C188.062 209.469 186.656 209.148 185.422 208.508C184.203 207.867 183.172 206.969 182.328 205.812C181.5 204.656 180.867 203.297 180.43 201.734C179.992 200.172 179.773 198.469 179.773 196.625ZM186.523 196.133V196.625C186.523 197.672 186.602 198.648 186.758 199.555C186.93 200.461 187.203 201.266 187.578 201.969C187.969 202.656 188.469 203.195 189.078 203.586C189.703 203.961 190.461 204.148 191.352 204.148C192.508 204.148 193.461 203.891 194.211 203.375C194.961 202.844 195.531 202.117 195.922 201.195C196.328 200.273 196.562 199.211 196.625 198.008V194.938C196.578 193.953 196.438 193.07 196.203 192.289C195.984 191.492 195.656 190.812 195.219 190.25C194.797 189.688 194.266 189.25 193.625 188.938C193 188.625 192.258 188.469 191.398 188.469C190.523 188.469 189.773 188.672 189.148 189.078C188.523 189.469 188.016 190.008 187.625 190.695C187.25 191.383 186.969 192.195 186.781 193.133C186.609 194.055 186.523 195.055 186.523 196.133ZM223.93 183.641H230.047V208.156C230.047 210.469 229.531 212.43 228.5 214.039C227.484 215.664 226.062 216.891 224.234 217.719C222.406 218.562 220.281 218.984 217.859 218.984C216.797 218.984 215.672 218.844 214.484 218.562C213.312 218.281 212.188 217.844 211.109 217.25C210.047 216.656 209.156 215.906 208.438 215L211.414 211.016C212.195 211.922 213.102 212.625 214.133 213.125C215.164 213.641 216.305 213.898 217.555 213.898C218.773 213.898 219.805 213.672 220.648 213.219C221.492 212.781 222.141 212.133 222.594 211.273C223.047 210.43 223.273 209.406 223.273 208.203V189.5L223.93 183.641ZM206.867 196.625V196.133C206.867 194.195 207.102 192.438 207.57 190.859C208.055 189.266 208.734 187.898 209.609 186.758C210.5 185.617 211.578 184.734 212.844 184.109C214.109 183.484 215.539 183.172 217.133 183.172C218.82 183.172 220.234 183.484 221.375 184.109C222.516 184.734 223.453 185.625 224.188 186.781C224.922 187.922 225.492 189.273 225.898 190.836C226.32 192.383 226.648 194.078 226.883 195.922V197C226.648 198.766 226.297 200.406 225.828 201.922C225.359 203.438 224.742 204.766 223.977 205.906C223.211 207.031 222.258 207.906 221.117 208.531C219.992 209.156 218.648 209.469 217.086 209.469C215.523 209.469 214.109 209.148 212.844 208.508C211.594 207.867 210.523 206.969 209.633 205.812C208.742 204.656 208.055 203.297 207.57 201.734C207.102 200.172 206.867 198.469 206.867 196.625ZM213.617 196.133V196.625C213.617 197.672 213.719 198.648 213.922 199.555C214.125 200.461 214.438 201.266 214.859 201.969C215.297 202.656 215.836 203.195 216.477 203.586C217.133 203.961 217.906 204.148 218.797 204.148C220.031 204.148 221.039 203.891 221.82 203.375C222.602 202.844 223.188 202.117 223.578 201.195C223.969 200.273 224.195 199.211 224.258 198.008V194.938C224.227 193.953 224.094 193.07 223.859 192.289C223.625 191.492 223.297 190.812 222.875 190.25C222.453 189.688 221.906 189.25 221.234 188.938C220.562 188.625 219.766 188.469 218.844 188.469C217.953 188.469 217.18 188.672 216.523 189.078C215.883 189.469 215.344 190.008 214.906 190.695C214.484 191.383 214.164 192.195 213.945 193.133C213.727 194.055 213.617 195.055 213.617 196.133ZM246.969 209.469C245 209.469 243.234 209.156 241.672 208.531C240.109 207.891 238.781 207.008 237.688 205.883C236.609 204.758 235.781 203.453 235.203 201.969C234.625 200.469 234.336 198.875 234.336 197.188V196.25C234.336 194.328 234.609 192.57 235.156 190.977C235.703 189.383 236.484 188 237.5 186.828C238.531 185.656 239.781 184.758 241.25 184.133C242.719 183.492 244.375 183.172 246.219 183.172C248.016 183.172 249.609 183.469 251 184.062C252.391 184.656 253.555 185.5 254.492 186.594C255.445 187.688 256.164 189 256.648 190.531C257.133 192.047 257.375 193.734 257.375 195.594V198.406H237.219V193.906H250.742V193.391C250.742 192.453 250.57 191.617 250.227 190.883C249.898 190.133 249.398 189.539 248.727 189.102C248.055 188.664 247.195 188.445 246.148 188.445C245.258 188.445 244.492 188.641 243.852 189.031C243.211 189.422 242.688 189.969 242.281 190.672C241.891 191.375 241.594 192.203 241.391 193.156C241.203 194.094 241.109 195.125 241.109 196.25V197.188C241.109 198.203 241.25 199.141 241.531 200C241.828 200.859 242.242 201.602 242.773 202.227C243.32 202.852 243.977 203.336 244.742 203.68C245.523 204.023 246.406 204.195 247.391 204.195C248.609 204.195 249.742 203.961 250.789 203.492C251.852 203.008 252.766 202.281 253.531 201.312L256.812 204.875C256.281 205.641 255.555 206.375 254.633 207.078C253.727 207.781 252.633 208.359 251.352 208.812C250.07 209.25 248.609 209.469 246.969 209.469Z" fill="#1B30EF"/>
<g clip-path="url(#clip0_18_23)">
<path d="M302.812 588.938V579.562C302.812 576.75 304.687 574.875 307.5 574.875C310.312 574.875 312.188 576.75 312.188 579.562V588.938C312.188 591.75 310.312 593.625 307.5 593.625C304.687 593.625 302.812 591.75 302.812 588.938Z" fill="#42455E"/>
<path d="M274.688 307.688V560.812H68.4375C58.125 560.812 49.6875 569.25 49.6875 579.562V326.438C49.6875 316.125 58.125 307.688 68.4375 307.688H274.688Z" fill="white"/>
<path d="M77.8125 307.688V560.812H68.4375C58.125 560.812 49.6875 569.25 49.6875 579.562V326.438C49.6875 316.125 58.125 307.688 68.4375 307.688H77.8125Z" fill="white"/>
<path d="M274.688 546.75V560.812H68.4375C58.125 560.812 49.6875 569.25 49.6875 579.562V565.5C49.6875 555.188 58.125 546.75 68.4375 546.75H274.688Z" fill="white"/>
<path d="M321.562 382.688V551.438L312.188 579.562H302.812L293.438 551.438V382.688H321.562Z" fill="white"/>
<path d="M274.688 303H68.4375C55.3125 303 45 313.312 45 326.438V579.562C45 592.688 55.3125 603 68.4375 603H274.688C277.5 603 279.375 601.125 279.375 598.312V307.688C279.375 304.875 277.5 303 274.688 303ZM270 556.125H82.5V312.375H270V556.125ZM54.375 326.438C54.375 318.469 60.4688 312.375 68.4375 312.375H73.125V556.125C66.5625 555.188 60.4688 557.062 54.8438 560.344C53.9062 560.812 54.375 578.625 54.375 326.438ZM68.4375 593.625C60.4688 593.625 54.375 587.531 54.375 579.562C54.375 571.594 60.4688 565.5 68.4375 565.5H270V574.875H68.4375C65.625 574.875 63.75 576.75 63.75 579.562C63.75 582.375 65.625 584.25 68.4375 584.25H270V593.625H68.4375Z" fill="#1B30EF"/>
<path d="M105.938 429.562H246.562C249.375 429.562 251.25 427.688 251.25 424.875V359.25C251.25 356.437 249.375 354.562 246.562 354.562H105.938C103.125 354.562 101.25 356.437 101.25 359.25V424.875C101.25 427.688 103.125 429.562 105.938 429.562ZM110.625 363.938H241.875V420.188H110.625V363.938Z" fill="#1B30EF"/>
<path d="M232.5 495.188H120C117.187 495.188 115.312 497.062 115.312 499.875C115.312 502.688 117.187 504.562 120 504.562H232.5C235.312 504.562 237.188 502.688 237.188 499.875C237.188 497.062 235.312 495.188 232.5 495.188Z" fill="#1B30EF"/>
<path d="M223.125 518.625H129.375C126.562 518.625 124.688 520.5 124.688 523.312C124.688 526.125 126.562 528 129.375 528H223.125C225.938 528 227.812 526.125 227.812 523.312C227.812 520.5 225.938 518.625 223.125 518.625Z" fill="#1B30EF"/>
<path d="M343.594 370.969L326.25 352.688V345.188C326.25 342.375 324.375 340.5 321.562 340.5V326.438C321.562 318.469 315.469 312.375 307.5 312.375C299.531 312.375 293.438 318.469 293.438 326.438V340.5C290.625 340.5 288.75 342.375 288.75 345.188V551.438C288.75 552.375 288.281 550.5 298.125 580.969C298.594 582.844 300.938 584.25 302.813 584.25V588.938C302.813 591.75 304.688 593.625 307.5 593.625C310.313 593.625 312.188 591.75 312.188 588.938V584.25C314.063 584.25 316.406 582.844 316.875 580.969C327.188 550.031 326.25 552.375 326.25 551.438V366.281L335.625 376.125V415.5C335.625 418.312 337.5 420.188 340.312 420.188C343.125 420.188 345 418.312 345 415.5C345 371.438 345.469 373.312 343.594 370.969ZM316.875 378H298.125V349.875H316.875V378ZM302.813 326.438C302.813 323.625 304.688 321.75 307.5 321.75C310.313 321.75 312.188 323.625 312.188 326.438V340.5H302.813V326.438ZM316.875 550.5L308.906 574.875H306.094L298.125 550.5V387.375H316.875V550.5Z" fill="#1B30EF"/>
</g>
<defs>
<filter id="filter0_d_18_23" x="16" y="731" width="358" height="86" filterUnits="userSpaceOnUse" color-interpolation-filters="sRGB">
<feFlood flood-opacity="0" result="BackgroundImageFix"/>
<feColorMatrix in="SourceAlpha" type="matrix" values="0 0 0 0 0 0 0 0 0 0 0 0 0 0 0 0 0 0 127 0" result="hardAlpha"/>
<feOffset dy="4"/>
<feGaussianBlur stdDeviation="2"/>
<feComposite in2="hardAlpha" operator="out"/>
<feColorMatrix type="matrix" values="0 0 0 0 0.74902 0 0 0 0 0.921569 0 0 0 0 0.984314 0 0 0 0.38 0"/>
<feBlend mode="normal" in2="BackgroundImageFix" result="effect1_dropShadow_18_23"/>
<feBlend mode="normal" in="SourceGraphic" in2="effect1_dropShadow_18_23" result="shape"/>
</filter>
<clipPath id="clip0_18_23">
<rect width="300" height="300" fill="white" transform="translate(45 303)"/>
</clipPath>
</defs>
</svg>
