<svg width="2042" height="2238" viewBox="0 0 2042 2238" fill="none" xmlns="http://www.w3.org/2000/svg">
<rect width="2042" height="2238" rx="8" fill="white"/>
<rect x="276" y="131" width="164" height="164" rx="8" fill="#0AD81D" fill-opacity="0.7"/>
<rect x="276" y="431" width="164" height="164" rx="8" fill="#ED2024" fill-opacity="0.8"/>
<path d="M621.97 162.15V174.93H642.58V186.81H621.97V200.67H645.28V213H606.58V149.82H645.28V162.15H621.97ZM684.971 213L675.341 199.05L667.241 213H650.591L667.151 187.35L650.141 162.78H667.421L677.051 176.64L685.151 162.78H701.801L684.971 188.07L702.251 213H684.971ZM723.572 169.89C725.072 167.55 727.142 165.66 729.782 164.22C732.422 162.78 735.512 162.06 739.052 162.06C743.192 162.06 746.942 163.11 750.302 165.21C753.662 167.31 756.302 170.31 758.222 174.21C760.202 178.11 761.192 182.64 761.192 187.8C761.192 192.96 760.202 197.52 758.222 201.48C756.302 205.38 753.662 208.41 750.302 210.57C746.942 212.67 743.192 213.72 739.052 213.72C735.572 213.72 732.482 213 729.782 211.56C727.142 210.12 725.072 208.26 723.572 205.98V236.94H708.182V162.78H723.572V169.89ZM745.532 187.8C745.532 183.96 744.452 180.96 742.292 178.8C740.192 176.58 737.582 175.47 734.462 175.47C731.402 175.47 728.792 176.58 726.632 178.8C724.532 181.02 723.482 184.05 723.482 187.89C723.482 191.73 724.532 194.76 726.632 196.98C728.792 199.2 731.402 200.31 734.462 200.31C737.522 200.31 740.132 199.2 742.292 196.98C744.452 194.7 745.532 191.64 745.532 187.8ZM816.606 187.08C816.606 188.52 816.516 190.02 816.336 191.58H781.506C781.746 194.7 782.736 197.1 784.476 198.78C786.276 200.4 788.466 201.21 791.046 201.21C794.886 201.21 797.556 199.59 799.056 196.35H815.436C814.596 199.65 813.066 202.62 810.846 205.26C808.686 207.9 805.956 209.97 802.656 211.47C799.356 212.97 795.666 213.72 791.586 213.72C786.666 213.72 782.286 212.67 778.446 210.57C774.606 208.47 771.606 205.47 769.446 201.57C767.286 197.67 766.206 193.11 766.206 187.89C766.206 182.67 767.256 178.11 769.356 174.21C771.516 170.31 774.516 167.31 778.356 165.21C782.196 163.11 786.606 162.06 791.586 162.06C796.446 162.06 800.766 163.08 804.546 165.12C808.326 167.16 811.266 170.07 813.366 173.85C815.526 177.63 816.606 182.04 816.606 187.08ZM800.856 183.03C800.856 180.39 799.956 178.29 798.156 176.73C796.356 175.17 794.106 174.39 791.406 174.39C788.826 174.39 786.636 175.14 784.836 176.64C783.096 178.14 782.016 180.27 781.596 183.03H800.856ZM821.665 187.8C821.665 182.64 822.625 178.11 824.545 174.21C826.525 170.31 829.195 167.31 832.555 165.21C835.915 163.11 839.665 162.06 843.805 162.06C847.105 162.06 850.105 162.75 852.805 164.13C855.565 165.51 857.725 167.37 859.285 169.71V146.4H874.675V213H859.285V205.8C857.845 208.2 855.775 210.12 853.075 211.56C850.435 213 847.345 213.72 843.805 213.72C839.665 213.72 835.915 212.67 832.555 210.57C829.195 208.41 826.525 205.38 824.545 201.48C822.625 197.52 821.665 192.96 821.665 187.8ZM859.285 187.89C859.285 184.05 858.205 181.02 856.045 178.8C853.945 176.58 851.365 175.47 848.305 175.47C845.245 175.47 842.635 176.58 840.475 178.8C838.375 180.96 837.325 183.96 837.325 187.8C837.325 191.64 838.375 194.7 840.475 196.98C842.635 199.2 845.245 200.31 848.305 200.31C851.365 200.31 853.945 199.2 856.045 196.98C858.205 194.76 859.285 191.73 859.285 187.89ZM893.549 157.56C890.849 157.56 888.629 156.78 886.889 155.22C885.209 153.6 884.369 151.62 884.369 149.28C884.369 146.88 885.209 144.9 886.889 143.34C888.629 141.72 890.849 140.91 893.549 140.91C896.189 140.91 898.349 141.72 900.029 143.34C901.769 144.9 902.639 146.88 902.639 149.28C902.639 151.62 901.769 153.6 900.029 155.22C898.349 156.78 896.189 157.56 893.549 157.56ZM901.199 162.78V213H885.809V162.78H901.199ZM940.341 199.95V213H932.511C926.931 213 922.581 211.65 919.461 208.95C916.341 206.19 914.781 201.72 914.781 195.54V175.56H908.661V162.78H914.781V150.54H930.171V162.78H940.251V175.56H930.171V195.72C930.171 197.22 930.531 198.3 931.251 198.96C931.971 199.62 933.171 199.95 934.851 199.95H940.341ZM996.254 187.08C996.254 188.52 996.164 190.02 995.984 191.58H961.154C961.394 194.7 962.384 197.1 964.124 198.78C965.924 200.4 968.114 201.21 970.694 201.21C974.534 201.21 977.204 199.59 978.704 196.35H995.084C994.244 199.65 992.714 202.62 990.494 205.26C988.334 207.9 985.604 209.97 982.304 211.47C979.004 212.97 975.314 213.72 971.234 213.72C966.314 213.72 961.934 212.67 958.094 210.57C954.254 208.47 951.254 205.47 949.094 201.57C946.934 197.67 945.854 193.11 945.854 187.89C945.854 182.67 946.904 178.11 949.004 174.21C951.164 170.31 954.164 167.31 958.004 165.21C961.844 163.11 966.254 162.06 971.234 162.06C976.094 162.06 980.414 163.08 984.194 165.12C987.974 167.16 990.914 170.07 993.014 173.85C995.174 177.63 996.254 182.04 996.254 187.08ZM980.504 183.03C980.504 180.39 979.604 178.29 977.804 176.73C976.004 175.17 973.754 174.39 971.054 174.39C968.474 174.39 966.284 175.14 964.484 176.64C962.744 178.14 961.664 180.27 961.244 183.03H980.504ZM1001.31 187.8C1001.31 182.64 1002.27 178.11 1004.19 174.21C1006.17 170.31 1008.84 167.31 1012.2 165.21C1015.56 163.11 1019.31 162.06 1023.45 162.06C1026.75 162.06 1029.75 162.75 1032.45 164.13C1035.21 165.51 1037.37 167.37 1038.93 169.71V146.4H1054.32V213H1038.93V205.8C1037.49 208.2 1035.42 210.12 1032.72 211.56C1030.08 213 1026.99 213.72 1023.45 213.72C1019.31 213.72 1015.56 212.67 1012.2 210.57C1008.84 208.41 1006.17 205.38 1004.19 201.48C1002.27 197.52 1001.31 192.96 1001.31 187.8ZM1038.93 187.89C1038.93 184.05 1037.85 181.02 1035.69 178.8C1033.59 176.58 1031.01 175.47 1027.95 175.47C1024.89 175.47 1022.28 176.58 1020.12 178.8C1018.02 180.96 1016.97 183.96 1016.97 187.8C1016.97 191.64 1018.02 194.7 1020.12 196.98C1022.28 199.2 1024.89 200.31 1027.95 200.31C1031.01 200.31 1033.59 199.2 1035.69 196.98C1037.85 194.76 1038.93 191.73 1038.93 187.89ZM1081.47 187.8C1081.47 182.64 1082.43 178.11 1084.35 174.21C1086.33 170.31 1089 167.31 1092.36 165.21C1095.72 163.11 1099.47 162.06 1103.61 162.06C1106.91 162.06 1109.91 162.75 1112.61 164.13C1115.37 165.51 1117.53 167.37 1119.09 169.71V146.4H1134.48V213H1119.09V205.8C1117.65 208.2 1115.58 210.12 1112.88 211.56C1110.24 213 1107.15 213.72 1103.61 213.72C1099.47 213.72 1095.72 212.67 1092.36 210.57C1089 208.41 1086.33 205.38 1084.35 201.48C1082.43 197.52 1081.47 192.96 1081.47 187.8ZM1119.09 187.89C1119.09 184.05 1118.01 181.02 1115.85 178.8C1113.75 176.58 1111.17 175.47 1108.11 175.47C1105.05 175.47 1102.44 176.58 1100.28 178.8C1098.18 180.96 1097.13 183.96 1097.13 187.8C1097.13 191.64 1098.18 194.7 1100.28 196.98C1102.44 199.2 1105.05 200.31 1108.11 200.31C1111.17 200.31 1113.75 199.2 1115.85 196.98C1118.01 194.76 1119.09 191.73 1119.09 187.89ZM1192.95 187.08C1192.95 188.52 1192.86 190.02 1192.68 191.58H1157.85C1158.09 194.7 1159.08 197.1 1160.82 198.78C1162.62 200.4 1164.81 201.21 1167.39 201.21C1171.23 201.21 1173.9 199.59 1175.4 196.35H1191.78C1190.94 199.65 1189.41 202.62 1187.19 205.26C1185.03 207.9 1182.3 209.97 1179 211.47C1175.7 212.97 1172.01 213.72 1167.93 213.72C1163.01 213.72 1158.63 212.67 1154.79 210.57C1150.95 208.47 1147.95 205.47 1145.79 201.57C1143.63 197.67 1142.55 193.11 1142.55 187.89C1142.55 182.67 1143.6 178.11 1145.7 174.21C1147.86 170.31 1150.86 167.31 1154.7 165.21C1158.54 163.11 1162.95 162.06 1167.93 162.06C1172.79 162.06 1177.11 163.08 1180.89 165.12C1184.67 167.16 1187.61 170.07 1189.71 173.85C1191.87 177.63 1192.95 182.04 1192.95 187.08ZM1177.2 183.03C1177.2 180.39 1176.3 178.29 1174.5 176.73C1172.7 175.17 1170.45 174.39 1167.75 174.39C1165.17 174.39 1162.98 175.14 1161.18 176.64C1159.44 178.14 1158.36 180.27 1157.94 183.03H1177.2ZM1216.46 146.4V213H1201.07V146.4H1216.46ZM1235.36 157.56C1232.66 157.56 1230.44 156.78 1228.7 155.22C1227.02 153.6 1226.18 151.62 1226.18 149.28C1226.18 146.88 1227.02 144.9 1228.7 143.34C1230.44 141.72 1232.66 140.91 1235.36 140.91C1238 140.91 1240.16 141.72 1241.84 143.34C1243.58 144.9 1244.45 146.88 1244.45 149.28C1244.45 151.62 1243.58 153.6 1241.84 155.22C1240.16 156.78 1238 157.56 1235.36 157.56ZM1243.01 162.78V213H1227.62V162.78H1243.01ZM1276.75 198.6L1287.64 162.78H1304.02L1286.2 213H1267.21L1249.39 162.78H1265.86L1276.75 198.6ZM1357.84 187.08C1357.84 188.52 1357.75 190.02 1357.57 191.58H1322.74C1322.98 194.7 1323.97 197.1 1325.71 198.78C1327.51 200.4 1329.7 201.21 1332.28 201.21C1336.12 201.21 1338.79 199.59 1340.29 196.35H1356.67C1355.83 199.65 1354.3 202.62 1352.08 205.26C1349.92 207.9 1347.19 209.97 1343.89 211.47C1340.59 212.97 1336.9 213.72 1332.82 213.72C1327.9 213.72 1323.52 212.67 1319.68 210.57C1315.84 208.47 1312.84 205.47 1310.68 201.57C1308.52 197.67 1307.44 193.11 1307.44 187.89C1307.44 182.67 1308.49 178.11 1310.59 174.21C1312.75 170.31 1315.75 167.31 1319.59 165.21C1323.43 163.11 1327.84 162.06 1332.82 162.06C1337.68 162.06 1342 163.08 1345.78 165.12C1349.56 167.16 1352.5 170.07 1354.6 173.85C1356.76 177.63 1357.84 182.04 1357.84 187.08ZM1342.09 183.03C1342.09 180.39 1341.19 178.29 1339.39 176.73C1337.59 175.17 1335.34 174.39 1332.64 174.39C1330.06 174.39 1327.87 175.14 1326.07 176.64C1324.33 178.14 1323.25 180.27 1322.83 183.03H1342.09ZM1381.35 171.15C1383.15 168.39 1385.4 166.23 1388.1 164.67C1390.8 163.05 1393.8 162.24 1397.1 162.24V178.53H1392.87C1389.03 178.53 1386.15 179.37 1384.23 181.05C1382.31 182.67 1381.35 185.55 1381.35 189.69V213H1365.96V162.78H1381.35V171.15ZM1455.75 162.78L1424.25 236.85H1407.69L1419.21 211.29L1398.78 162.78H1415.97L1427.58 194.19L1439.1 162.78H1455.75ZM1477.33 187.8C1477.33 182.64 1478.29 178.11 1480.21 174.21C1482.19 170.31 1484.86 167.31 1488.22 165.21C1491.58 163.11 1495.33 162.06 1499.47 162.06C1503.01 162.06 1506.1 162.78 1508.74 164.22C1511.44 165.66 1513.51 167.55 1514.95 169.89V162.78H1530.34V213H1514.95V205.89C1513.45 208.23 1511.35 210.12 1508.65 211.56C1506.01 213 1502.92 213.72 1499.38 213.72C1495.3 213.72 1491.58 212.67 1488.22 210.57C1484.86 208.41 1482.19 205.38 1480.21 201.48C1478.29 197.52 1477.33 192.96 1477.33 187.8ZM1514.95 187.89C1514.95 184.05 1513.87 181.02 1511.71 178.8C1509.61 176.58 1507.03 175.47 1503.97 175.47C1500.91 175.47 1498.3 176.58 1496.14 178.8C1494.04 180.96 1492.99 183.96 1492.99 187.8C1492.99 191.64 1494.04 194.7 1496.14 196.98C1498.3 199.2 1500.91 200.31 1503.97 200.31C1507.03 200.31 1509.61 199.2 1511.71 196.98C1513.87 194.76 1514.95 191.73 1514.95 187.89ZM1572.07 162.24C1577.95 162.24 1582.63 164.16 1586.11 168C1589.65 171.78 1591.42 177 1591.42 183.66V213H1576.12V185.73C1576.12 182.37 1575.25 179.76 1573.51 177.9C1571.77 176.04 1569.43 175.11 1566.49 175.11C1563.55 175.11 1561.21 176.04 1559.47 177.9C1557.73 179.76 1556.86 182.37 1556.86 185.73V213H1541.47V162.78H1556.86V169.44C1558.42 167.22 1560.52 165.48 1563.16 164.22C1565.8 162.9 1568.77 162.24 1572.07 162.24ZM1599.06 187.8C1599.06 182.64 1600.02 178.11 1601.94 174.21C1603.92 170.31 1606.59 167.31 1609.95 165.21C1613.31 163.11 1617.06 162.06 1621.2 162.06C1624.5 162.06 1627.5 162.75 1630.2 164.13C1632.96 165.51 1635.12 167.37 1636.68 169.71V146.4H1652.07V213H1636.68V205.8C1635.24 208.2 1633.17 210.12 1630.47 211.56C1627.83 213 1624.74 213.72 1621.2 213.72C1617.06 213.72 1613.31 212.67 1609.95 210.57C1606.59 208.41 1603.92 205.38 1601.94 201.48C1600.02 197.52 1599.06 192.96 1599.06 187.8ZM1636.68 187.89C1636.68 184.05 1635.6 181.02 1633.44 178.8C1631.34 176.58 1628.76 175.47 1625.7 175.47C1622.64 175.47 1620.03 176.58 1617.87 178.8C1615.77 180.96 1614.72 183.96 1614.72 187.8C1614.72 191.64 1615.77 194.7 1617.87 196.98C1620.03 199.2 1622.64 200.31 1625.7 200.31C1628.76 200.31 1631.34 199.2 1633.44 196.98C1635.6 194.76 1636.68 191.73 1636.68 187.89ZM603.52 322.8C603.52 317.64 604.48 313.11 606.4 309.21C608.38 305.31 611.05 302.31 614.41 300.21C617.77 298.11 621.52 297.06 625.66 297.06C628.96 297.06 631.96 297.75 634.66 299.13C637.42 300.51 639.58 302.37 641.14 304.71V281.4H656.53V348H641.14V340.8C639.7 343.2 637.63 345.12 634.93 346.56C632.29 348 629.2 348.72 625.66 348.72C621.52 348.72 617.77 347.67 614.41 345.57C611.05 343.41 608.38 340.38 606.4 336.48C604.48 332.52 603.52 327.96 603.52 322.8ZM641.14 322.89C641.14 319.05 640.06 316.02 637.9 313.8C635.8 311.58 633.22 310.47 630.16 310.47C627.1 310.47 624.49 311.58 622.33 313.8C620.23 315.96 619.18 318.96 619.18 322.8C619.18 326.64 620.23 329.7 622.33 331.98C624.49 334.2 627.1 335.31 630.16 335.31C633.22 335.31 635.8 334.2 637.9 331.98C640.06 329.76 641.14 326.73 641.14 322.89ZM690.524 348.72C685.604 348.72 681.164 347.67 677.204 345.57C673.304 343.47 670.214 340.47 667.934 336.57C665.714 332.67 664.604 328.11 664.604 322.89C664.604 317.73 665.744 313.2 668.024 309.3C670.304 305.34 673.424 302.31 677.384 300.21C681.344 298.11 685.784 297.06 690.704 297.06C695.624 297.06 700.064 298.11 704.024 300.21C707.984 302.31 711.104 305.34 713.384 309.3C715.664 313.2 716.804 317.73 716.804 322.89C716.804 328.05 715.634 332.61 713.294 336.57C711.014 340.47 707.864 343.47 703.844 345.57C699.884 347.67 695.444 348.72 690.524 348.72ZM690.524 335.4C693.464 335.4 695.954 334.32 697.994 332.16C700.094 330 701.144 326.91 701.144 322.89C701.144 318.87 700.124 315.78 698.084 313.62C696.104 311.46 693.644 310.38 690.704 310.38C687.704 310.38 685.214 311.46 683.234 313.62C681.254 315.72 680.264 318.81 680.264 322.89C680.264 326.91 681.224 330 683.144 332.16C685.124 334.32 687.584 335.4 690.524 335.4ZM747.829 348.72C742.909 348.72 738.469 347.67 734.509 345.57C730.609 343.47 727.519 340.47 725.239 336.57C723.019 332.67 721.909 328.11 721.909 322.89C721.909 317.73 723.049 313.2 725.329 309.3C727.609 305.34 730.729 302.31 734.689 300.21C738.649 298.11 743.089 297.06 748.009 297.06C752.929 297.06 757.369 298.11 761.329 300.21C765.289 302.31 768.409 305.34 770.689 309.3C772.969 313.2 774.109 317.73 774.109 322.89C774.109 328.05 772.939 332.61 770.599 336.57C768.319 340.47 765.169 343.47 761.149 345.57C757.189 347.67 752.749 348.72 747.829 348.72ZM747.829 335.4C750.769 335.4 753.259 334.32 755.299 332.16C757.399 330 758.449 326.91 758.449 322.89C758.449 318.87 757.429 315.78 755.389 313.62C753.409 311.46 750.949 310.38 748.009 310.38C745.009 310.38 742.519 311.46 740.539 313.62C738.559 315.72 737.569 318.81 737.569 322.89C737.569 326.91 738.529 330 740.449 332.16C742.429 334.32 744.889 335.4 747.829 335.4ZM797.663 306.15C799.463 303.39 801.713 301.23 804.413 299.67C807.113 298.05 810.113 297.24 813.413 297.24V313.53H809.183C805.343 313.53 802.463 314.37 800.543 316.05C798.623 317.67 797.663 320.55 797.663 324.69V348H782.273V297.78H797.663V306.15ZM841.199 348.72C836.819 348.72 832.919 347.97 829.499 346.47C826.079 344.97 823.379 342.93 821.399 340.35C819.419 337.71 818.309 334.77 818.069 331.53H833.279C833.459 333.27 834.269 334.68 835.709 335.76C837.149 336.84 838.919 337.38 841.019 337.38C842.939 337.38 844.409 337.02 845.429 336.3C846.509 335.52 847.049 334.53 847.049 333.33C847.049 331.89 846.299 330.84 844.799 330.18C843.299 329.46 840.869 328.68 837.509 327.84C833.909 327 830.909 326.13 828.509 325.23C826.109 324.27 824.039 322.8 822.299 320.82C820.559 318.78 819.689 316.05 819.689 312.63C819.689 309.75 820.469 307.14 822.029 304.8C823.649 302.4 825.989 300.51 829.049 299.13C832.169 297.75 835.859 297.06 840.119 297.06C846.419 297.06 851.369 298.62 854.969 301.74C858.629 304.86 860.729 309 861.269 314.16H847.049C846.809 312.42 846.029 311.04 844.709 310.02C843.449 309 841.769 308.49 839.669 308.49C837.869 308.49 836.489 308.85 835.529 309.57C834.569 310.23 834.089 311.16 834.089 312.36C834.089 313.8 834.839 314.88 836.339 315.6C837.899 316.32 840.299 317.04 843.539 317.76C847.259 318.72 850.289 319.68 852.629 320.64C854.969 321.54 857.009 323.04 858.749 325.14C860.549 327.18 861.479 329.94 861.539 333.42C861.539 336.36 860.699 339 859.019 341.34C857.399 343.62 855.029 345.42 851.909 346.74C848.849 348.06 845.279 348.72 841.199 348.72ZM898.945 334.95V348H891.115C885.535 348 881.185 346.65 878.065 343.95C874.945 341.19 873.385 336.72 873.385 330.54V310.56H867.265V297.78H873.385V285.54H888.775V297.78H898.855V310.56H888.775V330.72C888.775 332.22 889.135 333.3 889.855 333.96C890.575 334.62 891.775 334.95 893.455 334.95H898.945ZM954.857 322.08C954.857 323.52 954.768 325.02 954.588 326.58H919.758C919.998 329.7 920.988 332.1 922.728 333.78C924.528 335.4 926.718 336.21 929.298 336.21C933.138 336.21 935.808 334.59 937.308 331.35H953.688C952.848 334.65 951.318 337.62 949.098 340.26C946.938 342.9 944.208 344.97 940.908 346.47C937.608 347.97 933.918 348.72 929.838 348.72C924.918 348.72 920.538 347.67 916.698 345.57C912.858 343.47 909.858 340.47 907.698 336.57C905.538 332.67 904.458 328.11 904.458 322.89C904.458 317.67 905.508 313.11 907.608 309.21C909.768 305.31 912.768 302.31 916.608 300.21C920.448 298.11 924.858 297.06 929.838 297.06C934.698 297.06 939.018 298.08 942.798 300.12C946.578 302.16 949.518 305.07 951.618 308.85C953.778 312.63 954.857 317.04 954.857 322.08ZM939.108 318.03C939.108 315.39 938.208 313.29 936.408 311.73C934.608 310.17 932.358 309.39 929.658 309.39C927.078 309.39 924.888 310.14 923.088 311.64C921.348 313.14 920.268 315.27 919.848 318.03H939.108ZM978.366 304.89C979.866 302.55 981.936 300.66 984.576 299.22C987.216 297.78 990.306 297.06 993.846 297.06C997.986 297.06 1001.74 298.11 1005.1 300.21C1008.46 302.31 1011.1 305.31 1013.02 309.21C1015 313.11 1015.99 317.64 1015.99 322.8C1015.99 327.96 1015 332.52 1013.02 336.48C1011.1 340.38 1008.46 343.41 1005.1 345.57C1001.74 347.67 997.986 348.72 993.846 348.72C990.366 348.72 987.276 348 984.576 346.56C981.936 345.12 979.866 343.26 978.366 340.98V371.94H962.976V297.78H978.366V304.89ZM1000.33 322.8C1000.33 318.96 999.246 315.96 997.086 313.8C994.986 311.58 992.376 310.47 989.256 310.47C986.196 310.47 983.586 311.58 981.426 313.8C979.326 316.02 978.276 319.05 978.276 322.89C978.276 326.73 979.326 329.76 981.426 331.98C983.586 334.2 986.196 335.31 989.256 335.31C992.316 335.31 994.926 334.2 997.086 331.98C999.246 329.7 1000.33 326.64 1000.33 322.8ZM1040.07 322.8C1040.07 317.64 1041.03 313.11 1042.95 309.21C1044.93 305.31 1047.6 302.31 1050.96 300.21C1054.32 298.11 1058.07 297.06 1062.21 297.06C1065.51 297.06 1068.51 297.75 1071.21 299.13C1073.97 300.51 1076.13 302.37 1077.69 304.71V281.4H1093.08V348H1077.69V340.8C1076.25 343.2 1074.18 345.12 1071.48 346.56C1068.84 348 1065.75 348.72 1062.21 348.72C1058.07 348.72 1054.32 347.67 1050.96 345.57C1047.6 343.41 1044.93 340.38 1042.95 336.48C1041.03 332.52 1040.07 327.96 1040.07 322.8ZM1077.69 322.89C1077.69 319.05 1076.61 316.02 1074.45 313.8C1072.35 311.58 1069.77 310.47 1066.71 310.47C1063.65 310.47 1061.04 311.58 1058.88 313.8C1056.78 315.96 1055.73 318.96 1055.73 322.8C1055.73 326.64 1056.78 329.7 1058.88 331.98C1061.04 334.2 1063.65 335.31 1066.71 335.31C1069.77 335.31 1072.35 334.2 1074.45 331.98C1076.61 329.76 1077.69 326.73 1077.69 322.89ZM1151.56 322.08C1151.56 323.52 1151.47 325.02 1151.29 326.58H1116.46C1116.7 329.7 1117.69 332.1 1119.43 333.78C1121.23 335.4 1123.42 336.21 1126 336.21C1129.84 336.21 1132.51 334.59 1134.01 331.35H1150.39C1149.55 334.65 1148.02 337.62 1145.8 340.26C1143.64 342.9 1140.91 344.97 1137.61 346.47C1134.31 347.97 1130.62 348.72 1126.54 348.72C1121.62 348.72 1117.24 347.67 1113.4 345.57C1109.56 343.47 1106.56 340.47 1104.4 336.57C1102.24 332.67 1101.16 328.11 1101.16 322.89C1101.16 317.67 1102.21 313.11 1104.31 309.21C1106.47 305.31 1109.47 302.31 1113.31 300.21C1117.15 298.11 1121.56 297.06 1126.54 297.06C1131.4 297.06 1135.72 298.08 1139.5 300.12C1143.28 302.16 1146.22 305.07 1148.32 308.85C1150.48 312.63 1151.56 317.04 1151.56 322.08ZM1135.81 318.03C1135.81 315.39 1134.91 313.29 1133.11 311.73C1131.31 310.17 1129.06 309.39 1126.36 309.39C1123.78 309.39 1121.59 310.14 1119.79 311.64C1118.05 313.14 1116.97 315.27 1116.55 318.03H1135.81ZM1175.07 281.4V348H1159.68V281.4H1175.07ZM1193.96 292.56C1191.26 292.56 1189.04 291.78 1187.3 290.22C1185.62 288.6 1184.78 286.62 1184.78 284.28C1184.78 281.88 1185.62 279.9 1187.3 278.34C1189.04 276.72 1191.26 275.91 1193.96 275.91C1196.6 275.91 1198.76 276.72 1200.44 278.34C1202.18 279.9 1203.05 281.88 1203.05 284.28C1203.05 286.62 1202.18 288.6 1200.44 290.22C1198.76 291.78 1196.6 292.56 1193.96 292.56ZM1201.61 297.78V348H1186.22V297.78H1201.61ZM1235.35 333.6L1246.24 297.78H1262.62L1244.8 348H1225.81L1207.99 297.78H1224.46L1235.35 333.6ZM1316.44 322.08C1316.44 323.52 1316.35 325.02 1316.17 326.58H1281.34C1281.58 329.7 1282.57 332.1 1284.31 333.78C1286.11 335.4 1288.3 336.21 1290.88 336.21C1294.72 336.21 1297.39 334.59 1298.89 331.35H1315.27C1314.43 334.65 1312.9 337.62 1310.68 340.26C1308.52 342.9 1305.79 344.97 1302.49 346.47C1299.19 347.97 1295.5 348.72 1291.42 348.72C1286.5 348.72 1282.12 347.67 1278.28 345.57C1274.44 343.47 1271.44 340.47 1269.28 336.57C1267.12 332.67 1266.04 328.11 1266.04 322.89C1266.04 317.67 1267.09 313.11 1269.19 309.21C1271.35 305.31 1274.35 302.31 1278.19 300.21C1282.03 298.11 1286.44 297.06 1291.42 297.06C1296.28 297.06 1300.6 298.08 1304.38 300.12C1308.16 302.16 1311.1 305.07 1313.2 308.85C1315.36 312.63 1316.44 317.04 1316.44 322.08ZM1300.69 318.03C1300.69 315.39 1299.79 313.29 1297.99 311.73C1296.19 310.17 1293.94 309.39 1291.24 309.39C1288.66 309.39 1286.47 310.14 1284.67 311.64C1282.93 313.14 1281.85 315.27 1281.43 318.03H1300.69ZM1339.95 306.15C1341.75 303.39 1344 301.23 1346.7 299.67C1349.4 298.05 1352.4 297.24 1355.7 297.24V313.53H1351.47C1347.63 313.53 1344.75 314.37 1342.83 316.05C1340.91 317.67 1339.95 320.55 1339.95 324.69V348H1324.56V297.78H1339.95V306.15ZM1414.35 297.78L1382.85 371.85H1366.29L1377.81 346.29L1357.38 297.78H1374.57L1386.18 329.19L1397.7 297.78H1414.35ZM1461.85 348.72C1456.93 348.72 1452.49 347.67 1448.53 345.57C1444.63 343.47 1441.54 340.47 1439.26 336.57C1437.04 332.67 1435.93 328.11 1435.93 322.89C1435.93 317.73 1437.07 313.2 1439.35 309.3C1441.63 305.34 1444.75 302.31 1448.71 300.21C1452.67 298.11 1457.11 297.06 1462.03 297.06C1466.95 297.06 1471.39 298.11 1475.35 300.21C1479.31 302.31 1482.43 305.34 1484.71 309.3C1486.99 313.2 1488.13 317.73 1488.13 322.89C1488.13 328.05 1486.96 332.61 1484.62 336.57C1482.34 340.47 1479.19 343.47 1475.17 345.57C1471.21 347.67 1466.77 348.72 1461.85 348.72ZM1461.85 335.4C1464.79 335.4 1467.28 334.32 1469.32 332.16C1471.42 330 1472.47 326.91 1472.47 322.89C1472.47 318.87 1471.45 315.78 1469.41 313.62C1467.43 311.46 1464.97 310.38 1462.03 310.38C1459.03 310.38 1456.54 311.46 1454.56 313.62C1452.58 315.72 1451.59 318.81 1451.59 322.89C1451.59 326.91 1452.55 330 1454.47 332.16C1456.45 334.32 1458.91 335.4 1461.85 335.4ZM1511.69 304.89C1513.19 302.55 1515.26 300.66 1517.9 299.22C1520.54 297.78 1523.63 297.06 1527.17 297.06C1531.31 297.06 1535.06 298.11 1538.42 300.21C1541.78 302.31 1544.42 305.31 1546.34 309.21C1548.32 313.11 1549.31 317.64 1549.31 322.8C1549.31 327.96 1548.32 332.52 1546.34 336.48C1544.42 340.38 1541.78 343.41 1538.42 345.57C1535.06 347.67 1531.31 348.72 1527.17 348.72C1523.69 348.72 1520.6 348 1517.9 346.56C1515.26 345.12 1513.19 343.26 1511.69 340.98V371.94H1496.3V297.78H1511.69V304.89ZM1533.65 322.8C1533.65 318.96 1532.57 315.96 1530.41 313.8C1528.31 311.58 1525.7 310.47 1522.58 310.47C1519.52 310.47 1516.91 311.58 1514.75 313.8C1512.65 316.02 1511.6 319.05 1511.6 322.89C1511.6 326.73 1512.65 329.76 1514.75 331.98C1516.91 334.2 1519.52 335.31 1522.58 335.31C1525.64 335.31 1528.25 334.2 1530.41 331.98C1532.57 329.7 1533.65 326.64 1533.65 322.8ZM1585.37 334.95V348H1577.54C1571.96 348 1567.61 346.65 1564.49 343.95C1561.37 341.19 1559.81 336.72 1559.81 330.54V310.56H1553.69V297.78H1559.81V285.54H1575.2V297.78H1585.28V310.56H1575.2V330.72C1575.2 332.22 1575.56 333.3 1576.28 333.96C1577 334.62 1578.2 334.95 1579.88 334.95H1585.37ZM1601.68 292.56C1598.98 292.56 1596.76 291.78 1595.02 290.22C1593.34 288.6 1592.5 286.62 1592.5 284.28C1592.5 281.88 1593.34 279.9 1595.02 278.34C1596.76 276.72 1598.98 275.91 1601.68 275.91C1604.32 275.91 1606.48 276.72 1608.16 278.34C1609.9 279.9 1610.77 281.88 1610.77 284.28C1610.77 286.62 1609.9 288.6 1608.16 290.22C1606.48 291.78 1604.32 292.56 1601.68 292.56ZM1609.33 297.78V348H1593.94V297.78H1609.33ZM1643.35 348.72C1638.43 348.72 1633.99 347.67 1630.03 345.57C1626.13 343.47 1623.04 340.47 1620.76 336.57C1618.54 332.67 1617.43 328.11 1617.43 322.89C1617.43 317.73 1618.57 313.2 1620.85 309.3C1623.13 305.34 1626.25 302.31 1630.21 300.21C1634.17 298.11 1638.61 297.06 1643.53 297.06C1648.45 297.06 1652.89 298.11 1656.85 300.21C1660.81 302.31 1663.93 305.34 1666.21 309.3C1668.49 313.2 1669.63 317.73 1669.63 322.89C1669.63 328.05 1668.46 332.61 1666.12 336.57C1663.84 340.47 1660.69 343.47 1656.67 345.57C1652.71 347.67 1648.27 348.72 1643.35 348.72ZM1643.35 335.4C1646.29 335.4 1648.78 334.32 1650.82 332.16C1652.92 330 1653.97 326.91 1653.97 322.89C1653.97 318.87 1652.95 315.78 1650.91 313.62C1648.93 311.46 1646.47 310.38 1643.53 310.38C1640.53 310.38 1638.04 311.46 1636.06 313.62C1634.08 315.72 1633.09 318.81 1633.09 322.89C1633.09 326.91 1634.05 330 1635.97 332.16C1637.95 334.32 1640.41 335.4 1643.35 335.4ZM1708.39 297.24C1714.27 297.24 1718.95 299.16 1722.43 303C1725.97 306.78 1727.74 312 1727.74 318.66V348H1712.44V320.73C1712.44 317.37 1711.57 314.76 1709.83 312.9C1708.09 311.04 1705.75 310.11 1702.81 310.11C1699.87 310.11 1697.53 311.04 1695.79 312.9C1694.05 314.76 1693.18 317.37 1693.18 320.73V348H1677.79V297.78H1693.18V304.44C1694.74 302.22 1696.84 300.48 1699.48 299.22C1702.12 297.9 1705.09 297.24 1708.39 297.24ZM1758.87 348.72C1754.49 348.72 1750.59 347.97 1747.17 346.47C1743.75 344.97 1741.05 342.93 1739.07 340.35C1737.09 337.71 1735.98 334.77 1735.74 331.53H1750.95C1751.13 333.27 1751.94 334.68 1753.38 335.76C1754.82 336.84 1756.59 337.38 1758.69 337.38C1760.61 337.38 1762.08 337.02 1763.1 336.3C1764.18 335.52 1764.72 334.53 1764.72 333.33C1764.72 331.89 1763.97 330.84 1762.47 330.18C1760.97 329.46 1758.54 328.68 1755.18 327.84C1751.58 327 1748.58 326.13 1746.18 325.23C1743.78 324.27 1741.71 322.8 1739.97 320.82C1738.23 318.78 1737.36 316.05 1737.36 312.63C1737.36 309.75 1738.14 307.14 1739.7 304.8C1741.32 302.4 1743.66 300.51 1746.72 299.13C1749.84 297.75 1753.53 297.06 1757.79 297.06C1764.09 297.06 1769.04 298.62 1772.64 301.74C1776.3 304.86 1778.4 309 1778.94 314.16H1764.72C1764.48 312.42 1763.7 311.04 1762.38 310.02C1761.12 309 1759.44 308.49 1757.34 308.49C1755.54 308.49 1754.16 308.85 1753.2 309.57C1752.24 310.23 1751.76 311.16 1751.76 312.36C1751.76 313.8 1752.51 314.88 1754.01 315.6C1755.57 316.32 1757.97 317.04 1761.21 317.76C1764.93 318.72 1767.96 319.68 1770.3 320.64C1772.64 321.54 1774.68 323.04 1776.42 325.14C1778.22 327.18 1779.15 329.94 1779.21 333.42C1779.21 336.36 1778.37 339 1776.69 341.34C1775.07 343.62 1772.7 345.42 1769.58 346.74C1766.52 348.06 1762.95 348.72 1758.87 348.72Z" fill="black"/>
<path d="M654.73 501.16C654.73 504.82 653.89 508.18 652.21 511.24C650.53 514.24 647.95 516.67 644.47 518.53C640.99 520.39 636.67 521.32 631.51 521.32H621.97V544H606.58V480.82H631.51C636.55 480.82 640.81 481.69 644.29 483.43C647.77 485.17 650.38 487.57 652.12 490.63C653.86 493.69 654.73 497.2 654.73 501.16ZM630.34 509.08C633.28 509.08 635.47 508.39 636.91 507.01C638.35 505.63 639.07 503.68 639.07 501.16C639.07 498.64 638.35 496.69 636.91 495.31C635.47 493.93 633.28 493.24 630.34 493.24H621.97V509.08H630.34ZM678.132 502.15C679.932 499.39 682.182 497.23 684.882 495.67C687.582 494.05 690.582 493.24 693.882 493.24V509.53H689.652C685.812 509.53 682.932 510.37 681.012 512.05C679.092 513.67 678.132 516.55 678.132 520.69V544H662.742V493.78H678.132V502.15ZM724.098 544.72C719.178 544.72 714.738 543.67 710.778 541.57C706.878 539.47 703.788 536.47 701.508 532.57C699.288 528.67 698.178 524.11 698.178 518.89C698.178 513.73 699.318 509.2 701.598 505.3C703.878 501.34 706.998 498.31 710.958 496.21C714.918 494.11 719.358 493.06 724.278 493.06C729.198 493.06 733.638 494.11 737.598 496.21C741.558 498.31 744.678 501.34 746.958 505.3C749.238 509.2 750.378 513.73 750.378 518.89C750.378 524.05 749.208 528.61 746.868 532.57C744.588 536.47 741.438 539.47 737.418 541.57C733.458 543.67 729.018 544.72 724.098 544.72ZM724.098 531.4C727.038 531.4 729.528 530.32 731.568 528.16C733.668 526 734.718 522.91 734.718 518.89C734.718 514.87 733.698 511.78 731.658 509.62C729.678 507.46 727.218 506.38 724.278 506.38C721.278 506.38 718.788 507.46 716.808 509.62C714.828 511.72 713.838 514.81 713.838 518.89C713.838 522.91 714.798 526 716.718 528.16C718.698 530.32 721.158 531.4 724.098 531.4ZM773.933 477.4V544H758.543V477.4H773.933ZM807.946 544.72C803.026 544.72 798.586 543.67 794.626 541.57C790.726 539.47 787.636 536.47 785.356 532.57C783.136 528.67 782.026 524.11 782.026 518.89C782.026 513.73 783.166 509.2 785.446 505.3C787.726 501.34 790.846 498.31 794.806 496.21C798.766 494.11 803.206 493.06 808.126 493.06C813.046 493.06 817.486 494.11 821.446 496.21C825.406 498.31 828.526 501.34 830.806 505.3C833.086 509.2 834.226 513.73 834.226 518.89C834.226 524.05 833.056 528.61 830.716 532.57C828.436 536.47 825.286 539.47 821.266 541.57C817.306 543.67 812.866 544.72 807.946 544.72ZM807.946 531.4C810.886 531.4 813.376 530.32 815.416 528.16C817.516 526 818.566 522.91 818.566 518.89C818.566 514.87 817.546 511.78 815.506 509.62C813.526 507.46 811.066 506.38 808.126 506.38C805.126 506.38 802.636 507.46 800.656 509.62C798.676 511.72 797.686 514.81 797.686 518.89C797.686 522.91 798.646 526 800.566 528.16C802.546 530.32 805.006 531.4 807.946 531.4ZM872.991 493.24C878.871 493.24 883.551 495.16 887.031 499C890.571 502.78 892.341 508 892.341 514.66V544H877.041V516.73C877.041 513.37 876.171 510.76 874.431 508.9C872.691 507.04 870.351 506.11 867.411 506.11C864.471 506.11 862.131 507.04 860.391 508.9C858.651 510.76 857.781 513.37 857.781 516.73V544H842.391V493.78H857.781V500.44C859.341 498.22 861.441 496.48 864.081 495.22C866.721 493.9 869.691 493.24 872.991 493.24ZM922.115 493.06C925.655 493.06 928.745 493.78 931.385 495.22C934.085 496.66 936.155 498.55 937.595 500.89V493.78H952.985V543.91C952.985 548.53 952.055 552.7 950.195 556.42C948.395 560.2 945.605 563.2 941.825 565.42C938.105 567.64 933.455 568.75 927.875 568.75C920.435 568.75 914.405 566.98 909.785 563.44C905.165 559.96 902.525 555.22 901.865 549.22H917.075C917.555 551.14 918.695 552.64 920.495 553.72C922.295 554.86 924.515 555.43 927.155 555.43C930.335 555.43 932.855 554.5 934.715 552.64C936.635 550.84 937.595 547.93 937.595 543.91V536.8C936.095 539.14 934.025 541.06 931.385 542.56C928.745 544 925.655 544.72 922.115 544.72C917.975 544.72 914.225 543.67 910.865 541.57C907.505 539.41 904.835 536.38 902.855 532.48C900.935 528.52 899.975 523.96 899.975 518.8C899.975 513.64 900.935 509.11 902.855 505.21C904.835 501.31 907.505 498.31 910.865 496.21C914.225 494.11 917.975 493.06 922.115 493.06ZM937.595 518.89C937.595 515.05 936.515 512.02 934.355 509.8C932.255 507.58 929.675 506.47 926.615 506.47C923.555 506.47 920.945 507.58 918.785 509.8C916.685 511.96 915.635 514.96 915.635 518.8C915.635 522.64 916.685 525.7 918.785 527.98C920.945 530.2 923.555 531.31 926.615 531.31C929.675 531.31 932.255 530.2 934.355 527.98C936.515 525.76 937.595 522.73 937.595 518.89ZM1011.46 518.08C1011.46 519.52 1011.37 521.02 1011.19 522.58H976.359C976.599 525.7 977.589 528.1 979.329 529.78C981.129 531.4 983.319 532.21 985.899 532.21C989.739 532.21 992.409 530.59 993.909 527.35H1010.29C1009.45 530.65 1007.92 533.62 1005.7 536.26C1003.54 538.9 1000.81 540.97 997.509 542.47C994.209 543.97 990.519 544.72 986.439 544.72C981.519 544.72 977.139 543.67 973.299 541.57C969.459 539.47 966.459 536.47 964.299 532.57C962.139 528.67 961.059 524.11 961.059 518.89C961.059 513.67 962.109 509.11 964.209 505.21C966.369 501.31 969.369 498.31 973.209 496.21C977.049 494.11 981.459 493.06 986.439 493.06C991.299 493.06 995.619 494.08 999.399 496.12C1003.18 498.16 1006.12 501.07 1008.22 504.85C1010.38 508.63 1011.46 513.04 1011.46 518.08ZM995.709 514.03C995.709 511.39 994.809 509.29 993.009 507.73C991.209 506.17 988.959 505.39 986.259 505.39C983.679 505.39 981.489 506.14 979.689 507.64C977.949 509.14 976.869 511.27 976.449 514.03H995.709ZM1016.52 518.8C1016.52 513.64 1017.48 509.11 1019.4 505.21C1021.38 501.31 1024.05 498.31 1027.41 496.21C1030.77 494.11 1034.52 493.06 1038.66 493.06C1041.96 493.06 1044.96 493.75 1047.66 495.13C1050.42 496.51 1052.58 498.37 1054.14 500.71V477.4H1069.53V544H1054.14V536.8C1052.7 539.2 1050.63 541.12 1047.93 542.56C1045.29 544 1042.2 544.72 1038.66 544.72C1034.52 544.72 1030.77 543.67 1027.41 541.57C1024.05 539.41 1021.38 536.38 1019.4 532.48C1017.48 528.52 1016.52 523.96 1016.52 518.8ZM1054.14 518.89C1054.14 515.05 1053.06 512.02 1050.9 509.8C1048.8 507.58 1046.22 506.47 1043.16 506.47C1040.1 506.47 1037.49 507.58 1035.33 509.8C1033.23 511.96 1032.18 514.96 1032.18 518.8C1032.18 522.64 1033.23 525.7 1035.33 527.98C1037.49 530.2 1040.1 531.31 1043.16 531.31C1046.22 531.31 1048.8 530.2 1050.9 527.98C1053.06 525.76 1054.14 522.73 1054.14 518.89ZM1122.59 544.63C1117.97 544.63 1113.83 543.88 1110.17 542.38C1106.51 540.88 1103.57 538.66 1101.35 535.72C1099.19 532.78 1098.05 529.24 1097.93 525.1H1114.31C1114.55 527.44 1115.36 529.24 1116.74 530.5C1118.12 531.7 1119.92 532.3 1122.14 532.3C1124.42 532.3 1126.22 531.79 1127.54 530.77C1128.86 529.69 1129.52 528.22 1129.52 526.36C1129.52 524.8 1128.98 523.51 1127.9 522.49C1126.88 521.47 1125.59 520.63 1124.03 519.97C1122.53 519.31 1120.37 518.56 1117.55 517.72C1113.47 516.46 1110.14 515.2 1107.56 513.94C1104.98 512.68 1102.76 510.82 1100.9 508.36C1099.04 505.9 1098.11 502.69 1098.11 498.73C1098.11 492.85 1100.24 488.26 1104.5 484.96C1108.76 481.6 1114.31 479.92 1121.15 479.92C1128.11 479.92 1133.72 481.6 1137.98 484.96C1142.24 488.26 1144.52 492.88 1144.82 498.82H1128.17C1128.05 496.78 1127.3 495.19 1125.92 494.05C1124.54 492.85 1122.77 492.25 1120.61 492.25C1118.75 492.25 1117.25 492.76 1116.11 493.78C1114.97 494.74 1114.4 496.15 1114.4 498.01C1114.4 500.05 1115.36 501.64 1117.28 502.78C1119.2 503.92 1122.2 505.15 1126.28 506.47C1130.36 507.85 1133.66 509.17 1136.18 510.43C1138.76 511.69 1140.98 513.52 1142.84 515.92C1144.7 518.32 1145.63 521.41 1145.63 525.19C1145.63 528.79 1144.7 532.06 1142.84 535C1141.04 537.94 1138.4 540.28 1134.92 542.02C1131.44 543.76 1127.33 544.63 1122.59 544.63ZM1185.98 493.24C1191.74 493.24 1196.36 495.16 1199.84 499C1203.32 502.78 1205.06 508 1205.06 514.66V544H1189.76V516.73C1189.76 513.37 1188.89 510.76 1187.15 508.9C1185.41 507.04 1183.07 506.11 1180.13 506.11C1177.19 506.11 1174.85 507.04 1173.11 508.9C1171.37 510.76 1170.5 513.37 1170.5 516.73V544H1155.11V477.4H1170.5V500.53C1172.06 498.31 1174.19 496.54 1176.89 495.22C1179.59 493.9 1182.62 493.24 1185.98 493.24ZM1223.49 488.56C1220.79 488.56 1218.57 487.78 1216.83 486.22C1215.15 484.6 1214.31 482.62 1214.31 480.28C1214.31 477.88 1215.15 475.9 1216.83 474.34C1218.57 472.72 1220.79 471.91 1223.49 471.91C1226.13 471.91 1228.29 472.72 1229.97 474.34C1231.71 475.9 1232.58 477.88 1232.58 480.28C1232.58 482.62 1231.71 484.6 1229.97 486.22C1228.29 487.78 1226.13 488.56 1223.49 488.56ZM1231.14 493.78V544H1215.75V493.78H1231.14ZM1257.68 500.89C1259.18 498.55 1261.25 496.66 1263.89 495.22C1266.53 493.78 1269.62 493.06 1273.16 493.06C1277.3 493.06 1281.05 494.11 1284.41 496.21C1287.77 498.31 1290.41 501.31 1292.33 505.21C1294.31 509.11 1295.3 513.64 1295.3 518.8C1295.3 523.96 1294.31 528.52 1292.33 532.48C1290.41 536.38 1287.77 539.41 1284.41 541.57C1281.05 543.67 1277.3 544.72 1273.16 544.72C1269.68 544.72 1266.59 544 1263.89 542.56C1261.25 541.12 1259.18 539.26 1257.68 536.98V567.94H1242.29V493.78H1257.68V500.89ZM1279.64 518.8C1279.64 514.96 1278.56 511.96 1276.4 509.8C1274.3 507.58 1271.69 506.47 1268.57 506.47C1265.51 506.47 1262.9 507.58 1260.74 509.8C1258.64 512.02 1257.59 515.05 1257.59 518.89C1257.59 522.73 1258.64 525.76 1260.74 527.98C1262.9 530.2 1265.51 531.31 1268.57 531.31C1271.63 531.31 1274.24 530.2 1276.4 527.98C1278.56 525.7 1279.64 522.64 1279.64 518.8ZM1318.77 500.89C1320.27 498.55 1322.34 496.66 1324.98 495.22C1327.62 493.78 1330.71 493.06 1334.25 493.06C1338.39 493.06 1342.14 494.11 1345.5 496.21C1348.86 498.31 1351.5 501.31 1353.42 505.21C1355.4 509.11 1356.39 513.64 1356.39 518.8C1356.39 523.96 1355.4 528.52 1353.42 532.48C1351.5 536.38 1348.86 539.41 1345.5 541.57C1342.14 543.67 1338.39 544.72 1334.25 544.72C1330.77 544.72 1327.68 544 1324.98 542.56C1322.34 541.12 1320.27 539.26 1318.77 536.98V567.94H1303.38V493.78H1318.77V500.89ZM1340.73 518.8C1340.73 514.96 1339.65 511.96 1337.49 509.8C1335.39 507.58 1332.78 506.47 1329.66 506.47C1326.6 506.47 1323.99 507.58 1321.83 509.8C1319.73 512.02 1318.68 515.05 1318.68 518.89C1318.68 522.73 1319.73 525.76 1321.83 527.98C1323.99 530.2 1326.6 531.31 1329.66 531.31C1332.72 531.31 1335.33 530.2 1337.49 527.98C1339.65 525.7 1340.73 522.64 1340.73 518.8ZM1372.2 488.56C1369.5 488.56 1367.28 487.78 1365.54 486.22C1363.86 484.6 1363.02 482.62 1363.02 480.28C1363.02 477.88 1363.86 475.9 1365.54 474.34C1367.28 472.72 1369.5 471.91 1372.2 471.91C1374.84 471.91 1377 472.72 1378.68 474.34C1380.42 475.9 1381.29 477.88 1381.29 480.28C1381.29 482.62 1380.42 484.6 1378.68 486.22C1377 487.78 1374.84 488.56 1372.2 488.56ZM1379.85 493.78V544H1364.46V493.78H1379.85ZM1421.6 493.24C1427.48 493.24 1432.16 495.16 1435.64 499C1439.18 502.78 1440.95 508 1440.95 514.66V544H1425.65V516.73C1425.65 513.37 1424.78 510.76 1423.04 508.9C1421.3 507.04 1418.96 506.11 1416.02 506.11C1413.08 506.11 1410.74 507.04 1409 508.9C1407.26 510.76 1406.39 513.37 1406.39 516.73V544H1391V493.78H1406.39V500.44C1407.95 498.22 1410.05 496.48 1412.69 495.22C1415.33 493.9 1418.3 493.24 1421.6 493.24ZM1470.73 493.06C1474.27 493.06 1477.36 493.78 1480 495.22C1482.7 496.66 1484.77 498.55 1486.21 500.89V493.78H1501.6V543.91C1501.6 548.53 1500.67 552.7 1498.81 556.42C1497.01 560.2 1494.22 563.2 1490.44 565.42C1486.72 567.64 1482.07 568.75 1476.49 568.75C1469.05 568.75 1463.02 566.98 1458.4 563.44C1453.78 559.96 1451.14 555.22 1450.48 549.22H1465.69C1466.17 551.14 1467.31 552.64 1469.11 553.72C1470.91 554.86 1473.13 555.43 1475.77 555.43C1478.95 555.43 1481.47 554.5 1483.33 552.64C1485.25 550.84 1486.21 547.93 1486.21 543.91V536.8C1484.71 539.14 1482.64 541.06 1480 542.56C1477.36 544 1474.27 544.72 1470.73 544.72C1466.59 544.72 1462.84 543.67 1459.48 541.57C1456.12 539.41 1453.45 536.38 1451.47 532.48C1449.55 528.52 1448.59 523.96 1448.59 518.8C1448.59 513.64 1449.55 509.11 1451.47 505.21C1453.45 501.31 1456.12 498.31 1459.48 496.21C1462.84 494.11 1466.59 493.06 1470.73 493.06ZM1486.21 518.89C1486.21 515.05 1485.13 512.02 1482.97 509.8C1480.87 507.58 1478.29 506.47 1475.23 506.47C1472.17 506.47 1469.56 507.58 1467.4 509.8C1465.3 511.96 1464.25 514.96 1464.25 518.8C1464.25 522.64 1465.3 525.7 1467.4 527.98C1469.56 530.2 1472.17 531.31 1475.23 531.31C1478.29 531.31 1480.87 530.2 1482.97 527.98C1485.13 525.76 1486.21 522.73 1486.21 518.89ZM1559.79 530.95V544H1551.96C1546.38 544 1542.03 542.65 1538.91 539.95C1535.79 537.19 1534.23 532.72 1534.23 526.54V506.56H1528.11V493.78H1534.23V481.54H1549.62V493.78H1559.7V506.56H1549.62V526.72C1549.62 528.22 1549.98 529.3 1550.7 529.96C1551.42 530.62 1552.62 530.95 1554.3 530.95H1559.79ZM1576.11 488.56C1573.41 488.56 1571.19 487.78 1569.45 486.22C1567.77 484.6 1566.93 482.62 1566.93 480.28C1566.93 477.88 1567.77 475.9 1569.45 474.34C1571.19 472.72 1573.41 471.91 1576.11 471.91C1578.75 471.91 1580.91 472.72 1582.59 474.34C1584.33 475.9 1585.2 477.88 1585.2 480.28C1585.2 482.62 1584.33 484.6 1582.59 486.22C1580.91 487.78 1578.75 488.56 1576.11 488.56ZM1583.76 493.78V544H1568.37V493.78H1583.76ZM1658.99 493.24C1665.23 493.24 1670.18 495.13 1673.84 498.91C1677.56 502.69 1679.42 507.94 1679.42 514.66V544H1664.12V516.73C1664.12 513.49 1663.25 511 1661.51 509.26C1659.83 507.46 1657.49 506.56 1654.49 506.56C1651.49 506.56 1649.12 507.46 1647.38 509.26C1645.7 511 1644.86 513.49 1644.86 516.73V544H1629.56V516.73C1629.56 513.49 1628.69 511 1626.95 509.26C1625.27 507.46 1622.93 506.56 1619.93 506.56C1616.93 506.56 1614.56 507.46 1612.82 509.26C1611.14 511 1610.3 513.49 1610.3 516.73V544H1594.91V493.78H1610.3V500.08C1611.86 497.98 1613.9 496.33 1616.42 495.13C1618.94 493.87 1621.79 493.24 1624.97 493.24C1628.75 493.24 1632.11 494.05 1635.05 495.67C1638.05 497.29 1640.39 499.6 1642.07 502.6C1643.81 499.84 1646.18 497.59 1649.18 495.85C1652.18 494.11 1655.45 493.24 1658.99 493.24ZM1737.52 518.08C1737.52 519.52 1737.43 521.02 1737.25 522.58H1702.42C1702.66 525.7 1703.65 528.1 1705.39 529.78C1707.19 531.4 1709.38 532.21 1711.96 532.21C1715.8 532.21 1718.47 530.59 1719.97 527.35H1736.35C1735.51 530.65 1733.98 533.62 1731.76 536.26C1729.6 538.9 1726.87 540.97 1723.57 542.47C1720.27 543.97 1716.58 544.72 1712.5 544.72C1707.58 544.72 1703.2 543.67 1699.36 541.57C1695.52 539.47 1692.52 536.47 1690.36 532.57C1688.2 528.67 1687.12 524.11 1687.12 518.89C1687.12 513.67 1688.17 509.11 1690.27 505.21C1692.43 501.31 1695.43 498.31 1699.27 496.21C1703.11 494.11 1707.52 493.06 1712.5 493.06C1717.36 493.06 1721.68 494.08 1725.46 496.12C1729.24 498.16 1732.18 501.07 1734.28 504.85C1736.44 508.63 1737.52 513.04 1737.52 518.08ZM1721.77 514.03C1721.77 511.39 1720.87 509.29 1719.07 507.73C1717.27 506.17 1715.02 505.39 1712.32 505.39C1709.74 505.39 1707.55 506.14 1705.75 507.64C1704.01 509.14 1702.93 511.27 1702.51 514.03H1721.77ZM1766.07 544.72C1761.69 544.72 1757.79 543.97 1754.37 542.47C1750.95 540.97 1748.25 538.93 1746.27 536.35C1744.29 533.71 1743.18 530.77 1742.94 527.53H1758.15C1758.33 529.27 1759.14 530.68 1760.58 531.76C1762.02 532.84 1763.79 533.38 1765.89 533.38C1767.81 533.38 1769.28 533.02 1770.3 532.3C1771.38 531.52 1771.92 530.53 1771.92 529.33C1771.92 527.89 1771.17 526.84 1769.67 526.18C1768.17 525.46 1765.74 524.68 1762.38 523.84C1758.78 523 1755.78 522.13 1753.38 521.23C1750.98 520.27 1748.91 518.8 1747.17 516.82C1745.43 514.78 1744.56 512.05 1744.56 508.63C1744.56 505.75 1745.34 503.14 1746.9 500.8C1748.52 498.4 1750.86 496.51 1753.92 495.13C1757.04 493.75 1760.73 493.06 1764.99 493.06C1771.29 493.06 1776.24 494.62 1779.84 497.74C1783.5 500.86 1785.6 505 1786.14 510.16H1771.92C1771.68 508.42 1770.9 507.04 1769.58 506.02C1768.32 505 1766.64 504.49 1764.54 504.49C1762.74 504.49 1761.36 504.85 1760.4 505.57C1759.44 506.23 1758.96 507.16 1758.96 508.36C1758.96 509.8 1759.71 510.88 1761.21 511.6C1762.77 512.32 1765.17 513.04 1768.41 513.76C1772.13 514.72 1775.16 515.68 1777.5 516.64C1779.84 517.54 1781.88 519.04 1783.62 521.14C1785.42 523.18 1786.35 525.94 1786.41 529.42C1786.41 532.36 1785.57 535 1783.89 537.34C1782.27 539.62 1779.9 541.42 1776.78 542.74C1773.72 544.06 1770.15 544.72 1766.07 544.72Z" fill="black"/>
<g clip-path="url(#clip0_11_33)">
<path d="M990 1990.35C1338.69 1990.35 1621.35 1707.69 1621.35 1359C1621.35 1010.31 1338.69 727.648 990 727.648C641.314 727.648 358.648 1010.31 358.648 1359C358.648 1707.69 641.314 1990.35 990 1990.35Z" fill="#0AD81D" fill-opacity="0.7" stroke="white" stroke-miterlimit="10"/>
<path d="M909.43 1362.61V1348.3H934.36V1414H918.34V1362.61H909.43ZM944.888 1380.25C944.888 1369.93 946.868 1361.8 950.828 1355.86C954.848 1349.92 961.298 1346.95 970.178 1346.95C979.058 1346.95 985.478 1349.92 989.438 1355.86C993.458 1361.8 995.468 1369.93 995.468 1380.25C995.468 1390.69 993.458 1398.88 989.438 1404.82C985.478 1410.76 979.058 1413.73 970.178 1413.73C961.298 1413.73 954.848 1410.76 950.828 1404.82C946.868 1398.88 944.888 1390.69 944.888 1380.25ZM980.348 1380.25C980.348 1374.19 979.688 1369.54 978.368 1366.3C977.048 1363 974.318 1361.35 970.178 1361.35C966.038 1361.35 963.308 1363 961.988 1366.3C960.668 1369.54 960.008 1374.19 960.008 1380.25C960.008 1384.33 960.248 1387.72 960.728 1390.42C961.208 1393.06 962.168 1395.22 963.608 1396.9C965.108 1398.52 967.298 1399.33 970.178 1399.33C973.058 1399.33 975.218 1398.52 976.658 1396.9C978.158 1395.22 979.148 1393.06 979.628 1390.42C980.108 1387.72 980.348 1384.33 980.348 1380.25ZM1003.6 1380.25C1003.6 1369.93 1005.58 1361.8 1009.54 1355.86C1013.56 1349.92 1020.01 1346.95 1028.89 1346.95C1037.77 1346.95 1044.19 1349.92 1048.15 1355.86C1052.17 1361.8 1054.18 1369.93 1054.18 1380.25C1054.18 1390.69 1052.17 1398.88 1048.15 1404.82C1044.19 1410.76 1037.77 1413.73 1028.89 1413.73C1020.01 1413.73 1013.56 1410.76 1009.54 1404.82C1005.58 1398.88 1003.6 1390.69 1003.6 1380.25ZM1039.06 1380.25C1039.06 1374.19 1038.4 1369.54 1037.08 1366.3C1035.76 1363 1033.03 1361.35 1028.89 1361.35C1024.75 1361.35 1022.02 1363 1020.7 1366.3C1019.38 1369.54 1018.72 1374.19 1018.72 1380.25C1018.72 1384.33 1018.96 1387.72 1019.44 1390.42C1019.92 1393.06 1020.88 1395.22 1022.32 1396.9C1023.82 1398.52 1026.01 1399.33 1028.89 1399.33C1031.77 1399.33 1033.93 1398.52 1035.37 1396.9C1036.87 1395.22 1037.86 1393.06 1038.34 1390.42C1038.82 1387.72 1039.06 1384.33 1039.06 1380.25ZM1061.05 1364.86C1061.05 1360 1062.43 1356.25 1065.19 1353.61C1068.01 1350.97 1071.64 1349.65 1076.08 1349.65C1080.52 1349.65 1084.12 1350.97 1086.88 1353.61C1089.64 1356.25 1091.02 1360 1091.02 1364.86C1091.02 1369.72 1089.64 1373.47 1086.88 1376.11C1084.12 1378.75 1080.52 1380.07 1076.08 1380.07C1071.64 1380.07 1068.01 1378.75 1065.19 1376.11C1062.43 1373.47 1061.05 1369.72 1061.05 1364.86ZM1122.16 1350.64L1087.51 1414H1072.66L1107.31 1350.64H1122.16ZM1075.99 1358.65C1073.11 1358.65 1071.67 1360.72 1071.67 1364.86C1071.67 1368.94 1073.11 1370.98 1075.99 1370.98C1077.37 1370.98 1078.45 1370.47 1079.23 1369.45C1080.01 1368.43 1080.4 1366.9 1080.4 1364.86C1080.4 1360.72 1078.93 1358.65 1075.99 1358.65ZM1103.89 1399.78C1103.89 1394.92 1105.27 1391.17 1108.03 1388.53C1110.79 1385.89 1114.39 1384.57 1118.83 1384.57C1123.27 1384.57 1126.87 1385.89 1129.63 1388.53C1132.39 1391.17 1133.77 1394.92 1133.77 1399.78C1133.77 1404.64 1132.39 1408.39 1129.63 1411.03C1126.87 1413.67 1123.27 1414.99 1118.83 1414.99C1114.39 1414.99 1110.79 1413.67 1108.03 1411.03C1105.27 1408.39 1103.89 1404.64 1103.89 1399.78ZM1118.74 1393.57C1117.36 1393.57 1116.28 1394.08 1115.5 1395.1C1114.78 1396.12 1114.42 1397.68 1114.42 1399.78C1114.42 1403.86 1115.86 1405.9 1118.74 1405.9C1120.12 1405.9 1121.2 1405.39 1121.98 1404.37C1122.76 1403.35 1123.15 1401.82 1123.15 1399.78C1123.15 1397.74 1122.76 1396.21 1121.98 1395.19C1121.2 1394.11 1120.12 1393.57 1118.74 1393.57Z" fill="white"/>
</g>
<defs>
<clipPath id="clip0_11_33">
<rect width="1264" height="1264" fill="white" transform="translate(358 727)"/>
</clipPath>
</defs>
</svg>
