<svg width="2042" height="2238" viewBox="0 0 2042 2238" fill="none" xmlns="http://www.w3.org/2000/svg">
<rect width="2042" height="2238" rx="8" fill="white"/>
<rect x="276" y="131" width="164" height="164" rx="8" fill="#0AD81D" fill-opacity="0.7"/>
<rect x="276" y="431" width="164" height="164" rx="8" fill="#ED2024" fill-opacity="0.8"/>
<path d="M637.46 258.63C631.52 258.63 626.06 257.25 621.08 254.49C616.16 251.73 612.23 247.89 609.29 242.97C606.41 237.99 604.97 232.41 604.97 226.23C604.97 220.05 606.41 214.5 609.29 209.58C612.23 204.66 616.16 200.82 621.08 198.06C626.06 195.3 631.52 193.92 637.46 193.92C643.4 193.92 648.83 195.3 653.75 198.06C658.73 200.82 662.63 204.66 665.45 209.58C668.33 214.5 669.77 220.05 669.77 226.23C669.77 232.41 668.33 237.99 665.45 242.97C662.57 247.89 658.67 251.73 653.75 254.49C648.83 257.25 643.4 258.63 637.46 258.63ZM637.46 244.59C642.5 244.59 646.52 242.91 649.52 239.55C652.58 236.19 654.11 231.75 654.11 226.23C654.11 220.65 652.58 216.21 649.52 212.91C646.52 209.55 642.5 207.87 637.46 207.87C632.36 207.87 628.28 209.52 625.22 212.82C622.22 216.12 620.72 220.59 620.72 226.23C620.72 231.81 622.22 236.28 625.22 239.64C628.28 242.94 632.36 244.59 637.46 244.59ZM708.932 207.24C714.812 207.24 719.492 209.16 722.972 213C726.512 216.78 728.282 222 728.282 228.66V258H712.982V230.73C712.982 227.37 712.112 224.76 710.372 222.9C708.632 221.04 706.292 220.11 703.352 220.11C700.412 220.11 698.072 221.04 696.332 222.9C694.592 224.76 693.722 227.37 693.722 230.73V258H678.332V207.78H693.722V214.44C695.282 212.22 697.382 210.48 700.022 209.22C702.662 207.9 705.632 207.24 708.932 207.24ZM754.366 191.4V258H738.976V191.4H754.366ZM773.259 202.56C770.559 202.56 768.339 201.78 766.599 200.22C764.919 198.6 764.079 196.62 764.079 194.28C764.079 191.88 764.919 189.9 766.599 188.34C768.339 186.72 770.559 185.91 773.259 185.91C775.899 185.91 778.059 186.72 779.739 188.34C781.479 189.9 782.349 191.88 782.349 194.28C782.349 196.62 781.479 198.6 779.739 200.22C778.059 201.78 775.899 202.56 773.259 202.56ZM780.909 207.78V258H765.519V207.78H780.909ZM822.662 207.24C828.542 207.24 833.222 209.16 836.702 213C840.242 216.78 842.012 222 842.012 228.66V258H826.712V230.73C826.712 227.37 825.842 224.76 824.102 222.9C822.362 221.04 820.022 220.11 817.082 220.11C814.142 220.11 811.802 221.04 810.062 222.9C808.322 224.76 807.452 227.37 807.452 230.73V258H792.062V207.78H807.452V214.44C809.012 212.22 811.112 210.48 813.752 209.22C816.392 207.9 819.362 207.24 822.662 207.24ZM900.047 232.08C900.047 233.52 899.957 235.02 899.777 236.58H864.947C865.187 239.7 866.177 242.1 867.917 243.78C869.717 245.4 871.907 246.21 874.487 246.21C878.327 246.21 880.997 244.59 882.497 241.35H898.877C898.037 244.65 896.507 247.62 894.287 250.26C892.127 252.9 889.397 254.97 886.097 256.47C882.797 257.97 879.107 258.72 875.027 258.72C870.107 258.72 865.727 257.67 861.887 255.57C858.047 253.47 855.047 250.47 852.887 246.57C850.727 242.67 849.647 238.11 849.647 232.89C849.647 227.67 850.697 223.11 852.797 219.21C854.957 215.31 857.957 212.31 861.797 210.21C865.637 208.11 870.047 207.06 875.027 207.06C879.887 207.06 884.207 208.08 887.987 210.12C891.767 212.16 894.707 215.07 896.807 218.85C898.967 222.63 900.047 227.04 900.047 232.08ZM884.297 228.03C884.297 225.39 883.397 223.29 881.597 221.73C879.797 220.17 877.547 219.39 874.847 219.39C872.267 219.39 870.077 220.14 868.277 221.64C866.537 223.14 865.457 225.27 865.037 228.03H884.297ZM924.178 232.89C924.178 227.67 925.228 223.11 927.328 219.21C929.488 215.31 932.458 212.31 936.238 210.21C940.078 208.11 944.458 207.06 949.378 207.06C955.678 207.06 960.928 208.71 965.128 212.01C969.388 215.31 972.178 219.96 973.498 225.96H957.118C955.738 222.12 953.068 220.2 949.108 220.2C946.288 220.2 944.038 221.31 942.358 223.53C940.678 225.69 939.838 228.81 939.838 232.89C939.838 236.97 940.678 240.12 942.358 242.34C944.038 244.5 946.288 245.58 949.108 245.58C953.068 245.58 955.738 243.66 957.118 239.82H973.498C972.178 245.7 969.388 250.32 965.128 253.68C960.868 257.04 955.618 258.72 949.378 258.72C944.458 258.72 940.078 257.67 936.238 255.57C932.458 253.47 929.488 250.47 927.328 246.57C925.228 242.67 924.178 238.11 924.178 232.89ZM997.12 191.4V258H981.73V191.4H997.12ZM1031.13 258.72C1026.21 258.72 1021.77 257.67 1017.81 255.57C1013.91 253.47 1010.82 250.47 1008.54 246.57C1006.32 242.67 1005.21 238.11 1005.21 232.89C1005.21 227.73 1006.35 223.2 1008.63 219.3C1010.91 215.34 1014.03 212.31 1017.99 210.21C1021.95 208.11 1026.39 207.06 1031.31 207.06C1036.23 207.06 1040.67 208.11 1044.63 210.21C1048.59 212.31 1051.71 215.34 1053.99 219.3C1056.27 223.2 1057.41 227.73 1057.41 232.89C1057.41 238.05 1056.24 242.61 1053.9 246.57C1051.62 250.47 1048.47 253.47 1044.45 255.57C1040.49 257.67 1036.05 258.72 1031.13 258.72ZM1031.13 245.4C1034.07 245.4 1036.56 244.32 1038.6 242.16C1040.7 240 1041.75 236.91 1041.75 232.89C1041.75 228.87 1040.73 225.78 1038.69 223.62C1036.71 221.46 1034.25 220.38 1031.31 220.38C1028.31 220.38 1025.82 221.46 1023.84 223.62C1021.86 225.72 1020.87 228.81 1020.87 232.89C1020.87 236.91 1021.83 240 1023.75 242.16C1025.73 244.32 1028.19 245.4 1031.13 245.4ZM1093.57 244.95V258H1085.74C1080.16 258 1075.81 256.65 1072.69 253.95C1069.57 251.19 1068.01 246.72 1068.01 240.54V220.56H1061.89V207.78H1068.01V195.54H1083.4V207.78H1093.48V220.56H1083.4V240.72C1083.4 242.22 1083.76 243.3 1084.48 243.96C1085.2 244.62 1086.4 244.95 1088.08 244.95H1093.57ZM1133.01 207.24C1138.77 207.24 1143.39 209.16 1146.87 213C1150.35 216.78 1152.09 222 1152.09 228.66V258H1136.79V230.73C1136.79 227.37 1135.92 224.76 1134.18 222.9C1132.44 221.04 1130.1 220.11 1127.16 220.11C1124.22 220.11 1121.88 221.04 1120.14 222.9C1118.4 224.76 1117.53 227.37 1117.53 230.73V258H1102.14V191.4H1117.53V214.53C1119.09 212.31 1121.22 210.54 1123.92 209.22C1126.62 207.9 1129.65 207.24 1133.01 207.24ZM1170.53 202.56C1167.83 202.56 1165.61 201.78 1163.87 200.22C1162.19 198.6 1161.35 196.62 1161.35 194.28C1161.35 191.88 1162.19 189.9 1163.87 188.34C1165.61 186.72 1167.83 185.91 1170.53 185.91C1173.17 185.91 1175.33 186.72 1177.01 188.34C1178.75 189.9 1179.62 191.88 1179.62 194.28C1179.62 196.62 1178.75 198.6 1177.01 200.22C1175.33 201.78 1173.17 202.56 1170.53 202.56ZM1178.18 207.78V258H1162.79V207.78H1178.18ZM1219.93 207.24C1225.81 207.24 1230.49 209.16 1233.97 213C1237.51 216.78 1239.28 222 1239.28 228.66V258H1223.98V230.73C1223.98 227.37 1223.11 224.76 1221.37 222.9C1219.63 221.04 1217.29 220.11 1214.35 220.11C1211.41 220.11 1209.07 221.04 1207.33 222.9C1205.59 224.76 1204.72 227.37 1204.72 230.73V258H1189.33V207.78H1204.72V214.44C1206.28 212.22 1208.38 210.48 1211.02 209.22C1213.66 207.9 1216.63 207.24 1219.93 207.24ZM1269.05 207.06C1272.59 207.06 1275.68 207.78 1278.32 209.22C1281.02 210.66 1283.09 212.55 1284.53 214.89V207.78H1299.92V257.91C1299.92 262.53 1298.99 266.7 1297.13 270.42C1295.33 274.2 1292.54 277.2 1288.76 279.42C1285.04 281.64 1280.39 282.75 1274.81 282.75C1267.37 282.75 1261.34 280.98 1256.72 277.44C1252.1 273.96 1249.46 269.22 1248.8 263.22H1264.01C1264.49 265.14 1265.63 266.64 1267.43 267.72C1269.23 268.86 1271.45 269.43 1274.09 269.43C1277.27 269.43 1279.79 268.5 1281.65 266.64C1283.57 264.84 1284.53 261.93 1284.53 257.91V250.8C1283.03 253.14 1280.96 255.06 1278.32 256.56C1275.68 258 1272.59 258.72 1269.05 258.72C1264.91 258.72 1261.16 257.67 1257.8 255.57C1254.44 253.41 1251.77 250.38 1249.79 246.48C1247.87 242.52 1246.91 237.96 1246.91 232.8C1246.91 227.64 1247.87 223.11 1249.79 219.21C1251.77 215.31 1254.44 212.31 1257.8 210.21C1261.16 208.11 1264.91 207.06 1269.05 207.06ZM1284.53 232.89C1284.53 229.05 1283.45 226.02 1281.29 223.8C1279.19 221.58 1276.61 220.47 1273.55 220.47C1270.49 220.47 1267.88 221.58 1265.72 223.8C1263.62 225.96 1262.57 228.96 1262.57 232.8C1262.57 236.64 1263.62 239.7 1265.72 241.98C1267.88 244.2 1270.49 245.31 1273.55 245.31C1276.61 245.31 1279.19 244.2 1281.29 241.98C1283.45 239.76 1284.53 236.73 1284.53 232.89ZM1350.56 258.72C1346.18 258.72 1342.28 257.97 1338.86 256.47C1335.44 254.97 1332.74 252.93 1330.76 250.35C1328.78 247.71 1327.67 244.77 1327.43 241.53H1342.64C1342.82 243.27 1343.63 244.68 1345.07 245.76C1346.51 246.84 1348.28 247.38 1350.38 247.38C1352.3 247.38 1353.77 247.02 1354.79 246.3C1355.87 245.52 1356.41 244.53 1356.41 243.33C1356.41 241.89 1355.66 240.84 1354.16 240.18C1352.66 239.46 1350.23 238.68 1346.87 237.84C1343.27 237 1340.27 236.13 1337.87 235.23C1335.47 234.27 1333.4 232.8 1331.66 230.82C1329.92 228.78 1329.05 226.05 1329.05 222.63C1329.05 219.75 1329.83 217.14 1331.39 214.8C1333.01 212.4 1335.35 210.51 1338.41 209.13C1341.53 207.75 1345.22 207.06 1349.48 207.06C1355.78 207.06 1360.73 208.62 1364.33 211.74C1367.99 214.86 1370.09 219 1370.63 224.16H1356.41C1356.17 222.42 1355.39 221.04 1354.07 220.02C1352.81 219 1351.13 218.49 1349.03 218.49C1347.23 218.49 1345.85 218.85 1344.89 219.57C1343.93 220.23 1343.45 221.16 1343.45 222.36C1343.45 223.8 1344.2 224.88 1345.7 225.6C1347.26 226.32 1349.66 227.04 1352.9 227.76C1356.62 228.72 1359.65 229.68 1361.99 230.64C1364.33 231.54 1366.37 233.04 1368.11 235.14C1369.91 237.18 1370.84 239.94 1370.9 243.42C1370.9 246.36 1370.06 249 1368.38 251.34C1366.76 253.62 1364.39 255.42 1361.27 256.74C1358.21 258.06 1354.64 258.72 1350.56 258.72ZM1408.3 244.95V258H1400.47C1394.89 258 1390.54 256.65 1387.42 253.95C1384.3 251.19 1382.74 246.72 1382.74 240.54V220.56H1376.62V207.78H1382.74V195.54H1398.13V207.78H1408.21V220.56H1398.13V240.72C1398.13 242.22 1398.49 243.3 1399.21 243.96C1399.93 244.62 1401.13 244.95 1402.81 244.95H1408.3ZM1439.74 258.72C1434.82 258.72 1430.38 257.67 1426.42 255.57C1422.52 253.47 1419.43 250.47 1417.15 246.57C1414.93 242.67 1413.82 238.11 1413.82 232.89C1413.82 227.73 1414.96 223.2 1417.24 219.3C1419.52 215.34 1422.64 212.31 1426.6 210.21C1430.56 208.11 1435 207.06 1439.92 207.06C1444.84 207.06 1449.28 208.11 1453.24 210.21C1457.2 212.31 1460.32 215.34 1462.6 219.3C1464.88 223.2 1466.02 227.73 1466.02 232.89C1466.02 238.05 1464.85 242.61 1462.51 246.57C1460.23 250.47 1457.08 253.47 1453.06 255.57C1449.1 257.67 1444.66 258.72 1439.74 258.72ZM1439.74 245.4C1442.68 245.4 1445.17 244.32 1447.21 242.16C1449.31 240 1450.36 236.91 1450.36 232.89C1450.36 228.87 1449.34 225.78 1447.3 223.62C1445.32 221.46 1442.86 220.38 1439.92 220.38C1436.92 220.38 1434.43 221.46 1432.45 223.62C1430.47 225.72 1429.48 228.81 1429.48 232.89C1429.48 236.91 1430.44 240 1432.36 242.16C1434.34 244.32 1436.8 245.4 1439.74 245.4ZM1489.57 216.15C1491.37 213.39 1493.62 211.23 1496.32 209.67C1499.02 208.05 1502.02 207.24 1505.32 207.24V223.53H1501.09C1497.25 223.53 1494.37 224.37 1492.45 226.05C1490.53 227.67 1489.57 230.55 1489.57 234.69V258H1474.18V207.78H1489.57V216.15ZM1560.02 232.08C1560.02 233.52 1559.93 235.02 1559.75 236.58H1524.92C1525.16 239.7 1526.15 242.1 1527.89 243.78C1529.69 245.4 1531.88 246.21 1534.46 246.21C1538.3 246.21 1540.97 244.59 1542.47 241.35H1558.85C1558.01 244.65 1556.48 247.62 1554.26 250.26C1552.1 252.9 1549.37 254.97 1546.07 256.47C1542.77 257.97 1539.08 258.72 1535 258.72C1530.08 258.72 1525.7 257.67 1521.86 255.57C1518.02 253.47 1515.02 250.47 1512.86 246.57C1510.7 242.67 1509.62 238.11 1509.62 232.89C1509.62 227.67 1510.67 223.11 1512.77 219.21C1514.93 215.31 1517.93 212.31 1521.77 210.21C1525.61 208.11 1530.02 207.06 1535 207.06C1539.86 207.06 1544.18 208.08 1547.96 210.12C1551.74 212.16 1554.68 215.07 1556.78 218.85C1558.94 222.63 1560.02 227.04 1560.02 232.08ZM1544.27 228.03C1544.27 225.39 1543.37 223.29 1541.57 221.73C1539.77 220.17 1537.52 219.39 1534.82 219.39C1532.24 219.39 1530.05 220.14 1528.25 221.64C1526.51 223.14 1525.43 225.27 1525.01 228.03H1544.27ZM1588.57 258.72C1584.19 258.72 1580.29 257.97 1576.87 256.47C1573.45 254.97 1570.75 252.93 1568.77 250.35C1566.79 247.71 1565.68 244.77 1565.44 241.53H1580.65C1580.83 243.27 1581.64 244.68 1583.08 245.76C1584.52 246.84 1586.29 247.38 1588.39 247.38C1590.31 247.38 1591.78 247.02 1592.8 246.3C1593.88 245.52 1594.42 244.53 1594.42 243.33C1594.42 241.89 1593.67 240.84 1592.17 240.18C1590.67 239.46 1588.24 238.68 1584.88 237.84C1581.28 237 1578.28 236.13 1575.88 235.23C1573.48 234.27 1571.41 232.8 1569.67 230.82C1567.93 228.78 1567.06 226.05 1567.06 222.63C1567.06 219.75 1567.84 217.14 1569.4 214.8C1571.02 212.4 1573.36 210.51 1576.42 209.13C1579.54 207.75 1583.23 207.06 1587.49 207.06C1593.79 207.06 1598.74 208.62 1602.34 211.74C1606 214.86 1608.1 219 1608.64 224.16H1594.42C1594.18 222.42 1593.4 221.04 1592.08 220.02C1590.82 219 1589.14 218.49 1587.04 218.49C1585.24 218.49 1583.86 218.85 1582.9 219.57C1581.94 220.23 1581.46 221.16 1581.46 222.36C1581.46 223.8 1582.21 224.88 1583.71 225.6C1585.27 226.32 1587.67 227.04 1590.91 227.76C1594.63 228.72 1597.66 229.68 1600 230.64C1602.34 231.54 1604.38 233.04 1606.12 235.14C1607.92 237.18 1608.85 239.94 1608.91 243.42C1608.91 246.36 1608.07 249 1606.39 251.34C1604.77 253.62 1602.4 255.42 1599.28 256.74C1596.22 258.06 1592.65 258.72 1588.57 258.72Z" fill="black"/>
<path d="M655.73 501.16C655.73 504.82 654.89 508.18 653.21 511.24C651.53 514.24 648.95 516.67 645.47 518.53C641.99 520.39 637.67 521.32 632.51 521.32H622.97V544H607.58V480.82H632.51C637.55 480.82 641.81 481.69 645.29 483.43C648.77 485.17 651.38 487.57 653.12 490.63C654.86 493.69 655.73 497.2 655.73 501.16ZM631.34 509.08C634.28 509.08 636.47 508.39 637.91 507.01C639.35 505.63 640.07 503.68 640.07 501.16C640.07 498.64 639.35 496.69 637.91 495.31C636.47 493.93 634.28 493.24 631.34 493.24H622.97V509.08H631.34ZM694.612 493.24C700.372 493.24 704.992 495.16 708.472 499C711.952 502.78 713.692 508 713.692 514.66V544H698.392V516.73C698.392 513.37 697.522 510.76 695.782 508.9C694.042 507.04 691.702 506.11 688.762 506.11C685.822 506.11 683.482 507.04 681.742 508.9C680.002 510.76 679.132 513.37 679.132 516.73V544H663.742V477.4H679.132V500.53C680.692 498.31 682.822 496.54 685.522 495.22C688.222 493.9 691.252 493.24 694.612 493.24ZM775.687 493.78L744.187 567.85H727.627L739.147 542.29L718.717 493.78H735.907L747.517 525.19L759.037 493.78H775.687ZM801.682 544.72C797.302 544.72 793.402 543.97 789.982 542.47C786.562 540.97 783.862 538.93 781.882 536.35C779.902 533.71 778.792 530.77 778.552 527.53H793.762C793.942 529.27 794.752 530.68 796.192 531.76C797.632 532.84 799.402 533.38 801.502 533.38C803.422 533.38 804.892 533.02 805.912 532.3C806.992 531.52 807.532 530.53 807.532 529.33C807.532 527.89 806.782 526.84 805.282 526.18C803.782 525.46 801.352 524.68 797.992 523.84C794.392 523 791.392 522.13 788.992 521.23C786.592 520.27 784.522 518.8 782.782 516.82C781.042 514.78 780.172 512.05 780.172 508.63C780.172 505.75 780.952 503.14 782.512 500.8C784.132 498.4 786.472 496.51 789.532 495.13C792.652 493.75 796.342 493.06 800.602 493.06C806.902 493.06 811.852 494.62 815.452 497.74C819.112 500.86 821.212 505 821.752 510.16H807.532C807.292 508.42 806.512 507.04 805.192 506.02C803.932 505 802.252 504.49 800.152 504.49C798.352 504.49 796.972 504.85 796.012 505.57C795.052 506.23 794.572 507.16 794.572 508.36C794.572 509.8 795.322 510.88 796.822 511.6C798.382 512.32 800.782 513.04 804.022 513.76C807.742 514.72 810.772 515.68 813.112 516.64C815.452 517.54 817.492 519.04 819.232 521.14C821.032 523.18 821.962 525.94 822.022 529.42C822.022 532.36 821.182 535 819.502 537.34C817.882 539.62 815.512 541.42 812.392 542.74C809.332 544.06 805.762 544.72 801.682 544.72ZM839.177 488.56C836.477 488.56 834.257 487.78 832.517 486.22C830.837 484.6 829.997 482.62 829.997 480.28C829.997 477.88 830.837 475.9 832.517 474.34C834.257 472.72 836.477 471.91 839.177 471.91C841.817 471.91 843.977 472.72 845.657 474.34C847.397 475.9 848.267 477.88 848.267 480.28C848.267 482.62 847.397 484.6 845.657 486.22C843.977 487.78 841.817 488.56 839.177 488.56ZM846.827 493.78V544H831.437V493.78H846.827ZM854.92 518.89C854.92 513.67 855.97 509.11 858.07 505.21C860.23 501.31 863.2 498.31 866.98 496.21C870.82 494.11 875.2 493.06 880.12 493.06C886.42 493.06 891.67 494.71 895.87 498.01C900.13 501.31 902.92 505.96 904.24 511.96H887.86C886.48 508.12 883.81 506.2 879.85 506.2C877.03 506.2 874.78 507.31 873.1 509.53C871.42 511.69 870.58 514.81 870.58 518.89C870.58 522.97 871.42 526.12 873.1 528.34C874.78 530.5 877.03 531.58 879.85 531.58C883.81 531.58 886.48 529.66 887.86 525.82H904.24C902.92 531.7 900.13 536.32 895.87 539.68C891.61 543.04 886.36 544.72 880.12 544.72C875.2 544.72 870.82 543.67 866.98 541.57C863.2 539.47 860.23 536.47 858.07 532.57C855.97 528.67 854.92 524.11 854.92 518.89ZM909.413 518.8C909.413 513.64 910.373 509.11 912.293 505.21C914.273 501.31 916.943 498.31 920.303 496.21C923.663 494.11 927.413 493.06 931.553 493.06C935.093 493.06 938.183 493.78 940.823 495.22C943.523 496.66 945.593 498.55 947.033 500.89V493.78H962.423V544H947.033V536.89C945.533 539.23 943.433 541.12 940.733 542.56C938.093 544 935.003 544.72 931.463 544.72C927.383 544.72 923.663 543.67 920.303 541.57C916.943 539.41 914.273 536.38 912.293 532.48C910.373 528.52 909.413 523.96 909.413 518.8ZM947.033 518.89C947.033 515.05 945.953 512.02 943.793 509.8C941.693 507.58 939.113 506.47 936.053 506.47C932.993 506.47 930.383 507.58 928.223 509.8C926.123 511.96 925.073 514.96 925.073 518.8C925.073 522.64 926.123 525.7 928.223 527.98C930.383 530.2 932.993 531.31 936.053 531.31C939.113 531.31 941.693 530.2 943.793 527.98C945.953 525.76 947.033 522.73 947.033 518.89ZM988.947 477.4V544H973.557V477.4H988.947ZM1016.11 518.89C1016.11 513.67 1017.16 509.11 1019.26 505.21C1021.42 501.31 1024.39 498.31 1028.17 496.21C1032.01 494.11 1036.39 493.06 1041.31 493.06C1047.61 493.06 1052.86 494.71 1057.06 498.01C1061.32 501.31 1064.11 505.96 1065.43 511.96H1049.05C1047.67 508.12 1045 506.2 1041.04 506.2C1038.22 506.2 1035.97 507.31 1034.29 509.53C1032.61 511.69 1031.77 514.81 1031.77 518.89C1031.77 522.97 1032.61 526.12 1034.29 528.34C1035.97 530.5 1038.22 531.58 1041.04 531.58C1045 531.58 1047.67 529.66 1049.05 525.82H1065.43C1064.11 531.7 1061.32 536.32 1057.06 539.68C1052.8 543.04 1047.55 544.72 1041.31 544.72C1036.39 544.72 1032.01 543.67 1028.17 541.57C1024.39 539.47 1021.42 536.47 1019.26 532.57C1017.16 528.67 1016.11 524.11 1016.11 518.89ZM1089.05 477.4V544H1073.66V477.4H1089.05ZM1123.07 544.72C1118.15 544.72 1113.71 543.67 1109.75 541.57C1105.85 539.47 1102.76 536.47 1100.48 532.57C1098.26 528.67 1097.15 524.11 1097.15 518.89C1097.15 513.73 1098.29 509.2 1100.57 505.3C1102.85 501.34 1105.97 498.31 1109.93 496.21C1113.89 494.11 1118.33 493.06 1123.25 493.06C1128.17 493.06 1132.61 494.11 1136.57 496.21C1140.53 498.31 1143.65 501.34 1145.93 505.3C1148.21 509.2 1149.35 513.73 1149.35 518.89C1149.35 524.05 1148.18 528.61 1145.84 532.57C1143.56 536.47 1140.41 539.47 1136.39 541.57C1132.43 543.67 1127.99 544.72 1123.07 544.72ZM1123.07 531.4C1126.01 531.4 1128.5 530.32 1130.54 528.16C1132.64 526 1133.69 522.91 1133.69 518.89C1133.69 514.87 1132.67 511.78 1130.63 509.62C1128.65 507.46 1126.19 506.38 1123.25 506.38C1120.25 506.38 1117.76 507.46 1115.78 509.62C1113.8 511.72 1112.81 514.81 1112.81 518.89C1112.81 522.91 1113.77 526 1115.69 528.16C1117.67 530.32 1120.13 531.4 1123.07 531.4ZM1185.5 530.95V544H1177.67C1172.09 544 1167.74 542.65 1164.62 539.95C1161.5 537.19 1159.94 532.72 1159.94 526.54V506.56H1153.82V493.78H1159.94V481.54H1175.33V493.78H1185.41V506.56H1175.33V526.72C1175.33 528.22 1175.69 529.3 1176.41 529.96C1177.13 530.62 1178.33 530.95 1180.01 530.95H1185.5ZM1224.94 493.24C1230.7 493.24 1235.32 495.16 1238.8 499C1242.28 502.78 1244.02 508 1244.02 514.66V544H1228.72V516.73C1228.72 513.37 1227.85 510.76 1226.11 508.9C1224.37 507.04 1222.03 506.11 1219.09 506.11C1216.15 506.11 1213.81 507.04 1212.07 508.9C1210.33 510.76 1209.46 513.37 1209.46 516.73V544H1194.07V477.4H1209.46V500.53C1211.02 498.31 1213.15 496.54 1215.85 495.22C1218.55 493.9 1221.58 493.24 1224.94 493.24ZM1262.46 488.56C1259.76 488.56 1257.54 487.78 1255.8 486.22C1254.12 484.6 1253.28 482.62 1253.28 480.28C1253.28 477.88 1254.12 475.9 1255.8 474.34C1257.54 472.72 1259.76 471.91 1262.46 471.91C1265.1 471.91 1267.26 472.72 1268.94 474.34C1270.68 475.9 1271.55 477.88 1271.55 480.28C1271.55 482.62 1270.68 484.6 1268.94 486.22C1267.26 487.78 1265.1 488.56 1262.46 488.56ZM1270.11 493.78V544H1254.72V493.78H1270.11ZM1311.86 493.24C1317.74 493.24 1322.42 495.16 1325.9 499C1329.44 502.78 1331.21 508 1331.21 514.66V544H1315.91V516.73C1315.91 513.37 1315.04 510.76 1313.3 508.9C1311.56 507.04 1309.22 506.11 1306.28 506.11C1303.34 506.11 1301 507.04 1299.26 508.9C1297.52 510.76 1296.65 513.37 1296.65 516.73V544H1281.26V493.78H1296.65V500.44C1298.21 498.22 1300.31 496.48 1302.95 495.22C1305.59 493.9 1308.56 493.24 1311.86 493.24ZM1360.99 493.06C1364.53 493.06 1367.62 493.78 1370.26 495.22C1372.96 496.66 1375.03 498.55 1376.47 500.89V493.78H1391.86V543.91C1391.86 548.53 1390.93 552.7 1389.07 556.42C1387.27 560.2 1384.48 563.2 1380.7 565.42C1376.98 567.64 1372.33 568.75 1366.75 568.75C1359.31 568.75 1353.28 566.98 1348.66 563.44C1344.04 559.96 1341.4 555.22 1340.74 549.22H1355.95C1356.43 551.14 1357.57 552.64 1359.37 553.72C1361.17 554.86 1363.39 555.43 1366.03 555.43C1369.21 555.43 1371.73 554.5 1373.59 552.64C1375.51 550.84 1376.47 547.93 1376.47 543.91V536.8C1374.97 539.14 1372.9 541.06 1370.26 542.56C1367.62 544 1364.53 544.72 1360.99 544.72C1356.85 544.72 1353.1 543.67 1349.74 541.57C1346.38 539.41 1343.71 536.38 1341.73 532.48C1339.81 528.52 1338.85 523.96 1338.85 518.8C1338.85 513.64 1339.81 509.11 1341.73 505.21C1343.71 501.31 1346.38 498.31 1349.74 496.21C1353.1 494.11 1356.85 493.06 1360.99 493.06ZM1376.47 518.89C1376.47 515.05 1375.39 512.02 1373.23 509.8C1371.13 507.58 1368.55 506.47 1365.49 506.47C1362.43 506.47 1359.82 507.58 1357.66 509.8C1355.56 511.96 1354.51 514.96 1354.51 518.8C1354.51 522.64 1355.56 525.7 1357.66 527.98C1359.82 530.2 1362.43 531.31 1365.49 531.31C1368.55 531.31 1371.13 530.2 1373.23 527.98C1375.39 525.76 1376.47 522.73 1376.47 518.89ZM1442.49 544.72C1438.11 544.72 1434.21 543.97 1430.79 542.47C1427.37 540.97 1424.67 538.93 1422.69 536.35C1420.71 533.71 1419.6 530.77 1419.36 527.53H1434.57C1434.75 529.27 1435.56 530.68 1437 531.76C1438.44 532.84 1440.21 533.38 1442.31 533.38C1444.23 533.38 1445.7 533.02 1446.72 532.3C1447.8 531.52 1448.34 530.53 1448.34 529.33C1448.34 527.89 1447.59 526.84 1446.09 526.18C1444.59 525.46 1442.16 524.68 1438.8 523.84C1435.2 523 1432.2 522.13 1429.8 521.23C1427.4 520.27 1425.33 518.8 1423.59 516.82C1421.85 514.78 1420.98 512.05 1420.98 508.63C1420.98 505.75 1421.76 503.14 1423.32 500.8C1424.94 498.4 1427.28 496.51 1430.34 495.13C1433.46 493.75 1437.15 493.06 1441.41 493.06C1447.71 493.06 1452.66 494.62 1456.26 497.74C1459.92 500.86 1462.02 505 1462.56 510.16H1448.34C1448.1 508.42 1447.32 507.04 1446 506.02C1444.74 505 1443.06 504.49 1440.96 504.49C1439.16 504.49 1437.78 504.85 1436.82 505.57C1435.86 506.23 1435.38 507.16 1435.38 508.36C1435.38 509.8 1436.13 510.88 1437.63 511.6C1439.19 512.32 1441.59 513.04 1444.83 513.76C1448.55 514.72 1451.58 515.68 1453.92 516.64C1456.26 517.54 1458.3 519.04 1460.04 521.14C1461.84 523.18 1462.77 525.94 1462.83 529.42C1462.83 532.36 1461.99 535 1460.31 537.34C1458.69 539.62 1456.32 541.42 1453.2 542.74C1450.14 544.06 1446.57 544.72 1442.49 544.72ZM1500.24 530.95V544H1492.41C1486.83 544 1482.48 542.65 1479.36 539.95C1476.24 537.19 1474.68 532.72 1474.68 526.54V506.56H1468.56V493.78H1474.68V481.54H1490.07V493.78H1500.15V506.56H1490.07V526.72C1490.07 528.22 1490.43 529.3 1491.15 529.96C1491.87 530.62 1493.07 530.95 1494.75 530.95H1500.24ZM1531.67 544.72C1526.75 544.72 1522.31 543.67 1518.35 541.57C1514.45 539.47 1511.36 536.47 1509.08 532.57C1506.86 528.67 1505.75 524.11 1505.75 518.89C1505.75 513.73 1506.89 509.2 1509.17 505.3C1511.45 501.34 1514.57 498.31 1518.53 496.21C1522.49 494.11 1526.93 493.06 1531.85 493.06C1536.77 493.06 1541.21 494.11 1545.17 496.21C1549.13 498.31 1552.25 501.34 1554.53 505.3C1556.81 509.2 1557.95 513.73 1557.95 518.89C1557.95 524.05 1556.78 528.61 1554.44 532.57C1552.16 536.47 1549.01 539.47 1544.99 541.57C1541.03 543.67 1536.59 544.72 1531.67 544.72ZM1531.67 531.4C1534.61 531.4 1537.1 530.32 1539.14 528.16C1541.24 526 1542.29 522.91 1542.29 518.89C1542.29 514.87 1541.27 511.78 1539.23 509.62C1537.25 507.46 1534.79 506.38 1531.85 506.38C1528.85 506.38 1526.36 507.46 1524.38 509.62C1522.4 511.72 1521.41 514.81 1521.41 518.89C1521.41 522.91 1522.37 526 1524.29 528.16C1526.27 530.32 1528.73 531.4 1531.67 531.4ZM1581.51 502.15C1583.31 499.39 1585.56 497.23 1588.26 495.67C1590.96 494.05 1593.96 493.24 1597.26 493.24V509.53H1593.03C1589.19 509.53 1586.31 510.37 1584.39 512.05C1582.47 513.67 1581.51 516.55 1581.51 520.69V544H1566.12V493.78H1581.51V502.15ZM1651.95 518.08C1651.95 519.52 1651.86 521.02 1651.68 522.58H1616.85C1617.09 525.7 1618.08 528.1 1619.82 529.78C1621.62 531.4 1623.81 532.21 1626.39 532.21C1630.23 532.21 1632.9 530.59 1634.4 527.35H1650.78C1649.94 530.65 1648.41 533.62 1646.19 536.26C1644.03 538.9 1641.3 540.97 1638 542.47C1634.7 543.97 1631.01 544.72 1626.93 544.72C1622.01 544.72 1617.63 543.67 1613.79 541.57C1609.95 539.47 1606.95 536.47 1604.79 532.57C1602.63 528.67 1601.55 524.11 1601.55 518.89C1601.55 513.67 1602.6 509.11 1604.7 505.21C1606.86 501.31 1609.86 498.31 1613.7 496.21C1617.54 494.11 1621.95 493.06 1626.93 493.06C1631.79 493.06 1636.11 494.08 1639.89 496.12C1643.67 498.16 1646.61 501.07 1648.71 504.85C1650.87 508.63 1651.95 513.04 1651.95 518.08ZM1636.2 514.03C1636.2 511.39 1635.3 509.29 1633.5 507.73C1631.7 506.17 1629.45 505.39 1626.75 505.39C1624.17 505.39 1621.98 506.14 1620.18 507.64C1618.44 509.14 1617.36 511.27 1616.94 514.03H1636.2ZM1680.5 544.72C1676.12 544.72 1672.22 543.97 1668.8 542.47C1665.38 540.97 1662.68 538.93 1660.7 536.35C1658.72 533.71 1657.61 530.77 1657.37 527.53H1672.58C1672.76 529.27 1673.57 530.68 1675.01 531.76C1676.45 532.84 1678.22 533.38 1680.32 533.38C1682.24 533.38 1683.71 533.02 1684.73 532.3C1685.81 531.52 1686.35 530.53 1686.35 529.33C1686.35 527.89 1685.6 526.84 1684.1 526.18C1682.6 525.46 1680.17 524.68 1676.81 523.84C1673.21 523 1670.21 522.13 1667.81 521.23C1665.41 520.27 1663.34 518.8 1661.6 516.82C1659.86 514.78 1658.99 512.05 1658.99 508.63C1658.99 505.75 1659.77 503.14 1661.33 500.8C1662.95 498.4 1665.29 496.51 1668.35 495.13C1671.47 493.75 1675.16 493.06 1679.42 493.06C1685.72 493.06 1690.67 494.62 1694.27 497.74C1697.93 500.86 1700.03 505 1700.57 510.16H1686.35C1686.11 508.42 1685.33 507.04 1684.01 506.02C1682.75 505 1681.07 504.49 1678.97 504.49C1677.17 504.49 1675.79 504.85 1674.83 505.57C1673.87 506.23 1673.39 507.16 1673.39 508.36C1673.39 509.8 1674.14 510.88 1675.64 511.6C1677.2 512.32 1679.6 513.04 1682.84 513.76C1686.56 514.72 1689.59 515.68 1691.93 516.64C1694.27 517.54 1696.31 519.04 1698.05 521.14C1699.85 523.18 1700.78 525.94 1700.84 529.42C1700.84 532.36 1700 535 1698.32 537.34C1696.7 539.62 1694.33 541.42 1691.21 542.74C1688.15 544.06 1684.58 544.72 1680.5 544.72Z" fill="black"/>
<path d="M977 1991C1326.04 1991 1609 1708.04 1609 1359C1609 1009.96 1326.04 727 977 727C627.956 727 345 1009.96 345 1359C345 1708.04 627.956 1991 977 1991Z" fill="#0AD81D" fill-opacity="0.7"/>
<path d="M999.062 727.418V1359L1608.64 1358.45C1608.33 1017.1 1337.46 739.216 999.062 727.418Z" fill="#ED2024" fill-opacity="0.8"/>
<path d="M662.99 1468.82L640.4 1523H624.65L647.51 1470.53H619.52V1457.39H662.99V1468.82ZM669.214 1489.25C669.214 1478.93 671.194 1470.8 675.154 1464.86C679.174 1458.92 685.624 1455.95 694.504 1455.95C703.384 1455.95 709.804 1458.92 713.764 1464.86C717.784 1470.8 719.794 1478.93 719.794 1489.25C719.794 1499.69 717.784 1507.88 713.764 1513.82C709.804 1519.76 703.384 1522.73 694.504 1522.73C685.624 1522.73 679.174 1519.76 675.154 1513.82C671.194 1507.88 669.214 1499.69 669.214 1489.25ZM704.674 1489.25C704.674 1483.19 704.014 1478.54 702.694 1475.3C701.374 1472 698.644 1470.35 694.504 1470.35C690.364 1470.35 687.634 1472 686.314 1475.3C684.994 1478.54 684.334 1483.19 684.334 1489.25C684.334 1493.33 684.574 1496.72 685.054 1499.42C685.534 1502.06 686.494 1504.22 687.934 1505.9C689.434 1507.52 691.624 1508.33 694.504 1508.33C697.384 1508.33 699.544 1507.52 700.984 1505.9C702.484 1504.22 703.474 1502.06 703.954 1499.42C704.434 1496.72 704.674 1493.33 704.674 1489.25ZM726.665 1473.86C726.665 1469 728.045 1465.25 730.805 1462.61C733.625 1459.97 737.255 1458.65 741.695 1458.65C746.135 1458.65 749.735 1459.97 752.495 1462.61C755.255 1465.25 756.635 1469 756.635 1473.86C756.635 1478.72 755.255 1482.47 752.495 1485.11C749.735 1487.75 746.135 1489.07 741.695 1489.07C737.255 1489.07 733.625 1487.75 730.805 1485.11C728.045 1482.47 726.665 1478.72 726.665 1473.86ZM787.775 1459.64L753.125 1523H738.275L772.925 1459.64H787.775ZM741.605 1467.65C738.725 1467.65 737.285 1469.72 737.285 1473.86C737.285 1477.94 738.725 1479.98 741.605 1479.98C742.985 1479.98 744.065 1479.47 744.845 1478.45C745.625 1477.43 746.015 1475.9 746.015 1473.86C746.015 1469.72 744.545 1467.65 741.605 1467.65ZM769.505 1508.78C769.505 1503.92 770.885 1500.17 773.645 1497.53C776.405 1494.89 780.005 1493.57 784.445 1493.57C788.885 1493.57 792.485 1494.89 795.245 1497.53C798.005 1500.17 799.385 1503.92 799.385 1508.78C799.385 1513.64 798.005 1517.39 795.245 1520.03C792.485 1522.67 788.885 1523.99 784.445 1523.99C780.005 1523.99 776.405 1522.67 773.645 1520.03C770.885 1517.39 769.505 1513.64 769.505 1508.78ZM784.355 1502.57C782.975 1502.57 781.895 1503.08 781.115 1504.1C780.395 1505.12 780.035 1506.68 780.035 1508.78C780.035 1512.86 781.475 1514.9 784.355 1514.9C785.735 1514.9 786.815 1514.39 787.595 1513.37C788.375 1512.35 788.765 1510.82 788.765 1508.78C788.765 1506.74 788.375 1505.21 787.595 1504.19C786.815 1503.11 785.735 1502.57 784.355 1502.57Z" fill="white"/>
<path d="M1156.59 1136.84C1156.83 1130.42 1158.93 1125.47 1162.89 1121.99C1166.85 1118.51 1172.22 1116.77 1179 1116.77C1183.5 1116.77 1187.34 1117.55 1190.52 1119.11C1193.76 1120.67 1196.19 1122.8 1197.81 1125.5C1199.49 1128.2 1200.33 1131.23 1200.33 1134.59C1200.33 1138.55 1199.34 1141.79 1197.36 1144.31C1195.38 1146.77 1193.07 1148.45 1190.43 1149.35V1149.71C1193.85 1150.85 1196.55 1152.74 1198.53 1155.38C1200.51 1158.02 1201.5 1161.41 1201.5 1165.55C1201.5 1169.27 1200.63 1172.57 1198.89 1175.45C1197.21 1178.27 1194.72 1180.49 1191.42 1182.11C1188.18 1183.73 1184.31 1184.54 1179.81 1184.54C1172.61 1184.54 1166.85 1182.77 1162.53 1179.23C1158.27 1175.69 1156.02 1170.35 1155.78 1163.21H1170.72C1170.78 1165.85 1171.53 1167.95 1172.97 1169.51C1174.41 1171.01 1176.51 1171.76 1179.27 1171.76C1181.61 1171.76 1183.41 1171.1 1184.67 1169.78C1185.99 1168.4 1186.65 1166.6 1186.65 1164.38C1186.65 1161.5 1185.72 1159.43 1183.86 1158.17C1182.06 1156.85 1179.15 1156.19 1175.13 1156.19H1172.25V1143.68H1175.13C1178.19 1143.68 1180.65 1143.17 1182.51 1142.15C1184.43 1141.07 1185.39 1139.18 1185.39 1136.48C1185.39 1134.32 1184.79 1132.64 1183.59 1131.44C1182.39 1130.24 1180.74 1129.64 1178.64 1129.64C1176.36 1129.64 1174.65 1130.33 1173.51 1131.71C1172.43 1133.09 1171.8 1134.8 1171.62 1136.84H1156.59ZM1210.54 1150.25C1210.54 1139.93 1212.52 1131.8 1216.48 1125.86C1220.5 1119.92 1226.95 1116.95 1235.83 1116.95C1244.71 1116.95 1251.13 1119.92 1255.09 1125.86C1259.11 1131.8 1261.12 1139.93 1261.12 1150.25C1261.12 1160.69 1259.11 1168.88 1255.09 1174.82C1251.13 1180.76 1244.71 1183.73 1235.83 1183.73C1226.95 1183.73 1220.5 1180.76 1216.48 1174.82C1212.52 1168.88 1210.54 1160.69 1210.54 1150.25ZM1246 1150.25C1246 1144.19 1245.34 1139.54 1244.02 1136.3C1242.7 1133 1239.97 1131.35 1235.83 1131.35C1231.69 1131.35 1228.96 1133 1227.64 1136.3C1226.32 1139.54 1225.66 1144.19 1225.66 1150.25C1225.66 1154.33 1225.9 1157.72 1226.38 1160.42C1226.86 1163.06 1227.82 1165.22 1229.26 1166.9C1230.76 1168.52 1232.95 1169.33 1235.83 1169.33C1238.71 1169.33 1240.87 1168.52 1242.31 1166.9C1243.81 1165.22 1244.8 1163.06 1245.28 1160.42C1245.76 1157.72 1246 1154.33 1246 1150.25ZM1267.99 1134.86C1267.99 1130 1269.37 1126.25 1272.13 1123.61C1274.95 1120.97 1278.58 1119.65 1283.02 1119.65C1287.46 1119.65 1291.06 1120.97 1293.82 1123.61C1296.58 1126.25 1297.96 1130 1297.96 1134.86C1297.96 1139.72 1296.58 1143.47 1293.82 1146.11C1291.06 1148.75 1287.46 1150.07 1283.02 1150.07C1278.58 1150.07 1274.95 1148.75 1272.13 1146.11C1269.37 1143.47 1267.99 1139.72 1267.99 1134.86ZM1329.1 1120.64L1294.45 1184H1279.6L1314.25 1120.64H1329.1ZM1282.93 1128.65C1280.05 1128.65 1278.61 1130.72 1278.61 1134.86C1278.61 1138.94 1280.05 1140.98 1282.93 1140.98C1284.31 1140.98 1285.39 1140.47 1286.17 1139.45C1286.95 1138.43 1287.34 1136.9 1287.34 1134.86C1287.34 1130.72 1285.87 1128.65 1282.93 1128.65ZM1310.83 1169.78C1310.83 1164.92 1312.21 1161.17 1314.97 1158.53C1317.73 1155.89 1321.33 1154.57 1325.77 1154.57C1330.21 1154.57 1333.81 1155.89 1336.57 1158.53C1339.33 1161.17 1340.71 1164.92 1340.71 1169.78C1340.71 1174.64 1339.33 1178.39 1336.57 1181.03C1333.81 1183.67 1330.21 1184.99 1325.77 1184.99C1321.33 1184.99 1317.73 1183.67 1314.97 1181.03C1312.21 1178.39 1310.83 1174.64 1310.83 1169.78ZM1325.68 1163.57C1324.3 1163.57 1323.22 1164.08 1322.44 1165.1C1321.72 1166.12 1321.36 1167.68 1321.36 1169.78C1321.36 1173.86 1322.8 1175.9 1325.68 1175.9C1327.06 1175.9 1328.14 1175.39 1328.92 1174.37C1329.7 1173.35 1330.09 1171.82 1330.09 1169.78C1330.09 1167.74 1329.7 1166.21 1328.92 1165.19C1328.14 1164.11 1327.06 1163.57 1325.68 1163.57Z" fill="white"/>
</svg>
