<svg width="2042" height="2238" viewBox="0 0 2042 2238" fill="none" xmlns="http://www.w3.org/2000/svg">
<rect width="2042" height="2238" rx="8" fill="white"/>
<rect x="276" y="131" width="164" height="164" rx="8" fill="#0AD81D" fill-opacity="0.7"/>
<rect x="276" y="431" width="164" height="164" rx="8" fill="#ED2024" fill-opacity="0.8"/>
<path d="M654.73 170.16C654.73 173.82 653.89 177.18 652.21 180.24C650.53 183.24 647.95 185.67 644.47 187.53C640.99 189.39 636.67 190.32 631.51 190.32H621.97V213H606.58V149.82H631.51C636.55 149.82 640.81 150.69 644.29 152.43C647.77 154.17 650.38 156.57 652.12 159.63C653.86 162.69 654.73 166.2 654.73 170.16ZM630.34 178.08C633.28 178.08 635.47 177.39 636.91 176.01C638.35 174.63 639.07 172.68 639.07 170.16C639.07 167.64 638.35 165.69 636.91 164.31C635.47 162.93 633.28 162.24 630.34 162.24H621.97V178.08H630.34ZM685.602 213.72C680.682 213.72 676.242 212.67 672.282 210.57C668.382 208.47 665.292 205.47 663.012 201.57C660.792 197.67 659.682 193.11 659.682 187.89C659.682 182.73 660.822 178.2 663.102 174.3C665.382 170.34 668.502 167.31 672.462 165.21C676.422 163.11 680.862 162.06 685.782 162.06C690.702 162.06 695.142 163.11 699.102 165.21C703.062 167.31 706.182 170.34 708.462 174.3C710.742 178.2 711.882 182.73 711.882 187.89C711.882 193.05 710.712 197.61 708.372 201.57C706.092 205.47 702.942 208.47 698.922 210.57C694.962 212.67 690.522 213.72 685.602 213.72ZM685.602 200.4C688.542 200.4 691.032 199.32 693.072 197.16C695.172 195 696.222 191.91 696.222 187.89C696.222 183.87 695.202 180.78 693.162 178.62C691.182 176.46 688.722 175.38 685.782 175.38C682.782 175.38 680.292 176.46 678.312 178.62C676.332 180.72 675.342 183.81 675.342 187.89C675.342 191.91 676.302 195 678.222 197.16C680.202 199.32 682.662 200.4 685.602 200.4ZM740.477 213.72C736.097 213.72 732.197 212.97 728.777 211.47C725.357 209.97 722.657 207.93 720.677 205.35C718.697 202.71 717.587 199.77 717.347 196.53H732.557C732.737 198.27 733.547 199.68 734.987 200.76C736.427 201.84 738.197 202.38 740.297 202.38C742.217 202.38 743.687 202.02 744.707 201.3C745.787 200.52 746.327 199.53 746.327 198.33C746.327 196.89 745.577 195.84 744.077 195.18C742.577 194.46 740.147 193.68 736.787 192.84C733.187 192 730.187 191.13 727.787 190.23C725.387 189.27 723.317 187.8 721.577 185.82C719.837 183.78 718.967 181.05 718.967 177.63C718.967 174.75 719.747 172.14 721.307 169.8C722.927 167.4 725.267 165.51 728.327 164.13C731.447 162.75 735.137 162.06 739.397 162.06C745.697 162.06 750.647 163.62 754.247 166.74C757.907 169.86 760.007 174 760.547 179.16H746.327C746.087 177.42 745.307 176.04 743.987 175.02C742.727 174 741.047 173.49 738.947 173.49C737.147 173.49 735.767 173.85 734.807 174.57C733.847 175.23 733.367 176.16 733.367 177.36C733.367 178.8 734.117 179.88 735.617 180.6C737.177 181.32 739.577 182.04 742.817 182.76C746.537 183.72 749.567 184.68 751.907 185.64C754.247 186.54 756.287 188.04 758.027 190.14C759.827 192.18 760.757 194.94 760.817 198.42C760.817 201.36 759.977 204 758.297 206.34C756.677 208.62 754.307 210.42 751.187 211.74C748.127 213.06 744.557 213.72 740.477 213.72ZM777.972 157.56C775.272 157.56 773.052 156.78 771.312 155.22C769.632 153.6 768.792 151.62 768.792 149.28C768.792 146.88 769.632 144.9 771.312 143.34C773.052 141.72 775.272 140.91 777.972 140.91C780.612 140.91 782.772 141.72 784.452 143.34C786.192 144.9 787.062 146.88 787.062 149.28C787.062 151.62 786.192 153.6 784.452 155.22C782.772 156.78 780.612 157.56 777.972 157.56ZM785.622 162.78V213H770.232V162.78H785.622ZM824.765 199.95V213H816.935C811.355 213 807.005 211.65 803.885 208.95C800.765 206.19 799.205 201.72 799.205 195.54V175.56H793.085V162.78H799.205V150.54H814.595V162.78H824.675V175.56H814.595V195.72C814.595 197.22 814.955 198.3 815.675 198.96C816.395 199.62 817.595 199.95 819.275 199.95H824.765ZM841.078 157.56C838.378 157.56 836.158 156.78 834.418 155.22C832.738 153.6 831.898 151.62 831.898 149.28C831.898 146.88 832.738 144.9 834.418 143.34C836.158 141.72 838.378 140.91 841.078 140.91C843.718 140.91 845.878 141.72 847.558 143.34C849.298 144.9 850.168 146.88 850.168 149.28C850.168 151.62 849.298 153.6 847.558 155.22C845.878 156.78 843.718 157.56 841.078 157.56ZM848.728 162.78V213H833.338V162.78H848.728ZM882.471 198.6L893.361 162.78H909.741L891.921 213H872.931L855.111 162.78H871.581L882.471 198.6ZM963.559 187.08C963.559 188.52 963.469 190.02 963.289 191.58H928.459C928.699 194.7 929.689 197.1 931.429 198.78C933.229 200.4 935.419 201.21 937.999 201.21C941.839 201.21 944.509 199.59 946.009 196.35H962.389C961.549 199.65 960.019 202.62 957.799 205.26C955.639 207.9 952.909 209.97 949.609 211.47C946.309 212.97 942.619 213.72 938.539 213.72C933.619 213.72 929.239 212.67 925.399 210.57C921.559 208.47 918.559 205.47 916.399 201.57C914.239 197.67 913.159 193.11 913.159 187.89C913.159 182.67 914.209 178.11 916.309 174.21C918.469 170.31 921.469 167.31 925.309 165.21C929.149 163.11 933.559 162.06 938.539 162.06C943.399 162.06 947.719 163.08 951.499 165.12C955.279 167.16 958.219 170.07 960.319 173.85C962.479 177.63 963.559 182.04 963.559 187.08ZM947.809 183.03C947.809 180.39 946.909 178.29 945.109 176.73C943.309 175.17 941.059 174.39 938.359 174.39C935.779 174.39 933.589 175.14 931.789 176.64C930.049 178.14 928.969 180.27 928.549 183.03H947.809ZM1038.09 187.08C1038.09 188.52 1038 190.02 1037.82 191.58H1002.99C1003.23 194.7 1004.22 197.1 1005.96 198.78C1007.76 200.4 1009.95 201.21 1012.53 201.21C1016.37 201.21 1019.04 199.59 1020.54 196.35H1036.92C1036.08 199.65 1034.55 202.62 1032.33 205.26C1030.17 207.9 1027.44 209.97 1024.14 211.47C1020.84 212.97 1017.15 213.72 1013.07 213.72C1008.15 213.72 1003.77 212.67 999.93 210.57C996.09 208.47 993.09 205.47 990.93 201.57C988.77 197.67 987.69 193.11 987.69 187.89C987.69 182.67 988.74 178.11 990.84 174.21C993 170.31 996 167.31 999.84 165.21C1003.68 163.11 1008.09 162.06 1013.07 162.06C1017.93 162.06 1022.25 163.08 1026.03 165.12C1029.81 167.16 1032.75 170.07 1034.85 173.85C1037.01 177.63 1038.09 182.04 1038.09 187.08ZM1022.34 183.03C1022.34 180.39 1021.44 178.29 1019.64 176.73C1017.84 175.17 1015.59 174.39 1012.89 174.39C1010.31 174.39 1008.12 175.14 1006.32 176.64C1004.58 178.14 1003.5 180.27 1003.08 183.03H1022.34ZM1075.91 213L1066.28 199.05L1058.18 213H1041.53L1058.09 187.35L1041.08 162.78H1058.36L1067.99 176.64L1076.09 162.78H1092.74L1075.91 188.07L1093.19 213H1075.91ZM1114.51 169.89C1116.01 167.55 1118.08 165.66 1120.72 164.22C1123.36 162.78 1126.45 162.06 1129.99 162.06C1134.13 162.06 1137.88 163.11 1141.24 165.21C1144.6 167.31 1147.24 170.31 1149.16 174.21C1151.14 178.11 1152.13 182.64 1152.13 187.8C1152.13 192.96 1151.14 197.52 1149.16 201.48C1147.24 205.38 1144.6 208.41 1141.24 210.57C1137.88 212.67 1134.13 213.72 1129.99 213.72C1126.51 213.72 1123.42 213 1120.72 211.56C1118.08 210.12 1116.01 208.26 1114.51 205.98V236.94H1099.12V162.78H1114.51V169.89ZM1136.47 187.8C1136.47 183.96 1135.39 180.96 1133.23 178.8C1131.13 176.58 1128.52 175.47 1125.4 175.47C1122.34 175.47 1119.73 176.58 1117.57 178.8C1115.47 181.02 1114.42 184.05 1114.42 187.89C1114.42 191.73 1115.47 194.76 1117.57 196.98C1119.73 199.2 1122.34 200.31 1125.4 200.31C1128.46 200.31 1131.07 199.2 1133.23 196.98C1135.39 194.7 1136.47 191.64 1136.47 187.8ZM1207.54 187.08C1207.54 188.52 1207.45 190.02 1207.27 191.58H1172.44C1172.68 194.7 1173.67 197.1 1175.41 198.78C1177.21 200.4 1179.4 201.21 1181.98 201.21C1185.82 201.21 1188.49 199.59 1189.99 196.35H1206.37C1205.53 199.65 1204 202.62 1201.78 205.26C1199.62 207.9 1196.89 209.97 1193.59 211.47C1190.29 212.97 1186.6 213.72 1182.52 213.72C1177.6 213.72 1173.22 212.67 1169.38 210.57C1165.54 208.47 1162.54 205.47 1160.38 201.57C1158.22 197.67 1157.14 193.11 1157.14 187.89C1157.14 182.67 1158.19 178.11 1160.29 174.21C1162.45 170.31 1165.45 167.31 1169.29 165.21C1173.13 163.11 1177.54 162.06 1182.52 162.06C1187.38 162.06 1191.7 163.08 1195.48 165.12C1199.26 167.16 1202.2 170.07 1204.3 173.85C1206.46 177.63 1207.54 182.04 1207.54 187.08ZM1191.79 183.03C1191.79 180.39 1190.89 178.29 1189.09 176.73C1187.29 175.17 1185.04 174.39 1182.34 174.39C1179.76 174.39 1177.57 175.14 1175.77 176.64C1174.03 178.14 1172.95 180.27 1172.53 183.03H1191.79ZM1231.05 171.15C1232.85 168.39 1235.1 166.23 1237.8 164.67C1240.5 163.05 1243.5 162.24 1246.8 162.24V178.53H1242.57C1238.73 178.53 1235.85 179.37 1233.93 181.05C1232.01 182.67 1231.05 185.55 1231.05 189.69V213H1215.66V162.78H1231.05V171.15ZM1261.9 157.56C1259.2 157.56 1256.98 156.78 1255.24 155.22C1253.56 153.6 1252.72 151.62 1252.72 149.28C1252.72 146.88 1253.56 144.9 1255.24 143.34C1256.98 141.72 1259.2 140.91 1261.9 140.91C1264.54 140.91 1266.7 141.72 1268.38 143.34C1270.12 144.9 1270.99 146.88 1270.99 149.28C1270.99 151.62 1270.12 153.6 1268.38 155.22C1266.7 156.78 1264.54 157.56 1261.9 157.56ZM1269.55 162.78V213H1254.16V162.78H1269.55ZM1328.04 187.08C1328.04 188.52 1327.95 190.02 1327.77 191.58H1292.94C1293.18 194.7 1294.17 197.1 1295.91 198.78C1297.71 200.4 1299.9 201.21 1302.48 201.21C1306.32 201.21 1308.99 199.59 1310.49 196.35H1326.87C1326.03 199.65 1324.5 202.62 1322.28 205.26C1320.12 207.9 1317.39 209.97 1314.09 211.47C1310.79 212.97 1307.1 213.72 1303.02 213.72C1298.1 213.72 1293.72 212.67 1289.88 210.57C1286.04 208.47 1283.04 205.47 1280.88 201.57C1278.72 197.67 1277.64 193.11 1277.64 187.89C1277.64 182.67 1278.69 178.11 1280.79 174.21C1282.95 170.31 1285.95 167.31 1289.79 165.21C1293.63 163.11 1298.04 162.06 1303.02 162.06C1307.88 162.06 1312.2 163.08 1315.98 165.12C1319.76 167.16 1322.7 170.07 1324.8 173.85C1326.96 177.63 1328.04 182.04 1328.04 187.08ZM1312.29 183.03C1312.29 180.39 1311.39 178.29 1309.59 176.73C1307.79 175.17 1305.54 174.39 1302.84 174.39C1300.26 174.39 1298.07 175.14 1296.27 176.64C1294.53 178.14 1293.45 180.27 1293.03 183.03H1312.29ZM1366.76 162.24C1372.64 162.24 1377.32 164.16 1380.8 168C1384.34 171.78 1386.11 177 1386.11 183.66V213H1370.81V185.73C1370.81 182.37 1369.94 179.76 1368.2 177.9C1366.46 176.04 1364.12 175.11 1361.18 175.11C1358.24 175.11 1355.9 176.04 1354.16 177.9C1352.42 179.76 1351.55 182.37 1351.55 185.73V213H1336.16V162.78H1351.55V169.44C1353.11 167.22 1355.21 165.48 1357.85 164.22C1360.49 162.9 1363.46 162.24 1366.76 162.24ZM1393.74 187.89C1393.74 182.67 1394.79 178.11 1396.89 174.21C1399.05 170.31 1402.02 167.31 1405.8 165.21C1409.64 163.11 1414.02 162.06 1418.94 162.06C1425.24 162.06 1430.49 163.71 1434.69 167.01C1438.95 170.31 1441.74 174.96 1443.06 180.96H1426.68C1425.3 177.12 1422.63 175.2 1418.67 175.2C1415.85 175.2 1413.6 176.31 1411.92 178.53C1410.24 180.69 1409.4 183.81 1409.4 187.89C1409.4 191.97 1410.24 195.12 1411.92 197.34C1413.6 199.5 1415.85 200.58 1418.67 200.58C1422.63 200.58 1425.3 198.66 1426.68 194.82H1443.06C1441.74 200.7 1438.95 205.32 1434.69 208.68C1430.43 212.04 1425.18 213.72 1418.94 213.72C1414.02 213.72 1409.64 212.67 1405.8 210.57C1402.02 208.47 1399.05 205.47 1396.89 201.57C1394.79 197.67 1393.74 193.11 1393.74 187.89ZM1498.64 187.08C1498.64 188.52 1498.55 190.02 1498.37 191.58H1463.54C1463.78 194.7 1464.77 197.1 1466.51 198.78C1468.31 200.4 1470.5 201.21 1473.08 201.21C1476.92 201.21 1479.59 199.59 1481.09 196.35H1497.47C1496.63 199.65 1495.1 202.62 1492.88 205.26C1490.72 207.9 1487.99 209.97 1484.69 211.47C1481.39 212.97 1477.7 213.72 1473.62 213.72C1468.7 213.72 1464.32 212.67 1460.48 210.57C1456.64 208.47 1453.64 205.47 1451.48 201.57C1449.32 197.67 1448.24 193.11 1448.24 187.89C1448.24 182.67 1449.29 178.11 1451.39 174.21C1453.55 170.31 1456.55 167.31 1460.39 165.21C1464.23 163.11 1468.64 162.06 1473.62 162.06C1478.48 162.06 1482.8 163.08 1486.58 165.12C1490.36 167.16 1493.3 170.07 1495.4 173.85C1497.56 177.63 1498.64 182.04 1498.64 187.08ZM1482.89 183.03C1482.89 180.39 1481.99 178.29 1480.19 176.73C1478.39 175.17 1476.14 174.39 1473.44 174.39C1470.86 174.39 1468.67 175.14 1466.87 176.64C1465.13 178.14 1464.05 180.27 1463.63 183.03H1482.89ZM1527.19 213.72C1522.81 213.72 1518.91 212.97 1515.49 211.47C1512.07 209.97 1509.37 207.93 1507.39 205.35C1505.41 202.71 1504.3 199.77 1504.06 196.53H1519.27C1519.45 198.27 1520.26 199.68 1521.7 200.76C1523.14 201.84 1524.91 202.38 1527.01 202.38C1528.93 202.38 1530.4 202.02 1531.42 201.3C1532.5 200.52 1533.04 199.53 1533.04 198.33C1533.04 196.89 1532.29 195.84 1530.79 195.18C1529.29 194.46 1526.86 193.68 1523.5 192.84C1519.9 192 1516.9 191.13 1514.5 190.23C1512.1 189.27 1510.03 187.8 1508.29 185.82C1506.55 183.78 1505.68 181.05 1505.68 177.63C1505.68 174.75 1506.46 172.14 1508.02 169.8C1509.64 167.4 1511.98 165.51 1515.04 164.13C1518.16 162.75 1521.85 162.06 1526.11 162.06C1532.41 162.06 1537.36 163.62 1540.96 166.74C1544.62 169.86 1546.72 174 1547.26 179.16H1533.04C1532.8 177.42 1532.02 176.04 1530.7 175.02C1529.44 174 1527.76 173.49 1525.66 173.49C1523.86 173.49 1522.48 173.85 1521.52 174.57C1520.56 175.23 1520.08 176.16 1520.08 177.36C1520.08 178.8 1520.83 179.88 1522.33 180.6C1523.89 181.32 1526.29 182.04 1529.53 182.76C1533.25 183.72 1536.28 184.68 1538.62 185.64C1540.96 186.54 1543 188.04 1544.74 190.14C1546.54 192.18 1547.47 194.94 1547.53 198.42C1547.53 201.36 1546.69 204 1545.01 206.34C1543.39 208.62 1541.02 210.42 1537.9 211.74C1534.84 213.06 1531.27 213.72 1527.19 213.72ZM1648.1 162.78L1634.51 213H1617.5L1609.58 180.42L1601.39 213H1584.47L1570.79 162.78H1586.18L1593.29 198.69L1601.75 162.78H1618.04L1626.59 198.51L1633.61 162.78H1648.1ZM1661.71 157.56C1659.01 157.56 1656.79 156.78 1655.05 155.22C1653.37 153.6 1652.53 151.62 1652.53 149.28C1652.53 146.88 1653.37 144.9 1655.05 143.34C1656.79 141.72 1659.01 140.91 1661.71 140.91C1664.35 140.91 1666.51 141.72 1668.19 143.34C1669.93 144.9 1670.8 146.88 1670.8 149.28C1670.8 151.62 1669.93 153.6 1668.19 155.22C1666.51 156.78 1664.35 157.56 1661.71 157.56ZM1669.36 162.78V213H1653.97V162.78H1669.36ZM1708.51 199.95V213H1700.68C1695.1 213 1690.75 211.65 1687.63 208.95C1684.51 206.19 1682.95 201.72 1682.95 195.54V175.56H1676.83V162.78H1682.95V150.54H1698.34V162.78H1708.42V175.56H1698.34V195.72C1698.34 197.22 1698.7 198.3 1699.42 198.96C1700.14 199.62 1701.34 199.95 1703.02 199.95H1708.51ZM1747.95 162.24C1753.71 162.24 1758.33 164.16 1761.81 168C1765.29 171.78 1767.03 177 1767.03 183.66V213H1751.73V185.73C1751.73 182.37 1750.86 179.76 1749.12 177.9C1747.38 176.04 1745.04 175.11 1742.1 175.11C1739.16 175.11 1736.82 176.04 1735.08 177.9C1733.34 179.76 1732.47 182.37 1732.47 185.73V213H1717.08V146.4H1732.47V169.53C1734.03 167.31 1736.16 165.54 1738.86 164.22C1741.56 162.9 1744.59 162.24 1747.95 162.24ZM603.52 322.89C603.52 317.67 604.57 313.11 606.67 309.21C608.83 305.31 611.8 302.31 615.58 300.21C619.42 298.11 623.8 297.06 628.72 297.06C635.02 297.06 640.27 298.71 644.47 302.01C648.73 305.31 651.52 309.96 652.84 315.96H636.46C635.08 312.12 632.41 310.2 628.45 310.2C625.63 310.2 623.38 311.31 621.7 313.53C620.02 315.69 619.18 318.81 619.18 322.89C619.18 326.97 620.02 330.12 621.7 332.34C623.38 334.5 625.63 335.58 628.45 335.58C632.41 335.58 635.08 333.66 636.46 329.82H652.84C651.52 335.7 648.73 340.32 644.47 343.68C640.21 347.04 634.96 348.72 628.72 348.72C623.8 348.72 619.42 347.67 615.58 345.57C611.8 343.47 608.83 340.47 606.67 336.57C604.57 332.67 603.52 328.11 603.52 322.89ZM676.462 281.4V348H661.072V281.4H676.462ZM710.475 348.72C705.555 348.72 701.115 347.67 697.155 345.57C693.255 343.47 690.165 340.47 687.885 336.57C685.665 332.67 684.555 328.11 684.555 322.89C684.555 317.73 685.695 313.2 687.975 309.3C690.255 305.34 693.375 302.31 697.335 300.21C701.295 298.11 705.735 297.06 710.655 297.06C715.575 297.06 720.015 298.11 723.975 300.21C727.935 302.31 731.055 305.34 733.335 309.3C735.615 313.2 736.755 317.73 736.755 322.89C736.755 328.05 735.585 332.61 733.245 336.57C730.965 340.47 727.815 343.47 723.795 345.57C719.835 347.67 715.395 348.72 710.475 348.72ZM710.475 335.4C713.415 335.4 715.905 334.32 717.945 332.16C720.045 330 721.095 326.91 721.095 322.89C721.095 318.87 720.075 315.78 718.035 313.62C716.055 311.46 713.595 310.38 710.655 310.38C707.655 310.38 705.165 311.46 703.185 313.62C701.205 315.72 700.215 318.81 700.215 322.89C700.215 326.91 701.175 330 703.095 332.16C705.075 334.32 707.535 335.4 710.475 335.4ZM772.91 334.95V348H765.08C759.5 348 755.15 346.65 752.03 343.95C748.91 341.19 747.35 336.72 747.35 330.54V310.56H741.23V297.78H747.35V285.54H762.74V297.78H772.82V310.56H762.74V330.72C762.74 332.22 763.1 333.3 763.82 333.96C764.54 334.62 765.74 334.95 767.42 334.95H772.91ZM812.352 297.24C818.112 297.24 822.732 299.16 826.212 303C829.692 306.78 831.432 312 831.432 318.66V348H816.132V320.73C816.132 317.37 815.262 314.76 813.522 312.9C811.782 311.04 809.442 310.11 806.502 310.11C803.562 310.11 801.222 311.04 799.482 312.9C797.742 314.76 796.872 317.37 796.872 320.73V348H781.482V281.4H796.872V304.53C798.432 302.31 800.562 300.54 803.262 299.22C805.962 297.9 808.992 297.24 812.352 297.24ZM849.867 292.56C847.167 292.56 844.947 291.78 843.207 290.22C841.527 288.6 840.687 286.62 840.687 284.28C840.687 281.88 841.527 279.9 843.207 278.34C844.947 276.72 847.167 275.91 849.867 275.91C852.507 275.91 854.667 276.72 856.347 278.34C858.087 279.9 858.957 281.88 858.957 284.28C858.957 286.62 858.087 288.6 856.347 290.22C854.667 291.78 852.507 292.56 849.867 292.56ZM857.517 297.78V348H842.127V297.78H857.517ZM899.27 297.24C905.15 297.24 909.83 299.16 913.31 303C916.85 306.78 918.62 312 918.62 318.66V348H903.32V320.73C903.32 317.37 902.45 314.76 900.71 312.9C898.97 311.04 896.63 310.11 893.69 310.11C890.75 310.11 888.41 311.04 886.67 312.9C884.93 314.76 884.06 317.37 884.06 320.73V348H868.67V297.78H884.06V304.44C885.62 302.22 887.72 300.48 890.36 299.22C893 297.9 895.97 297.24 899.27 297.24ZM948.394 297.06C951.934 297.06 955.024 297.78 957.664 299.22C960.364 300.66 962.434 302.55 963.874 304.89V297.78H979.264V347.91C979.264 352.53 978.334 356.7 976.474 360.42C974.674 364.2 971.884 367.2 968.104 369.42C964.384 371.64 959.734 372.75 954.154 372.75C946.714 372.75 940.684 370.98 936.064 367.44C931.444 363.96 928.804 359.22 928.144 353.22H943.354C943.834 355.14 944.974 356.64 946.774 357.72C948.574 358.86 950.794 359.43 953.434 359.43C956.614 359.43 959.134 358.5 960.994 356.64C962.914 354.84 963.874 351.93 963.874 347.91V340.8C962.374 343.14 960.304 345.06 957.664 346.56C955.024 348 951.934 348.72 948.394 348.72C944.254 348.72 940.504 347.67 937.144 345.57C933.784 343.41 931.114 340.38 929.134 336.48C927.214 332.52 926.254 327.96 926.254 322.8C926.254 317.64 927.214 313.11 929.134 309.21C931.114 305.31 933.784 302.31 937.144 300.21C940.504 298.11 944.254 297.06 948.394 297.06ZM963.874 322.89C963.874 319.05 962.794 316.02 960.634 313.8C958.534 311.58 955.954 310.47 952.894 310.47C949.834 310.47 947.224 311.58 945.064 313.8C942.964 315.96 941.914 318.96 941.914 322.8C941.914 326.64 942.964 329.7 945.064 331.98C947.224 334.2 949.834 335.31 952.894 335.31C955.954 335.31 958.534 334.2 960.634 331.98C962.794 329.76 963.874 326.73 963.874 322.89ZM1029.9 348.72C1025.52 348.72 1021.62 347.97 1018.2 346.47C1014.78 344.97 1012.08 342.93 1010.1 340.35C1008.12 337.71 1007.01 334.77 1006.77 331.53H1021.98C1022.16 333.27 1022.97 334.68 1024.41 335.76C1025.85 336.84 1027.62 337.38 1029.72 337.38C1031.64 337.38 1033.11 337.02 1034.13 336.3C1035.21 335.52 1035.75 334.53 1035.75 333.33C1035.75 331.89 1035 330.84 1033.5 330.18C1032 329.46 1029.57 328.68 1026.21 327.84C1022.61 327 1019.61 326.13 1017.21 325.23C1014.81 324.27 1012.74 322.8 1011 320.82C1009.26 318.78 1008.39 316.05 1008.39 312.63C1008.39 309.75 1009.17 307.14 1010.73 304.8C1012.35 302.4 1014.69 300.51 1017.75 299.13C1020.87 297.75 1024.56 297.06 1028.82 297.06C1035.12 297.06 1040.07 298.62 1043.67 301.74C1047.33 304.86 1049.43 309 1049.97 314.16H1035.75C1035.51 312.42 1034.73 311.04 1033.41 310.02C1032.15 309 1030.47 308.49 1028.37 308.49C1026.57 308.49 1025.19 308.85 1024.23 309.57C1023.27 310.23 1022.79 311.16 1022.79 312.36C1022.79 313.8 1023.54 314.88 1025.04 315.6C1026.6 316.32 1029 317.04 1032.24 317.76C1035.96 318.72 1038.99 319.68 1041.33 320.64C1043.67 321.54 1045.71 323.04 1047.45 325.14C1049.25 327.18 1050.18 329.94 1050.24 333.42C1050.24 336.36 1049.4 339 1047.72 341.34C1046.1 343.62 1043.73 345.42 1040.61 346.74C1037.55 348.06 1033.98 348.72 1029.9 348.72ZM1087.65 334.95V348H1079.82C1074.24 348 1069.89 346.65 1066.77 343.95C1063.65 341.19 1062.09 336.72 1062.09 330.54V310.56H1055.97V297.78H1062.09V285.54H1077.48V297.78H1087.56V310.56H1077.48V330.72C1077.48 332.22 1077.84 333.3 1078.56 333.96C1079.28 334.62 1080.48 334.95 1082.16 334.95H1087.65ZM1119.08 348.72C1114.16 348.72 1109.72 347.67 1105.76 345.57C1101.86 343.47 1098.77 340.47 1096.49 336.57C1094.27 332.67 1093.16 328.11 1093.16 322.89C1093.16 317.73 1094.3 313.2 1096.58 309.3C1098.86 305.34 1101.98 302.31 1105.94 300.21C1109.9 298.11 1114.34 297.06 1119.26 297.06C1124.18 297.06 1128.62 298.11 1132.58 300.21C1136.54 302.31 1139.66 305.34 1141.94 309.3C1144.22 313.2 1145.36 317.73 1145.36 322.89C1145.36 328.05 1144.19 332.61 1141.85 336.57C1139.57 340.47 1136.42 343.47 1132.4 345.57C1128.44 347.67 1124 348.72 1119.08 348.72ZM1119.08 335.4C1122.02 335.4 1124.51 334.32 1126.55 332.16C1128.65 330 1129.7 326.91 1129.7 322.89C1129.7 318.87 1128.68 315.78 1126.64 313.62C1124.66 311.46 1122.2 310.38 1119.26 310.38C1116.26 310.38 1113.77 311.46 1111.79 313.62C1109.81 315.72 1108.82 318.81 1108.82 322.89C1108.82 326.91 1109.78 330 1111.7 332.16C1113.68 334.32 1116.14 335.4 1119.08 335.4ZM1168.91 306.15C1170.71 303.39 1172.96 301.23 1175.66 299.67C1178.36 298.05 1181.36 297.24 1184.66 297.24V313.53H1180.43C1176.59 313.53 1173.71 314.37 1171.79 316.05C1169.87 317.67 1168.91 320.55 1168.91 324.69V348H1153.52V297.78H1168.91V306.15ZM1239.36 322.08C1239.36 323.52 1239.27 325.02 1239.09 326.58H1204.26C1204.5 329.7 1205.49 332.1 1207.23 333.78C1209.03 335.4 1211.22 336.21 1213.8 336.21C1217.64 336.21 1220.31 334.59 1221.81 331.35H1238.19C1237.35 334.65 1235.82 337.62 1233.6 340.26C1231.44 342.9 1228.71 344.97 1225.41 346.47C1222.11 347.97 1218.42 348.72 1214.34 348.72C1209.42 348.72 1205.04 347.67 1201.2 345.57C1197.36 343.47 1194.36 340.47 1192.2 336.57C1190.04 332.67 1188.96 328.11 1188.96 322.89C1188.96 317.67 1190.01 313.11 1192.11 309.21C1194.27 305.31 1197.27 302.31 1201.11 300.21C1204.95 298.11 1209.36 297.06 1214.34 297.06C1219.2 297.06 1223.52 298.08 1227.3 300.12C1231.08 302.16 1234.02 305.07 1236.12 308.85C1238.28 312.63 1239.36 317.04 1239.36 322.08ZM1223.61 318.03C1223.61 315.39 1222.71 313.29 1220.91 311.73C1219.11 310.17 1216.86 309.39 1214.16 309.39C1211.58 309.39 1209.39 310.14 1207.59 311.64C1205.85 313.14 1204.77 315.27 1204.35 318.03H1223.61ZM1267.91 348.72C1263.53 348.72 1259.63 347.97 1256.21 346.47C1252.79 344.97 1250.09 342.93 1248.11 340.35C1246.13 337.71 1245.02 334.77 1244.78 331.53H1259.99C1260.17 333.27 1260.98 334.68 1262.42 335.76C1263.86 336.84 1265.63 337.38 1267.73 337.38C1269.65 337.38 1271.12 337.02 1272.14 336.3C1273.22 335.52 1273.76 334.53 1273.76 333.33C1273.76 331.89 1273.01 330.84 1271.51 330.18C1270.01 329.46 1267.58 328.68 1264.22 327.84C1260.62 327 1257.62 326.13 1255.22 325.23C1252.82 324.27 1250.75 322.8 1249.01 320.82C1247.27 318.78 1246.4 316.05 1246.4 312.63C1246.4 309.75 1247.18 307.14 1248.74 304.8C1250.36 302.4 1252.7 300.51 1255.76 299.13C1258.88 297.75 1262.57 297.06 1266.83 297.06C1273.13 297.06 1278.08 298.62 1281.68 301.74C1285.34 304.86 1287.44 309 1287.98 314.16H1273.76C1273.52 312.42 1272.74 311.04 1271.42 310.02C1270.16 309 1268.48 308.49 1266.38 308.49C1264.58 308.49 1263.2 308.85 1262.24 309.57C1261.28 310.23 1260.8 311.16 1260.8 312.36C1260.8 313.8 1261.55 314.88 1263.05 315.6C1264.61 316.32 1267.01 317.04 1270.25 317.76C1273.97 318.72 1277 319.68 1279.34 320.64C1281.68 321.54 1283.72 323.04 1285.46 325.14C1287.26 327.18 1288.19 329.94 1288.25 333.42C1288.25 336.36 1287.41 339 1285.73 341.34C1284.11 343.62 1281.74 345.42 1278.62 346.74C1275.56 348.06 1271.99 348.72 1267.91 348.72Z" fill="black"/>
<path d="M663.1 513H647.71L621.97 474.03V513H606.58V449.82H621.97L647.71 488.97V449.82H663.1V513ZM721.596 487.08C721.596 488.52 721.506 490.02 721.326 491.58H686.496C686.736 494.7 687.726 497.1 689.466 498.78C691.266 500.4 693.456 501.21 696.036 501.21C699.876 501.21 702.546 499.59 704.046 496.35H720.426C719.586 499.65 718.056 502.62 715.836 505.26C713.676 507.9 710.946 509.97 707.646 511.47C704.346 512.97 700.656 513.72 696.576 513.72C691.656 513.72 687.276 512.67 683.436 510.57C679.596 508.47 676.596 505.47 674.436 501.57C672.276 497.67 671.196 493.11 671.196 487.89C671.196 482.67 672.246 478.11 674.346 474.21C676.506 470.31 679.506 467.31 683.346 465.21C687.186 463.11 691.596 462.06 696.576 462.06C701.436 462.06 705.756 463.08 709.536 465.12C713.316 467.16 716.256 470.07 718.356 473.85C720.516 477.63 721.596 482.04 721.596 487.08ZM705.846 483.03C705.846 480.39 704.946 478.29 703.146 476.73C701.346 475.17 699.096 474.39 696.396 474.39C693.816 474.39 691.626 475.14 689.826 476.64C688.086 478.14 687.006 480.27 686.586 483.03H705.846ZM748.795 462.06C752.335 462.06 755.425 462.78 758.065 464.22C760.765 465.66 762.835 467.55 764.275 469.89V462.78H779.665V512.91C779.665 517.53 778.735 521.7 776.875 525.42C775.075 529.2 772.285 532.2 768.505 534.42C764.785 536.64 760.135 537.75 754.555 537.75C747.115 537.75 741.085 535.98 736.465 532.44C731.845 528.96 729.205 524.22 728.545 518.22H743.755C744.235 520.14 745.375 521.64 747.175 522.72C748.975 523.86 751.195 524.43 753.835 524.43C757.015 524.43 759.535 523.5 761.395 521.64C763.315 519.84 764.275 516.93 764.275 512.91V505.8C762.775 508.14 760.705 510.06 758.065 511.56C755.425 513 752.335 513.72 748.795 513.72C744.655 513.72 740.905 512.67 737.545 510.57C734.185 508.41 731.515 505.38 729.535 501.48C727.615 497.52 726.655 492.96 726.655 487.8C726.655 482.64 727.615 478.11 729.535 474.21C731.515 470.31 734.185 467.31 737.545 465.21C740.905 463.11 744.655 462.06 748.795 462.06ZM764.275 487.89C764.275 484.05 763.195 481.02 761.035 478.8C758.935 476.58 756.355 475.47 753.295 475.47C750.235 475.47 747.625 476.58 745.465 478.8C743.365 480.96 742.315 483.96 742.315 487.8C742.315 491.64 743.365 494.7 745.465 496.98C747.625 499.2 750.235 500.31 753.295 500.31C756.355 500.31 758.935 499.2 761.035 496.98C763.195 494.76 764.275 491.73 764.275 487.89ZM787.739 487.8C787.739 482.64 788.699 478.11 790.619 474.21C792.599 470.31 795.269 467.31 798.629 465.21C801.989 463.11 805.739 462.06 809.879 462.06C813.419 462.06 816.509 462.78 819.149 464.22C821.849 465.66 823.919 467.55 825.359 469.89V462.78H840.749V513H825.359V505.89C823.859 508.23 821.759 510.12 819.059 511.56C816.419 513 813.329 513.72 809.789 513.72C805.709 513.72 801.989 512.67 798.629 510.57C795.269 508.41 792.599 505.38 790.619 501.48C788.699 497.52 787.739 492.96 787.739 487.8ZM825.359 487.89C825.359 484.05 824.279 481.02 822.119 478.8C820.019 476.58 817.439 475.47 814.379 475.47C811.319 475.47 808.709 476.58 806.549 478.8C804.449 480.96 803.399 483.96 803.399 487.8C803.399 491.64 804.449 494.7 806.549 496.98C808.709 499.2 811.319 500.31 814.379 500.31C817.439 500.31 820.019 499.2 822.119 496.98C824.279 494.76 825.359 491.73 825.359 487.89ZM879.873 499.95V513H872.043C866.463 513 862.113 511.65 858.993 508.95C855.873 506.19 854.313 501.72 854.313 495.54V475.56H848.193V462.78H854.313V450.54H869.703V462.78H879.783V475.56H869.703V495.72C869.703 497.22 870.063 498.3 870.783 498.96C871.503 499.62 872.703 499.95 874.383 499.95H879.873ZM896.185 457.56C893.485 457.56 891.265 456.78 889.525 455.22C887.845 453.6 887.005 451.62 887.005 449.28C887.005 446.88 887.845 444.9 889.525 443.34C891.265 441.72 893.485 440.91 896.185 440.91C898.825 440.91 900.985 441.72 902.665 443.34C904.405 444.9 905.275 446.88 905.275 449.28C905.275 451.62 904.405 453.6 902.665 455.22C900.985 456.78 898.825 457.56 896.185 457.56ZM903.835 462.78V513H888.445V462.78H903.835ZM937.578 498.6L948.468 462.78H964.848L947.028 513H928.038L910.218 462.78H926.688L937.578 498.6ZM1018.67 487.08C1018.67 488.52 1018.58 490.02 1018.4 491.58H983.566C983.806 494.7 984.796 497.1 986.536 498.78C988.336 500.4 990.526 501.21 993.106 501.21C996.946 501.21 999.616 499.59 1001.12 496.35H1017.5C1016.66 499.65 1015.13 502.62 1012.91 505.26C1010.75 507.9 1008.02 509.97 1004.72 511.47C1001.42 512.97 997.726 513.72 993.646 513.72C988.726 513.72 984.346 512.67 980.506 510.57C976.666 508.47 973.666 505.47 971.506 501.57C969.346 497.67 968.266 493.11 968.266 487.89C968.266 482.67 969.316 478.11 971.416 474.21C973.576 470.31 976.576 467.31 980.416 465.21C984.256 463.11 988.666 462.06 993.646 462.06C998.506 462.06 1002.83 463.08 1006.61 465.12C1010.39 467.16 1013.33 470.07 1015.43 473.85C1017.59 477.63 1018.67 482.04 1018.67 487.08ZM1002.92 483.03C1002.92 480.39 1002.02 478.29 1000.22 476.73C998.416 475.17 996.166 474.39 993.466 474.39C990.886 474.39 988.696 475.14 986.896 476.64C985.156 478.14 984.076 480.27 983.656 483.03H1002.92ZM1093.2 487.08C1093.2 488.52 1093.11 490.02 1092.93 491.58H1058.1C1058.34 494.7 1059.33 497.1 1061.07 498.78C1062.87 500.4 1065.06 501.21 1067.64 501.21C1071.48 501.21 1074.15 499.59 1075.65 496.35H1092.03C1091.19 499.65 1089.66 502.62 1087.44 505.26C1085.28 507.9 1082.55 509.97 1079.25 511.47C1075.95 512.97 1072.26 513.72 1068.18 513.72C1063.26 513.72 1058.88 512.67 1055.04 510.57C1051.2 508.47 1048.2 505.47 1046.04 501.57C1043.88 497.67 1042.8 493.11 1042.8 487.89C1042.8 482.67 1043.85 478.11 1045.95 474.21C1048.11 470.31 1051.11 467.31 1054.95 465.21C1058.79 463.11 1063.2 462.06 1068.18 462.06C1073.04 462.06 1077.36 463.08 1081.14 465.12C1084.92 467.16 1087.86 470.07 1089.96 473.85C1092.12 477.63 1093.2 482.04 1093.2 487.08ZM1077.45 483.03C1077.45 480.39 1076.55 478.29 1074.75 476.73C1072.95 475.17 1070.7 474.39 1068 474.39C1065.42 474.39 1063.23 475.14 1061.43 476.64C1059.69 478.14 1058.61 480.27 1058.19 483.03H1077.45ZM1131.02 513L1121.39 499.05L1113.29 513H1096.64L1113.2 487.35L1096.19 462.78H1113.47L1123.1 476.64L1131.2 462.78H1147.85L1131.02 488.07L1148.3 513H1131.02ZM1169.62 469.89C1171.12 467.55 1173.19 465.66 1175.83 464.22C1178.47 462.78 1181.56 462.06 1185.1 462.06C1189.24 462.06 1192.99 463.11 1196.35 465.21C1199.71 467.31 1202.35 470.31 1204.27 474.21C1206.25 478.11 1207.24 482.64 1207.24 487.8C1207.24 492.96 1206.25 497.52 1204.27 501.48C1202.35 505.38 1199.71 508.41 1196.35 510.57C1192.99 512.67 1189.24 513.72 1185.1 513.72C1181.62 513.72 1178.53 513 1175.83 511.56C1173.19 510.12 1171.12 508.26 1169.62 505.98V536.94H1154.23V462.78H1169.62V469.89ZM1191.58 487.8C1191.58 483.96 1190.5 480.96 1188.34 478.8C1186.24 476.58 1183.63 475.47 1180.51 475.47C1177.45 475.47 1174.84 476.58 1172.68 478.8C1170.58 481.02 1169.53 484.05 1169.53 487.89C1169.53 491.73 1170.58 494.76 1172.68 496.98C1174.84 499.2 1177.45 500.31 1180.51 500.31C1183.57 500.31 1186.18 499.2 1188.34 496.98C1190.5 494.7 1191.58 491.64 1191.58 487.8ZM1262.65 487.08C1262.65 488.52 1262.56 490.02 1262.38 491.58H1227.55C1227.79 494.7 1228.78 497.1 1230.52 498.78C1232.32 500.4 1234.51 501.21 1237.09 501.21C1240.93 501.21 1243.6 499.59 1245.1 496.35H1261.48C1260.64 499.65 1259.11 502.62 1256.89 505.26C1254.73 507.9 1252 509.97 1248.7 511.47C1245.4 512.97 1241.71 513.72 1237.63 513.72C1232.71 513.72 1228.33 512.67 1224.49 510.57C1220.65 508.47 1217.65 505.47 1215.49 501.57C1213.33 497.67 1212.25 493.11 1212.25 487.89C1212.25 482.67 1213.3 478.11 1215.4 474.21C1217.56 470.31 1220.56 467.31 1224.4 465.21C1228.24 463.11 1232.65 462.06 1237.63 462.06C1242.49 462.06 1246.81 463.08 1250.59 465.12C1254.37 467.16 1257.31 470.07 1259.41 473.85C1261.57 477.63 1262.65 482.04 1262.65 487.08ZM1246.9 483.03C1246.9 480.39 1246 478.29 1244.2 476.73C1242.4 475.17 1240.15 474.39 1237.45 474.39C1234.87 474.39 1232.68 475.14 1230.88 476.64C1229.14 478.14 1228.06 480.27 1227.64 483.03H1246.9ZM1286.16 471.15C1287.96 468.39 1290.21 466.23 1292.91 464.67C1295.61 463.05 1298.61 462.24 1301.91 462.24V478.53H1297.68C1293.84 478.53 1290.96 479.37 1289.04 481.05C1287.12 482.67 1286.16 485.55 1286.16 489.69V513H1270.77V462.78H1286.16V471.15ZM1317.01 457.56C1314.31 457.56 1312.09 456.78 1310.35 455.22C1308.67 453.6 1307.83 451.62 1307.83 449.28C1307.83 446.88 1308.67 444.9 1310.35 443.34C1312.09 441.72 1314.31 440.91 1317.01 440.91C1319.65 440.91 1321.81 441.72 1323.49 443.34C1325.23 444.9 1326.1 446.88 1326.1 449.28C1326.1 451.62 1325.23 453.6 1323.49 455.22C1321.81 456.78 1319.65 457.56 1317.01 457.56ZM1324.66 462.78V513H1309.27V462.78H1324.66ZM1383.15 487.08C1383.15 488.52 1383.06 490.02 1382.88 491.58H1348.05C1348.29 494.7 1349.28 497.1 1351.02 498.78C1352.82 500.4 1355.01 501.21 1357.59 501.21C1361.43 501.21 1364.1 499.59 1365.6 496.35H1381.98C1381.14 499.65 1379.61 502.62 1377.39 505.26C1375.23 507.9 1372.5 509.97 1369.2 511.47C1365.9 512.97 1362.21 513.72 1358.13 513.72C1353.21 513.72 1348.83 512.67 1344.99 510.57C1341.15 508.47 1338.15 505.47 1335.99 501.57C1333.83 497.67 1332.75 493.11 1332.75 487.89C1332.75 482.67 1333.8 478.11 1335.9 474.21C1338.06 470.31 1341.06 467.31 1344.9 465.21C1348.74 463.11 1353.15 462.06 1358.13 462.06C1362.99 462.06 1367.31 463.08 1371.09 465.12C1374.87 467.16 1377.81 470.07 1379.91 473.85C1382.07 477.63 1383.15 482.04 1383.15 487.08ZM1367.4 483.03C1367.4 480.39 1366.5 478.29 1364.7 476.73C1362.9 475.17 1360.65 474.39 1357.95 474.39C1355.37 474.39 1353.18 475.14 1351.38 476.64C1349.64 478.14 1348.56 480.27 1348.14 483.03H1367.4ZM1421.87 462.24C1427.75 462.24 1432.43 464.16 1435.91 468C1439.45 471.78 1441.22 477 1441.22 483.66V513H1425.92V485.73C1425.92 482.37 1425.05 479.76 1423.31 477.9C1421.57 476.04 1419.23 475.11 1416.29 475.11C1413.35 475.11 1411.01 476.04 1409.27 477.9C1407.53 479.76 1406.66 482.37 1406.66 485.73V513H1391.27V462.78H1406.66V469.44C1408.22 467.22 1410.32 465.48 1412.96 464.22C1415.6 462.9 1418.57 462.24 1421.87 462.24ZM1448.85 487.89C1448.85 482.67 1449.9 478.11 1452 474.21C1454.16 470.31 1457.13 467.31 1460.91 465.21C1464.75 463.11 1469.13 462.06 1474.05 462.06C1480.35 462.06 1485.6 463.71 1489.8 467.01C1494.06 470.31 1496.85 474.96 1498.17 480.96H1481.79C1480.41 477.12 1477.74 475.2 1473.78 475.2C1470.96 475.2 1468.71 476.31 1467.03 478.53C1465.35 480.69 1464.51 483.81 1464.51 487.89C1464.51 491.97 1465.35 495.12 1467.03 497.34C1468.71 499.5 1470.96 500.58 1473.78 500.58C1477.74 500.58 1480.41 498.66 1481.79 494.82H1498.17C1496.85 500.7 1494.06 505.32 1489.8 508.68C1485.54 512.04 1480.29 513.72 1474.05 513.72C1469.13 513.72 1464.75 512.67 1460.91 510.57C1457.13 508.47 1454.16 505.47 1452 501.57C1449.9 497.67 1448.85 493.11 1448.85 487.89ZM1553.74 487.08C1553.74 488.52 1553.65 490.02 1553.47 491.58H1518.64C1518.88 494.7 1519.87 497.1 1521.61 498.78C1523.41 500.4 1525.6 501.21 1528.18 501.21C1532.02 501.21 1534.69 499.59 1536.19 496.35H1552.57C1551.73 499.65 1550.2 502.62 1547.98 505.26C1545.82 507.9 1543.09 509.97 1539.79 511.47C1536.49 512.97 1532.8 513.72 1528.72 513.72C1523.8 513.72 1519.42 512.67 1515.58 510.57C1511.74 508.47 1508.74 505.47 1506.58 501.57C1504.42 497.67 1503.34 493.11 1503.34 487.89C1503.34 482.67 1504.39 478.11 1506.49 474.21C1508.65 470.31 1511.65 467.31 1515.49 465.21C1519.33 463.11 1523.74 462.06 1528.72 462.06C1533.58 462.06 1537.9 463.08 1541.68 465.12C1545.46 467.16 1548.4 470.07 1550.5 473.85C1552.66 477.63 1553.74 482.04 1553.74 487.08ZM1537.99 483.03C1537.99 480.39 1537.09 478.29 1535.29 476.73C1533.49 475.17 1531.24 474.39 1528.54 474.39C1525.96 474.39 1523.77 475.14 1521.97 476.64C1520.23 478.14 1519.15 480.27 1518.73 483.03H1537.99ZM1582.29 513.72C1577.91 513.72 1574.01 512.97 1570.59 511.47C1567.17 509.97 1564.47 507.93 1562.49 505.35C1560.51 502.71 1559.4 499.77 1559.16 496.53H1574.37C1574.55 498.27 1575.36 499.68 1576.8 500.76C1578.24 501.84 1580.01 502.38 1582.11 502.38C1584.03 502.38 1585.5 502.02 1586.52 501.3C1587.6 500.52 1588.14 499.53 1588.14 498.33C1588.14 496.89 1587.39 495.84 1585.89 495.18C1584.39 494.46 1581.96 493.68 1578.6 492.84C1575 492 1572 491.13 1569.6 490.23C1567.2 489.27 1565.13 487.8 1563.39 485.82C1561.65 483.78 1560.78 481.05 1560.78 477.63C1560.78 474.75 1561.56 472.14 1563.12 469.8C1564.74 467.4 1567.08 465.51 1570.14 464.13C1573.26 462.75 1576.95 462.06 1581.21 462.06C1587.51 462.06 1592.46 463.62 1596.06 466.74C1599.72 469.86 1601.82 474 1602.36 479.16H1588.14C1587.9 477.42 1587.12 476.04 1585.8 475.02C1584.54 474 1582.86 473.49 1580.76 473.49C1578.96 473.49 1577.58 473.85 1576.62 474.57C1575.66 475.23 1575.18 476.16 1575.18 477.36C1575.18 478.8 1575.93 479.88 1577.43 480.6C1578.99 481.32 1581.39 482.04 1584.63 482.76C1588.35 483.72 1591.38 484.68 1593.72 485.64C1596.06 486.54 1598.1 488.04 1599.84 490.14C1601.64 492.18 1602.57 494.94 1602.63 498.42C1602.63 501.36 1601.79 504 1600.11 506.34C1598.49 508.62 1596.12 510.42 1593 511.74C1589.94 513.06 1586.37 513.72 1582.29 513.72ZM1703.21 462.78L1689.62 513H1672.61L1664.69 480.42L1656.5 513H1639.58L1625.9 462.78H1641.29L1648.4 498.69L1656.86 462.78H1673.15L1681.7 498.51L1688.72 462.78H1703.21ZM1716.82 457.56C1714.12 457.56 1711.9 456.78 1710.16 455.22C1708.48 453.6 1707.64 451.62 1707.64 449.28C1707.64 446.88 1708.48 444.9 1710.16 443.34C1711.9 441.72 1714.12 440.91 1716.82 440.91C1719.46 440.91 1721.62 441.72 1723.3 443.34C1725.04 444.9 1725.91 446.88 1725.91 449.28C1725.91 451.62 1725.04 453.6 1723.3 455.22C1721.62 456.78 1719.46 457.56 1716.82 457.56ZM1724.47 462.78V513H1709.08V462.78H1724.47ZM1763.61 499.95V513H1755.78C1750.2 513 1745.85 511.65 1742.73 508.95C1739.61 506.19 1738.05 501.72 1738.05 495.54V475.56H1731.93V462.78H1738.05V450.54H1753.44V462.78H1763.52V475.56H1753.44V495.72C1753.44 497.22 1753.8 498.3 1754.52 498.96C1755.24 499.62 1756.44 499.95 1758.12 499.95H1763.61ZM1803.06 462.24C1808.82 462.24 1813.44 464.16 1816.92 468C1820.4 471.78 1822.14 477 1822.14 483.66V513H1806.84V485.73C1806.84 482.37 1805.97 479.76 1804.23 477.9C1802.49 476.04 1800.15 475.11 1797.21 475.11C1794.27 475.11 1791.93 476.04 1790.19 477.9C1788.45 479.76 1787.58 482.37 1787.58 485.73V513H1772.19V446.4H1787.58V469.53C1789.14 467.31 1791.27 465.54 1793.97 464.22C1796.67 462.9 1799.7 462.24 1803.06 462.24ZM603.52 622.89C603.52 617.67 604.57 613.11 606.67 609.21C608.83 605.31 611.8 602.31 615.58 600.21C619.42 598.11 623.8 597.06 628.72 597.06C635.02 597.06 640.27 598.71 644.47 602.01C648.73 605.31 651.52 609.96 652.84 615.96H636.46C635.08 612.12 632.41 610.2 628.45 610.2C625.63 610.2 623.38 611.31 621.7 613.53C620.02 615.69 619.18 618.81 619.18 622.89C619.18 626.97 620.02 630.12 621.7 632.34C623.38 634.5 625.63 635.58 628.45 635.58C632.41 635.58 635.08 633.66 636.46 629.82H652.84C651.52 635.7 648.73 640.32 644.47 643.68C640.21 647.04 634.96 648.72 628.72 648.72C623.8 648.72 619.42 647.67 615.58 645.57C611.8 643.47 608.83 640.47 606.67 636.57C604.57 632.67 603.52 628.11 603.52 622.89ZM676.462 581.4V648H661.072V581.4H676.462ZM710.475 648.72C705.555 648.72 701.115 647.67 697.155 645.57C693.255 643.47 690.165 640.47 687.885 636.57C685.665 632.67 684.555 628.11 684.555 622.89C684.555 617.73 685.695 613.2 687.975 609.3C690.255 605.34 693.375 602.31 697.335 600.21C701.295 598.11 705.735 597.06 710.655 597.06C715.575 597.06 720.015 598.11 723.975 600.21C727.935 602.31 731.055 605.34 733.335 609.3C735.615 613.2 736.755 617.73 736.755 622.89C736.755 628.05 735.585 632.61 733.245 636.57C730.965 640.47 727.815 643.47 723.795 645.57C719.835 647.67 715.395 648.72 710.475 648.72ZM710.475 635.4C713.415 635.4 715.905 634.32 717.945 632.16C720.045 630 721.095 626.91 721.095 622.89C721.095 618.87 720.075 615.78 718.035 613.62C716.055 611.46 713.595 610.38 710.655 610.38C707.655 610.38 705.165 611.46 703.185 613.62C701.205 615.72 700.215 618.81 700.215 622.89C700.215 626.91 701.175 630 703.095 632.16C705.075 634.32 707.535 635.4 710.475 635.4ZM772.91 634.95V648H765.08C759.5 648 755.15 646.65 752.03 643.95C748.91 641.19 747.35 636.72 747.35 630.54V610.56H741.23V597.78H747.35V585.54H762.74V597.78H772.82V610.56H762.74V630.72C762.74 632.22 763.1 633.3 763.82 633.96C764.54 634.62 765.74 634.95 767.42 634.95H772.91ZM812.352 597.24C818.112 597.24 822.732 599.16 826.212 603C829.692 606.78 831.432 612 831.432 618.66V648H816.132V620.73C816.132 617.37 815.262 614.76 813.522 612.9C811.782 611.04 809.442 610.11 806.502 610.11C803.562 610.11 801.222 611.04 799.482 612.9C797.742 614.76 796.872 617.37 796.872 620.73V648H781.482V581.4H796.872V604.53C798.432 602.31 800.562 600.54 803.262 599.22C805.962 597.9 808.992 597.24 812.352 597.24ZM849.867 592.56C847.167 592.56 844.947 591.78 843.207 590.22C841.527 588.6 840.687 586.62 840.687 584.28C840.687 581.88 841.527 579.9 843.207 578.34C844.947 576.72 847.167 575.91 849.867 575.91C852.507 575.91 854.667 576.72 856.347 578.34C858.087 579.9 858.957 581.88 858.957 584.28C858.957 586.62 858.087 588.6 856.347 590.22C854.667 591.78 852.507 592.56 849.867 592.56ZM857.517 597.78V648H842.127V597.78H857.517ZM899.27 597.24C905.15 597.24 909.83 599.16 913.31 603C916.85 606.78 918.62 612 918.62 618.66V648H903.32V620.73C903.32 617.37 902.45 614.76 900.71 612.9C898.97 611.04 896.63 610.11 893.69 610.11C890.75 610.11 888.41 611.04 886.67 612.9C884.93 614.76 884.06 617.37 884.06 620.73V648H868.67V597.78H884.06V604.44C885.62 602.22 887.72 600.48 890.36 599.22C893 597.9 895.97 597.24 899.27 597.24ZM948.394 597.06C951.934 597.06 955.024 597.78 957.664 599.22C960.364 600.66 962.434 602.55 963.874 604.89V597.78H979.264V647.91C979.264 652.53 978.334 656.7 976.474 660.42C974.674 664.2 971.884 667.2 968.104 669.42C964.384 671.64 959.734 672.75 954.154 672.75C946.714 672.75 940.684 670.98 936.064 667.44C931.444 663.96 928.804 659.22 928.144 653.22H943.354C943.834 655.14 944.974 656.64 946.774 657.72C948.574 658.86 950.794 659.43 953.434 659.43C956.614 659.43 959.134 658.5 960.994 656.64C962.914 654.84 963.874 651.93 963.874 647.91V640.8C962.374 643.14 960.304 645.06 957.664 646.56C955.024 648 951.934 648.72 948.394 648.72C944.254 648.72 940.504 647.67 937.144 645.57C933.784 643.41 931.114 640.38 929.134 636.48C927.214 632.52 926.254 627.96 926.254 622.8C926.254 617.64 927.214 613.11 929.134 609.21C931.114 605.31 933.784 602.31 937.144 600.21C940.504 598.11 944.254 597.06 948.394 597.06ZM963.874 622.89C963.874 619.05 962.794 616.02 960.634 613.8C958.534 611.58 955.954 610.47 952.894 610.47C949.834 610.47 947.224 611.58 945.064 613.8C942.964 615.96 941.914 618.96 941.914 622.8C941.914 626.64 942.964 629.7 945.064 631.98C947.224 634.2 949.834 635.31 952.894 635.31C955.954 635.31 958.534 634.2 960.634 631.98C962.794 629.76 963.874 626.73 963.874 622.89ZM1029.9 648.72C1025.52 648.72 1021.62 647.97 1018.2 646.47C1014.78 644.97 1012.08 642.93 1010.1 640.35C1008.12 637.71 1007.01 634.77 1006.77 631.53H1021.98C1022.16 633.27 1022.97 634.68 1024.41 635.76C1025.85 636.84 1027.62 637.38 1029.72 637.38C1031.64 637.38 1033.11 637.02 1034.13 636.3C1035.21 635.52 1035.75 634.53 1035.75 633.33C1035.75 631.89 1035 630.84 1033.5 630.18C1032 629.46 1029.57 628.68 1026.21 627.84C1022.61 627 1019.61 626.13 1017.21 625.23C1014.81 624.27 1012.74 622.8 1011 620.82C1009.26 618.78 1008.39 616.05 1008.39 612.63C1008.39 609.75 1009.17 607.14 1010.73 604.8C1012.35 602.4 1014.69 600.51 1017.75 599.13C1020.87 597.75 1024.56 597.06 1028.82 597.06C1035.12 597.06 1040.07 598.62 1043.67 601.74C1047.33 604.86 1049.43 609 1049.97 614.16H1035.75C1035.51 612.42 1034.73 611.04 1033.41 610.02C1032.15 609 1030.47 608.49 1028.37 608.49C1026.57 608.49 1025.19 608.85 1024.23 609.57C1023.27 610.23 1022.79 611.16 1022.79 612.36C1022.79 613.8 1023.54 614.88 1025.04 615.6C1026.6 616.32 1029 617.04 1032.24 617.76C1035.96 618.72 1038.99 619.68 1041.33 620.64C1043.67 621.54 1045.71 623.04 1047.45 625.14C1049.25 627.18 1050.18 629.94 1050.24 633.42C1050.24 636.36 1049.4 639 1047.72 641.34C1046.1 643.62 1043.73 645.42 1040.61 646.74C1037.55 648.06 1033.98 648.72 1029.9 648.72ZM1087.65 634.95V648H1079.82C1074.24 648 1069.89 646.65 1066.77 643.95C1063.65 641.19 1062.09 636.72 1062.09 630.54V610.56H1055.97V597.78H1062.09V585.54H1077.48V597.78H1087.56V610.56H1077.48V630.72C1077.48 632.22 1077.84 633.3 1078.56 633.96C1079.28 634.62 1080.48 634.95 1082.16 634.95H1087.65ZM1119.08 648.72C1114.16 648.72 1109.72 647.67 1105.76 645.57C1101.86 643.47 1098.77 640.47 1096.49 636.57C1094.27 632.67 1093.16 628.11 1093.16 622.89C1093.16 617.73 1094.3 613.2 1096.58 609.3C1098.86 605.34 1101.98 602.31 1105.94 600.21C1109.9 598.11 1114.34 597.06 1119.26 597.06C1124.18 597.06 1128.62 598.11 1132.58 600.21C1136.54 602.31 1139.66 605.34 1141.94 609.3C1144.22 613.2 1145.36 617.73 1145.36 622.89C1145.36 628.05 1144.19 632.61 1141.85 636.57C1139.57 640.47 1136.42 643.47 1132.4 645.57C1128.44 647.67 1124 648.72 1119.08 648.72ZM1119.08 635.4C1122.02 635.4 1124.51 634.32 1126.55 632.16C1128.65 630 1129.7 626.91 1129.7 622.89C1129.7 618.87 1128.68 615.78 1126.64 613.62C1124.66 611.46 1122.2 610.38 1119.26 610.38C1116.26 610.38 1113.77 611.46 1111.79 613.62C1109.81 615.72 1108.82 618.81 1108.82 622.89C1108.82 626.91 1109.78 630 1111.7 632.16C1113.68 634.32 1116.14 635.4 1119.08 635.4ZM1168.91 606.15C1170.71 603.39 1172.96 601.23 1175.66 599.67C1178.36 598.05 1181.36 597.24 1184.66 597.24V613.53H1180.43C1176.59 613.53 1173.71 614.37 1171.79 616.05C1169.87 617.67 1168.91 620.55 1168.91 624.69V648H1153.52V597.78H1168.91V606.15ZM1239.36 622.08C1239.36 623.52 1239.27 625.02 1239.09 626.58H1204.26C1204.5 629.7 1205.49 632.1 1207.23 633.78C1209.03 635.4 1211.22 636.21 1213.8 636.21C1217.64 636.21 1220.31 634.59 1221.81 631.35H1238.19C1237.35 634.65 1235.82 637.62 1233.6 640.26C1231.44 642.9 1228.71 644.97 1225.41 646.47C1222.11 647.97 1218.42 648.72 1214.34 648.72C1209.42 648.72 1205.04 647.67 1201.2 645.57C1197.36 643.47 1194.36 640.47 1192.2 636.57C1190.04 632.67 1188.96 628.11 1188.96 622.89C1188.96 617.67 1190.01 613.11 1192.11 609.21C1194.27 605.31 1197.27 602.31 1201.11 600.21C1204.95 598.11 1209.36 597.06 1214.34 597.06C1219.2 597.06 1223.52 598.08 1227.3 600.12C1231.08 602.16 1234.02 605.07 1236.12 608.85C1238.28 612.63 1239.36 617.04 1239.36 622.08ZM1223.61 618.03C1223.61 615.39 1222.71 613.29 1220.91 611.73C1219.11 610.17 1216.86 609.39 1214.16 609.39C1211.58 609.39 1209.39 610.14 1207.59 611.64C1205.85 613.14 1204.77 615.27 1204.35 618.03H1223.61ZM1267.91 648.72C1263.53 648.72 1259.63 647.97 1256.21 646.47C1252.79 644.97 1250.09 642.93 1248.11 640.35C1246.13 637.71 1245.02 634.77 1244.78 631.53H1259.99C1260.17 633.27 1260.98 634.68 1262.42 635.76C1263.86 636.84 1265.63 637.38 1267.73 637.38C1269.65 637.38 1271.12 637.02 1272.14 636.3C1273.22 635.52 1273.76 634.53 1273.76 633.33C1273.76 631.89 1273.01 630.84 1271.51 630.18C1270.01 629.46 1267.58 628.68 1264.22 627.84C1260.62 627 1257.62 626.13 1255.22 625.23C1252.82 624.27 1250.75 622.8 1249.01 620.82C1247.27 618.78 1246.4 616.05 1246.4 612.63C1246.4 609.75 1247.18 607.14 1248.74 604.8C1250.36 602.4 1252.7 600.51 1255.76 599.13C1258.88 597.75 1262.57 597.06 1266.83 597.06C1273.13 597.06 1278.08 598.62 1281.68 601.74C1285.34 604.86 1287.44 609 1287.98 614.16H1273.76C1273.52 612.42 1272.74 611.04 1271.42 610.02C1270.16 609 1268.48 608.49 1266.38 608.49C1264.58 608.49 1263.2 608.85 1262.24 609.57C1261.28 610.23 1260.8 611.16 1260.8 612.36C1260.8 613.8 1261.55 614.88 1263.05 615.6C1264.61 616.32 1267.01 617.04 1270.25 617.76C1273.97 618.72 1277 619.68 1279.34 620.64C1281.68 621.54 1283.72 623.04 1285.46 625.14C1287.26 627.18 1288.19 629.94 1288.25 633.42C1288.25 636.36 1287.41 639 1285.73 641.34C1284.11 643.62 1281.74 645.42 1278.62 646.74C1275.56 648.06 1271.99 648.72 1267.91 648.72Z" fill="black"/>
<path d="M1021 2095C1370.04 2095 1653 1812.04 1653 1463C1653 1113.96 1370.04 831 1021 831C671.956 831 389 1113.96 389 1463C389 1812.04 671.956 2095 1021 2095Z" fill="#0AD81D" fill-opacity="0.7" stroke="white" stroke-miterlimit="10"/>
<path d="M1041.12 1462.35L1650.69 1461.8C1650.54 1293.18 1584.36 1140.05 1476.64 1026.83" fill="#ED2024" fill-opacity="0.8"/>
<path d="M1348.43 1292.61V1278.3H1373.36V1344H1357.34V1292.61H1348.43ZM1383.89 1310.25C1383.89 1299.93 1385.87 1291.8 1389.83 1285.86C1393.85 1279.92 1400.3 1276.95 1409.18 1276.95C1418.06 1276.95 1424.48 1279.92 1428.44 1285.86C1432.46 1291.8 1434.47 1299.93 1434.47 1310.25C1434.47 1320.69 1432.46 1328.88 1428.44 1334.82C1424.48 1340.76 1418.06 1343.73 1409.18 1343.73C1400.3 1343.73 1393.85 1340.76 1389.83 1334.82C1385.87 1328.88 1383.89 1320.69 1383.89 1310.25ZM1419.35 1310.25C1419.35 1304.19 1418.69 1299.54 1417.37 1296.3C1416.05 1293 1413.32 1291.35 1409.18 1291.35C1405.04 1291.35 1402.31 1293 1400.99 1296.3C1399.67 1299.54 1399.01 1304.19 1399.01 1310.25C1399.01 1314.33 1399.25 1317.72 1399.73 1320.42C1400.21 1323.06 1401.17 1325.22 1402.61 1326.9C1404.11 1328.52 1406.3 1329.33 1409.18 1329.33C1412.06 1329.33 1414.22 1328.52 1415.66 1326.9C1417.16 1325.22 1418.15 1323.06 1418.63 1320.42C1419.11 1317.72 1419.35 1314.33 1419.35 1310.25ZM1441.34 1294.86C1441.34 1290 1442.72 1286.25 1445.48 1283.61C1448.3 1280.97 1451.93 1279.65 1456.37 1279.65C1460.81 1279.65 1464.41 1280.97 1467.17 1283.61C1469.93 1286.25 1471.31 1290 1471.31 1294.86C1471.31 1299.72 1469.93 1303.47 1467.17 1306.11C1464.41 1308.75 1460.81 1310.07 1456.37 1310.07C1451.93 1310.07 1448.3 1308.75 1445.48 1306.11C1442.72 1303.47 1441.34 1299.72 1441.34 1294.86ZM1502.45 1280.64L1467.8 1344H1452.95L1487.6 1280.64H1502.45ZM1456.28 1288.65C1453.4 1288.65 1451.96 1290.72 1451.96 1294.86C1451.96 1298.94 1453.4 1300.98 1456.28 1300.98C1457.66 1300.98 1458.74 1300.47 1459.52 1299.45C1460.3 1298.43 1460.69 1296.9 1460.69 1294.86C1460.69 1290.72 1459.22 1288.65 1456.28 1288.65ZM1484.18 1329.78C1484.18 1324.92 1485.56 1321.17 1488.32 1318.53C1491.08 1315.89 1494.68 1314.57 1499.12 1314.57C1503.56 1314.57 1507.16 1315.89 1509.92 1318.53C1512.68 1321.17 1514.06 1324.92 1514.06 1329.78C1514.06 1334.64 1512.68 1338.39 1509.92 1341.03C1507.16 1343.67 1503.56 1344.99 1499.12 1344.99C1494.68 1344.99 1491.08 1343.67 1488.32 1341.03C1485.56 1338.39 1484.18 1334.64 1484.18 1329.78ZM1499.03 1323.57C1497.65 1323.57 1496.57 1324.08 1495.79 1325.1C1495.07 1326.12 1494.71 1327.68 1494.71 1329.78C1494.71 1333.86 1496.15 1335.9 1499.03 1335.9C1500.41 1335.9 1501.49 1335.39 1502.27 1334.37C1503.05 1333.35 1503.44 1331.82 1503.44 1329.78C1503.44 1327.74 1503.05 1326.21 1502.27 1325.19C1501.49 1324.11 1500.41 1323.57 1499.03 1323.57Z" fill="white"/>
<path d="M648.61 1542.74C649.51 1547.48 652.27 1549.85 656.89 1549.85C660.07 1549.85 662.32 1548.44 663.64 1545.62C664.96 1542.8 665.62 1538.21 665.62 1531.85C664.3 1533.71 662.5 1535.15 660.22 1536.17C657.94 1537.19 655.39 1537.7 652.57 1537.7C648.73 1537.7 645.31 1536.92 642.31 1535.36C639.31 1533.74 636.94 1531.37 635.2 1528.25C633.52 1525.07 632.68 1521.23 632.68 1516.73C632.68 1512.29 633.58 1508.42 635.38 1505.12C637.24 1501.82 639.85 1499.27 643.21 1497.47C646.63 1495.67 650.65 1494.77 655.27 1494.77C664.15 1494.77 670.36 1497.53 673.9 1503.05C677.44 1508.57 679.21 1516.7 679.21 1527.44C679.21 1535.24 678.49 1541.69 677.05 1546.79C675.67 1551.83 673.3 1555.67 669.94 1558.31C666.64 1560.95 662.11 1562.27 656.35 1562.27C651.79 1562.27 647.89 1561.37 644.65 1559.57C641.47 1557.77 639.01 1555.4 637.27 1552.46C635.59 1549.52 634.63 1546.28 634.39 1542.74H648.61ZM656.08 1525.55C658.6 1525.55 660.61 1524.8 662.11 1523.3C663.61 1521.74 664.36 1519.64 664.36 1517C664.36 1514.12 663.58 1511.9 662.02 1510.34C660.46 1508.78 658.36 1508 655.72 1508C653.08 1508 650.98 1508.81 649.42 1510.43C647.92 1511.99 647.17 1514.15 647.17 1516.91C647.17 1519.49 647.92 1521.59 649.42 1523.21C650.98 1524.77 653.2 1525.55 656.08 1525.55ZM687.421 1528.25C687.421 1517.93 689.401 1509.8 693.361 1503.86C697.381 1497.92 703.831 1494.95 712.711 1494.95C721.591 1494.95 728.011 1497.92 731.971 1503.86C735.991 1509.8 738.001 1517.93 738.001 1528.25C738.001 1538.69 735.991 1546.88 731.971 1552.82C728.011 1558.76 721.591 1561.73 712.711 1561.73C703.831 1561.73 697.381 1558.76 693.361 1552.82C689.401 1546.88 687.421 1538.69 687.421 1528.25ZM722.881 1528.25C722.881 1522.19 722.221 1517.54 720.901 1514.3C719.581 1511 716.851 1509.35 712.711 1509.35C708.571 1509.35 705.841 1511 704.521 1514.3C703.201 1517.54 702.541 1522.19 702.541 1528.25C702.541 1532.33 702.781 1535.72 703.261 1538.42C703.741 1541.06 704.701 1543.22 706.141 1544.9C707.641 1546.52 709.831 1547.33 712.711 1547.33C715.591 1547.33 717.751 1546.52 719.191 1544.9C720.691 1543.22 721.681 1541.06 722.161 1538.42C722.641 1535.72 722.881 1532.33 722.881 1528.25ZM744.872 1512.86C744.872 1508 746.252 1504.25 749.012 1501.61C751.832 1498.97 755.462 1497.65 759.902 1497.65C764.342 1497.65 767.942 1498.97 770.702 1501.61C773.462 1504.25 774.842 1508 774.842 1512.86C774.842 1517.72 773.462 1521.47 770.702 1524.11C767.942 1526.75 764.342 1528.07 759.902 1528.07C755.462 1528.07 751.832 1526.75 749.012 1524.11C746.252 1521.47 744.872 1517.72 744.872 1512.86ZM805.982 1498.64L771.332 1562H756.482L791.132 1498.64H805.982ZM759.812 1506.65C756.932 1506.65 755.492 1508.72 755.492 1512.86C755.492 1516.94 756.932 1518.98 759.812 1518.98C761.192 1518.98 762.272 1518.47 763.052 1517.45C763.832 1516.43 764.222 1514.9 764.222 1512.86C764.222 1508.72 762.752 1506.65 759.812 1506.65ZM787.712 1547.78C787.712 1542.92 789.092 1539.17 791.852 1536.53C794.612 1533.89 798.212 1532.57 802.652 1532.57C807.092 1532.57 810.692 1533.89 813.452 1536.53C816.212 1539.17 817.592 1542.92 817.592 1547.78C817.592 1552.64 816.212 1556.39 813.452 1559.03C810.692 1561.67 807.092 1562.99 802.652 1562.99C798.212 1562.99 794.612 1561.67 791.852 1559.03C789.092 1556.39 787.712 1552.64 787.712 1547.78ZM802.562 1541.57C801.182 1541.57 800.102 1542.08 799.322 1543.1C798.602 1544.12 798.242 1545.68 798.242 1547.78C798.242 1551.86 799.682 1553.9 802.562 1553.9C803.942 1553.9 805.022 1553.39 805.802 1552.37C806.582 1551.35 806.972 1549.82 806.972 1547.78C806.972 1545.74 806.582 1544.21 805.802 1543.19C805.022 1542.11 803.942 1541.57 802.562 1541.57Z" fill="white"/>
</svg>
