<svg width="2042" height="2238" viewBox="0 0 2042 2238" fill="none" xmlns="http://www.w3.org/2000/svg">
<rect width="2042" height="2238" rx="8" fill="white"/>
<rect x="276" y="131" width="164" height="164" rx="8" fill="#0AD81D" fill-opacity="0.7"/>
<rect x="276" y="431" width="164" height="164" rx="8" fill="#ED2024" fill-opacity="0.8"/>
<path d="M621.97 162.15V174.93H642.58V186.81H621.97V200.67H645.28V213H606.58V149.82H645.28V162.15H621.97ZM684.971 213L675.341 199.05L667.241 213H650.591L667.151 187.35L650.141 162.78H667.421L677.051 176.64L685.151 162.78H701.801L684.971 188.07L702.251 213H684.971ZM723.572 169.89C725.072 167.55 727.142 165.66 729.782 164.22C732.422 162.78 735.512 162.06 739.052 162.06C743.192 162.06 746.942 163.11 750.302 165.21C753.662 167.31 756.302 170.31 758.222 174.21C760.202 178.11 761.192 182.64 761.192 187.8C761.192 192.96 760.202 197.52 758.222 201.48C756.302 205.38 753.662 208.41 750.302 210.57C746.942 212.67 743.192 213.72 739.052 213.72C735.572 213.72 732.482 213 729.782 211.56C727.142 210.12 725.072 208.26 723.572 205.98V236.94H708.182V162.78H723.572V169.89ZM745.532 187.8C745.532 183.96 744.452 180.96 742.292 178.8C740.192 176.58 737.582 175.47 734.462 175.47C731.402 175.47 728.792 176.58 726.632 178.8C724.532 181.02 723.482 184.05 723.482 187.89C723.482 191.73 724.532 194.76 726.632 196.98C728.792 199.2 731.402 200.31 734.462 200.31C737.522 200.31 740.132 199.2 742.292 196.98C744.452 194.7 745.532 191.64 745.532 187.8ZM816.606 187.08C816.606 188.52 816.516 190.02 816.336 191.58H781.506C781.746 194.7 782.736 197.1 784.476 198.78C786.276 200.4 788.466 201.21 791.046 201.21C794.886 201.21 797.556 199.59 799.056 196.35H815.436C814.596 199.65 813.066 202.62 810.846 205.26C808.686 207.9 805.956 209.97 802.656 211.47C799.356 212.97 795.666 213.72 791.586 213.72C786.666 213.72 782.286 212.67 778.446 210.57C774.606 208.47 771.606 205.47 769.446 201.57C767.286 197.67 766.206 193.11 766.206 187.89C766.206 182.67 767.256 178.11 769.356 174.21C771.516 170.31 774.516 167.31 778.356 165.21C782.196 163.11 786.606 162.06 791.586 162.06C796.446 162.06 800.766 163.08 804.546 165.12C808.326 167.16 811.266 170.07 813.366 173.85C815.526 177.63 816.606 182.04 816.606 187.08ZM800.856 183.03C800.856 180.39 799.956 178.29 798.156 176.73C796.356 175.17 794.106 174.39 791.406 174.39C788.826 174.39 786.636 175.14 784.836 176.64C783.096 178.14 782.016 180.27 781.596 183.03H800.856ZM821.665 187.8C821.665 182.64 822.625 178.11 824.545 174.21C826.525 170.31 829.195 167.31 832.555 165.21C835.915 163.11 839.665 162.06 843.805 162.06C847.105 162.06 850.105 162.75 852.805 164.13C855.565 165.51 857.725 167.37 859.285 169.71V146.4H874.675V213H859.285V205.8C857.845 208.2 855.775 210.12 853.075 211.56C850.435 213 847.345 213.72 843.805 213.72C839.665 213.72 835.915 212.67 832.555 210.57C829.195 208.41 826.525 205.38 824.545 201.48C822.625 197.52 821.665 192.96 821.665 187.8ZM859.285 187.89C859.285 184.05 858.205 181.02 856.045 178.8C853.945 176.58 851.365 175.47 848.305 175.47C845.245 175.47 842.635 176.58 840.475 178.8C838.375 180.96 837.325 183.96 837.325 187.8C837.325 191.64 838.375 194.7 840.475 196.98C842.635 199.2 845.245 200.31 848.305 200.31C851.365 200.31 853.945 199.2 856.045 196.98C858.205 194.76 859.285 191.73 859.285 187.89ZM893.549 157.56C890.849 157.56 888.629 156.78 886.889 155.22C885.209 153.6 884.369 151.62 884.369 149.28C884.369 146.88 885.209 144.9 886.889 143.34C888.629 141.72 890.849 140.91 893.549 140.91C896.189 140.91 898.349 141.72 900.029 143.34C901.769 144.9 902.639 146.88 902.639 149.28C902.639 151.62 901.769 153.6 900.029 155.22C898.349 156.78 896.189 157.56 893.549 157.56ZM901.199 162.78V213H885.809V162.78H901.199ZM940.341 199.95V213H932.511C926.931 213 922.581 211.65 919.461 208.95C916.341 206.19 914.781 201.72 914.781 195.54V175.56H908.661V162.78H914.781V150.54H930.171V162.78H940.251V175.56H930.171V195.72C930.171 197.22 930.531 198.3 931.251 198.96C931.971 199.62 933.171 199.95 934.851 199.95H940.341ZM996.254 187.08C996.254 188.52 996.164 190.02 995.984 191.58H961.154C961.394 194.7 962.384 197.1 964.124 198.78C965.924 200.4 968.114 201.21 970.694 201.21C974.534 201.21 977.204 199.59 978.704 196.35H995.084C994.244 199.65 992.714 202.62 990.494 205.26C988.334 207.9 985.604 209.97 982.304 211.47C979.004 212.97 975.314 213.72 971.234 213.72C966.314 213.72 961.934 212.67 958.094 210.57C954.254 208.47 951.254 205.47 949.094 201.57C946.934 197.67 945.854 193.11 945.854 187.89C945.854 182.67 946.904 178.11 949.004 174.21C951.164 170.31 954.164 167.31 958.004 165.21C961.844 163.11 966.254 162.06 971.234 162.06C976.094 162.06 980.414 163.08 984.194 165.12C987.974 167.16 990.914 170.07 993.014 173.85C995.174 177.63 996.254 182.04 996.254 187.08ZM980.504 183.03C980.504 180.39 979.604 178.29 977.804 176.73C976.004 175.17 973.754 174.39 971.054 174.39C968.474 174.39 966.284 175.14 964.484 176.64C962.744 178.14 961.664 180.27 961.244 183.03H980.504ZM1001.31 187.8C1001.31 182.64 1002.27 178.11 1004.19 174.21C1006.17 170.31 1008.84 167.31 1012.2 165.21C1015.56 163.11 1019.31 162.06 1023.45 162.06C1026.75 162.06 1029.75 162.75 1032.45 164.13C1035.21 165.51 1037.37 167.37 1038.93 169.71V146.4H1054.32V213H1038.93V205.8C1037.49 208.2 1035.42 210.12 1032.72 211.56C1030.08 213 1026.99 213.72 1023.45 213.72C1019.31 213.72 1015.56 212.67 1012.2 210.57C1008.84 208.41 1006.17 205.38 1004.19 201.48C1002.27 197.52 1001.31 192.96 1001.31 187.8ZM1038.93 187.89C1038.93 184.05 1037.85 181.02 1035.69 178.8C1033.59 176.58 1031.01 175.47 1027.95 175.47C1024.89 175.47 1022.28 176.58 1020.12 178.8C1018.02 180.96 1016.97 183.96 1016.97 187.8C1016.97 191.64 1018.02 194.7 1020.12 196.98C1022.28 199.2 1024.89 200.31 1027.95 200.31C1031.01 200.31 1033.59 199.2 1035.69 196.98C1037.85 194.76 1038.93 191.73 1038.93 187.89ZM1081.47 187.8C1081.47 182.64 1082.43 178.11 1084.35 174.21C1086.33 170.31 1089 167.31 1092.36 165.21C1095.72 163.11 1099.47 162.06 1103.61 162.06C1106.91 162.06 1109.91 162.75 1112.61 164.13C1115.37 165.51 1117.53 167.37 1119.09 169.71V146.4H1134.48V213H1119.09V205.8C1117.65 208.2 1115.58 210.12 1112.88 211.56C1110.24 213 1107.15 213.72 1103.61 213.72C1099.47 213.72 1095.72 212.67 1092.36 210.57C1089 208.41 1086.33 205.38 1084.35 201.48C1082.43 197.52 1081.47 192.96 1081.47 187.8ZM1119.09 187.89C1119.09 184.05 1118.01 181.02 1115.85 178.8C1113.75 176.58 1111.17 175.47 1108.11 175.47C1105.05 175.47 1102.44 176.58 1100.28 178.8C1098.18 180.96 1097.13 183.96 1097.13 187.8C1097.13 191.64 1098.18 194.7 1100.28 196.98C1102.44 199.2 1105.05 200.31 1108.11 200.31C1111.17 200.31 1113.75 199.2 1115.85 196.98C1118.01 194.76 1119.09 191.73 1119.09 187.89ZM1192.95 187.08C1192.95 188.52 1192.86 190.02 1192.68 191.58H1157.85C1158.09 194.7 1159.08 197.1 1160.82 198.78C1162.62 200.4 1164.81 201.21 1167.39 201.21C1171.23 201.21 1173.9 199.59 1175.4 196.35H1191.78C1190.94 199.65 1189.41 202.62 1187.19 205.26C1185.03 207.9 1182.3 209.97 1179 211.47C1175.7 212.97 1172.01 213.72 1167.93 213.72C1163.01 213.72 1158.63 212.67 1154.79 210.57C1150.95 208.47 1147.95 205.47 1145.79 201.57C1143.63 197.67 1142.55 193.11 1142.55 187.89C1142.55 182.67 1143.6 178.11 1145.7 174.21C1147.86 170.31 1150.86 167.31 1154.7 165.21C1158.54 163.11 1162.95 162.06 1167.93 162.06C1172.79 162.06 1177.11 163.08 1180.89 165.12C1184.67 167.16 1187.61 170.07 1189.71 173.85C1191.87 177.63 1192.95 182.04 1192.95 187.08ZM1177.2 183.03C1177.2 180.39 1176.3 178.29 1174.5 176.73C1172.7 175.17 1170.45 174.39 1167.75 174.39C1165.17 174.39 1162.98 175.14 1161.18 176.64C1159.44 178.14 1158.36 180.27 1157.94 183.03H1177.2ZM1216.46 146.4V213H1201.07V146.4H1216.46ZM1235.36 157.56C1232.66 157.56 1230.44 156.78 1228.7 155.22C1227.02 153.6 1226.18 151.62 1226.18 149.28C1226.18 146.88 1227.02 144.9 1228.7 143.34C1230.44 141.72 1232.66 140.91 1235.36 140.91C1238 140.91 1240.16 141.72 1241.84 143.34C1243.58 144.9 1244.45 146.88 1244.45 149.28C1244.45 151.62 1243.58 153.6 1241.84 155.22C1240.16 156.78 1238 157.56 1235.36 157.56ZM1243.01 162.78V213H1227.62V162.78H1243.01ZM1276.75 198.6L1287.64 162.78H1304.02L1286.2 213H1267.21L1249.39 162.78H1265.86L1276.75 198.6ZM1357.84 187.08C1357.84 188.52 1357.75 190.02 1357.57 191.58H1322.74C1322.98 194.7 1323.97 197.1 1325.71 198.78C1327.51 200.4 1329.7 201.21 1332.28 201.21C1336.12 201.21 1338.79 199.59 1340.29 196.35H1356.67C1355.83 199.65 1354.3 202.62 1352.08 205.26C1349.92 207.9 1347.19 209.97 1343.89 211.47C1340.59 212.97 1336.9 213.72 1332.82 213.72C1327.9 213.72 1323.52 212.67 1319.68 210.57C1315.84 208.47 1312.84 205.47 1310.68 201.57C1308.52 197.67 1307.44 193.11 1307.44 187.89C1307.44 182.67 1308.49 178.11 1310.59 174.21C1312.75 170.31 1315.75 167.31 1319.59 165.21C1323.43 163.11 1327.84 162.06 1332.82 162.06C1337.68 162.06 1342 163.08 1345.78 165.12C1349.56 167.16 1352.5 170.07 1354.6 173.85C1356.76 177.63 1357.84 182.04 1357.84 187.08ZM1342.09 183.03C1342.09 180.39 1341.19 178.29 1339.39 176.73C1337.59 175.17 1335.34 174.39 1332.64 174.39C1330.06 174.39 1327.87 175.14 1326.07 176.64C1324.33 178.14 1323.25 180.27 1322.83 183.03H1342.09ZM1381.35 171.15C1383.15 168.39 1385.4 166.23 1388.1 164.67C1390.8 163.05 1393.8 162.24 1397.1 162.24V178.53H1392.87C1389.03 178.53 1386.15 179.37 1384.23 181.05C1382.31 182.67 1381.35 185.55 1381.35 189.69V213H1365.96V162.78H1381.35V171.15ZM1455.75 162.78L1424.25 236.85H1407.69L1419.21 211.29L1398.78 162.78H1415.97L1427.58 194.19L1439.1 162.78H1455.75ZM1503.25 213.72C1498.33 213.72 1493.89 212.67 1489.93 210.57C1486.03 208.47 1482.94 205.47 1480.66 201.57C1478.44 197.67 1477.33 193.11 1477.33 187.89C1477.33 182.73 1478.47 178.2 1480.75 174.3C1483.03 170.34 1486.15 167.31 1490.11 165.21C1494.07 163.11 1498.51 162.06 1503.43 162.06C1508.35 162.06 1512.79 163.11 1516.75 165.21C1520.71 167.31 1523.83 170.34 1526.11 174.3C1528.39 178.2 1529.53 182.73 1529.53 187.89C1529.53 193.05 1528.36 197.61 1526.02 201.57C1523.74 205.47 1520.59 208.47 1516.57 210.57C1512.61 212.67 1508.17 213.72 1503.25 213.72ZM1503.25 200.4C1506.19 200.4 1508.68 199.32 1510.72 197.16C1512.82 195 1513.87 191.91 1513.87 187.89C1513.87 183.87 1512.85 180.78 1510.81 178.62C1508.83 176.46 1506.37 175.38 1503.43 175.38C1500.43 175.38 1497.94 176.46 1495.96 178.62C1493.98 180.72 1492.99 183.81 1492.99 187.89C1492.99 191.91 1493.95 195 1495.87 197.16C1497.85 199.32 1500.31 200.4 1503.25 200.4ZM1553.08 171.15C1554.88 168.39 1557.13 166.23 1559.83 164.67C1562.53 163.05 1565.53 162.24 1568.83 162.24V178.53H1564.6C1560.76 178.53 1557.88 179.37 1555.96 181.05C1554.04 182.67 1553.08 185.55 1553.08 189.69V213H1537.69V162.78H1553.08V171.15ZM1603 157.56C1600.3 157.56 1598.08 156.78 1596.34 155.22C1594.66 153.6 1593.82 151.62 1593.82 149.28C1593.82 146.88 1594.66 144.9 1596.34 143.34C1598.08 141.72 1600.3 140.91 1603 140.91C1605.64 140.91 1607.8 141.72 1609.48 143.34C1611.22 144.9 1612.09 146.88 1612.09 149.28C1612.09 151.62 1611.22 153.6 1609.48 155.22C1607.8 156.78 1605.64 157.56 1603 157.56ZM1610.65 162.78V213H1595.26V162.78H1610.65ZM1652.4 162.24C1658.28 162.24 1662.96 164.16 1666.44 168C1669.98 171.78 1671.75 177 1671.75 183.66V213H1656.45V185.73C1656.45 182.37 1655.58 179.76 1653.84 177.9C1652.1 176.04 1649.76 175.11 1646.82 175.11C1643.88 175.11 1641.54 176.04 1639.8 177.9C1638.06 179.76 1637.19 182.37 1637.19 185.73V213H1621.8V162.78H1637.19V169.44C1638.75 167.22 1640.85 165.48 1643.49 164.22C1646.13 162.9 1649.1 162.24 1652.4 162.24ZM1702.88 213.72C1698.5 213.72 1694.6 212.97 1691.18 211.47C1687.76 209.97 1685.06 207.93 1683.08 205.35C1681.1 202.71 1679.99 199.77 1679.75 196.53H1694.96C1695.14 198.27 1695.95 199.68 1697.39 200.76C1698.83 201.84 1700.6 202.38 1702.7 202.38C1704.62 202.38 1706.09 202.02 1707.11 201.3C1708.19 200.52 1708.73 199.53 1708.73 198.33C1708.73 196.89 1707.98 195.84 1706.48 195.18C1704.98 194.46 1702.55 193.68 1699.19 192.84C1695.59 192 1692.59 191.13 1690.19 190.23C1687.79 189.27 1685.72 187.8 1683.98 185.82C1682.24 183.78 1681.37 181.05 1681.37 177.63C1681.37 174.75 1682.15 172.14 1683.71 169.8C1685.33 167.4 1687.67 165.51 1690.73 164.13C1693.85 162.75 1697.54 162.06 1701.8 162.06C1708.1 162.06 1713.05 163.62 1716.65 166.74C1720.31 169.86 1722.41 174 1722.95 179.16H1708.73C1708.49 177.42 1707.71 176.04 1706.39 175.02C1705.13 174 1703.45 173.49 1701.35 173.49C1699.55 173.49 1698.17 173.85 1697.21 174.57C1696.25 175.23 1695.77 176.16 1695.77 177.36C1695.77 178.8 1696.52 179.88 1698.02 180.6C1699.58 181.32 1701.98 182.04 1705.22 182.76C1708.94 183.72 1711.97 184.68 1714.31 185.64C1716.65 186.54 1718.69 188.04 1720.43 190.14C1722.23 192.18 1723.16 194.94 1723.22 198.42C1723.22 201.36 1722.38 204 1720.7 206.34C1719.08 208.62 1716.71 210.42 1713.59 211.74C1710.53 213.06 1706.96 213.72 1702.88 213.72ZM1760.62 199.95V213H1752.79C1747.21 213 1742.86 211.65 1739.74 208.95C1736.62 206.19 1735.06 201.72 1735.06 195.54V175.56H1728.94V162.78H1735.06V150.54H1750.45V162.78H1760.53V175.56H1750.45V195.72C1750.45 197.22 1750.81 198.3 1751.53 198.96C1752.25 199.62 1753.45 199.95 1755.13 199.95H1760.62ZM1766.14 187.8C1766.14 182.64 1767.1 178.11 1769.02 174.21C1771 170.31 1773.67 167.31 1777.03 165.21C1780.39 163.11 1784.14 162.06 1788.28 162.06C1791.82 162.06 1794.91 162.78 1797.55 164.22C1800.25 165.66 1802.32 167.55 1803.76 169.89V162.78H1819.15V213H1803.76V205.89C1802.26 208.23 1800.16 210.12 1797.46 211.56C1794.82 213 1791.73 213.72 1788.19 213.72C1784.11 213.72 1780.39 212.67 1777.03 210.57C1773.67 208.41 1771 205.38 1769.02 201.48C1767.1 197.52 1766.14 192.96 1766.14 187.8ZM1803.76 187.89C1803.76 184.05 1802.68 181.02 1800.52 178.8C1798.42 176.58 1795.84 175.47 1792.78 175.47C1789.72 175.47 1787.11 176.58 1784.95 178.8C1782.85 180.96 1781.8 183.96 1781.8 187.8C1781.8 191.64 1782.85 194.7 1784.95 196.98C1787.11 199.2 1789.72 200.31 1792.78 200.31C1795.84 200.31 1798.42 199.2 1800.52 196.98C1802.68 194.76 1803.76 191.73 1803.76 187.89ZM1860.88 162.24C1866.76 162.24 1871.44 164.16 1874.92 168C1878.46 171.78 1880.23 177 1880.23 183.66V213H1864.93V185.73C1864.93 182.37 1864.06 179.76 1862.32 177.9C1860.58 176.04 1858.24 175.11 1855.3 175.11C1852.36 175.11 1850.02 176.04 1848.28 177.9C1846.54 179.76 1845.67 182.37 1845.67 185.73V213H1830.28V162.78H1845.67V169.44C1847.23 167.22 1849.33 165.48 1851.97 164.22C1854.61 162.9 1857.58 162.24 1860.88 162.24ZM1918.92 199.95V213H1911.09C1905.51 213 1901.16 211.65 1898.04 208.95C1894.92 206.19 1893.36 201.72 1893.36 195.54V175.56H1887.24V162.78H1893.36V150.54H1908.75V162.78H1918.83V175.56H1908.75V195.72C1908.75 197.22 1909.11 198.3 1909.83 198.96C1910.55 199.62 1911.75 199.95 1913.43 199.95H1918.92ZM603.52 322.8C603.52 317.64 604.48 313.11 606.4 309.21C608.38 305.31 611.05 302.31 614.41 300.21C617.77 298.11 621.52 297.06 625.66 297.06C628.96 297.06 631.96 297.75 634.66 299.13C637.42 300.51 639.58 302.37 641.14 304.71V281.4H656.53V348H641.14V340.8C639.7 343.2 637.63 345.12 634.93 346.56C632.29 348 629.2 348.72 625.66 348.72C621.52 348.72 617.77 347.67 614.41 345.57C611.05 343.41 608.38 340.38 606.4 336.48C604.48 332.52 603.52 327.96 603.52 322.8ZM641.14 322.89C641.14 319.05 640.06 316.02 637.9 313.8C635.8 311.58 633.22 310.47 630.16 310.47C627.1 310.47 624.49 311.58 622.33 313.8C620.23 315.96 619.18 318.96 619.18 322.8C619.18 326.64 620.23 329.7 622.33 331.98C624.49 334.2 627.1 335.31 630.16 335.31C633.22 335.31 635.8 334.2 637.9 331.98C640.06 329.76 641.14 326.73 641.14 322.89ZM690.524 348.72C685.604 348.72 681.164 347.67 677.204 345.57C673.304 343.47 670.214 340.47 667.934 336.57C665.714 332.67 664.604 328.11 664.604 322.89C664.604 317.73 665.744 313.2 668.024 309.3C670.304 305.34 673.424 302.31 677.384 300.21C681.344 298.11 685.784 297.06 690.704 297.06C695.624 297.06 700.064 298.11 704.024 300.21C707.984 302.31 711.104 305.34 713.384 309.3C715.664 313.2 716.804 317.73 716.804 322.89C716.804 328.05 715.634 332.61 713.294 336.57C711.014 340.47 707.864 343.47 703.844 345.57C699.884 347.67 695.444 348.72 690.524 348.72ZM690.524 335.4C693.464 335.4 695.954 334.32 697.994 332.16C700.094 330 701.144 326.91 701.144 322.89C701.144 318.87 700.124 315.78 698.084 313.62C696.104 311.46 693.644 310.38 690.704 310.38C687.704 310.38 685.214 311.46 683.234 313.62C681.254 315.72 680.264 318.81 680.264 322.89C680.264 326.91 681.224 330 683.144 332.16C685.124 334.32 687.584 335.4 690.524 335.4ZM747.829 348.72C742.909 348.72 738.469 347.67 734.509 345.57C730.609 343.47 727.519 340.47 725.239 336.57C723.019 332.67 721.909 328.11 721.909 322.89C721.909 317.73 723.049 313.2 725.329 309.3C727.609 305.34 730.729 302.31 734.689 300.21C738.649 298.11 743.089 297.06 748.009 297.06C752.929 297.06 757.369 298.11 761.329 300.21C765.289 302.31 768.409 305.34 770.689 309.3C772.969 313.2 774.109 317.73 774.109 322.89C774.109 328.05 772.939 332.61 770.599 336.57C768.319 340.47 765.169 343.47 761.149 345.57C757.189 347.67 752.749 348.72 747.829 348.72ZM747.829 335.4C750.769 335.4 753.259 334.32 755.299 332.16C757.399 330 758.449 326.91 758.449 322.89C758.449 318.87 757.429 315.78 755.389 313.62C753.409 311.46 750.949 310.38 748.009 310.38C745.009 310.38 742.519 311.46 740.539 313.62C738.559 315.72 737.569 318.81 737.569 322.89C737.569 326.91 738.529 330 740.449 332.16C742.429 334.32 744.889 335.4 747.829 335.4ZM797.663 306.15C799.463 303.39 801.713 301.23 804.413 299.67C807.113 298.05 810.113 297.24 813.413 297.24V313.53H809.183C805.343 313.53 802.463 314.37 800.543 316.05C798.623 317.67 797.663 320.55 797.663 324.69V348H782.273V297.78H797.663V306.15ZM841.199 348.72C836.819 348.72 832.919 347.97 829.499 346.47C826.079 344.97 823.379 342.93 821.399 340.35C819.419 337.71 818.309 334.77 818.069 331.53H833.279C833.459 333.27 834.269 334.68 835.709 335.76C837.149 336.84 838.919 337.38 841.019 337.38C842.939 337.38 844.409 337.02 845.429 336.3C846.509 335.52 847.049 334.53 847.049 333.33C847.049 331.89 846.299 330.84 844.799 330.18C843.299 329.46 840.869 328.68 837.509 327.84C833.909 327 830.909 326.13 828.509 325.23C826.109 324.27 824.039 322.8 822.299 320.82C820.559 318.78 819.689 316.05 819.689 312.63C819.689 309.75 820.469 307.14 822.029 304.8C823.649 302.4 825.989 300.51 829.049 299.13C832.169 297.75 835.859 297.06 840.119 297.06C846.419 297.06 851.369 298.62 854.969 301.74C858.629 304.86 860.729 309 861.269 314.16H847.049C846.809 312.42 846.029 311.04 844.709 310.02C843.449 309 841.769 308.49 839.669 308.49C837.869 308.49 836.489 308.85 835.529 309.57C834.569 310.23 834.089 311.16 834.089 312.36C834.089 313.8 834.839 314.88 836.339 315.6C837.899 316.32 840.299 317.04 843.539 317.76C847.259 318.72 850.289 319.68 852.629 320.64C854.969 321.54 857.009 323.04 858.749 325.14C860.549 327.18 861.479 329.94 861.539 333.42C861.539 336.36 860.699 339 859.019 341.34C857.399 343.62 855.029 345.42 851.909 346.74C848.849 348.06 845.279 348.72 841.199 348.72ZM898.945 334.95V348H891.115C885.535 348 881.185 346.65 878.065 343.95C874.945 341.19 873.385 336.72 873.385 330.54V310.56H867.265V297.78H873.385V285.54H888.775V297.78H898.855V310.56H888.775V330.72C888.775 332.22 889.135 333.3 889.855 333.96C890.575 334.62 891.775 334.95 893.455 334.95H898.945ZM954.857 322.08C954.857 323.52 954.768 325.02 954.588 326.58H919.758C919.998 329.7 920.988 332.1 922.728 333.78C924.528 335.4 926.718 336.21 929.298 336.21C933.138 336.21 935.808 334.59 937.308 331.35H953.688C952.848 334.65 951.318 337.62 949.098 340.26C946.938 342.9 944.208 344.97 940.908 346.47C937.608 347.97 933.918 348.72 929.838 348.72C924.918 348.72 920.538 347.67 916.698 345.57C912.858 343.47 909.858 340.47 907.698 336.57C905.538 332.67 904.458 328.11 904.458 322.89C904.458 317.67 905.508 313.11 907.608 309.21C909.768 305.31 912.768 302.31 916.608 300.21C920.448 298.11 924.858 297.06 929.838 297.06C934.698 297.06 939.018 298.08 942.798 300.12C946.578 302.16 949.518 305.07 951.618 308.85C953.778 312.63 954.857 317.04 954.857 322.08ZM939.108 318.03C939.108 315.39 938.208 313.29 936.408 311.73C934.608 310.17 932.358 309.39 929.658 309.39C927.078 309.39 924.888 310.14 923.088 311.64C921.348 313.14 920.268 315.27 919.848 318.03H939.108ZM978.366 304.89C979.866 302.55 981.936 300.66 984.576 299.22C987.216 297.78 990.306 297.06 993.846 297.06C997.986 297.06 1001.74 298.11 1005.1 300.21C1008.46 302.31 1011.1 305.31 1013.02 309.21C1015 313.11 1015.99 317.64 1015.99 322.8C1015.99 327.96 1015 332.52 1013.02 336.48C1011.1 340.38 1008.46 343.41 1005.1 345.57C1001.74 347.67 997.986 348.72 993.846 348.72C990.366 348.72 987.276 348 984.576 346.56C981.936 345.12 979.866 343.26 978.366 340.98V371.94H962.976V297.78H978.366V304.89ZM1000.33 322.8C1000.33 318.96 999.246 315.96 997.086 313.8C994.986 311.58 992.376 310.47 989.256 310.47C986.196 310.47 983.586 311.58 981.426 313.8C979.326 316.02 978.276 319.05 978.276 322.89C978.276 326.73 979.326 329.76 981.426 331.98C983.586 334.2 986.196 335.31 989.256 335.31C992.316 335.31 994.926 334.2 997.086 331.98C999.246 329.7 1000.33 326.64 1000.33 322.8ZM1040.07 322.8C1040.07 317.64 1041.03 313.11 1042.95 309.21C1044.93 305.31 1047.6 302.31 1050.96 300.21C1054.32 298.11 1058.07 297.06 1062.21 297.06C1065.51 297.06 1068.51 297.75 1071.21 299.13C1073.97 300.51 1076.13 302.37 1077.69 304.71V281.4H1093.08V348H1077.69V340.8C1076.25 343.2 1074.18 345.12 1071.48 346.56C1068.84 348 1065.75 348.72 1062.21 348.72C1058.07 348.72 1054.32 347.67 1050.96 345.57C1047.6 343.41 1044.93 340.38 1042.95 336.48C1041.03 332.52 1040.07 327.96 1040.07 322.8ZM1077.69 322.89C1077.69 319.05 1076.61 316.02 1074.45 313.8C1072.35 311.58 1069.77 310.47 1066.71 310.47C1063.65 310.47 1061.04 311.58 1058.88 313.8C1056.78 315.96 1055.73 318.96 1055.73 322.8C1055.73 326.64 1056.78 329.7 1058.88 331.98C1061.04 334.2 1063.65 335.31 1066.71 335.31C1069.77 335.31 1072.35 334.2 1074.45 331.98C1076.61 329.76 1077.69 326.73 1077.69 322.89ZM1151.56 322.08C1151.56 323.52 1151.47 325.02 1151.29 326.58H1116.46C1116.7 329.7 1117.69 332.1 1119.43 333.78C1121.23 335.4 1123.42 336.21 1126 336.21C1129.84 336.21 1132.51 334.59 1134.01 331.35H1150.39C1149.55 334.65 1148.02 337.62 1145.8 340.26C1143.64 342.9 1140.91 344.97 1137.61 346.47C1134.31 347.97 1130.62 348.72 1126.54 348.72C1121.62 348.72 1117.24 347.67 1113.4 345.57C1109.56 343.47 1106.56 340.47 1104.4 336.57C1102.24 332.67 1101.16 328.11 1101.16 322.89C1101.16 317.67 1102.21 313.11 1104.31 309.21C1106.47 305.31 1109.47 302.31 1113.31 300.21C1117.15 298.11 1121.56 297.06 1126.54 297.06C1131.4 297.06 1135.72 298.08 1139.5 300.12C1143.28 302.16 1146.22 305.07 1148.32 308.85C1150.48 312.63 1151.56 317.04 1151.56 322.08ZM1135.81 318.03C1135.81 315.39 1134.91 313.29 1133.11 311.73C1131.31 310.17 1129.06 309.39 1126.36 309.39C1123.78 309.39 1121.59 310.14 1119.79 311.64C1118.05 313.14 1116.97 315.27 1116.55 318.03H1135.81ZM1175.07 281.4V348H1159.68V281.4H1175.07ZM1193.96 292.56C1191.26 292.56 1189.04 291.78 1187.3 290.22C1185.62 288.6 1184.78 286.62 1184.78 284.28C1184.78 281.88 1185.62 279.9 1187.3 278.34C1189.04 276.72 1191.26 275.91 1193.96 275.91C1196.6 275.91 1198.76 276.72 1200.44 278.34C1202.18 279.9 1203.05 281.88 1203.05 284.28C1203.05 286.62 1202.18 288.6 1200.44 290.22C1198.76 291.78 1196.6 292.56 1193.96 292.56ZM1201.61 297.78V348H1186.22V297.78H1201.61ZM1235.35 333.6L1246.24 297.78H1262.62L1244.8 348H1225.81L1207.99 297.78H1224.46L1235.35 333.6ZM1316.44 322.08C1316.44 323.52 1316.35 325.02 1316.17 326.58H1281.34C1281.58 329.7 1282.57 332.1 1284.31 333.78C1286.11 335.4 1288.3 336.21 1290.88 336.21C1294.72 336.21 1297.39 334.59 1298.89 331.35H1315.27C1314.43 334.65 1312.9 337.62 1310.68 340.26C1308.52 342.9 1305.79 344.97 1302.49 346.47C1299.19 347.97 1295.5 348.72 1291.42 348.72C1286.5 348.72 1282.12 347.67 1278.28 345.57C1274.44 343.47 1271.44 340.47 1269.28 336.57C1267.12 332.67 1266.04 328.11 1266.04 322.89C1266.04 317.67 1267.09 313.11 1269.19 309.21C1271.35 305.31 1274.35 302.31 1278.19 300.21C1282.03 298.11 1286.44 297.06 1291.42 297.06C1296.28 297.06 1300.6 298.08 1304.38 300.12C1308.16 302.16 1311.1 305.07 1313.2 308.85C1315.36 312.63 1316.44 317.04 1316.44 322.08ZM1300.69 318.03C1300.69 315.39 1299.79 313.29 1297.99 311.73C1296.19 310.17 1293.94 309.39 1291.24 309.39C1288.66 309.39 1286.47 310.14 1284.67 311.64C1282.93 313.14 1281.85 315.27 1281.43 318.03H1300.69ZM1339.95 306.15C1341.75 303.39 1344 301.23 1346.7 299.67C1349.4 298.05 1352.4 297.24 1355.7 297.24V313.53H1351.47C1347.63 313.53 1344.75 314.37 1342.83 316.05C1340.91 317.67 1339.95 320.55 1339.95 324.69V348H1324.56V297.78H1339.95V306.15ZM1414.35 297.78L1382.85 371.85H1366.29L1377.81 346.29L1357.38 297.78H1374.57L1386.18 329.19L1397.7 297.78H1414.35ZM1461.85 348.72C1456.93 348.72 1452.49 347.67 1448.53 345.57C1444.63 343.47 1441.54 340.47 1439.26 336.57C1437.04 332.67 1435.93 328.11 1435.93 322.89C1435.93 317.73 1437.07 313.2 1439.35 309.3C1441.63 305.34 1444.75 302.31 1448.71 300.21C1452.67 298.11 1457.11 297.06 1462.03 297.06C1466.95 297.06 1471.39 298.11 1475.35 300.21C1479.31 302.31 1482.43 305.34 1484.71 309.3C1486.99 313.2 1488.13 317.73 1488.13 322.89C1488.13 328.05 1486.96 332.61 1484.62 336.57C1482.34 340.47 1479.19 343.47 1475.17 345.57C1471.21 347.67 1466.77 348.72 1461.85 348.72ZM1461.85 335.4C1464.79 335.4 1467.28 334.32 1469.32 332.16C1471.42 330 1472.47 326.91 1472.47 322.89C1472.47 318.87 1471.45 315.78 1469.41 313.62C1467.43 311.46 1464.97 310.38 1462.03 310.38C1459.03 310.38 1456.54 311.46 1454.56 313.62C1452.58 315.72 1451.59 318.81 1451.59 322.89C1451.59 326.91 1452.55 330 1454.47 332.16C1456.45 334.32 1458.91 335.4 1461.85 335.4ZM1511.69 304.89C1513.19 302.55 1515.26 300.66 1517.9 299.22C1520.54 297.78 1523.63 297.06 1527.17 297.06C1531.31 297.06 1535.06 298.11 1538.42 300.21C1541.78 302.31 1544.42 305.31 1546.34 309.21C1548.32 313.11 1549.31 317.64 1549.31 322.8C1549.31 327.96 1548.32 332.52 1546.34 336.48C1544.42 340.38 1541.78 343.41 1538.42 345.57C1535.06 347.67 1531.31 348.72 1527.17 348.72C1523.69 348.72 1520.6 348 1517.9 346.56C1515.26 345.12 1513.19 343.26 1511.69 340.98V371.94H1496.3V297.78H1511.69V304.89ZM1533.65 322.8C1533.65 318.96 1532.57 315.96 1530.41 313.8C1528.31 311.58 1525.7 310.47 1522.58 310.47C1519.52 310.47 1516.91 311.58 1514.75 313.8C1512.65 316.02 1511.6 319.05 1511.6 322.89C1511.6 326.73 1512.65 329.76 1514.75 331.98C1516.91 334.2 1519.52 335.31 1522.58 335.31C1525.64 335.31 1528.25 334.2 1530.41 331.98C1532.57 329.7 1533.65 326.64 1533.65 322.8ZM1585.37 334.95V348H1577.54C1571.96 348 1567.61 346.65 1564.49 343.95C1561.37 341.19 1559.81 336.72 1559.81 330.54V310.56H1553.69V297.78H1559.81V285.54H1575.2V297.78H1585.28V310.56H1575.2V330.72C1575.2 332.22 1575.56 333.3 1576.28 333.96C1577 334.62 1578.2 334.95 1579.88 334.95H1585.37ZM1601.68 292.56C1598.98 292.56 1596.76 291.78 1595.02 290.22C1593.34 288.6 1592.5 286.62 1592.5 284.28C1592.5 281.88 1593.34 279.9 1595.02 278.34C1596.76 276.72 1598.98 275.91 1601.68 275.91C1604.32 275.91 1606.48 276.72 1608.16 278.34C1609.9 279.9 1610.77 281.88 1610.77 284.28C1610.77 286.62 1609.9 288.6 1608.16 290.22C1606.48 291.78 1604.32 292.56 1601.68 292.56ZM1609.33 297.78V348H1593.94V297.78H1609.33ZM1643.35 348.72C1638.43 348.72 1633.99 347.67 1630.03 345.57C1626.13 343.47 1623.04 340.47 1620.76 336.57C1618.54 332.67 1617.43 328.11 1617.43 322.89C1617.43 317.73 1618.57 313.2 1620.85 309.3C1623.13 305.34 1626.25 302.31 1630.21 300.21C1634.17 298.11 1638.61 297.06 1643.53 297.06C1648.45 297.06 1652.89 298.11 1656.85 300.21C1660.81 302.31 1663.93 305.34 1666.21 309.3C1668.49 313.2 1669.63 317.73 1669.63 322.89C1669.63 328.05 1668.46 332.61 1666.12 336.57C1663.84 340.47 1660.69 343.47 1656.67 345.57C1652.71 347.67 1648.27 348.72 1643.35 348.72ZM1643.35 335.4C1646.29 335.4 1648.78 334.32 1650.82 332.16C1652.92 330 1653.97 326.91 1653.97 322.89C1653.97 318.87 1652.95 315.78 1650.91 313.62C1648.93 311.46 1646.47 310.38 1643.53 310.38C1640.53 310.38 1638.04 311.46 1636.06 313.62C1634.08 315.72 1633.09 318.81 1633.09 322.89C1633.09 326.91 1634.05 330 1635.97 332.16C1637.95 334.32 1640.41 335.4 1643.35 335.4ZM1708.39 297.24C1714.27 297.24 1718.95 299.16 1722.43 303C1725.97 306.78 1727.74 312 1727.74 318.66V348H1712.44V320.73C1712.44 317.37 1711.57 314.76 1709.83 312.9C1708.09 311.04 1705.75 310.11 1702.81 310.11C1699.87 310.11 1697.53 311.04 1695.79 312.9C1694.05 314.76 1693.18 317.37 1693.18 320.73V348H1677.79V297.78H1693.18V304.44C1694.74 302.22 1696.84 300.48 1699.48 299.22C1702.12 297.9 1705.09 297.24 1708.39 297.24ZM1758.87 348.72C1754.49 348.72 1750.59 347.97 1747.17 346.47C1743.75 344.97 1741.05 342.93 1739.07 340.35C1737.09 337.71 1735.98 334.77 1735.74 331.53H1750.95C1751.13 333.27 1751.94 334.68 1753.38 335.76C1754.82 336.84 1756.59 337.38 1758.69 337.38C1760.61 337.38 1762.08 337.02 1763.1 336.3C1764.18 335.52 1764.72 334.53 1764.72 333.33C1764.72 331.89 1763.97 330.84 1762.47 330.18C1760.97 329.46 1758.54 328.68 1755.18 327.84C1751.58 327 1748.58 326.13 1746.18 325.23C1743.78 324.27 1741.71 322.8 1739.97 320.82C1738.23 318.78 1737.36 316.05 1737.36 312.63C1737.36 309.75 1738.14 307.14 1739.7 304.8C1741.32 302.4 1743.66 300.51 1746.72 299.13C1749.84 297.75 1753.53 297.06 1757.79 297.06C1764.09 297.06 1769.04 298.62 1772.64 301.74C1776.3 304.86 1778.4 309 1778.94 314.16H1764.72C1764.48 312.42 1763.7 311.04 1762.38 310.02C1761.12 309 1759.44 308.49 1757.34 308.49C1755.54 308.49 1754.16 308.85 1753.2 309.57C1752.24 310.23 1751.76 311.16 1751.76 312.36C1751.76 313.8 1752.51 314.88 1754.01 315.6C1755.57 316.32 1757.97 317.04 1761.21 317.76C1764.93 318.72 1767.96 319.68 1770.3 320.64C1772.64 321.54 1774.68 323.04 1776.42 325.14C1778.22 327.18 1779.15 329.94 1779.21 333.42C1779.21 336.36 1778.37 339 1776.69 341.34C1775.07 343.62 1772.7 345.42 1769.58 346.74C1766.52 348.06 1762.95 348.72 1758.87 348.72Z" fill="black"/>
<path d="M621.97 493.15V505.93H642.58V517.81H621.97V531.67H645.28V544H606.58V480.82H645.28V493.15H621.97ZM684.971 544L675.341 530.05L667.241 544H650.591L667.151 518.35L650.141 493.78H667.421L677.051 507.64L685.151 493.78H701.801L684.971 519.07L702.251 544H684.971ZM736.172 530.95V544H728.342C722.762 544 718.412 542.65 715.292 539.95C712.172 537.19 710.612 532.72 710.612 526.54V506.56H704.492V493.78H710.612V481.54H726.002V493.78H736.082V506.56H726.002V526.72C726.002 528.22 726.362 529.3 727.082 529.96C727.802 530.62 729.002 530.95 730.682 530.95H736.172ZM792.084 518.08C792.084 519.52 791.994 521.02 791.814 522.58H756.984C757.224 525.7 758.214 528.1 759.954 529.78C761.754 531.4 763.944 532.21 766.524 532.21C770.364 532.21 773.034 530.59 774.534 527.35H790.914C790.074 530.65 788.544 533.62 786.324 536.26C784.164 538.9 781.434 540.97 778.134 542.47C774.834 543.97 771.144 544.72 767.064 544.72C762.144 544.72 757.764 543.67 753.924 541.57C750.084 539.47 747.084 536.47 744.924 532.57C742.764 528.67 741.684 524.11 741.684 518.89C741.684 513.67 742.734 509.11 744.834 505.21C746.994 501.31 749.994 498.31 753.834 496.21C757.674 494.11 762.084 493.06 767.064 493.06C771.924 493.06 776.244 494.08 780.024 496.12C783.804 498.16 786.744 501.07 788.844 504.85C791.004 508.63 792.084 513.04 792.084 518.08ZM776.334 514.03C776.334 511.39 775.434 509.29 773.634 507.73C771.834 506.17 769.584 505.39 766.884 505.39C764.304 505.39 762.114 506.14 760.314 507.64C758.574 509.14 757.494 511.27 757.074 514.03H776.334ZM830.803 493.24C836.683 493.24 841.363 495.16 844.843 499C848.383 502.78 850.153 508 850.153 514.66V544H834.853V516.73C834.853 513.37 833.983 510.76 832.243 508.9C830.503 507.04 828.163 506.11 825.223 506.11C822.283 506.11 819.943 507.04 818.203 508.9C816.463 510.76 815.593 513.37 815.593 516.73V544H800.203V493.78H815.593V500.44C817.153 498.22 819.253 496.48 821.893 495.22C824.533 493.9 827.503 493.24 830.803 493.24ZM857.788 518.8C857.788 513.64 858.748 509.11 860.668 505.21C862.648 501.31 865.318 498.31 868.678 496.21C872.038 494.11 875.788 493.06 879.928 493.06C883.228 493.06 886.228 493.75 888.928 495.13C891.688 496.51 893.848 498.37 895.408 500.71V477.4H910.798V544H895.408V536.8C893.968 539.2 891.898 541.12 889.198 542.56C886.558 544 883.468 544.72 879.928 544.72C875.788 544.72 872.038 543.67 868.678 541.57C865.318 539.41 862.648 536.38 860.668 532.48C858.748 528.52 857.788 523.96 857.788 518.8ZM895.408 518.89C895.408 515.05 894.328 512.02 892.168 509.8C890.068 507.58 887.488 506.47 884.428 506.47C881.368 506.47 878.758 507.58 876.598 509.8C874.498 511.96 873.448 514.96 873.448 518.8C873.448 522.64 874.498 525.7 876.598 527.98C878.758 530.2 881.368 531.31 884.428 531.31C887.488 531.31 890.068 530.2 892.168 527.98C894.328 525.76 895.408 522.73 895.408 518.89ZM969.272 518.08C969.272 519.52 969.182 521.02 969.002 522.58H934.172C934.412 525.7 935.402 528.1 937.142 529.78C938.942 531.4 941.132 532.21 943.712 532.21C947.552 532.21 950.222 530.59 951.722 527.35H968.102C967.262 530.65 965.732 533.62 963.512 536.26C961.352 538.9 958.622 540.97 955.322 542.47C952.022 543.97 948.332 544.72 944.252 544.72C939.332 544.72 934.952 543.67 931.112 541.57C927.272 539.47 924.272 536.47 922.112 532.57C919.952 528.67 918.872 524.11 918.872 518.89C918.872 513.67 919.922 509.11 922.022 505.21C924.182 501.31 927.182 498.31 931.022 496.21C934.862 494.11 939.272 493.06 944.252 493.06C949.112 493.06 953.432 494.08 957.212 496.12C960.992 498.16 963.932 501.07 966.032 504.85C968.192 508.63 969.272 513.04 969.272 518.08ZM953.522 514.03C953.522 511.39 952.622 509.29 950.822 507.73C949.022 506.17 946.772 505.39 944.072 505.39C941.492 505.39 939.302 506.14 937.502 507.64C935.762 509.14 934.682 511.27 934.262 514.03H953.522ZM974.331 518.8C974.331 513.64 975.291 509.11 977.211 505.21C979.191 501.31 981.861 498.31 985.221 496.21C988.581 494.11 992.331 493.06 996.471 493.06C999.771 493.06 1002.77 493.75 1005.47 495.13C1008.23 496.51 1010.39 498.37 1011.95 500.71V477.4H1027.34V544H1011.95V536.8C1010.51 539.2 1008.44 541.12 1005.74 542.56C1003.1 544 1000.01 544.72 996.471 544.72C992.331 544.72 988.581 543.67 985.221 541.57C981.861 539.41 979.191 536.38 977.211 532.48C975.291 528.52 974.331 523.96 974.331 518.8ZM1011.95 518.89C1011.95 515.05 1010.87 512.02 1008.71 509.8C1006.61 507.58 1004.03 506.47 1000.97 506.47C997.911 506.47 995.301 507.58 993.141 509.8C991.041 511.96 989.991 514.96 989.991 518.8C989.991 522.64 991.041 525.7 993.141 527.98C995.301 530.2 997.911 531.31 1000.97 531.31C1004.03 531.31 1006.61 530.2 1008.71 527.98C1010.87 525.76 1011.95 522.73 1011.95 518.89ZM1080.41 544.63C1075.79 544.63 1071.65 543.88 1067.99 542.38C1064.33 540.88 1061.39 538.66 1059.17 535.72C1057.01 532.78 1055.87 529.24 1055.75 525.1H1072.13C1072.37 527.44 1073.18 529.24 1074.56 530.5C1075.94 531.7 1077.74 532.3 1079.96 532.3C1082.24 532.3 1084.04 531.79 1085.36 530.77C1086.68 529.69 1087.34 528.22 1087.34 526.36C1087.34 524.8 1086.8 523.51 1085.72 522.49C1084.7 521.47 1083.41 520.63 1081.85 519.97C1080.35 519.31 1078.19 518.56 1075.37 517.72C1071.29 516.46 1067.96 515.2 1065.38 513.94C1062.8 512.68 1060.58 510.82 1058.72 508.36C1056.86 505.9 1055.93 502.69 1055.93 498.73C1055.93 492.85 1058.06 488.26 1062.32 484.96C1066.58 481.6 1072.13 479.92 1078.97 479.92C1085.93 479.92 1091.54 481.6 1095.8 484.96C1100.06 488.26 1102.34 492.88 1102.64 498.82H1085.99C1085.87 496.78 1085.12 495.19 1083.74 494.05C1082.36 492.85 1080.59 492.25 1078.43 492.25C1076.57 492.25 1075.07 492.76 1073.93 493.78C1072.79 494.74 1072.22 496.15 1072.22 498.01C1072.22 500.05 1073.18 501.64 1075.1 502.78C1077.02 503.92 1080.02 505.15 1084.1 506.47C1088.18 507.85 1091.48 509.17 1094 510.43C1096.58 511.69 1098.8 513.52 1100.66 515.92C1102.52 518.32 1103.45 521.41 1103.45 525.19C1103.45 528.79 1102.52 532.06 1100.66 535C1098.86 537.94 1096.22 540.28 1092.74 542.02C1089.26 543.76 1085.15 544.63 1080.41 544.63ZM1143.79 493.24C1149.55 493.24 1154.17 495.16 1157.65 499C1161.13 502.78 1162.87 508 1162.87 514.66V544H1147.57V516.73C1147.57 513.37 1146.7 510.76 1144.96 508.9C1143.22 507.04 1140.88 506.11 1137.94 506.11C1135 506.11 1132.66 507.04 1130.92 508.9C1129.18 510.76 1128.31 513.37 1128.31 516.73V544H1112.92V477.4H1128.31V500.53C1129.87 498.31 1132 496.54 1134.7 495.22C1137.4 493.9 1140.43 493.24 1143.79 493.24ZM1181.3 488.56C1178.6 488.56 1176.38 487.78 1174.64 486.22C1172.96 484.6 1172.12 482.62 1172.12 480.28C1172.12 477.88 1172.96 475.9 1174.64 474.34C1176.38 472.72 1178.6 471.91 1181.3 471.91C1183.94 471.91 1186.1 472.72 1187.78 474.34C1189.52 475.9 1190.39 477.88 1190.39 480.28C1190.39 482.62 1189.52 484.6 1187.78 486.22C1186.1 487.78 1183.94 488.56 1181.3 488.56ZM1188.95 493.78V544H1173.56V493.78H1188.95ZM1215.5 500.89C1217 498.55 1219.07 496.66 1221.71 495.22C1224.35 493.78 1227.44 493.06 1230.98 493.06C1235.12 493.06 1238.87 494.11 1242.23 496.21C1245.59 498.31 1248.23 501.31 1250.15 505.21C1252.13 509.11 1253.12 513.64 1253.12 518.8C1253.12 523.96 1252.13 528.52 1250.15 532.48C1248.23 536.38 1245.59 539.41 1242.23 541.57C1238.87 543.67 1235.12 544.72 1230.98 544.72C1227.5 544.72 1224.41 544 1221.71 542.56C1219.07 541.12 1217 539.26 1215.5 536.98V567.94H1200.11V493.78H1215.5V500.89ZM1237.46 518.8C1237.46 514.96 1236.38 511.96 1234.22 509.8C1232.12 507.58 1229.51 506.47 1226.39 506.47C1223.33 506.47 1220.72 507.58 1218.56 509.8C1216.46 512.02 1215.41 515.05 1215.41 518.89C1215.41 522.73 1216.46 525.76 1218.56 527.98C1220.72 530.2 1223.33 531.31 1226.39 531.31C1229.45 531.31 1232.06 530.2 1234.22 527.98C1236.38 525.7 1237.46 522.64 1237.46 518.8ZM1276.58 500.89C1278.08 498.55 1280.15 496.66 1282.79 495.22C1285.43 493.78 1288.52 493.06 1292.06 493.06C1296.2 493.06 1299.95 494.11 1303.31 496.21C1306.67 498.31 1309.31 501.31 1311.23 505.21C1313.21 509.11 1314.2 513.64 1314.2 518.8C1314.2 523.96 1313.21 528.52 1311.23 532.48C1309.31 536.38 1306.67 539.41 1303.31 541.57C1299.95 543.67 1296.2 544.72 1292.06 544.72C1288.58 544.72 1285.49 544 1282.79 542.56C1280.15 541.12 1278.08 539.26 1276.58 536.98V567.94H1261.19V493.78H1276.58V500.89ZM1298.54 518.8C1298.54 514.96 1297.46 511.96 1295.3 509.8C1293.2 507.58 1290.59 506.47 1287.47 506.47C1284.41 506.47 1281.8 507.58 1279.64 509.8C1277.54 512.02 1276.49 515.05 1276.49 518.89C1276.49 522.73 1277.54 525.76 1279.64 527.98C1281.8 530.2 1284.41 531.31 1287.47 531.31C1290.53 531.31 1293.14 530.2 1295.3 527.98C1297.46 525.7 1298.54 522.64 1298.54 518.8ZM1330.01 488.56C1327.31 488.56 1325.09 487.78 1323.35 486.22C1321.67 484.6 1320.83 482.62 1320.83 480.28C1320.83 477.88 1321.67 475.9 1323.35 474.34C1325.09 472.72 1327.31 471.91 1330.01 471.91C1332.65 471.91 1334.81 472.72 1336.49 474.34C1338.23 475.9 1339.1 477.88 1339.1 480.28C1339.1 482.62 1338.23 484.6 1336.49 486.22C1334.81 487.78 1332.65 488.56 1330.01 488.56ZM1337.66 493.78V544H1322.27V493.78H1337.66ZM1379.42 493.24C1385.3 493.24 1389.98 495.16 1393.46 499C1397 502.78 1398.77 508 1398.77 514.66V544H1383.47V516.73C1383.47 513.37 1382.6 510.76 1380.86 508.9C1379.12 507.04 1376.78 506.11 1373.84 506.11C1370.9 506.11 1368.56 507.04 1366.82 508.9C1365.08 510.76 1364.21 513.37 1364.21 516.73V544H1348.82V493.78H1364.21V500.44C1365.77 498.22 1367.87 496.48 1370.51 495.22C1373.15 493.9 1376.12 493.24 1379.42 493.24ZM1428.54 493.06C1432.08 493.06 1435.17 493.78 1437.81 495.22C1440.51 496.66 1442.58 498.55 1444.02 500.89V493.78H1459.41V543.91C1459.41 548.53 1458.48 552.7 1456.62 556.42C1454.82 560.2 1452.03 563.2 1448.25 565.42C1444.53 567.64 1439.88 568.75 1434.3 568.75C1426.86 568.75 1420.83 566.98 1416.21 563.44C1411.59 559.96 1408.95 555.22 1408.29 549.22H1423.5C1423.98 551.14 1425.12 552.64 1426.92 553.72C1428.72 554.86 1430.94 555.43 1433.58 555.43C1436.76 555.43 1439.28 554.5 1441.14 552.64C1443.06 550.84 1444.02 547.93 1444.02 543.91V536.8C1442.52 539.14 1440.45 541.06 1437.81 542.56C1435.17 544 1432.08 544.72 1428.54 544.72C1424.4 544.72 1420.65 543.67 1417.29 541.57C1413.93 539.41 1411.26 536.38 1409.28 532.48C1407.36 528.52 1406.4 523.96 1406.4 518.8C1406.4 513.64 1407.36 509.11 1409.28 505.21C1411.26 501.31 1413.93 498.31 1417.29 496.21C1420.65 494.11 1424.4 493.06 1428.54 493.06ZM1444.02 518.89C1444.02 515.05 1442.94 512.02 1440.78 509.8C1438.68 507.58 1436.1 506.47 1433.04 506.47C1429.98 506.47 1427.37 507.58 1425.21 509.8C1423.11 511.96 1422.06 514.96 1422.06 518.8C1422.06 522.64 1423.11 525.7 1425.21 527.98C1427.37 530.2 1429.98 531.31 1433.04 531.31C1436.1 531.31 1438.68 530.2 1440.78 527.98C1442.94 525.76 1444.02 522.73 1444.02 518.89ZM1517.61 530.95V544H1509.78C1504.2 544 1499.85 542.65 1496.73 539.95C1493.61 537.19 1492.05 532.72 1492.05 526.54V506.56H1485.93V493.78H1492.05V481.54H1507.44V493.78H1517.52V506.56H1507.44V526.72C1507.44 528.22 1507.8 529.3 1508.52 529.96C1509.24 530.62 1510.44 530.95 1512.12 530.95H1517.61ZM1533.92 488.56C1531.22 488.56 1529 487.78 1527.26 486.22C1525.58 484.6 1524.74 482.62 1524.74 480.28C1524.74 477.88 1525.58 475.9 1527.26 474.34C1529 472.72 1531.22 471.91 1533.92 471.91C1536.56 471.91 1538.72 472.72 1540.4 474.34C1542.14 475.9 1543.01 477.88 1543.01 480.28C1543.01 482.62 1542.14 484.6 1540.4 486.22C1538.72 487.78 1536.56 488.56 1533.92 488.56ZM1541.57 493.78V544H1526.18V493.78H1541.57ZM1616.8 493.24C1623.04 493.24 1627.99 495.13 1631.65 498.91C1635.37 502.69 1637.23 507.94 1637.23 514.66V544H1621.93V516.73C1621.93 513.49 1621.06 511 1619.32 509.26C1617.64 507.46 1615.3 506.56 1612.3 506.56C1609.3 506.56 1606.93 507.46 1605.19 509.26C1603.51 511 1602.67 513.49 1602.67 516.73V544H1587.37V516.73C1587.37 513.49 1586.5 511 1584.76 509.26C1583.08 507.46 1580.74 506.56 1577.74 506.56C1574.74 506.56 1572.37 507.46 1570.63 509.26C1568.95 511 1568.11 513.49 1568.11 516.73V544H1552.72V493.78H1568.11V500.08C1569.67 497.98 1571.71 496.33 1574.23 495.13C1576.75 493.87 1579.6 493.24 1582.78 493.24C1586.56 493.24 1589.92 494.05 1592.86 495.67C1595.86 497.29 1598.2 499.6 1599.88 502.6C1601.62 499.84 1603.99 497.59 1606.99 495.85C1609.99 494.11 1613.26 493.24 1616.8 493.24ZM1695.34 518.08C1695.34 519.52 1695.25 521.02 1695.07 522.58H1660.24C1660.48 525.7 1661.47 528.1 1663.21 529.78C1665.01 531.4 1667.2 532.21 1669.78 532.21C1673.62 532.21 1676.29 530.59 1677.79 527.35H1694.17C1693.33 530.65 1691.8 533.62 1689.58 536.26C1687.42 538.9 1684.69 540.97 1681.39 542.47C1678.09 543.97 1674.4 544.72 1670.32 544.72C1665.4 544.72 1661.02 543.67 1657.18 541.57C1653.34 539.47 1650.34 536.47 1648.18 532.57C1646.02 528.67 1644.94 524.11 1644.94 518.89C1644.94 513.67 1645.99 509.11 1648.09 505.21C1650.25 501.31 1653.25 498.31 1657.09 496.21C1660.93 494.11 1665.34 493.06 1670.32 493.06C1675.18 493.06 1679.5 494.08 1683.28 496.12C1687.06 498.16 1690 501.07 1692.1 504.85C1694.26 508.63 1695.34 513.04 1695.34 518.08ZM1679.59 514.03C1679.59 511.39 1678.69 509.29 1676.89 507.73C1675.09 506.17 1672.84 505.39 1670.14 505.39C1667.56 505.39 1665.37 506.14 1663.57 507.64C1661.83 509.14 1660.75 511.27 1660.33 514.03H1679.59ZM1723.89 544.72C1719.51 544.72 1715.61 543.97 1712.19 542.47C1708.77 540.97 1706.07 538.93 1704.09 536.35C1702.11 533.71 1701 530.77 1700.76 527.53H1715.97C1716.15 529.27 1716.96 530.68 1718.4 531.76C1719.84 532.84 1721.61 533.38 1723.71 533.38C1725.63 533.38 1727.1 533.02 1728.12 532.3C1729.2 531.52 1729.74 530.53 1729.74 529.33C1729.74 527.89 1728.99 526.84 1727.49 526.18C1725.99 525.46 1723.56 524.68 1720.2 523.84C1716.6 523 1713.6 522.13 1711.2 521.23C1708.8 520.27 1706.73 518.8 1704.99 516.82C1703.25 514.78 1702.38 512.05 1702.38 508.63C1702.38 505.75 1703.16 503.14 1704.72 500.8C1706.34 498.4 1708.68 496.51 1711.74 495.13C1714.86 493.75 1718.55 493.06 1722.81 493.06C1729.11 493.06 1734.06 494.62 1737.66 497.74C1741.32 500.86 1743.42 505 1743.96 510.16H1729.74C1729.5 508.42 1728.72 507.04 1727.4 506.02C1726.14 505 1724.46 504.49 1722.36 504.49C1720.56 504.49 1719.18 504.85 1718.22 505.57C1717.26 506.23 1716.78 507.16 1716.78 508.36C1716.78 509.8 1717.53 510.88 1719.03 511.6C1720.59 512.32 1722.99 513.04 1726.23 513.76C1729.95 514.72 1732.98 515.68 1735.32 516.64C1737.66 517.54 1739.7 519.04 1741.44 521.14C1743.24 523.18 1744.17 525.94 1744.23 529.42C1744.23 532.36 1743.39 535 1741.71 537.34C1740.09 539.62 1737.72 541.42 1734.6 542.74C1731.54 544.06 1727.97 544.72 1723.89 544.72Z" fill="black"/>
<g clip-path="url(#clip0_11_33)">
<path d="M990 1990.35C1338.69 1990.35 1621.35 1707.69 1621.35 1359C1621.35 1010.31 1338.69 727.648 990 727.648C641.314 727.648 358.648 1010.31 358.648 1359C358.648 1707.69 641.314 1990.35 990 1990.35Z" fill="#0AD81D" fill-opacity="0.7" stroke="white" stroke-miterlimit="10"/>
<path d="M909.43 1362.61V1348.3H934.36V1414H918.34V1362.61H909.43ZM944.888 1380.25C944.888 1369.93 946.868 1361.8 950.828 1355.86C954.848 1349.92 961.298 1346.95 970.178 1346.95C979.058 1346.95 985.478 1349.92 989.438 1355.86C993.458 1361.8 995.468 1369.93 995.468 1380.25C995.468 1390.69 993.458 1398.88 989.438 1404.82C985.478 1410.76 979.058 1413.73 970.178 1413.73C961.298 1413.73 954.848 1410.76 950.828 1404.82C946.868 1398.88 944.888 1390.69 944.888 1380.25ZM980.348 1380.25C980.348 1374.19 979.688 1369.54 978.368 1366.3C977.048 1363 974.318 1361.35 970.178 1361.35C966.038 1361.35 963.308 1363 961.988 1366.3C960.668 1369.54 960.008 1374.19 960.008 1380.25C960.008 1384.33 960.248 1387.72 960.728 1390.42C961.208 1393.06 962.168 1395.22 963.608 1396.9C965.108 1398.52 967.298 1399.33 970.178 1399.33C973.058 1399.33 975.218 1398.52 976.658 1396.9C978.158 1395.22 979.148 1393.06 979.628 1390.42C980.108 1387.72 980.348 1384.33 980.348 1380.25ZM1003.6 1380.25C1003.6 1369.93 1005.58 1361.8 1009.54 1355.86C1013.56 1349.92 1020.01 1346.95 1028.89 1346.95C1037.77 1346.95 1044.19 1349.92 1048.15 1355.86C1052.17 1361.8 1054.18 1369.93 1054.18 1380.25C1054.18 1390.69 1052.17 1398.88 1048.15 1404.82C1044.19 1410.76 1037.77 1413.73 1028.89 1413.73C1020.01 1413.73 1013.56 1410.76 1009.54 1404.82C1005.58 1398.88 1003.6 1390.69 1003.6 1380.25ZM1039.06 1380.25C1039.06 1374.19 1038.4 1369.54 1037.08 1366.3C1035.76 1363 1033.03 1361.35 1028.89 1361.35C1024.75 1361.35 1022.02 1363 1020.7 1366.3C1019.38 1369.54 1018.72 1374.19 1018.72 1380.25C1018.72 1384.33 1018.96 1387.72 1019.44 1390.42C1019.92 1393.06 1020.88 1395.22 1022.32 1396.9C1023.82 1398.52 1026.01 1399.33 1028.89 1399.33C1031.77 1399.33 1033.93 1398.52 1035.37 1396.9C1036.87 1395.22 1037.86 1393.06 1038.34 1390.42C1038.82 1387.72 1039.06 1384.33 1039.06 1380.25ZM1061.05 1364.86C1061.05 1360 1062.43 1356.25 1065.19 1353.61C1068.01 1350.97 1071.64 1349.65 1076.08 1349.65C1080.52 1349.65 1084.12 1350.97 1086.88 1353.61C1089.64 1356.25 1091.02 1360 1091.02 1364.86C1091.02 1369.72 1089.64 1373.47 1086.88 1376.11C1084.12 1378.75 1080.52 1380.07 1076.08 1380.07C1071.64 1380.07 1068.01 1378.75 1065.19 1376.11C1062.43 1373.47 1061.05 1369.72 1061.05 1364.86ZM1122.16 1350.64L1087.51 1414H1072.66L1107.31 1350.64H1122.16ZM1075.99 1358.65C1073.11 1358.65 1071.67 1360.72 1071.67 1364.86C1071.67 1368.94 1073.11 1370.98 1075.99 1370.98C1077.37 1370.98 1078.45 1370.47 1079.23 1369.45C1080.01 1368.43 1080.4 1366.9 1080.4 1364.86C1080.4 1360.72 1078.93 1358.65 1075.99 1358.65ZM1103.89 1399.78C1103.89 1394.92 1105.27 1391.17 1108.03 1388.53C1110.79 1385.89 1114.39 1384.57 1118.83 1384.57C1123.27 1384.57 1126.87 1385.89 1129.63 1388.53C1132.39 1391.17 1133.77 1394.92 1133.77 1399.78C1133.77 1404.64 1132.39 1408.39 1129.63 1411.03C1126.87 1413.67 1123.27 1414.99 1118.83 1414.99C1114.39 1414.99 1110.79 1413.67 1108.03 1411.03C1105.27 1408.39 1103.89 1404.64 1103.89 1399.78ZM1118.74 1393.57C1117.36 1393.57 1116.28 1394.08 1115.5 1395.1C1114.78 1396.12 1114.42 1397.68 1114.42 1399.78C1114.42 1403.86 1115.86 1405.9 1118.74 1405.9C1120.12 1405.9 1121.2 1405.39 1121.98 1404.37C1122.76 1403.35 1123.15 1401.82 1123.15 1399.78C1123.15 1397.74 1122.76 1396.21 1121.98 1395.19C1121.2 1394.11 1120.12 1393.57 1118.74 1393.57Z" fill="white"/>
</g>
<defs>
<clipPath id="clip0_11_33">
<rect width="1264" height="1264" fill="white" transform="translate(358 727)"/>
</clipPath>
</defs>
</svg>
