<svg xmlns="http://www.w3.org/2000/svg" xmlns:xlink="http://www.w3.org/1999/xlink" width="1920" height="1455" viewBox="0 0 1920 1455"><defs><style>.a{clip-path:url(#b);}.b,.g{fill:#d3d3d3;}.c{fill:rgba(211,211,211,0.8);}.d{fill:rgba(219,219,219,0.6);}.e{fill:rgba(233,233,233,0.2);}.f{fill:rgba(255,255,255,0.72);stroke-width:4px;}.f,.g{stroke:#d3d3d3;}.g{font-size:60px;font-family:Gumbo-Bold, Gumbo;font-weight:700;}.h,.m{fill:#fff;}.h{font-size:40px;font-family:Poppins-Regular, Poppins;}.i{fill:#fbfbfb;}.j{fill:#e9e9e9;}.k{stroke:none;}.l{fill:none;}</style><clipPath id="b"><rect width="1920" height="1455"/></clipPath></defs><g id="a" class="a"><rect class="m" width="1920" height="1455"/><rect class="b" width="960" height="449" transform="translate(960 1006)"/><rect class="c" width="960" height="409" transform="translate(960 625)"/><rect class="d" width="960" height="331" transform="translate(960 294)"/><rect class="e" width="960" height="294" transform="translate(960)"/><rect class="b" width="674" height="142" rx="24" transform="translate(140 935)"/><g class="f" transform="translate(140 323)"><rect class="k" width="690" height="142"/><rect class="l" x="2" y="2" width="686" height="138"/></g><g class="f" transform="translate(140 673)"><rect class="k" width="690" height="142"/><rect class="l" x="2" y="2" width="686" height="138"/></g><text class="g" transform="translate(140 257)"><tspan x="0" y="0">Lorem ipsum:</tspan></text><text class="g" transform="translate(140 607)"><tspan x="0" y="0">Lorem ipsum:</tspan></text><text class="h" transform="translate(426 1020)"><tspan x="0" y="0">Enter</tspan></text><path class="i" d="M143.206,45.476v2.26H95.47V0h2.26a8.95,8.95,0,0,1,6.329,2.621l36.525,36.525A8.951,8.951,0,0,1,143.206,45.476ZM92.487,59.669a8.977,8.977,0,0,1-8.95-8.95V0H8.95A8.95,8.95,0,0,0,0,8.95v173.04a8.95,8.95,0,0,0,8.95,8.95H134.255a8.95,8.95,0,0,0,8.95-8.95V59.669ZM41.972,65.636a17.9,17.9,0,1,1-17.9,17.9A17.9,17.9,0,0,1,41.972,65.636Zm77.57,89.5H24.071l.181-18.082,14.736-14.736a4.264,4.264,0,0,1,6.148.181l14.736,14.736,38.6-38.6a4.476,4.476,0,0,1,6.329,0l14.736,14.736Z" transform="translate(1355 1169.559)"/><path class="j" d="M143.206,45.476v2.26H95.47V0h2.26a8.95,8.95,0,0,1,6.329,2.621l36.525,36.525A8.951,8.951,0,0,1,143.206,45.476ZM92.487,59.669a8.977,8.977,0,0,1-8.95-8.95V0H8.95A8.95,8.95,0,0,0,0,8.95v173.04a8.95,8.95,0,0,0,8.95,8.95H134.255a8.95,8.95,0,0,0,8.95-8.95V59.669ZM41.972,65.636a17.9,17.9,0,1,1-17.9,17.9A17.9,17.9,0,0,1,41.972,65.636Zm77.57,89.5H24.071l.181-18.082,14.736-14.736a4.264,4.264,0,0,1,6.148.181l14.736,14.736,38.6-38.6a4.476,4.476,0,0,1,6.329,0l14.736,14.736Z" transform="translate(1355 889.227)"/><path class="b" d="M143.206,45.476v2.26H95.47V0h2.26a8.95,8.95,0,0,1,6.329,2.621l36.525,36.525A8.951,8.951,0,0,1,143.206,45.476ZM92.487,59.669a8.977,8.977,0,0,1-8.95-8.95V0H8.95A8.95,8.95,0,0,0,0,8.95v173.04a8.95,8.95,0,0,0,8.95,8.95H134.255a8.95,8.95,0,0,0,8.95-8.95V59.669ZM41.972,65.636a17.9,17.9,0,1,1-17.9,17.9A17.9,17.9,0,0,1,41.972,65.636Zm77.57,89.5H24.071l.181-18.082,14.736-14.736a4.264,4.264,0,0,1,6.148.181l14.736,14.736,38.6-38.6a4.476,4.476,0,0,1,6.329,0l14.736,14.736Z" transform="translate(1355 609.831)"/><path class="i" d="M143.206,45.476v2.26H95.47V0h2.26a8.95,8.95,0,0,1,6.329,2.621l36.525,36.525A8.951,8.951,0,0,1,143.206,45.476ZM92.487,59.669a8.977,8.977,0,0,1-8.95-8.95V0H8.95A8.95,8.95,0,0,0,0,8.95v173.04a8.95,8.95,0,0,0,8.95,8.95H134.255a8.95,8.95,0,0,0,8.95-8.95V59.669ZM41.972,65.636a17.9,17.9,0,1,1-17.9,17.9A17.9,17.9,0,0,1,41.972,65.636Zm77.57,89.5H24.071l.181-18.082,14.736-14.736a4.264,4.264,0,0,1,6.148.181l14.736,14.736,38.6-38.6a4.476,4.476,0,0,1,6.329,0l14.736,14.736Z" transform="translate(1355 336)"/></g></svg>