<svg xmlns="http://www.w3.org/2000/svg" xmlns:xlink="http://www.w3.org/1999/xlink" width="1920" height="1455" viewBox="0 0 1920 1455"><defs><clipPath id="b"><rect width="1920" height="1455"/></clipPath></defs><g id="a" clip-path="url(#b)"><rect width="1920" height="1455" fill="#fff"/><rect width="960" height="449" transform="translate(960 1006)" fill="#d3d3d3"/><rect width="960" height="409" transform="translate(960 625)" fill="rgba(211,211,211,0.8)"/><rect width="960" height="331" transform="translate(960 294)" fill="rgba(219,219,219,0.6)"/><rect width="960" height="294" transform="translate(960)" fill="rgba(233,233,233,0.2)"/><rect width="674" height="142" rx="24" transform="translate(140 935)" fill="#d3d3d3"/><g transform="translate(140 323)" fill="rgba(255,255,255,0.72)" stroke="#d3d3d3" stroke-width="4"><rect width="690" height="142" stroke="none"/><rect x="2" y="2" width="686" height="138" fill="none"/></g><g transform="translate(140 673)" fill="rgba(255,255,255,0.72)" stroke="#d3d3d3" stroke-width="4"><rect width="690" height="142" stroke="none"/><rect x="2" y="2" width="686" height="138" fill="none"/></g><text transform="translate(140 257)" fill="#d3d3d3" stroke="#d3d3d3" stroke-width="1" font-size="60" font-family="Gumbo-Bold, Gumbo" font-weight="700"><tspan x="0" y="0">Lorem ipsum:</tspan></text><text transform="translate(140 607)" fill="#d3d3d3" stroke="#d3d3d3" stroke-width="1" font-size="60" font-family="Gumbo-Bold, Gumbo" font-weight="700"><tspan x="0" y="0">Lorem ipsum:</tspan></text><text transform="translate(426 1020)" fill="#fff" font-size="40" font-family="Poppins-Regular, Poppins"><tspan x="0" y="0">Enter</tspan></text><path d="M170.393,54.109V56.8H113.6V0h2.689a10.65,10.65,0,0,1,7.53,3.119l43.46,43.46A10.651,10.651,0,0,1,170.393,54.109ZM110.046,71A10.681,10.681,0,0,1,99.4,60.348V0H10.65A10.649,10.649,0,0,0,0,10.65V216.541a10.649,10.649,0,0,0,10.65,10.65H159.744a10.649,10.649,0,0,0,10.65-10.65V71ZM49.94,78.1a21.3,21.3,0,1,1-21.3,21.3A21.3,21.3,0,0,1,49.94,78.1Zm92.3,106.5H28.641l.215-21.514L46.39,145.544a5.073,5.073,0,0,1,7.315.215l17.534,17.534,45.933-45.933a5.325,5.325,0,0,1,7.531,0l17.534,17.534Z" transform="translate(1355 1197.809)" fill="#fbfbfb"/><path d="M170.393,54.109V56.8H113.6V0h2.689a10.65,10.65,0,0,1,7.53,3.119l43.46,43.46A10.651,10.651,0,0,1,170.393,54.109ZM110.046,71A10.681,10.681,0,0,1,99.4,60.348V0H10.65A10.649,10.649,0,0,0,0,10.65V216.541a10.649,10.649,0,0,0,10.65,10.65H159.744a10.649,10.649,0,0,0,10.65-10.65V71ZM49.94,78.1a21.3,21.3,0,1,1-21.3,21.3A21.3,21.3,0,0,1,49.94,78.1Zm92.3,106.5H28.641l.215-21.514L46.39,145.544a5.073,5.073,0,0,1,7.315.215l17.534,17.534,45.933-45.933a5.325,5.325,0,0,1,7.531,0l17.534,17.534Z" transform="translate(1355 864.257)" fill="#e9e9e9"/><path d="M170.393,54.109V56.8H113.6V0h2.689a10.65,10.65,0,0,1,7.53,3.119l43.46,43.46A10.651,10.651,0,0,1,170.393,54.109ZM110.046,71A10.681,10.681,0,0,1,99.4,60.348V0H10.65A10.649,10.649,0,0,0,0,10.65V216.541a10.649,10.649,0,0,0,10.65,10.65H159.744a10.649,10.649,0,0,0,10.65-10.65V71ZM49.94,78.1a21.3,21.3,0,1,1-21.3,21.3A21.3,21.3,0,0,1,49.94,78.1Zm92.3,106.5H28.641l.215-21.514L46.39,145.544a5.073,5.073,0,0,1,7.315.215l17.534,17.534,45.933-45.933a5.325,5.325,0,0,1,7.531,0l17.534,17.534Z" transform="translate(1355 531.818)" fill="#d3d3d3"/><path d="M170.393,54.109V56.8H113.6V0h2.689a10.65,10.65,0,0,1,7.53,3.119l43.46,43.46A10.651,10.651,0,0,1,170.393,54.109ZM110.046,71A10.681,10.681,0,0,1,99.4,60.348V0H10.65A10.649,10.649,0,0,0,0,10.65V216.541a10.649,10.649,0,0,0,10.65,10.65H159.744a10.649,10.649,0,0,0,10.65-10.65V71ZM49.94,78.1a21.3,21.3,0,1,1-21.3,21.3A21.3,21.3,0,0,1,49.94,78.1Zm92.3,106.5H28.641l.215-21.514L46.39,145.544a5.073,5.073,0,0,1,7.315.215l17.534,17.534,45.933-45.933a5.325,5.325,0,0,1,7.531,0l17.534,17.534Z" transform="translate(1355 206)" fill="#fbfbfb"/></g></svg>