<svg xmlns="http://www.w3.org/2000/svg" xmlns:xlink="http://www.w3.org/1999/xlink" width="1920" height="1455" viewBox="0 0 1920 1455"><defs><clipPath id="b"><rect width="1920" height="1455"/></clipPath></defs><g id="a" clip-path="url(#b)"><rect width="1920" height="1455" fill="#fff"/><g transform="translate(960)" fill="#d3d3d3" stroke="#707070" stroke-width="1"><rect width="960" height="1455" stroke="none"/><rect x="0.5" y="0.5" width="959" height="1454" fill="none"/></g><g fill="rgba(211,211,211,0.4)" stroke="#707070" stroke-width="1"><rect width="960" height="1455" stroke="none"/><rect x="0.5" y="0.5" width="959" height="1454" fill="none"/></g><rect width="536" height="142" rx="24" transform="translate(697 960)" fill="#a9a9a9"/><g transform="translate(687 276)" fill="rgba(255,255,255,0.72)" stroke="#d3d3d3" stroke-width="12"><rect width="536" height="142" stroke="none"/><rect x="6" y="6" width="524" height="130" fill="none"/></g><g transform="translate(687 640)" fill="rgba(255,255,255,0.72)" stroke="#d3d3d3" stroke-width="12"><rect width="536" height="142" stroke="none"/><rect x="6" y="6" width="524" height="130" fill="none"/></g><text transform="translate(687 232)" fill="#a9a9a9" font-size="60" font-family="Gumbo-Bold, Gumbo" font-weight="700"><tspan x="0" y="0">Lorem ipsum:</tspan></text><text transform="translate(687 546)" fill="#a9a9a9" font-size="60" font-family="Gumbo-Bold, Gumbo" font-weight="700"><tspan x="0" y="60">Lorem ipsum:</tspan></text><text transform="translate(915 1045)" fill="#fff" font-size="40" font-family="Poppins-Regular, Poppins"><tspan x="0" y="0">Enter</tspan></text><path d="M508.7,161.541v8.027H339.136V0h8.027a31.794,31.794,0,0,1,22.481,9.312L499.391,139.059A31.8,31.8,0,0,1,508.7,161.541ZM328.538,211.96a31.887,31.887,0,0,1-31.794-31.794V0H31.794A31.794,31.794,0,0,0,0,31.794V646.478a31.794,31.794,0,0,0,31.794,31.794H476.91A31.794,31.794,0,0,0,508.7,646.478V211.96Zm-179.444,21.2a63.588,63.588,0,1,1-63.588,63.588A63.587,63.587,0,0,1,149.094,233.156ZM424.642,551.1H85.506l.643-64.23L138.5,434.518c6.208-6.208,15.631-5.565,21.839.642l52.348,52.347L349.813,350.376a15.9,15.9,0,0,1,22.482,0l52.346,52.348Z" transform="translate(1281.148 276)" fill="#ededed"/><path d="M508.7,161.541v8.027H339.136V0h8.027a31.794,31.794,0,0,1,22.481,9.312L499.391,139.059A31.8,31.8,0,0,1,508.7,161.541ZM328.538,211.96a31.887,31.887,0,0,1-31.794-31.794V0H31.794A31.794,31.794,0,0,0,0,31.794V646.478a31.794,31.794,0,0,0,31.794,31.794H476.91A31.794,31.794,0,0,0,508.7,646.478V211.96Zm-179.444,21.2a63.588,63.588,0,1,1-63.588,63.588A63.587,63.587,0,0,1,149.094,233.156ZM424.642,551.1H85.506l.643-64.23L138.5,434.518c6.208-6.208,15.631-5.565,21.839.642l52.348,52.347L349.813,350.376a15.9,15.9,0,0,1,22.482,0l52.346,52.348Z" transform="translate(128.148 276)" fill="#d3d3d3"/></g></svg>