<?xml version="1.0" encoding="UTF-8"?>
<svg id="Layer_1" data-name="Layer 1" xmlns="http://www.w3.org/2000/svg" viewBox="0 0 123.8 91.6">
  <path d="m6.3,1.2h111.2c2.8,0,5.1,2.3,5.1,5.1v79c0,2.8-2.3,5.1-5.1,5.1H6.3c-2.8,0-5.1-2.3-5.1-5.1V6.3c0-2.8,2.3-5.1,5.1-5.1Z" fill="#fff" stroke="#000" stroke-miterlimit="10"/>
  <path d="m58,26.2H17c-.7,0-1.2-.5-1.2-1.2s.5-1.2,1.2-1.2h40.9c.7,0,1.2.5,1.2,1.2.1.6-.5,1.2-1.1,1.2h0Z"/>
  <path d="m43.3,31.4h-26.3c-.7,0-1.2-.5-1.2-1.2s.5-1.2,1.2-1.2h26.2c.7,0,1.2.5,1.2,1.2.1.6-.5,1.2-1.1,1.2Z"/>
  <path d="m32.8,36.8h-15.8c-.7.1-1.3-.4-1.3-1.1-.1-.7.4-1.3,1.1-1.3h16c.7-.1,1.3.4,1.3,1.1s-.4,1.3-1.1,1.3h-.2Z"/>
  <path d="m41.6,36.8h-4.1c-.7.1-1.3-.4-1.3-1.1s.4-1.3,1.1-1.3h4.3c.7-.1,1.3.4,1.3,1.1s-.4,1.3-1,1.3h-.3Z" fill="#fff"/>
  <path d="m53,36.8h-5.6c-.7.1-1.3-.4-1.3-1.1s.4-1.3,1.1-1.3h5.8c.7-.1,1.3.4,1.3,1.1s-.4,1.3-1.1,1.3h-.2Z" fill="#fff"/>
  <path d="m58,47H17c-.7,0-1.2-.5-1.2-1.2s.5-1.2,1.2-1.2h40.9c.7,0,1.2.5,1.2,1.2.1.6-.5,1.2-1.1,1.2h0Z"/>
  <path d="m43.3,52.2h-26.3c-.7,0-1.2-.5-1.2-1.2s.5-1.2,1.2-1.2h26.2c.7,0,1.2.5,1.2,1.2.1.7-.5,1.2-1.1,1.2h0Z"/>
  <path d="m32.8,57.7h-15.8c-.7,0-1.2-.5-1.2-1.2s.5-1.2,1.2-1.2h15.8c.7,0,1.2.5,1.2,1.2,0,.6-.5,1.2-1.2,1.2h0Z"/>
  <path d="m41.6,57.7h-4.1c-.7,0-1.2-.5-1.2-1.2s.5-1.2,1.2-1.2h4.1c.7,0,1.2.5,1.2,1.2.1.6-.5,1.2-1.2,1.2h0Z" fill="#fff"/>
  <path d="m53,57.7h-5.6c-.7,0-1.2-.5-1.2-1.2s.5-1.2,1.2-1.2h5.6c.7,0,1.2.5,1.2,1.2,0,.6-.5,1.2-1.2,1.2h0Z" fill="#fff"/>
  <path d="m37.5,42h-20.5c-.7.1-1.4-.3-1.5-1s.3-1.4,1-1.5h21c.7,0,1.3.6,1.3,1.3s-.6,1.2-1.3,1.2h0Z"/>
  <path d="m58,62.8H17c-.7,0-1.3-.6-1.3-1.3s.6-1.3,1.3-1.3h40.9c.7,0,1.3.6,1.3,1.3s-.5,1.3-1.2,1.3Z"/>
  <path d="m58,67.8H17c-.7,0-1.2-.5-1.2-1.2s.5-1.2,1.2-1.2h40.9c.7,0,1.2.5,1.2,1.2.1.7-.5,1.2-1.1,1.2Z"/>
  <path d="m43.3,73h-26.3c-.7,0-1.2-.5-1.2-1.2s.5-1.2,1.2-1.2h26.2c.7,0,1.2.5,1.2,1.2.1.7-.5,1.2-1.1,1.2h0Z"/>
  <path d="m32.8,78.5h-15.8c-.7,0-1.2-.5-1.2-1.2s.5-1.2,1.2-1.2h15.8c.7,0,1.2.5,1.2,1.2,0,.6-.5,1.2-1.2,1.2h0Z"/>
  <path d="m41.6,78.5h-4.1c-.7,0-1.2-.5-1.2-1.2s.5-1.2,1.2-1.2h4.1c.7,0,1.2.5,1.2,1.2.1.6-.5,1.2-1.2,1.2h0Z" fill="#fff"/>
  <path d="m53,78.5h-5.6c-.7,0-1.2-.5-1.2-1.2s.5-1.2,1.2-1.2h5.6c.7,0,1.2.5,1.2,1.2,0,.6-.5,1.2-1.2,1.2h0Z" fill="#fff"/>
  <circle cx="10.9" cy="7.1" r="2" fill="#ff5f57"/>
  <circle cx="17.3" cy="7.1" r="2" fill="#febc2e"/>
  <circle cx="23.6" cy="7.1" r="2" fill="#29c940"/>
  <path d="m117.5,91.6H6.3c-3.5,0-6.3-2.8-6.3-6.3V6.3C0,2.8,2.8,0,6.3,0h111.2c3.5,0,6.3,2.8,6.3,6.3v79c0,3.5-2.8,6.3-6.3,6.3ZM6.3,2.5c-2.1,0-3.9,1.7-3.9,3.9h0v79c0,2.1,1.7,3.9,3.9,3.9h111.2c2.1,0,3.9-1.7,3.9-3.9V6.4c0-2.1-1.7-3.9-3.9-3.9h0s-111.2,0-111.2,0Z" fill="#000201"/>
  <path d="m28.9,14.2H2c-.4,0-.8-.3-.8-.8s.3-.8.8-.8h26.9c.4,0,.8.3.8.8s-.4.8-.8.8Z" fill="#000201"/>
  <path d="m121.7,14.2H35.8c-.4,0-.8-.3-.8-.8s.3-.8.8-.8h85.8c.4,0,.8.3.8.8s-.3.8-.7.8h0Z" fill="#000201"/>
</svg>