<svg xmlns="http://www.w3.org/2000/svg" xmlns:xlink="http://www.w3.org/1999/xlink" width="1920" height="1455" viewBox="0 0 1920 1455"><defs><style>.a,.b,.k{fill:none;}.a{stroke:rgba(0,0,0,0);}.c{clip-path:url(#d);}.d{fill:#00008b;stroke:#707070;}.e{fill:#add8e6;}.f{fill:rgba(0,0,0,0.95);}.g{fill:rgba(255,255,255,0.72);stroke:#000;stroke-width:12px;}.h,.i,.n{fill:#fff;}.h{font-size:60px;}.h,.o{font-family:Gumbo-Bold, Gumbo;font-weight:700;}.i{font-size:40px;font-family:Poppins-Regular, Poppins;}.j{clip-path:url(#a);}.k{stroke:#0c226a;stroke-miterlimit:10;stroke-width:20px;}.l{clip-path:url(#b);}.m{fill:#9dd0e0;}.o{font-size:90px;}.p{stroke:none;}</style><clipPath id="a"><rect class="a" width="398" height="556.402"/></clipPath><clipPath id="b"><rect class="b" width="223.583" height="217.416"/></clipPath><clipPath id="d"><rect width="1920" height="1455"/></clipPath></defs><g id="c" class="c"><rect class="n" width="1920" height="1455"/><g class="d" transform="translate(960)"><rect class="p" width="960" height="1455"/><rect class="b" x="0.5" y="0.5" width="959" height="1454"/></g><rect class="e" width="960" height="1455"/><rect class="f" width="536" height="142" rx="24" transform="translate(697 960)"/><g class="g" transform="translate(687 276)"><rect class="p" width="536" height="142"/><rect class="b" x="6" y="6" width="524" height="130"/></g><g class="g" transform="translate(687 640)"><rect class="p" width="536" height="142"/><rect class="b" x="6" y="6" width="524" height="130"/></g><text class="h" transform="translate(687 242)"><tspan x="0" y="0">Email:</tspan></text><text class="h" transform="translate(687 606)"><tspan x="0" y="0">Password:</tspan></text><text class="i" transform="translate(915 1045)"><tspan x="0" y="0">Enter</tspan></text><g transform="translate(140 318)"><g class="j"><rect class="k" width="390.194" height="545.199" transform="translate(3.903 5.601)"/></g></g><g transform="translate(1381.686 487)"><g class="l"><path class="m" d="M151.027,208.111l-17.975-7.974a32.875,32.875,0,0,0-30.528,2.033L85.765,212.458c-23.222,14.254-52.708-4.307-49.9-31.41l2.029-19.56A32.874,32.874,0,0,0,26.53,133.083l-14.963-12.76C-9.165,102.642-.625,68.863,26.02,63.161l19.229-4.115a32.876,32.876,0,0,0,23.5-19.589l7.512-18.173c10.409-25.182,45.174-27.5,58.83-3.918l9.855,17.016a32.876,32.876,0,0,0,25.893,16.3l19.605,1.528c27.165,2.118,40.11,34.466,21.905,54.74l-13.138,14.632a32.875,32.875,0,0,0-7.5,29.662l4.6,19.118c6.38,26.49-20.384,48.8-45.291,37.749" transform="translate(0 -0.603)"/><path class="m" d="M147.1,209.44l-17.533-8.9a32.874,32.874,0,0,0-30.593.433l-17.275,9.4c-23.936,13.019-52.411-7.06-48.185-33.978l3.05-19.426A32.876,32.876,0,0,0,26.7,128L12.427,114.473C-7.352,95.731,2.945,62.446,29.852,58.147l19.418-3.1a32.875,32.875,0,0,0,24.5-18.332l8.453-17.755c11.712-24.6,46.551-25.095,58.954-.834l8.951,17.509a32.876,32.876,0,0,0,25,17.632l19.5,2.552c27.017,3.537,38.252,36.518,19.011,55.811l-13.886,13.924a32.875,32.875,0,0,0-9.042,29.229l3.6,19.333c4.985,26.788-22.91,47.664-47.2,35.327" transform="translate(-1.329 -0.133)"/><path class="m" d="M143.453,210.828l-17.043-9.809a32.875,32.875,0,0,0-30.574-1.169l-17.743,8.479c-24.585,11.749-51.97-9.793-46.34-36.453l4.062-19.24A32.874,32.874,0,0,0,27.48,123.2L13.933,108.943C-4.838,89.192,7.188,56.491,34.282,53.606l19.554-2.082A32.875,32.875,0,0,0,79.258,34.5l9.37-17.288c12.984-23.955,47.8-22.624,58.917,2.253l8.023,17.954a32.875,32.875,0,0,0,24.047,18.917L198.953,59.9c26.8,4.946,36.288,38.47,16.064,56.73l-14.6,13.178a32.876,32.876,0,0,0-10.56,28.716l2.581,19.495c3.577,27.012-25.373,46.4-48.989,32.808" transform="translate(-3.023 0)"/><path class="m" d="M140.093,212.272l-16.507-10.688a32.874,32.874,0,0,0-30.47-2.768l-18.162,7.539c-25.166,10.446-51.386-12.5-44.369-38.828l5.064-19a32.875,32.875,0,0,0-6.784-29.834L16.083,103.748C-1.628,83.041,12.092,51.014,39.3,49.551L58.936,48.5A32.875,32.875,0,0,0,85.214,32.824L95.477,16.05C109.7-7.193,144.4-4.041,154.2,21.383l7.072,18.349a32.874,32.874,0,0,0,23.024,20.149l19.124,4.577c26.5,6.341,34.225,40.316,13.073,57.492l-15.265,12.4a32.875,32.875,0,0,0-12.048,28.124l1.557,19.6c2.158,27.162-27.767,45.008-50.639,30.2" transform="translate(-5.077 -0.205)"/><path class="n" d="M140.093,212.272l-16.507-10.688a32.874,32.874,0,0,0-30.47-2.768l-18.162,7.539c-25.166,10.446-51.386-12.5-44.369-38.828l5.064-19a32.875,32.875,0,0,0-6.784-29.834L16.083,103.748C-1.628,83.041,12.092,51.014,39.3,49.551L58.936,48.5A32.875,32.875,0,0,0,85.214,32.824L95.477,16.05C109.7-7.193,144.4-4.041,154.2,21.383l7.072,18.349a32.874,32.874,0,0,0,23.024,20.149l19.124,4.577c26.5,6.341,34.225,40.316,13.073,57.492l-15.265,12.4a32.875,32.875,0,0,0-12.048,28.124l1.557,19.6c2.158,27.162-27.767,45.008-50.639,30.2" transform="translate(-5.077 -0.205)"/></g></g><text class="o" transform="translate(136 1425)"><tspan x="0" y="0">Magical</tspan></text></g></svg>