<svg width="2279" height="476" viewBox="0 0 2279 476" fill="none" xmlns="http://www.w3.org/2000/svg">
<rect width="2279" height="476" fill="white"/>
<rect x="440" y="260" width="79" height="12" rx="4" fill="#84EB8E"/>
<rect x="881" y="264" width="79" height="12" rx="4" fill="#84EB8E"/>
<rect x="1322" y="264" width="79" height="12" rx="4" fill="#84EB8E"/>
<rect x="1763" y="260" width="79" height="12" rx="4" fill="#84EB8E"/>
<g filter="url(#filter0_d_3_24)">
<rect x="96" y="215" width="326" height="112" rx="31" fill="#0AD81D" fill-opacity="0.7" shape-rendering="crispEdges"/>
</g>
<path d="M198.6 286L194.22 278.05H192.99V286H187.86V264.94H196.47C198.13 264.94 199.54 265.23 200.7 265.81C201.88 266.39 202.76 267.19 203.34 268.21C203.92 269.21 204.21 270.33 204.21 271.57C204.21 272.97 203.81 274.22 203.01 275.32C202.23 276.42 201.07 277.2 199.53 277.66L204.39 286H198.6ZM192.99 274.42H196.17C197.11 274.42 197.81 274.19 198.27 273.73C198.75 273.27 198.99 272.62 198.99 271.78C198.99 270.98 198.75 270.35 198.27 269.89C197.81 269.43 197.11 269.2 196.17 269.2H192.99V274.42ZM223.21 277.36C223.21 277.84 223.18 278.34 223.12 278.86H211.51C211.59 279.9 211.92 280.7 212.5 281.26C213.1 281.8 213.83 282.07 214.69 282.07C215.97 282.07 216.86 281.53 217.36 280.45H222.82C222.54 281.55 222.03 282.54 221.29 283.42C220.57 284.3 219.66 284.99 218.56 285.49C217.46 285.99 216.23 286.24 214.87 286.24C213.23 286.24 211.77 285.89 210.49 285.19C209.21 284.49 208.21 283.49 207.49 282.19C206.77 280.89 206.41 279.37 206.41 277.63C206.41 275.89 206.76 274.37 207.46 273.07C208.18 271.77 209.18 270.77 210.46 270.07C211.74 269.37 213.21 269.02 214.87 269.02C216.49 269.02 217.93 269.36 219.19 270.04C220.45 270.72 221.43 271.69 222.13 272.95C222.85 274.21 223.21 275.68 223.21 277.36ZM217.96 276.01C217.96 275.13 217.66 274.43 217.06 273.91C216.46 273.39 215.71 273.13 214.81 273.13C213.95 273.13 213.22 273.38 212.62 273.88C212.04 274.38 211.68 275.09 211.54 276.01H217.96ZM232.727 286.24C231.267 286.24 229.967 285.99 228.827 285.49C227.687 284.99 226.787 284.31 226.127 283.45C225.467 282.57 225.097 281.59 225.017 280.51H230.087C230.147 281.09 230.417 281.56 230.897 281.92C231.377 282.28 231.967 282.46 232.667 282.46C233.307 282.46 233.797 282.34 234.137 282.1C234.497 281.84 234.677 281.51 234.677 281.11C234.677 280.63 234.427 280.28 233.927 280.06C233.427 279.82 232.617 279.56 231.497 279.28C230.297 279 229.297 278.71 228.497 278.41C227.697 278.09 227.007 277.6 226.427 276.94C225.847 276.26 225.557 275.35 225.557 274.21C225.557 273.25 225.817 272.38 226.337 271.6C226.877 270.8 227.657 270.17 228.677 269.71C229.717 269.25 230.947 269.02 232.367 269.02C234.467 269.02 236.117 269.54 237.317 270.58C238.537 271.62 239.237 273 239.417 274.72H234.677C234.597 274.14 234.337 273.68 233.897 273.34C233.477 273 232.917 272.83 232.217 272.83C231.617 272.83 231.157 272.95 230.837 273.19C230.517 273.41 230.357 273.72 230.357 274.12C230.357 274.6 230.607 274.96 231.107 275.2C231.627 275.44 232.427 275.68 233.507 275.92C234.747 276.24 235.757 276.56 236.537 276.88C237.317 277.18 237.997 277.68 238.577 278.38C239.177 279.06 239.487 279.98 239.507 281.14C239.507 282.12 239.227 283 238.667 283.78C238.127 284.54 237.337 285.14 236.297 285.58C235.277 286.02 234.087 286.24 232.727 286.24ZM258.425 277.36C258.425 277.84 258.395 278.34 258.335 278.86H246.725C246.805 279.9 247.135 280.7 247.715 281.26C248.315 281.8 249.045 282.07 249.905 282.07C251.185 282.07 252.075 281.53 252.575 280.45H258.035C257.755 281.55 257.245 282.54 256.505 283.42C255.785 284.3 254.875 284.99 253.775 285.49C252.675 285.99 251.445 286.24 250.085 286.24C248.445 286.24 246.985 285.89 245.705 285.19C244.425 284.49 243.425 283.49 242.705 282.19C241.985 280.89 241.625 279.37 241.625 277.63C241.625 275.89 241.975 274.37 242.675 273.07C243.395 271.77 244.395 270.77 245.675 270.07C246.955 269.37 248.425 269.02 250.085 269.02C251.705 269.02 253.145 269.36 254.405 270.04C255.665 270.72 256.645 271.69 257.345 272.95C258.065 274.21 258.425 275.68 258.425 277.36ZM253.175 276.01C253.175 275.13 252.875 274.43 252.275 273.91C251.675 273.39 250.925 273.13 250.025 273.13C249.165 273.13 248.435 273.38 247.835 273.88C247.255 274.38 246.895 275.09 246.755 276.01H253.175ZM260.111 277.6C260.111 275.88 260.431 274.37 261.071 273.07C261.731 271.77 262.621 270.77 263.741 270.07C264.861 269.37 266.111 269.02 267.491 269.02C268.671 269.02 269.701 269.26 270.581 269.74C271.481 270.22 272.171 270.85 272.651 271.63V269.26H277.781V286H272.651V283.63C272.151 284.41 271.451 285.04 270.551 285.52C269.671 286 268.641 286.24 267.461 286.24C266.101 286.24 264.861 285.89 263.741 285.19C262.621 284.47 261.731 283.46 261.071 282.16C260.431 280.84 260.111 279.32 260.111 277.6ZM272.651 277.63C272.651 276.35 272.291 275.34 271.571 274.6C270.871 273.86 270.011 273.49 268.991 273.49C267.971 273.49 267.101 273.86 266.381 274.6C265.681 275.32 265.331 276.32 265.331 277.6C265.331 278.88 265.681 279.9 266.381 280.66C267.101 281.4 267.971 281.77 268.991 281.77C270.011 281.77 270.871 281.4 271.571 280.66C272.291 279.92 272.651 278.91 272.651 277.63ZM286.623 272.05C287.223 271.13 287.973 270.41 288.873 269.89C289.773 269.35 290.773 269.08 291.873 269.08V274.51H290.463C289.183 274.51 288.223 274.79 287.583 275.35C286.943 275.89 286.623 276.85 286.623 278.23V286H281.493V269.26H286.623V272.05ZM293.305 277.63C293.305 275.89 293.655 274.37 294.355 273.07C295.075 271.77 296.065 270.77 297.325 270.07C298.605 269.37 300.065 269.02 301.705 269.02C303.805 269.02 305.555 269.57 306.955 270.67C308.375 271.77 309.305 273.32 309.745 275.32H304.285C303.825 274.04 302.935 273.4 301.615 273.4C300.675 273.4 299.925 273.77 299.365 274.51C298.805 275.23 298.525 276.27 298.525 277.63C298.525 278.99 298.805 280.04 299.365 280.78C299.925 281.5 300.675 281.86 301.615 281.86C302.935 281.86 303.825 281.22 304.285 279.94H309.745C309.305 281.9 308.375 283.44 306.955 284.56C305.535 285.68 303.785 286.24 301.705 286.24C300.065 286.24 298.605 285.89 297.325 285.19C296.065 284.49 295.075 283.49 294.355 282.19C293.655 280.89 293.305 279.37 293.305 277.63ZM322.779 269.08C324.699 269.08 326.239 269.72 327.399 271C328.559 272.26 329.139 274 329.139 276.22V286H324.039V276.91C324.039 275.79 323.749 274.92 323.169 274.3C322.589 273.68 321.809 273.37 320.829 273.37C319.849 273.37 319.069 273.68 318.489 274.3C317.909 274.92 317.619 275.79 317.619 276.91V286H312.489V263.8H317.619V271.51C318.139 270.77 318.849 270.18 319.749 269.74C320.649 269.3 321.659 269.08 322.779 269.08Z" fill="white"/>
<g filter="url(#filter1_d_3_24)">
<rect x="537" y="210" width="326" height="112" rx="31" fill="#0AD81D" fill-opacity="0.7" shape-rendering="crispEdges"/>
</g>
<path d="M660.75 259.94C662.97 259.94 664.91 260.38 666.57 261.26C668.23 262.14 669.51 263.38 670.41 264.98C671.33 266.56 671.79 268.39 671.79 270.47C671.79 272.53 671.33 274.36 670.41 275.96C669.51 277.56 668.22 278.8 666.54 279.68C664.88 280.56 662.95 281 660.75 281H652.86V259.94H660.75ZM660.42 276.56C662.36 276.56 663.87 276.03 664.95 274.97C666.03 273.91 666.57 272.41 666.57 270.47C666.57 268.53 666.03 267.02 664.95 265.94C663.87 264.86 662.36 264.32 660.42 264.32H657.99V276.56H660.42ZM690.437 272.36C690.437 272.84 690.407 273.34 690.347 273.86H678.737C678.817 274.9 679.147 275.7 679.727 276.26C680.327 276.8 681.057 277.07 681.917 277.07C683.197 277.07 684.087 276.53 684.587 275.45H690.047C689.767 276.55 689.257 277.54 688.517 278.42C687.797 279.3 686.887 279.99 685.787 280.49C684.687 280.99 683.457 281.24 682.097 281.24C680.457 281.24 678.997 280.89 677.717 280.19C676.437 279.49 675.437 278.49 674.717 277.19C673.997 275.89 673.637 274.37 673.637 272.63C673.637 270.89 673.987 269.37 674.687 268.07C675.407 266.77 676.407 265.77 677.687 265.07C678.967 264.37 680.437 264.02 682.097 264.02C683.717 264.02 685.157 264.36 686.417 265.04C687.677 265.72 688.657 266.69 689.357 267.95C690.077 269.21 690.437 270.68 690.437 272.36ZM685.187 271.01C685.187 270.13 684.887 269.43 684.287 268.91C683.687 268.39 682.937 268.13 682.037 268.13C681.177 268.13 680.447 268.38 679.847 268.88C679.267 269.38 678.907 270.09 678.767 271.01H685.187ZM701.543 268.52H698.783V281H693.653V268.52H691.793V264.26H693.653V263.78C693.653 261.72 694.243 260.16 695.423 259.1C696.603 258.02 698.333 257.48 700.613 257.48C700.993 257.48 701.273 257.49 701.453 257.51V261.86C700.473 261.8 699.783 261.94 699.383 262.28C698.983 262.62 698.783 263.23 698.783 264.11V264.26H701.543V268.52ZM706.534 262.52C705.634 262.52 704.894 262.26 704.314 261.74C703.754 261.2 703.474 260.54 703.474 259.76C703.474 258.96 703.754 258.3 704.314 257.78C704.894 257.24 705.634 256.97 706.534 256.97C707.414 256.97 708.134 257.24 708.694 257.78C709.274 258.3 709.564 258.96 709.564 259.76C709.564 260.54 709.274 261.2 708.694 261.74C708.134 262.26 707.414 262.52 706.534 262.52ZM709.084 264.26V281H703.954V264.26H709.084ZM723.001 264.08C724.961 264.08 726.521 264.72 727.681 266C728.861 267.26 729.451 269 729.451 271.22V281H724.351V271.91C724.351 270.79 724.061 269.92 723.481 269.3C722.901 268.68 722.121 268.37 721.141 268.37C720.161 268.37 719.381 268.68 718.801 269.3C718.221 269.92 717.931 270.79 717.931 271.91V281H712.801V264.26H717.931V266.48C718.451 265.74 719.151 265.16 720.031 264.74C720.911 264.3 721.901 264.08 723.001 264.08ZM748.796 272.36C748.796 272.84 748.766 273.34 748.706 273.86H737.096C737.176 274.9 737.506 275.7 738.086 276.26C738.686 276.8 739.416 277.07 740.276 277.07C741.556 277.07 742.446 276.53 742.946 275.45H748.406C748.126 276.55 747.616 277.54 746.876 278.42C746.156 279.3 745.246 279.99 744.146 280.49C743.046 280.99 741.816 281.24 740.456 281.24C738.816 281.24 737.356 280.89 736.076 280.19C734.796 279.49 733.796 278.49 733.076 277.19C732.356 275.89 731.996 274.37 731.996 272.63C731.996 270.89 732.346 269.37 733.046 268.07C733.766 266.77 734.766 265.77 736.046 265.07C737.326 264.37 738.796 264.02 740.456 264.02C742.076 264.02 743.516 264.36 744.776 265.04C746.036 265.72 747.016 266.69 747.716 267.95C748.436 269.21 748.796 270.68 748.796 272.36ZM743.546 271.01C743.546 270.13 743.246 269.43 742.646 268.91C742.046 268.39 741.296 268.13 740.396 268.13C739.536 268.13 738.806 268.38 738.206 268.88C737.626 269.38 737.266 270.09 737.126 271.01H743.546Z" fill="white"/>
<g filter="url(#filter2_d_3_24)">
<rect x="978" y="215" width="326" height="112" rx="31" fill="#0AD81D" fill-opacity="0.7" shape-rendering="crispEdges"/>
</g>
<path d="M1098.99 264.94V286H1093.86V264.94H1098.99ZM1101.69 277.6C1101.69 275.88 1102.01 274.37 1102.65 273.07C1103.31 271.77 1104.2 270.77 1105.32 270.07C1106.44 269.37 1107.69 269.02 1109.07 269.02C1110.17 269.02 1111.17 269.25 1112.07 269.71C1112.99 270.17 1113.71 270.79 1114.23 271.57V263.8H1119.36V286H1114.23V283.6C1113.75 284.4 1113.06 285.04 1112.16 285.52C1111.28 286 1110.25 286.24 1109.07 286.24C1107.69 286.24 1106.44 285.89 1105.32 285.19C1104.2 284.47 1103.31 283.46 1102.65 282.16C1102.01 280.84 1101.69 279.32 1101.69 277.6ZM1114.23 277.63C1114.23 276.35 1113.87 275.34 1113.15 274.6C1112.45 273.86 1111.59 273.49 1110.57 273.49C1109.55 273.49 1108.68 273.86 1107.96 274.6C1107.26 275.32 1106.91 276.32 1106.91 277.6C1106.91 278.88 1107.26 279.9 1107.96 280.66C1108.68 281.4 1109.55 281.77 1110.57 281.77C1111.59 281.77 1112.45 281.4 1113.15 280.66C1113.87 279.92 1114.23 278.91 1114.23 277.63ZM1138.85 277.36C1138.85 277.84 1138.82 278.34 1138.76 278.86H1127.15C1127.23 279.9 1127.56 280.7 1128.14 281.26C1128.74 281.8 1129.47 282.07 1130.33 282.07C1131.61 282.07 1132.5 281.53 1133 280.45H1138.46C1138.18 281.55 1137.67 282.54 1136.93 283.42C1136.21 284.3 1135.3 284.99 1134.2 285.49C1133.1 285.99 1131.87 286.24 1130.51 286.24C1128.87 286.24 1127.41 285.89 1126.13 285.19C1124.85 284.49 1123.85 283.49 1123.13 282.19C1122.41 280.89 1122.05 279.37 1122.05 277.63C1122.05 275.89 1122.4 274.37 1123.1 273.07C1123.82 271.77 1124.82 270.77 1126.1 270.07C1127.38 269.37 1128.85 269.02 1130.51 269.02C1132.13 269.02 1133.57 269.36 1134.83 270.04C1136.09 270.72 1137.07 271.69 1137.77 272.95C1138.49 274.21 1138.85 275.68 1138.85 277.36ZM1133.6 276.01C1133.6 275.13 1133.3 274.43 1132.7 273.91C1132.1 273.39 1131.35 273.13 1130.45 273.13C1129.59 273.13 1128.86 273.38 1128.26 273.88C1127.68 274.38 1127.32 275.09 1127.18 276.01H1133.6ZM1140.54 277.6C1140.54 275.88 1140.86 274.37 1141.5 273.07C1142.16 271.77 1143.05 270.77 1144.17 270.07C1145.29 269.37 1146.54 269.02 1147.92 269.02C1149.1 269.02 1150.13 269.26 1151.01 269.74C1151.91 270.22 1152.6 270.85 1153.08 271.63V269.26H1158.21V286H1153.08V283.63C1152.58 284.41 1151.88 285.04 1150.98 285.52C1150.1 286 1149.07 286.24 1147.89 286.24C1146.53 286.24 1145.29 285.89 1144.17 285.19C1143.05 284.47 1142.16 283.46 1141.5 282.16C1140.86 280.84 1140.54 279.32 1140.54 277.6ZM1153.08 277.63C1153.08 276.35 1152.72 275.34 1152 274.6C1151.3 273.86 1150.44 273.49 1149.42 273.49C1148.4 273.49 1147.53 273.86 1146.81 274.6C1146.11 275.32 1145.76 276.32 1145.76 277.6C1145.76 278.88 1146.11 279.9 1146.81 280.66C1147.53 281.4 1148.4 281.77 1149.42 281.77C1150.44 281.77 1151.3 281.4 1152 280.66C1152.72 279.92 1153.08 278.91 1153.08 277.63ZM1171.25 281.65V286H1168.64C1166.78 286 1165.33 285.55 1164.29 284.65C1163.25 283.73 1162.73 282.24 1162.73 280.18V273.52H1160.69V269.26H1162.73V265.18H1167.86V269.26H1171.22V273.52H1167.86V280.24C1167.86 280.74 1167.98 281.1 1168.22 281.32C1168.46 281.54 1168.86 281.65 1169.42 281.65H1171.25ZM1189.88 277.36C1189.88 277.84 1189.85 278.34 1189.79 278.86H1178.18C1178.26 279.9 1178.59 280.7 1179.17 281.26C1179.77 281.8 1180.5 282.07 1181.36 282.07C1182.64 282.07 1183.53 281.53 1184.03 280.45H1189.49C1189.21 281.55 1188.7 282.54 1187.96 283.42C1187.24 284.3 1186.33 284.99 1185.23 285.49C1184.13 285.99 1182.9 286.24 1181.54 286.24C1179.9 286.24 1178.44 285.89 1177.16 285.19C1175.88 284.49 1174.88 283.49 1174.16 282.19C1173.44 280.89 1173.08 279.37 1173.08 277.63C1173.08 275.89 1173.43 274.37 1174.13 273.07C1174.85 271.77 1175.85 270.77 1177.13 270.07C1178.41 269.37 1179.88 269.02 1181.54 269.02C1183.16 269.02 1184.6 269.36 1185.86 270.04C1187.12 270.72 1188.1 271.69 1188.8 272.95C1189.52 274.21 1189.88 275.68 1189.88 277.36ZM1184.63 276.01C1184.63 275.13 1184.33 274.43 1183.73 273.91C1183.13 273.39 1182.38 273.13 1181.48 273.13C1180.62 273.13 1179.89 273.38 1179.29 273.88C1178.71 274.38 1178.35 275.09 1178.21 276.01H1184.63Z" fill="white"/>
<g filter="url(#filter3_d_3_24)">
<rect x="1419" y="210" width="326" height="112" rx="31" fill="#0AD81D" fill-opacity="0.7" shape-rendering="crispEdges"/>
</g>
<path d="M1542.11 261.94C1544.33 261.94 1546.27 262.38 1547.93 263.26C1549.59 264.14 1550.87 265.38 1551.77 266.98C1552.69 268.56 1553.15 270.39 1553.15 272.47C1553.15 274.53 1552.69 276.36 1551.77 277.96C1550.87 279.56 1549.58 280.8 1547.9 281.68C1546.24 282.56 1544.31 283 1542.11 283H1534.22V261.94H1542.11ZM1541.78 278.56C1543.72 278.56 1545.23 278.03 1546.31 276.97C1547.39 275.91 1547.93 274.41 1547.93 272.47C1547.93 270.53 1547.39 269.02 1546.31 267.94C1545.23 266.86 1543.72 266.32 1541.78 266.32H1539.35V278.56H1541.78ZM1571.79 274.36C1571.79 274.84 1571.76 275.34 1571.7 275.86H1560.09C1560.17 276.9 1560.5 277.7 1561.08 278.26C1561.68 278.8 1562.41 279.07 1563.27 279.07C1564.55 279.07 1565.44 278.53 1565.94 277.45H1571.4C1571.12 278.55 1570.61 279.54 1569.87 280.42C1569.15 281.3 1568.24 281.99 1567.14 282.49C1566.04 282.99 1564.81 283.24 1563.45 283.24C1561.81 283.24 1560.35 282.89 1559.07 282.19C1557.79 281.49 1556.79 280.49 1556.07 279.19C1555.35 277.89 1554.99 276.37 1554.99 274.63C1554.99 272.89 1555.34 271.37 1556.04 270.07C1556.76 268.77 1557.76 267.77 1559.04 267.07C1560.32 266.37 1561.79 266.02 1563.45 266.02C1565.07 266.02 1566.51 266.36 1567.77 267.04C1569.03 267.72 1570.01 268.69 1570.71 269.95C1571.43 271.21 1571.79 272.68 1571.79 274.36ZM1566.54 273.01C1566.54 272.13 1566.24 271.43 1565.64 270.91C1565.04 270.39 1564.29 270.13 1563.39 270.13C1562.53 270.13 1561.8 270.38 1561.2 270.88C1560.62 271.38 1560.26 272.09 1560.12 273.01H1566.54ZM1581.31 283.24C1579.85 283.24 1578.55 282.99 1577.41 282.49C1576.27 281.99 1575.37 281.31 1574.71 280.45C1574.05 279.57 1573.68 278.59 1573.6 277.51H1578.67C1578.73 278.09 1579 278.56 1579.48 278.92C1579.96 279.28 1580.55 279.46 1581.25 279.46C1581.89 279.46 1582.38 279.34 1582.72 279.1C1583.08 278.84 1583.26 278.51 1583.26 278.11C1583.26 277.63 1583.01 277.28 1582.51 277.06C1582.01 276.82 1581.2 276.56 1580.08 276.28C1578.88 276 1577.88 275.71 1577.08 275.41C1576.28 275.09 1575.59 274.6 1575.01 273.94C1574.43 273.26 1574.14 272.35 1574.14 271.21C1574.14 270.25 1574.4 269.38 1574.92 268.6C1575.46 267.8 1576.24 267.17 1577.26 266.71C1578.3 266.25 1579.53 266.02 1580.95 266.02C1583.05 266.02 1584.7 266.54 1585.9 267.58C1587.12 268.62 1587.82 270 1588 271.72H1583.26C1583.18 271.14 1582.92 270.68 1582.48 270.34C1582.06 270 1581.5 269.83 1580.8 269.83C1580.2 269.83 1579.74 269.95 1579.42 270.19C1579.1 270.41 1578.94 270.72 1578.94 271.12C1578.94 271.6 1579.19 271.96 1579.69 272.2C1580.21 272.44 1581.01 272.68 1582.09 272.92C1583.33 273.24 1584.34 273.56 1585.12 273.88C1585.9 274.18 1586.58 274.68 1587.16 275.38C1587.76 276.06 1588.07 276.98 1588.09 278.14C1588.09 279.12 1587.81 280 1587.25 280.78C1586.71 281.54 1585.92 282.14 1584.88 282.58C1583.86 283.02 1582.67 283.24 1581.31 283.24ZM1593.81 264.52C1592.91 264.52 1592.17 264.26 1591.59 263.74C1591.03 263.2 1590.75 262.54 1590.75 261.76C1590.75 260.96 1591.03 260.3 1591.59 259.78C1592.17 259.24 1592.91 258.97 1593.81 258.97C1594.69 258.97 1595.41 259.24 1595.97 259.78C1596.55 260.3 1596.84 260.96 1596.84 261.76C1596.84 262.54 1596.55 263.2 1595.97 263.74C1595.41 264.26 1594.69 264.52 1593.81 264.52ZM1596.36 266.26V283H1591.23V266.26H1596.36ZM1606.44 266.02C1607.62 266.02 1608.65 266.26 1609.53 266.74C1610.43 267.22 1611.12 267.85 1611.6 268.63V266.26H1616.73V282.97C1616.73 284.51 1616.42 285.9 1615.8 287.14C1615.2 288.4 1614.27 289.4 1613.01 290.14C1611.77 290.88 1610.22 291.25 1608.36 291.25C1605.88 291.25 1603.87 290.66 1602.33 289.48C1600.79 288.32 1599.91 286.74 1599.69 284.74H1604.76C1604.92 285.38 1605.3 285.88 1605.9 286.24C1606.5 286.62 1607.24 286.81 1608.12 286.81C1609.18 286.81 1610.02 286.5 1610.64 285.88C1611.28 285.28 1611.6 284.31 1611.6 282.97V280.6C1611.1 281.38 1610.41 282.02 1609.53 282.52C1608.65 283 1607.62 283.24 1606.44 283.24C1605.06 283.24 1603.81 282.89 1602.69 282.19C1601.57 281.47 1600.68 280.46 1600.02 279.16C1599.38 277.84 1599.06 276.32 1599.06 274.6C1599.06 272.88 1599.38 271.37 1600.02 270.07C1600.68 268.77 1601.57 267.77 1602.69 267.07C1603.81 266.37 1605.06 266.02 1606.44 266.02ZM1611.6 274.63C1611.6 273.35 1611.24 272.34 1610.52 271.6C1609.82 270.86 1608.96 270.49 1607.94 270.49C1606.92 270.49 1606.05 270.86 1605.33 271.6C1604.63 272.32 1604.28 273.32 1604.28 274.6C1604.28 275.88 1604.63 276.9 1605.33 277.66C1606.05 278.4 1606.92 278.77 1607.94 278.77C1608.96 278.77 1609.82 278.4 1610.52 277.66C1611.24 276.92 1611.6 275.91 1611.6 274.63ZM1630.64 266.08C1632.6 266.08 1634.16 266.72 1635.32 268C1636.5 269.26 1637.09 271 1637.09 273.22V283H1631.99V273.91C1631.99 272.79 1631.7 271.92 1631.12 271.3C1630.54 270.68 1629.76 270.37 1628.78 270.37C1627.8 270.37 1627.02 270.68 1626.44 271.3C1625.86 271.92 1625.57 272.79 1625.57 273.91V283H1620.44V266.26H1625.57V268.48C1626.09 267.74 1626.79 267.16 1627.67 266.74C1628.55 266.3 1629.54 266.08 1630.64 266.08Z" fill="white"/>
<g filter="url(#filter4_d_3_24)">
<rect x="1860" y="204" width="326" height="112" rx="31" fill="#0AD81D" fill-opacity="0.7" shape-rendering="crispEdges"/>
</g>
<path d="M1900.9 253.94V266.54C1900.9 267.8 1901.21 268.77 1901.83 269.45C1902.45 270.13 1903.36 270.47 1904.56 270.47C1905.76 270.47 1906.68 270.13 1907.32 269.45C1907.96 268.77 1908.28 267.8 1908.28 266.54V253.94H1913.41V266.51C1913.41 268.39 1913.01 269.98 1912.21 271.28C1911.41 272.58 1910.33 273.56 1908.97 274.22C1907.63 274.88 1906.13 275.21 1904.47 275.21C1902.81 275.21 1901.32 274.89 1900 274.25C1898.7 273.59 1897.67 272.61 1896.91 271.31C1896.15 269.99 1895.77 268.39 1895.77 266.51V253.94H1900.9ZM1923.82 275.24C1922.36 275.24 1921.06 274.99 1919.92 274.49C1918.78 273.99 1917.88 273.31 1917.22 272.45C1916.56 271.57 1916.19 270.59 1916.11 269.51H1921.18C1921.24 270.09 1921.51 270.56 1921.99 270.92C1922.47 271.28 1923.06 271.46 1923.76 271.46C1924.4 271.46 1924.89 271.34 1925.23 271.1C1925.59 270.84 1925.77 270.51 1925.77 270.11C1925.77 269.63 1925.52 269.28 1925.02 269.06C1924.52 268.82 1923.71 268.56 1922.59 268.28C1921.39 268 1920.39 267.71 1919.59 267.41C1918.79 267.09 1918.1 266.6 1917.52 265.94C1916.94 265.26 1916.65 264.35 1916.65 263.21C1916.65 262.25 1916.91 261.38 1917.43 260.6C1917.97 259.8 1918.75 259.17 1919.77 258.71C1920.81 258.25 1922.04 258.02 1923.46 258.02C1925.56 258.02 1927.21 258.54 1928.41 259.58C1929.63 260.62 1930.33 262 1930.51 263.72H1925.77C1925.69 263.14 1925.43 262.68 1924.99 262.34C1924.57 262 1924.01 261.83 1923.31 261.83C1922.71 261.83 1922.25 261.95 1921.93 262.19C1921.61 262.41 1921.45 262.72 1921.45 263.12C1921.45 263.6 1921.7 263.96 1922.2 264.2C1922.72 264.44 1923.52 264.68 1924.6 264.92C1925.84 265.24 1926.85 265.56 1927.63 265.88C1928.41 266.18 1929.09 266.68 1929.67 267.38C1930.27 268.06 1930.58 268.98 1930.6 270.14C1930.6 271.12 1930.32 272 1929.76 272.78C1929.22 273.54 1928.43 274.14 1927.39 274.58C1926.37 275.02 1925.18 275.24 1923.82 275.24ZM1932.72 266.6C1932.72 264.88 1933.04 263.37 1933.68 262.07C1934.34 260.77 1935.23 259.77 1936.35 259.07C1937.47 258.37 1938.72 258.02 1940.1 258.02C1941.28 258.02 1942.31 258.26 1943.19 258.74C1944.09 259.22 1944.78 259.85 1945.26 260.63V258.26H1950.39V275H1945.26V272.63C1944.76 273.41 1944.06 274.04 1943.16 274.52C1942.28 275 1941.25 275.24 1940.07 275.24C1938.71 275.24 1937.47 274.89 1936.35 274.19C1935.23 273.47 1934.34 272.46 1933.68 271.16C1933.04 269.84 1932.72 268.32 1932.72 266.6ZM1945.26 266.63C1945.26 265.35 1944.9 264.34 1944.18 263.6C1943.48 262.86 1942.62 262.49 1941.6 262.49C1940.58 262.49 1939.71 262.86 1938.99 263.6C1938.29 264.32 1937.94 265.32 1937.94 266.6C1937.94 267.88 1938.29 268.9 1938.99 269.66C1939.71 270.4 1940.58 270.77 1941.6 270.77C1942.62 270.77 1943.48 270.4 1944.18 269.66C1944.9 268.92 1945.26 267.91 1945.26 266.63ZM1959.23 260.63C1959.71 259.85 1960.4 259.22 1961.3 258.74C1962.2 258.26 1963.23 258.02 1964.39 258.02C1965.77 258.02 1967.02 258.37 1968.14 259.07C1969.26 259.77 1970.14 260.77 1970.78 262.07C1971.44 263.37 1971.77 264.88 1971.77 266.6C1971.77 268.32 1971.44 269.84 1970.78 271.16C1970.14 272.46 1969.26 273.47 1968.14 274.19C1967.02 274.89 1965.77 275.24 1964.39 275.24C1963.21 275.24 1962.18 275.01 1961.3 274.55C1960.42 274.07 1959.73 273.44 1959.23 272.66V275H1954.1V252.8H1959.23V260.63ZM1966.55 266.6C1966.55 265.32 1966.19 264.32 1965.47 263.6C1964.77 262.86 1963.9 262.49 1962.86 262.49C1961.84 262.49 1960.97 262.86 1960.25 263.6C1959.55 264.34 1959.2 265.35 1959.2 266.63C1959.2 267.91 1959.55 268.92 1960.25 269.66C1960.97 270.4 1961.84 270.77 1962.86 270.77C1963.88 270.77 1964.75 270.4 1965.47 269.66C1966.19 268.9 1966.55 267.88 1966.55 266.6ZM1977.04 256.52C1976.14 256.52 1975.4 256.26 1974.82 255.74C1974.26 255.2 1973.98 254.54 1973.98 253.76C1973.98 252.96 1974.26 252.3 1974.82 251.78C1975.4 251.24 1976.14 250.97 1977.04 250.97C1977.92 250.97 1978.64 251.24 1979.2 251.78C1979.78 252.3 1980.07 252.96 1980.07 253.76C1980.07 254.54 1979.78 255.2 1979.2 255.74C1978.64 256.26 1977.92 256.52 1977.04 256.52ZM1979.59 258.26V275H1974.46V258.26H1979.59ZM1988.44 252.8V275H1983.31V252.8H1988.44ZM1994.74 256.52C1993.84 256.52 1993.1 256.26 1992.52 255.74C1991.96 255.2 1991.68 254.54 1991.68 253.76C1991.68 252.96 1991.96 252.3 1992.52 251.78C1993.1 251.24 1993.84 250.97 1994.74 250.97C1995.62 250.97 1996.34 251.24 1996.9 251.78C1997.48 252.3 1997.77 252.96 1997.77 253.76C1997.77 254.54 1997.48 255.2 1996.9 255.74C1996.34 256.26 1995.62 256.52 1994.74 256.52ZM1997.29 258.26V275H1992.16V258.26H1997.29ZM2010.34 270.65V275H2007.73C2005.87 275 2004.42 274.55 2003.38 273.65C2002.34 272.73 2001.82 271.24 2001.82 269.18V262.52H1999.78V258.26H2001.82V254.18H2006.95V258.26H2010.31V262.52H2006.95V269.24C2006.95 269.74 2007.07 270.1 2007.31 270.32C2007.55 270.54 2007.95 270.65 2008.51 270.65H2010.34ZM2030.29 258.26L2019.79 282.95H2014.27L2018.11 274.43L2011.3 258.26H2017.03L2020.9 268.73L2024.74 258.26H2030.29ZM2053.66 253.94V258.05H2048.08V275H2042.95V258.05H2037.37V253.94H2053.66ZM2072.01 266.36C2072.01 266.84 2071.98 267.34 2071.92 267.86H2060.31C2060.39 268.9 2060.72 269.7 2061.3 270.26C2061.9 270.8 2062.63 271.07 2063.49 271.07C2064.77 271.07 2065.66 270.53 2066.16 269.45H2071.62C2071.34 270.55 2070.83 271.54 2070.09 272.42C2069.37 273.3 2068.46 273.99 2067.36 274.49C2066.26 274.99 2065.03 275.24 2063.67 275.24C2062.03 275.24 2060.57 274.89 2059.29 274.19C2058.01 273.49 2057.01 272.49 2056.29 271.19C2055.57 269.89 2055.21 268.37 2055.21 266.63C2055.21 264.89 2055.56 263.37 2056.26 262.07C2056.98 260.77 2057.98 259.77 2059.26 259.07C2060.54 258.37 2062.01 258.02 2063.67 258.02C2065.29 258.02 2066.73 258.36 2067.99 259.04C2069.25 259.72 2070.23 260.69 2070.93 261.95C2071.65 263.21 2072.01 264.68 2072.01 266.36ZM2066.76 265.01C2066.76 264.13 2066.46 263.43 2065.86 262.91C2065.26 262.39 2064.51 262.13 2063.61 262.13C2062.75 262.13 2062.02 262.38 2061.42 262.88C2060.84 263.38 2060.48 264.09 2060.34 265.01H2066.76ZM2081.53 275.24C2080.07 275.24 2078.77 274.99 2077.63 274.49C2076.49 273.99 2075.59 273.31 2074.93 272.45C2074.27 271.57 2073.9 270.59 2073.82 269.51H2078.89C2078.95 270.09 2079.22 270.56 2079.7 270.92C2080.18 271.28 2080.77 271.46 2081.47 271.46C2082.11 271.46 2082.6 271.34 2082.94 271.1C2083.3 270.84 2083.48 270.51 2083.48 270.11C2083.48 269.63 2083.23 269.28 2082.73 269.06C2082.23 268.82 2081.42 268.56 2080.3 268.28C2079.1 268 2078.1 267.71 2077.3 267.41C2076.5 267.09 2075.81 266.6 2075.23 265.94C2074.65 265.26 2074.36 264.35 2074.36 263.21C2074.36 262.25 2074.62 261.38 2075.14 260.6C2075.68 259.8 2076.46 259.17 2077.48 258.71C2078.52 258.25 2079.75 258.02 2081.17 258.02C2083.27 258.02 2084.92 258.54 2086.12 259.58C2087.34 260.62 2088.04 262 2088.22 263.72H2083.48C2083.4 263.14 2083.14 262.68 2082.7 262.34C2082.28 262 2081.72 261.83 2081.02 261.83C2080.42 261.83 2079.96 261.95 2079.64 262.19C2079.32 262.41 2079.16 262.72 2079.16 263.12C2079.16 263.6 2079.41 263.96 2079.91 264.2C2080.43 264.44 2081.23 264.68 2082.31 264.92C2083.55 265.24 2084.56 265.56 2085.34 265.88C2086.12 266.18 2086.8 266.68 2087.38 267.38C2087.98 268.06 2088.29 268.98 2088.31 270.14C2088.31 271.12 2088.03 272 2087.47 272.78C2086.93 273.54 2086.14 274.14 2085.1 274.58C2084.08 275.02 2082.89 275.24 2081.53 275.24ZM2100.78 270.65V275H2098.17C2096.31 275 2094.86 274.55 2093.82 273.65C2092.78 272.73 2092.26 271.24 2092.26 269.18V262.52H2090.22V258.26H2092.26V254.18H2097.39V258.26H2100.75V262.52H2097.39V269.24C2097.39 269.74 2097.51 270.1 2097.75 270.32C2097.99 270.54 2098.39 270.65 2098.95 270.65H2100.78ZM2106.21 256.52C2105.31 256.52 2104.57 256.26 2103.99 255.74C2103.43 255.2 2103.15 254.54 2103.15 253.76C2103.15 252.96 2103.43 252.3 2103.99 251.78C2104.57 251.24 2105.31 250.97 2106.21 250.97C2107.09 250.97 2107.81 251.24 2108.37 251.78C2108.95 252.3 2109.24 252.96 2109.24 253.76C2109.24 254.54 2108.95 255.2 2108.37 255.74C2107.81 256.26 2107.09 256.52 2106.21 256.52ZM2108.76 258.26V275H2103.63V258.26H2108.76ZM2122.68 258.08C2124.64 258.08 2126.2 258.72 2127.36 260C2128.54 261.26 2129.13 263 2129.13 265.22V275H2124.03V265.91C2124.03 264.79 2123.74 263.92 2123.16 263.3C2122.58 262.68 2121.8 262.37 2120.82 262.37C2119.84 262.37 2119.06 262.68 2118.48 263.3C2117.9 263.92 2117.61 264.79 2117.61 265.91V275H2112.48V258.26H2117.61V260.48C2118.13 259.74 2118.83 259.16 2119.71 258.74C2120.59 258.3 2121.58 258.08 2122.68 258.08ZM2139.06 258.02C2140.24 258.02 2141.27 258.26 2142.15 258.74C2143.05 259.22 2143.74 259.85 2144.22 260.63V258.26H2149.35V274.97C2149.35 276.51 2149.04 277.9 2148.42 279.14C2147.82 280.4 2146.89 281.4 2145.63 282.14C2144.39 282.88 2142.84 283.25 2140.98 283.25C2138.5 283.25 2136.49 282.66 2134.95 281.48C2133.41 280.32 2132.53 278.74 2132.31 276.74H2137.38C2137.54 277.38 2137.92 277.88 2138.52 278.24C2139.12 278.62 2139.86 278.81 2140.74 278.81C2141.8 278.81 2142.64 278.5 2143.26 277.88C2143.9 277.28 2144.22 276.31 2144.22 274.97V272.6C2143.72 273.38 2143.03 274.02 2142.15 274.52C2141.27 275 2140.24 275.24 2139.06 275.24C2137.68 275.24 2136.43 274.89 2135.31 274.19C2134.19 273.47 2133.3 272.46 2132.64 271.16C2132 269.84 2131.68 268.32 2131.68 266.6C2131.68 264.88 2132 263.37 2132.64 262.07C2133.3 260.77 2134.19 259.77 2135.31 259.07C2136.43 258.37 2137.68 258.02 2139.06 258.02ZM2144.22 266.63C2144.22 265.35 2143.86 264.34 2143.14 263.6C2142.44 262.86 2141.58 262.49 2140.56 262.49C2139.54 262.49 2138.67 262.86 2137.95 263.6C2137.25 264.32 2136.9 265.32 2136.9 266.6C2136.9 267.88 2137.25 268.9 2137.95 269.66C2138.67 270.4 2139.54 270.77 2140.56 270.77C2141.58 270.77 2142.44 270.4 2143.14 269.66C2143.86 268.92 2144.22 267.91 2144.22 266.63Z" fill="white"/>
<defs>
<filter id="filter0_d_3_24" x="93" y="215" width="332" height="119" filterUnits="userSpaceOnUse" color-interpolation-filters="sRGB">
<feFlood flood-opacity="0" result="BackgroundImageFix"/>
<feColorMatrix in="SourceAlpha" type="matrix" values="0 0 0 0 0 0 0 0 0 0 0 0 0 0 0 0 0 0 127 0" result="hardAlpha"/>
<feOffset dy="4"/>
<feGaussianBlur stdDeviation="1.5"/>
<feComposite in2="hardAlpha" operator="out"/>
<feColorMatrix type="matrix" values="0 0 0 0 0.766667 0 0 0 0 1 0 0 0 0 0.788188 0 0 0 1 0"/>
<feBlend mode="normal" in2="BackgroundImageFix" result="effect1_dropShadow_3_24"/>
<feBlend mode="normal" in="SourceGraphic" in2="effect1_dropShadow_3_24" result="shape"/>
</filter>
<filter id="filter1_d_3_24" x="534" y="210" width="332" height="119" filterUnits="userSpaceOnUse" color-interpolation-filters="sRGB">
<feFlood flood-opacity="0" result="BackgroundImageFix"/>
<feColorMatrix in="SourceAlpha" type="matrix" values="0 0 0 0 0 0 0 0 0 0 0 0 0 0 0 0 0 0 127 0" result="hardAlpha"/>
<feOffset dy="4"/>
<feGaussianBlur stdDeviation="1.5"/>
<feComposite in2="hardAlpha" operator="out"/>
<feColorMatrix type="matrix" values="0 0 0 0 0.766667 0 0 0 0 1 0 0 0 0 0.788188 0 0 0 1 0"/>
<feBlend mode="normal" in2="BackgroundImageFix" result="effect1_dropShadow_3_24"/>
<feBlend mode="normal" in="SourceGraphic" in2="effect1_dropShadow_3_24" result="shape"/>
</filter>
<filter id="filter2_d_3_24" x="975" y="215" width="332" height="119" filterUnits="userSpaceOnUse" color-interpolation-filters="sRGB">
<feFlood flood-opacity="0" result="BackgroundImageFix"/>
<feColorMatrix in="SourceAlpha" type="matrix" values="0 0 0 0 0 0 0 0 0 0 0 0 0 0 0 0 0 0 127 0" result="hardAlpha"/>
<feOffset dy="4"/>
<feGaussianBlur stdDeviation="1.5"/>
<feComposite in2="hardAlpha" operator="out"/>
<feColorMatrix type="matrix" values="0 0 0 0 0.766667 0 0 0 0 1 0 0 0 0 0.788188 0 0 0 1 0"/>
<feBlend mode="normal" in2="BackgroundImageFix" result="effect1_dropShadow_3_24"/>
<feBlend mode="normal" in="SourceGraphic" in2="effect1_dropShadow_3_24" result="shape"/>
</filter>
<filter id="filter3_d_3_24" x="1416" y="210" width="332" height="119" filterUnits="userSpaceOnUse" color-interpolation-filters="sRGB">
<feFlood flood-opacity="0" result="BackgroundImageFix"/>
<feColorMatrix in="SourceAlpha" type="matrix" values="0 0 0 0 0 0 0 0 0 0 0 0 0 0 0 0 0 0 127 0" result="hardAlpha"/>
<feOffset dy="4"/>
<feGaussianBlur stdDeviation="1.5"/>
<feComposite in2="hardAlpha" operator="out"/>
<feColorMatrix type="matrix" values="0 0 0 0 0.766667 0 0 0 0 1 0 0 0 0 0.788188 0 0 0 1 0"/>
<feBlend mode="normal" in2="BackgroundImageFix" result="effect1_dropShadow_3_24"/>
<feBlend mode="normal" in="SourceGraphic" in2="effect1_dropShadow_3_24" result="shape"/>
</filter>
<filter id="filter4_d_3_24" x="1857" y="204" width="332" height="119" filterUnits="userSpaceOnUse" color-interpolation-filters="sRGB">
<feFlood flood-opacity="0" result="BackgroundImageFix"/>
<feColorMatrix in="SourceAlpha" type="matrix" values="0 0 0 0 0 0 0 0 0 0 0 0 0 0 0 0 0 0 127 0" result="hardAlpha"/>
<feOffset dy="4"/>
<feGaussianBlur stdDeviation="1.5"/>
<feComposite in2="hardAlpha" operator="out"/>
<feColorMatrix type="matrix" values="0 0 0 0 0.766667 0 0 0 0 1 0 0 0 0 0.788188 0 0 0 1 0"/>
<feBlend mode="normal" in2="BackgroundImageFix" result="effect1_dropShadow_3_24"/>
<feBlend mode="normal" in="SourceGraphic" in2="effect1_dropShadow_3_24" result="shape"/>
</filter>
</defs>
</svg>
