<svg width="2096" height="130" viewBox="0 0 2096 130" fill="none" xmlns="http://www.w3.org/2000/svg">
<rect x="347" y="56" width="79" height="12" rx="4" fill="#84EB8E"/>
<rect x="788" y="60" width="79" height="12" rx="4" fill="#84EB8E"/>
<rect x="1229" y="60" width="79" height="12" rx="4" fill="#84EB8E"/>
<rect x="1670" y="56" width="79" height="12" rx="4" fill="#84EB8E"/>
<g filter="url(#filter0_d_125_2)">
<rect x="3" y="11" width="326" height="112" rx="31" fill="#0AD81D" fill-opacity="0.7" shape-rendering="crispEdges"/>
</g>
<path d="M105.6 82L101.22 74.05H99.99V82H94.86V60.94H103.47C105.13 60.94 106.54 61.23 107.7 61.81C108.88 62.39 109.76 63.19 110.34 64.21C110.92 65.21 111.21 66.33 111.21 67.57C111.21 68.97 110.81 70.22 110.01 71.32C109.23 72.42 108.07 73.2 106.53 73.66L111.39 82H105.6ZM99.99 70.42H103.17C104.11 70.42 104.81 70.19 105.27 69.73C105.75 69.27 105.99 68.62 105.99 67.78C105.99 66.98 105.75 66.35 105.27 65.89C104.81 65.43 104.11 65.2 103.17 65.2H99.99V70.42ZM130.21 73.36C130.21 73.84 130.18 74.34 130.12 74.86H118.51C118.59 75.9 118.92 76.7 119.5 77.26C120.1 77.8 120.83 78.07 121.69 78.07C122.97 78.07 123.86 77.53 124.36 76.45H129.82C129.54 77.55 129.03 78.54 128.29 79.42C127.57 80.3 126.66 80.99 125.56 81.49C124.46 81.99 123.23 82.24 121.87 82.24C120.23 82.24 118.77 81.89 117.49 81.19C116.21 80.49 115.21 79.49 114.49 78.19C113.77 76.89 113.41 75.37 113.41 73.63C113.41 71.89 113.76 70.37 114.46 69.07C115.18 67.77 116.18 66.77 117.46 66.07C118.74 65.37 120.21 65.02 121.87 65.02C123.49 65.02 124.93 65.36 126.19 66.04C127.45 66.72 128.43 67.69 129.13 68.95C129.85 70.21 130.21 71.68 130.21 73.36ZM124.96 72.01C124.96 71.13 124.66 70.43 124.06 69.91C123.46 69.39 122.71 69.13 121.81 69.13C120.95 69.13 120.22 69.38 119.62 69.88C119.04 70.38 118.68 71.09 118.54 72.01H124.96ZM139.727 82.24C138.267 82.24 136.967 81.99 135.827 81.49C134.687 80.99 133.787 80.31 133.127 79.45C132.467 78.57 132.097 77.59 132.017 76.51H137.087C137.147 77.09 137.417 77.56 137.897 77.92C138.377 78.28 138.967 78.46 139.667 78.46C140.307 78.46 140.797 78.34 141.137 78.1C141.497 77.84 141.677 77.51 141.677 77.11C141.677 76.63 141.427 76.28 140.927 76.06C140.427 75.82 139.617 75.56 138.497 75.28C137.297 75 136.297 74.71 135.497 74.41C134.697 74.09 134.007 73.6 133.427 72.94C132.847 72.26 132.557 71.35 132.557 70.21C132.557 69.25 132.817 68.38 133.337 67.6C133.877 66.8 134.657 66.17 135.677 65.71C136.717 65.25 137.947 65.02 139.367 65.02C141.467 65.02 143.117 65.54 144.317 66.58C145.537 67.62 146.237 69 146.417 70.72H141.677C141.597 70.14 141.337 69.68 140.897 69.34C140.477 69 139.917 68.83 139.217 68.83C138.617 68.83 138.157 68.95 137.837 69.19C137.517 69.41 137.357 69.72 137.357 70.12C137.357 70.6 137.607 70.96 138.107 71.2C138.627 71.44 139.427 71.68 140.507 71.92C141.747 72.24 142.757 72.56 143.537 72.88C144.317 73.18 144.997 73.68 145.577 74.38C146.177 75.06 146.487 75.98 146.507 77.14C146.507 78.12 146.227 79 145.667 79.78C145.127 80.54 144.337 81.14 143.297 81.58C142.277 82.02 141.087 82.24 139.727 82.24ZM165.425 73.36C165.425 73.84 165.395 74.34 165.335 74.86H153.725C153.805 75.9 154.135 76.7 154.715 77.26C155.315 77.8 156.045 78.07 156.905 78.07C158.185 78.07 159.075 77.53 159.575 76.45H165.035C164.755 77.55 164.245 78.54 163.505 79.42C162.785 80.3 161.875 80.99 160.775 81.49C159.675 81.99 158.445 82.24 157.085 82.24C155.445 82.24 153.985 81.89 152.705 81.19C151.425 80.49 150.425 79.49 149.705 78.19C148.985 76.89 148.625 75.37 148.625 73.63C148.625 71.89 148.975 70.37 149.675 69.07C150.395 67.77 151.395 66.77 152.675 66.07C153.955 65.37 155.425 65.02 157.085 65.02C158.705 65.02 160.145 65.36 161.405 66.04C162.665 66.72 163.645 67.69 164.345 68.95C165.065 70.21 165.425 71.68 165.425 73.36ZM160.175 72.01C160.175 71.13 159.875 70.43 159.275 69.91C158.675 69.39 157.925 69.13 157.025 69.13C156.165 69.13 155.435 69.38 154.835 69.88C154.255 70.38 153.895 71.09 153.755 72.01H160.175ZM167.111 73.6C167.111 71.88 167.431 70.37 168.071 69.07C168.731 67.77 169.621 66.77 170.741 66.07C171.861 65.37 173.111 65.02 174.491 65.02C175.671 65.02 176.701 65.26 177.581 65.74C178.481 66.22 179.171 66.85 179.651 67.63V65.26H184.781V82H179.651V79.63C179.151 80.41 178.451 81.04 177.551 81.52C176.671 82 175.641 82.24 174.461 82.24C173.101 82.24 171.861 81.89 170.741 81.19C169.621 80.47 168.731 79.46 168.071 78.16C167.431 76.84 167.111 75.32 167.111 73.6ZM179.651 73.63C179.651 72.35 179.291 71.34 178.571 70.6C177.871 69.86 177.011 69.49 175.991 69.49C174.971 69.49 174.101 69.86 173.381 70.6C172.681 71.32 172.331 72.32 172.331 73.6C172.331 74.88 172.681 75.9 173.381 76.66C174.101 77.4 174.971 77.77 175.991 77.77C177.011 77.77 177.871 77.4 178.571 76.66C179.291 75.92 179.651 74.91 179.651 73.63ZM193.623 68.05C194.223 67.13 194.973 66.41 195.873 65.89C196.773 65.35 197.773 65.08 198.873 65.08V70.51H197.463C196.183 70.51 195.223 70.79 194.583 71.35C193.943 71.89 193.623 72.85 193.623 74.23V82H188.493V65.26H193.623V68.05ZM200.305 73.63C200.305 71.89 200.655 70.37 201.355 69.07C202.075 67.77 203.065 66.77 204.325 66.07C205.605 65.37 207.065 65.02 208.705 65.02C210.805 65.02 212.555 65.57 213.955 66.67C215.375 67.77 216.305 69.32 216.745 71.32H211.285C210.825 70.04 209.935 69.4 208.615 69.4C207.675 69.4 206.925 69.77 206.365 70.51C205.805 71.23 205.525 72.27 205.525 73.63C205.525 74.99 205.805 76.04 206.365 76.78C206.925 77.5 207.675 77.86 208.615 77.86C209.935 77.86 210.825 77.22 211.285 75.94H216.745C216.305 77.9 215.375 79.44 213.955 80.56C212.535 81.68 210.785 82.24 208.705 82.24C207.065 82.24 205.605 81.89 204.325 81.19C203.065 80.49 202.075 79.49 201.355 78.19C200.655 76.89 200.305 75.37 200.305 73.63ZM229.779 65.08C231.699 65.08 233.239 65.72 234.399 67C235.559 68.26 236.139 70 236.139 72.22V82H231.039V72.91C231.039 71.79 230.749 70.92 230.169 70.3C229.589 69.68 228.809 69.37 227.829 69.37C226.849 69.37 226.069 69.68 225.489 70.3C224.909 70.92 224.619 71.79 224.619 72.91V82H219.489V59.8H224.619V67.51C225.139 66.77 225.849 66.18 226.749 65.74C227.649 65.3 228.659 65.08 229.779 65.08Z" fill="white"/>
<g filter="url(#filter1_d_125_2)">
<rect x="444" y="6" width="326" height="112" rx="31" fill="#0AD81D" fill-opacity="0.7" shape-rendering="crispEdges"/>
</g>
<path d="M567.75 55.94C569.97 55.94 571.91 56.38 573.57 57.26C575.23 58.14 576.51 59.38 577.41 60.98C578.33 62.56 578.79 64.39 578.79 66.47C578.79 68.53 578.33 70.36 577.41 71.96C576.51 73.56 575.22 74.8 573.54 75.68C571.88 76.56 569.95 77 567.75 77H559.86V55.94H567.75ZM567.42 72.56C569.36 72.56 570.87 72.03 571.95 70.97C573.03 69.91 573.57 68.41 573.57 66.47C573.57 64.53 573.03 63.02 571.95 61.94C570.87 60.86 569.36 60.32 567.42 60.32H564.99V72.56H567.42ZM597.437 68.36C597.437 68.84 597.407 69.34 597.347 69.86H585.737C585.817 70.9 586.147 71.7 586.727 72.26C587.327 72.8 588.057 73.07 588.917 73.07C590.197 73.07 591.087 72.53 591.587 71.45H597.047C596.767 72.55 596.257 73.54 595.517 74.42C594.797 75.3 593.887 75.99 592.787 76.49C591.687 76.99 590.457 77.24 589.097 77.24C587.457 77.24 585.997 76.89 584.717 76.19C583.437 75.49 582.437 74.49 581.717 73.19C580.997 71.89 580.637 70.37 580.637 68.63C580.637 66.89 580.987 65.37 581.687 64.07C582.407 62.77 583.407 61.77 584.687 61.07C585.967 60.37 587.437 60.02 589.097 60.02C590.717 60.02 592.157 60.36 593.417 61.04C594.677 61.72 595.657 62.69 596.357 63.95C597.077 65.21 597.437 66.68 597.437 68.36ZM592.187 67.01C592.187 66.13 591.887 65.43 591.287 64.91C590.687 64.39 589.937 64.13 589.037 64.13C588.177 64.13 587.447 64.38 586.847 64.88C586.267 65.38 585.907 66.09 585.767 67.01H592.187ZM608.543 64.52H605.783V77H600.653V64.52H598.793V60.26H600.653V59.78C600.653 57.72 601.243 56.16 602.423 55.1C603.603 54.02 605.333 53.48 607.613 53.48C607.993 53.48 608.273 53.49 608.453 53.51V57.86C607.473 57.8 606.783 57.94 606.383 58.28C605.983 58.62 605.783 59.23 605.783 60.11V60.26H608.543V64.52ZM613.534 58.52C612.634 58.52 611.894 58.26 611.314 57.74C610.754 57.2 610.474 56.54 610.474 55.76C610.474 54.96 610.754 54.3 611.314 53.78C611.894 53.24 612.634 52.97 613.534 52.97C614.414 52.97 615.134 53.24 615.694 53.78C616.274 54.3 616.564 54.96 616.564 55.76C616.564 56.54 616.274 57.2 615.694 57.74C615.134 58.26 614.414 58.52 613.534 58.52ZM616.084 60.26V77H610.954V60.26H616.084ZM630.001 60.08C631.961 60.08 633.521 60.72 634.681 62C635.861 63.26 636.451 65 636.451 67.22V77H631.351V67.91C631.351 66.79 631.061 65.92 630.481 65.3C629.901 64.68 629.121 64.37 628.141 64.37C627.161 64.37 626.381 64.68 625.801 65.3C625.221 65.92 624.931 66.79 624.931 67.91V77H619.801V60.26H624.931V62.48C625.451 61.74 626.151 61.16 627.031 60.74C627.911 60.3 628.901 60.08 630.001 60.08ZM655.796 68.36C655.796 68.84 655.766 69.34 655.706 69.86H644.096C644.176 70.9 644.506 71.7 645.086 72.26C645.686 72.8 646.416 73.07 647.276 73.07C648.556 73.07 649.446 72.53 649.946 71.45H655.406C655.126 72.55 654.616 73.54 653.876 74.42C653.156 75.3 652.246 75.99 651.146 76.49C650.046 76.99 648.816 77.24 647.456 77.24C645.816 77.24 644.356 76.89 643.076 76.19C641.796 75.49 640.796 74.49 640.076 73.19C639.356 71.89 638.996 70.37 638.996 68.63C638.996 66.89 639.346 65.37 640.046 64.07C640.766 62.77 641.766 61.77 643.046 61.07C644.326 60.37 645.796 60.02 647.456 60.02C649.076 60.02 650.516 60.36 651.776 61.04C653.036 61.72 654.016 62.69 654.716 63.95C655.436 65.21 655.796 66.68 655.796 68.36ZM650.546 67.01C650.546 66.13 650.246 65.43 649.646 64.91C649.046 64.39 648.296 64.13 647.396 64.13C646.536 64.13 645.806 64.38 645.206 64.88C644.626 65.38 644.266 66.09 644.126 67.01H650.546Z" fill="white"/>
<g filter="url(#filter2_d_125_2)">
<rect x="885" y="11" width="326" height="112" rx="31" fill="#0AD81D" fill-opacity="0.7" shape-rendering="crispEdges"/>
</g>
<path d="M1005.99 60.94V82H1000.86V60.94H1005.99ZM1008.69 73.6C1008.69 71.88 1009.01 70.37 1009.65 69.07C1010.31 67.77 1011.2 66.77 1012.32 66.07C1013.44 65.37 1014.69 65.02 1016.07 65.02C1017.17 65.02 1018.17 65.25 1019.07 65.71C1019.99 66.17 1020.71 66.79 1021.23 67.57V59.8H1026.36V82H1021.23V79.6C1020.75 80.4 1020.06 81.04 1019.16 81.52C1018.28 82 1017.25 82.24 1016.07 82.24C1014.69 82.24 1013.44 81.89 1012.32 81.19C1011.2 80.47 1010.31 79.46 1009.65 78.16C1009.01 76.84 1008.69 75.32 1008.69 73.6ZM1021.23 73.63C1021.23 72.35 1020.87 71.34 1020.15 70.6C1019.45 69.86 1018.59 69.49 1017.57 69.49C1016.55 69.49 1015.68 69.86 1014.96 70.6C1014.26 71.32 1013.91 72.32 1013.91 73.6C1013.91 74.88 1014.26 75.9 1014.96 76.66C1015.68 77.4 1016.55 77.77 1017.57 77.77C1018.59 77.77 1019.45 77.4 1020.15 76.66C1020.87 75.92 1021.23 74.91 1021.23 73.63ZM1045.85 73.36C1045.85 73.84 1045.82 74.34 1045.76 74.86H1034.15C1034.23 75.9 1034.56 76.7 1035.14 77.26C1035.74 77.8 1036.47 78.07 1037.33 78.07C1038.61 78.07 1039.5 77.53 1040 76.45H1045.46C1045.18 77.55 1044.67 78.54 1043.93 79.42C1043.21 80.3 1042.3 80.99 1041.2 81.49C1040.1 81.99 1038.87 82.24 1037.51 82.24C1035.87 82.24 1034.41 81.89 1033.13 81.19C1031.85 80.49 1030.85 79.49 1030.13 78.19C1029.41 76.89 1029.05 75.37 1029.05 73.63C1029.05 71.89 1029.4 70.37 1030.1 69.07C1030.82 67.77 1031.82 66.77 1033.1 66.07C1034.38 65.37 1035.85 65.02 1037.51 65.02C1039.13 65.02 1040.57 65.36 1041.83 66.04C1043.09 66.72 1044.07 67.69 1044.77 68.95C1045.49 70.21 1045.85 71.68 1045.85 73.36ZM1040.6 72.01C1040.6 71.13 1040.3 70.43 1039.7 69.91C1039.1 69.39 1038.35 69.13 1037.45 69.13C1036.59 69.13 1035.86 69.38 1035.26 69.88C1034.68 70.38 1034.32 71.09 1034.18 72.01H1040.6ZM1047.54 73.6C1047.54 71.88 1047.86 70.37 1048.5 69.07C1049.16 67.77 1050.05 66.77 1051.17 66.07C1052.29 65.37 1053.54 65.02 1054.92 65.02C1056.1 65.02 1057.13 65.26 1058.01 65.74C1058.91 66.22 1059.6 66.85 1060.08 67.63V65.26H1065.21V82H1060.08V79.63C1059.58 80.41 1058.88 81.04 1057.98 81.52C1057.1 82 1056.07 82.24 1054.89 82.24C1053.53 82.24 1052.29 81.89 1051.17 81.19C1050.05 80.47 1049.16 79.46 1048.5 78.16C1047.86 76.84 1047.54 75.32 1047.54 73.6ZM1060.08 73.63C1060.08 72.35 1059.72 71.34 1059 70.6C1058.3 69.86 1057.44 69.49 1056.42 69.49C1055.4 69.49 1054.53 69.86 1053.81 70.6C1053.11 71.32 1052.76 72.32 1052.76 73.6C1052.76 74.88 1053.11 75.9 1053.81 76.66C1054.53 77.4 1055.4 77.77 1056.42 77.77C1057.44 77.77 1058.3 77.4 1059 76.66C1059.72 75.92 1060.08 74.91 1060.08 73.63ZM1078.25 77.65V82H1075.64C1073.78 82 1072.33 81.55 1071.29 80.65C1070.25 79.73 1069.73 78.24 1069.73 76.18V69.52H1067.69V65.26H1069.73V61.18H1074.86V65.26H1078.22V69.52H1074.86V76.24C1074.86 76.74 1074.98 77.1 1075.22 77.32C1075.46 77.54 1075.86 77.65 1076.42 77.65H1078.25ZM1096.88 73.36C1096.88 73.84 1096.85 74.34 1096.79 74.86H1085.18C1085.26 75.9 1085.59 76.7 1086.17 77.26C1086.77 77.8 1087.5 78.07 1088.36 78.07C1089.64 78.07 1090.53 77.53 1091.03 76.45H1096.49C1096.21 77.55 1095.7 78.54 1094.96 79.42C1094.24 80.3 1093.33 80.99 1092.23 81.49C1091.13 81.99 1089.9 82.24 1088.54 82.24C1086.9 82.24 1085.44 81.89 1084.16 81.19C1082.88 80.49 1081.88 79.49 1081.16 78.19C1080.44 76.89 1080.08 75.37 1080.08 73.63C1080.08 71.89 1080.43 70.37 1081.13 69.07C1081.85 67.77 1082.85 66.77 1084.13 66.07C1085.41 65.37 1086.88 65.02 1088.54 65.02C1090.16 65.02 1091.6 65.36 1092.86 66.04C1094.12 66.72 1095.1 67.69 1095.8 68.95C1096.52 70.21 1096.88 71.68 1096.88 73.36ZM1091.63 72.01C1091.63 71.13 1091.33 70.43 1090.73 69.91C1090.13 69.39 1089.38 69.13 1088.48 69.13C1087.62 69.13 1086.89 69.38 1086.29 69.88C1085.71 70.38 1085.35 71.09 1085.21 72.01H1091.63Z" fill="white"/>
<g filter="url(#filter3_d_125_2)">
<rect x="1326" y="6" width="326" height="112" rx="31" fill="#0AD81D" fill-opacity="0.7" shape-rendering="crispEdges"/>
</g>
<path d="M1449.11 57.94C1451.33 57.94 1453.27 58.38 1454.93 59.26C1456.59 60.14 1457.87 61.38 1458.77 62.98C1459.69 64.56 1460.15 66.39 1460.15 68.47C1460.15 70.53 1459.69 72.36 1458.77 73.96C1457.87 75.56 1456.58 76.8 1454.9 77.68C1453.24 78.56 1451.31 79 1449.11 79H1441.22V57.94H1449.11ZM1448.78 74.56C1450.72 74.56 1452.23 74.03 1453.31 72.97C1454.39 71.91 1454.93 70.41 1454.93 68.47C1454.93 66.53 1454.39 65.02 1453.31 63.94C1452.23 62.86 1450.72 62.32 1448.78 62.32H1446.35V74.56H1448.78ZM1478.79 70.36C1478.79 70.84 1478.76 71.34 1478.7 71.86H1467.09C1467.17 72.9 1467.5 73.7 1468.08 74.26C1468.68 74.8 1469.41 75.07 1470.27 75.07C1471.55 75.07 1472.44 74.53 1472.94 73.45H1478.4C1478.12 74.55 1477.61 75.54 1476.87 76.42C1476.15 77.3 1475.24 77.99 1474.14 78.49C1473.04 78.99 1471.81 79.24 1470.45 79.24C1468.81 79.24 1467.35 78.89 1466.07 78.19C1464.79 77.49 1463.79 76.49 1463.07 75.19C1462.35 73.89 1461.99 72.37 1461.99 70.63C1461.99 68.89 1462.34 67.37 1463.04 66.07C1463.76 64.77 1464.76 63.77 1466.04 63.07C1467.32 62.37 1468.79 62.02 1470.45 62.02C1472.07 62.02 1473.51 62.36 1474.77 63.04C1476.03 63.72 1477.01 64.69 1477.71 65.95C1478.43 67.21 1478.79 68.68 1478.79 70.36ZM1473.54 69.01C1473.54 68.13 1473.24 67.43 1472.64 66.91C1472.04 66.39 1471.29 66.13 1470.39 66.13C1469.53 66.13 1468.8 66.38 1468.2 66.88C1467.62 67.38 1467.26 68.09 1467.12 69.01H1473.54ZM1488.31 79.24C1486.85 79.24 1485.55 78.99 1484.41 78.49C1483.27 77.99 1482.37 77.31 1481.71 76.45C1481.05 75.57 1480.68 74.59 1480.6 73.51H1485.67C1485.73 74.09 1486 74.56 1486.48 74.92C1486.96 75.28 1487.55 75.46 1488.25 75.46C1488.89 75.46 1489.38 75.34 1489.72 75.1C1490.08 74.84 1490.26 74.51 1490.26 74.11C1490.26 73.63 1490.01 73.28 1489.51 73.06C1489.01 72.82 1488.2 72.56 1487.08 72.28C1485.88 72 1484.88 71.71 1484.08 71.41C1483.28 71.09 1482.59 70.6 1482.01 69.94C1481.43 69.26 1481.14 68.35 1481.14 67.21C1481.14 66.25 1481.4 65.38 1481.92 64.6C1482.46 63.8 1483.24 63.17 1484.26 62.71C1485.3 62.25 1486.53 62.02 1487.95 62.02C1490.05 62.02 1491.7 62.54 1492.9 63.58C1494.12 64.62 1494.82 66 1495 67.72H1490.26C1490.18 67.14 1489.92 66.68 1489.48 66.34C1489.06 66 1488.5 65.83 1487.8 65.83C1487.2 65.83 1486.74 65.95 1486.42 66.19C1486.1 66.41 1485.94 66.72 1485.94 67.12C1485.94 67.6 1486.19 67.96 1486.69 68.2C1487.21 68.44 1488.01 68.68 1489.09 68.92C1490.33 69.24 1491.34 69.56 1492.12 69.88C1492.9 70.18 1493.58 70.68 1494.16 71.38C1494.76 72.06 1495.07 72.98 1495.09 74.14C1495.09 75.12 1494.81 76 1494.25 76.78C1493.71 77.54 1492.92 78.14 1491.88 78.58C1490.86 79.02 1489.67 79.24 1488.31 79.24ZM1500.81 60.52C1499.91 60.52 1499.17 60.26 1498.59 59.74C1498.03 59.2 1497.75 58.54 1497.75 57.76C1497.75 56.96 1498.03 56.3 1498.59 55.78C1499.17 55.24 1499.91 54.97 1500.81 54.97C1501.69 54.97 1502.41 55.24 1502.97 55.78C1503.55 56.3 1503.84 56.96 1503.84 57.76C1503.84 58.54 1503.55 59.2 1502.97 59.74C1502.41 60.26 1501.69 60.52 1500.81 60.52ZM1503.36 62.26V79H1498.23V62.26H1503.36ZM1513.44 62.02C1514.62 62.02 1515.65 62.26 1516.53 62.74C1517.43 63.22 1518.12 63.85 1518.6 64.63V62.26H1523.73V78.97C1523.73 80.51 1523.42 81.9 1522.8 83.14C1522.2 84.4 1521.27 85.4 1520.01 86.14C1518.77 86.88 1517.22 87.25 1515.36 87.25C1512.88 87.25 1510.87 86.66 1509.33 85.48C1507.79 84.32 1506.91 82.74 1506.69 80.74H1511.76C1511.92 81.38 1512.3 81.88 1512.9 82.24C1513.5 82.62 1514.24 82.81 1515.12 82.81C1516.18 82.81 1517.02 82.5 1517.64 81.88C1518.28 81.28 1518.6 80.31 1518.6 78.97V76.6C1518.1 77.38 1517.41 78.02 1516.53 78.52C1515.65 79 1514.62 79.24 1513.44 79.24C1512.06 79.24 1510.81 78.89 1509.69 78.19C1508.57 77.47 1507.68 76.46 1507.02 75.16C1506.38 73.84 1506.06 72.32 1506.06 70.6C1506.06 68.88 1506.38 67.37 1507.02 66.07C1507.68 64.77 1508.57 63.77 1509.69 63.07C1510.81 62.37 1512.06 62.02 1513.44 62.02ZM1518.6 70.63C1518.6 69.35 1518.24 68.34 1517.52 67.6C1516.82 66.86 1515.96 66.49 1514.94 66.49C1513.92 66.49 1513.05 66.86 1512.33 67.6C1511.63 68.32 1511.28 69.32 1511.28 70.6C1511.28 71.88 1511.63 72.9 1512.33 73.66C1513.05 74.4 1513.92 74.77 1514.94 74.77C1515.96 74.77 1516.82 74.4 1517.52 73.66C1518.24 72.92 1518.6 71.91 1518.6 70.63ZM1537.64 62.08C1539.6 62.08 1541.16 62.72 1542.32 64C1543.5 65.26 1544.09 67 1544.09 69.22V79H1538.99V69.91C1538.99 68.79 1538.7 67.92 1538.12 67.3C1537.54 66.68 1536.76 66.37 1535.78 66.37C1534.8 66.37 1534.02 66.68 1533.44 67.3C1532.86 67.92 1532.57 68.79 1532.57 69.91V79H1527.44V62.26H1532.57V64.48C1533.09 63.74 1533.79 63.16 1534.67 62.74C1535.55 62.3 1536.54 62.08 1537.64 62.08Z" fill="white"/>
<g filter="url(#filter4_d_125_2)">
<rect x="1767" width="326" height="112" rx="31" fill="#0AD81D" fill-opacity="0.7" shape-rendering="crispEdges"/>
</g>
<path d="M1807.9 49.94V62.54C1807.9 63.8 1808.21 64.77 1808.83 65.45C1809.45 66.13 1810.36 66.47 1811.56 66.47C1812.76 66.47 1813.68 66.13 1814.32 65.45C1814.96 64.77 1815.28 63.8 1815.28 62.54V49.94H1820.41V62.51C1820.41 64.39 1820.01 65.98 1819.21 67.28C1818.41 68.58 1817.33 69.56 1815.97 70.22C1814.63 70.88 1813.13 71.21 1811.47 71.21C1809.81 71.21 1808.32 70.89 1807 70.25C1805.7 69.59 1804.67 68.61 1803.91 67.31C1803.15 65.99 1802.77 64.39 1802.77 62.51V49.94H1807.9ZM1830.82 71.24C1829.36 71.24 1828.06 70.99 1826.92 70.49C1825.78 69.99 1824.88 69.31 1824.22 68.45C1823.56 67.57 1823.19 66.59 1823.11 65.51H1828.18C1828.24 66.09 1828.51 66.56 1828.99 66.92C1829.47 67.28 1830.06 67.46 1830.76 67.46C1831.4 67.46 1831.89 67.34 1832.23 67.1C1832.59 66.84 1832.77 66.51 1832.77 66.11C1832.77 65.63 1832.52 65.28 1832.02 65.06C1831.52 64.82 1830.71 64.56 1829.59 64.28C1828.39 64 1827.39 63.71 1826.59 63.41C1825.79 63.09 1825.1 62.6 1824.52 61.94C1823.94 61.26 1823.65 60.35 1823.65 59.21C1823.65 58.25 1823.91 57.38 1824.43 56.6C1824.97 55.8 1825.75 55.17 1826.77 54.71C1827.81 54.25 1829.04 54.02 1830.46 54.02C1832.56 54.02 1834.21 54.54 1835.41 55.58C1836.63 56.62 1837.33 58 1837.51 59.72H1832.77C1832.69 59.14 1832.43 58.68 1831.99 58.34C1831.57 58 1831.01 57.83 1830.31 57.83C1829.71 57.83 1829.25 57.95 1828.93 58.19C1828.61 58.41 1828.45 58.72 1828.45 59.12C1828.45 59.6 1828.7 59.96 1829.2 60.2C1829.72 60.44 1830.52 60.68 1831.6 60.92C1832.84 61.24 1833.85 61.56 1834.63 61.88C1835.41 62.18 1836.09 62.68 1836.67 63.38C1837.27 64.06 1837.58 64.98 1837.6 66.14C1837.6 67.12 1837.32 68 1836.76 68.78C1836.22 69.54 1835.43 70.14 1834.39 70.58C1833.37 71.02 1832.18 71.24 1830.82 71.24ZM1839.72 62.6C1839.72 60.88 1840.04 59.37 1840.68 58.07C1841.34 56.77 1842.23 55.77 1843.35 55.07C1844.47 54.37 1845.72 54.02 1847.1 54.02C1848.28 54.02 1849.31 54.26 1850.19 54.74C1851.09 55.22 1851.78 55.85 1852.26 56.63V54.26H1857.39V71H1852.26V68.63C1851.76 69.41 1851.06 70.04 1850.16 70.52C1849.28 71 1848.25 71.24 1847.07 71.24C1845.71 71.24 1844.47 70.89 1843.35 70.19C1842.23 69.47 1841.34 68.46 1840.68 67.16C1840.04 65.84 1839.72 64.32 1839.72 62.6ZM1852.26 62.63C1852.26 61.35 1851.9 60.34 1851.18 59.6C1850.48 58.86 1849.62 58.49 1848.6 58.49C1847.58 58.49 1846.71 58.86 1845.99 59.6C1845.29 60.32 1844.94 61.32 1844.94 62.6C1844.94 63.88 1845.29 64.9 1845.99 65.66C1846.71 66.4 1847.58 66.77 1848.6 66.77C1849.62 66.77 1850.48 66.4 1851.18 65.66C1851.9 64.92 1852.26 63.91 1852.26 62.63ZM1866.23 56.63C1866.71 55.85 1867.4 55.22 1868.3 54.74C1869.2 54.26 1870.23 54.02 1871.39 54.02C1872.77 54.02 1874.02 54.37 1875.14 55.07C1876.26 55.77 1877.14 56.77 1877.78 58.07C1878.44 59.37 1878.77 60.88 1878.77 62.6C1878.77 64.32 1878.44 65.84 1877.78 67.16C1877.14 68.46 1876.26 69.47 1875.14 70.19C1874.02 70.89 1872.77 71.24 1871.39 71.24C1870.21 71.24 1869.18 71.01 1868.3 70.55C1867.42 70.07 1866.73 69.44 1866.23 68.66V71H1861.1V48.8H1866.23V56.63ZM1873.55 62.6C1873.55 61.32 1873.19 60.32 1872.47 59.6C1871.77 58.86 1870.9 58.49 1869.86 58.49C1868.84 58.49 1867.97 58.86 1867.25 59.6C1866.55 60.34 1866.2 61.35 1866.2 62.63C1866.2 63.91 1866.55 64.92 1867.25 65.66C1867.97 66.4 1868.84 66.77 1869.86 66.77C1870.88 66.77 1871.75 66.4 1872.47 65.66C1873.19 64.9 1873.55 63.88 1873.55 62.6ZM1884.04 52.52C1883.14 52.52 1882.4 52.26 1881.82 51.74C1881.26 51.2 1880.98 50.54 1880.98 49.76C1880.98 48.96 1881.26 48.3 1881.82 47.78C1882.4 47.24 1883.14 46.97 1884.04 46.97C1884.92 46.97 1885.64 47.24 1886.2 47.78C1886.78 48.3 1887.07 48.96 1887.07 49.76C1887.07 50.54 1886.78 51.2 1886.2 51.74C1885.64 52.26 1884.92 52.52 1884.04 52.52ZM1886.59 54.26V71H1881.46V54.26H1886.59ZM1895.44 48.8V71H1890.31V48.8H1895.44ZM1901.74 52.52C1900.84 52.52 1900.1 52.26 1899.52 51.74C1898.96 51.2 1898.68 50.54 1898.68 49.76C1898.68 48.96 1898.96 48.3 1899.52 47.78C1900.1 47.24 1900.84 46.97 1901.74 46.97C1902.62 46.97 1903.34 47.24 1903.9 47.78C1904.48 48.3 1904.77 48.96 1904.77 49.76C1904.77 50.54 1904.48 51.2 1903.9 51.74C1903.34 52.26 1902.62 52.52 1901.74 52.52ZM1904.29 54.26V71H1899.16V54.26H1904.29ZM1917.34 66.65V71H1914.73C1912.87 71 1911.42 70.55 1910.38 69.65C1909.34 68.73 1908.82 67.24 1908.82 65.18V58.52H1906.78V54.26H1908.82V50.18H1913.95V54.26H1917.31V58.52H1913.95V65.24C1913.95 65.74 1914.07 66.1 1914.31 66.32C1914.55 66.54 1914.95 66.65 1915.51 66.65H1917.34ZM1937.29 54.26L1926.79 78.95H1921.27L1925.11 70.43L1918.3 54.26H1924.03L1927.9 64.73L1931.74 54.26H1937.29ZM1960.66 49.94V54.05H1955.08V71H1949.95V54.05H1944.37V49.94H1960.66ZM1979.01 62.36C1979.01 62.84 1978.98 63.34 1978.92 63.86H1967.31C1967.39 64.9 1967.72 65.7 1968.3 66.26C1968.9 66.8 1969.63 67.07 1970.49 67.07C1971.77 67.07 1972.66 66.53 1973.16 65.45H1978.62C1978.34 66.55 1977.83 67.54 1977.09 68.42C1976.37 69.3 1975.46 69.99 1974.36 70.49C1973.26 70.99 1972.03 71.24 1970.67 71.24C1969.03 71.24 1967.57 70.89 1966.29 70.19C1965.01 69.49 1964.01 68.49 1963.29 67.19C1962.57 65.89 1962.21 64.37 1962.21 62.63C1962.21 60.89 1962.56 59.37 1963.26 58.07C1963.98 56.77 1964.98 55.77 1966.26 55.07C1967.54 54.37 1969.01 54.02 1970.67 54.02C1972.29 54.02 1973.73 54.36 1974.99 55.04C1976.25 55.72 1977.23 56.69 1977.93 57.95C1978.65 59.21 1979.01 60.68 1979.01 62.36ZM1973.76 61.01C1973.76 60.13 1973.46 59.43 1972.86 58.91C1972.26 58.39 1971.51 58.13 1970.61 58.13C1969.75 58.13 1969.02 58.38 1968.42 58.88C1967.84 59.38 1967.48 60.09 1967.34 61.01H1973.76ZM1988.53 71.24C1987.07 71.24 1985.77 70.99 1984.63 70.49C1983.49 69.99 1982.59 69.31 1981.93 68.45C1981.27 67.57 1980.9 66.59 1980.82 65.51H1985.89C1985.95 66.09 1986.22 66.56 1986.7 66.92C1987.18 67.28 1987.77 67.46 1988.47 67.46C1989.11 67.46 1989.6 67.34 1989.94 67.1C1990.3 66.84 1990.48 66.51 1990.48 66.11C1990.48 65.63 1990.23 65.28 1989.73 65.06C1989.23 64.82 1988.42 64.56 1987.3 64.28C1986.1 64 1985.1 63.71 1984.3 63.41C1983.5 63.09 1982.81 62.6 1982.23 61.94C1981.65 61.26 1981.36 60.35 1981.36 59.21C1981.36 58.25 1981.62 57.38 1982.14 56.6C1982.68 55.8 1983.46 55.17 1984.48 54.71C1985.52 54.25 1986.75 54.02 1988.17 54.02C1990.27 54.02 1991.92 54.54 1993.12 55.58C1994.34 56.62 1995.04 58 1995.22 59.72H1990.48C1990.4 59.14 1990.14 58.68 1989.7 58.34C1989.28 58 1988.72 57.83 1988.02 57.83C1987.42 57.83 1986.96 57.95 1986.64 58.19C1986.32 58.41 1986.16 58.72 1986.16 59.12C1986.16 59.6 1986.41 59.96 1986.91 60.2C1987.43 60.44 1988.23 60.68 1989.31 60.92C1990.55 61.24 1991.56 61.56 1992.34 61.88C1993.12 62.18 1993.8 62.68 1994.38 63.38C1994.98 64.06 1995.29 64.98 1995.31 66.14C1995.31 67.12 1995.03 68 1994.47 68.78C1993.93 69.54 1993.14 70.14 1992.1 70.58C1991.08 71.02 1989.89 71.24 1988.53 71.24ZM2007.78 66.65V71H2005.17C2003.31 71 2001.86 70.55 2000.82 69.65C1999.78 68.73 1999.26 67.24 1999.26 65.18V58.52H1997.22V54.26H1999.26V50.18H2004.39V54.26H2007.75V58.52H2004.39V65.24C2004.39 65.74 2004.51 66.1 2004.75 66.32C2004.99 66.54 2005.39 66.65 2005.95 66.65H2007.78ZM2013.21 52.52C2012.31 52.52 2011.57 52.26 2010.99 51.74C2010.43 51.2 2010.15 50.54 2010.15 49.76C2010.15 48.96 2010.43 48.3 2010.99 47.78C2011.57 47.24 2012.31 46.97 2013.21 46.97C2014.09 46.97 2014.81 47.24 2015.37 47.78C2015.95 48.3 2016.24 48.96 2016.24 49.76C2016.24 50.54 2015.95 51.2 2015.37 51.74C2014.81 52.26 2014.09 52.52 2013.21 52.52ZM2015.76 54.26V71H2010.63V54.26H2015.76ZM2029.68 54.08C2031.64 54.08 2033.2 54.72 2034.36 56C2035.54 57.26 2036.13 59 2036.13 61.22V71H2031.03V61.91C2031.03 60.79 2030.74 59.92 2030.16 59.3C2029.58 58.68 2028.8 58.37 2027.82 58.37C2026.84 58.37 2026.06 58.68 2025.48 59.3C2024.9 59.92 2024.61 60.79 2024.61 61.91V71H2019.48V54.26H2024.61V56.48C2025.13 55.74 2025.83 55.16 2026.71 54.74C2027.59 54.3 2028.58 54.08 2029.68 54.08ZM2046.06 54.02C2047.24 54.02 2048.27 54.26 2049.15 54.74C2050.05 55.22 2050.74 55.85 2051.22 56.63V54.26H2056.35V70.97C2056.35 72.51 2056.04 73.9 2055.42 75.14C2054.82 76.4 2053.89 77.4 2052.63 78.14C2051.39 78.88 2049.84 79.25 2047.98 79.25C2045.5 79.25 2043.49 78.66 2041.95 77.48C2040.41 76.32 2039.53 74.74 2039.31 72.74H2044.38C2044.54 73.38 2044.92 73.88 2045.52 74.24C2046.12 74.62 2046.86 74.81 2047.74 74.81C2048.8 74.81 2049.64 74.5 2050.26 73.88C2050.9 73.28 2051.22 72.31 2051.22 70.97V68.6C2050.72 69.38 2050.03 70.02 2049.15 70.52C2048.27 71 2047.24 71.24 2046.06 71.24C2044.68 71.24 2043.43 70.89 2042.31 70.19C2041.19 69.47 2040.3 68.46 2039.64 67.16C2039 65.84 2038.68 64.32 2038.68 62.6C2038.68 60.88 2039 59.37 2039.64 58.07C2040.3 56.77 2041.19 55.77 2042.31 55.07C2043.43 54.37 2044.68 54.02 2046.06 54.02ZM2051.22 62.63C2051.22 61.35 2050.86 60.34 2050.14 59.6C2049.44 58.86 2048.58 58.49 2047.56 58.49C2046.54 58.49 2045.67 58.86 2044.95 59.6C2044.25 60.32 2043.9 61.32 2043.9 62.6C2043.9 63.88 2044.25 64.9 2044.95 65.66C2045.67 66.4 2046.54 66.77 2047.56 66.77C2048.58 66.77 2049.44 66.4 2050.14 65.66C2050.86 64.92 2051.22 63.91 2051.22 62.63Z" fill="white"/>
<defs>
<filter id="filter0_d_125_2" x="0" y="11" width="332" height="119" filterUnits="userSpaceOnUse" color-interpolation-filters="sRGB">
<feFlood flood-opacity="0" result="BackgroundImageFix"/>
<feColorMatrix in="SourceAlpha" type="matrix" values="0 0 0 0 0 0 0 0 0 0 0 0 0 0 0 0 0 0 127 0" result="hardAlpha"/>
<feOffset dy="4"/>
<feGaussianBlur stdDeviation="1.5"/>
<feComposite in2="hardAlpha" operator="out"/>
<feColorMatrix type="matrix" values="0 0 0 0 0.766667 0 0 0 0 1 0 0 0 0 0.788188 0 0 0 1 0"/>
<feBlend mode="normal" in2="BackgroundImageFix" result="effect1_dropShadow_125_2"/>
<feBlend mode="normal" in="SourceGraphic" in2="effect1_dropShadow_125_2" result="shape"/>
</filter>
<filter id="filter1_d_125_2" x="441" y="6" width="332" height="119" filterUnits="userSpaceOnUse" color-interpolation-filters="sRGB">
<feFlood flood-opacity="0" result="BackgroundImageFix"/>
<feColorMatrix in="SourceAlpha" type="matrix" values="0 0 0 0 0 0 0 0 0 0 0 0 0 0 0 0 0 0 127 0" result="hardAlpha"/>
<feOffset dy="4"/>
<feGaussianBlur stdDeviation="1.5"/>
<feComposite in2="hardAlpha" operator="out"/>
<feColorMatrix type="matrix" values="0 0 0 0 0.766667 0 0 0 0 1 0 0 0 0 0.788188 0 0 0 1 0"/>
<feBlend mode="normal" in2="BackgroundImageFix" result="effect1_dropShadow_125_2"/>
<feBlend mode="normal" in="SourceGraphic" in2="effect1_dropShadow_125_2" result="shape"/>
</filter>
<filter id="filter2_d_125_2" x="882" y="11" width="332" height="119" filterUnits="userSpaceOnUse" color-interpolation-filters="sRGB">
<feFlood flood-opacity="0" result="BackgroundImageFix"/>
<feColorMatrix in="SourceAlpha" type="matrix" values="0 0 0 0 0 0 0 0 0 0 0 0 0 0 0 0 0 0 127 0" result="hardAlpha"/>
<feOffset dy="4"/>
<feGaussianBlur stdDeviation="1.5"/>
<feComposite in2="hardAlpha" operator="out"/>
<feColorMatrix type="matrix" values="0 0 0 0 0.766667 0 0 0 0 1 0 0 0 0 0.788188 0 0 0 1 0"/>
<feBlend mode="normal" in2="BackgroundImageFix" result="effect1_dropShadow_125_2"/>
<feBlend mode="normal" in="SourceGraphic" in2="effect1_dropShadow_125_2" result="shape"/>
</filter>
<filter id="filter3_d_125_2" x="1323" y="6" width="332" height="119" filterUnits="userSpaceOnUse" color-interpolation-filters="sRGB">
<feFlood flood-opacity="0" result="BackgroundImageFix"/>
<feColorMatrix in="SourceAlpha" type="matrix" values="0 0 0 0 0 0 0 0 0 0 0 0 0 0 0 0 0 0 127 0" result="hardAlpha"/>
<feOffset dy="4"/>
<feGaussianBlur stdDeviation="1.5"/>
<feComposite in2="hardAlpha" operator="out"/>
<feColorMatrix type="matrix" values="0 0 0 0 0.766667 0 0 0 0 1 0 0 0 0 0.788188 0 0 0 1 0"/>
<feBlend mode="normal" in2="BackgroundImageFix" result="effect1_dropShadow_125_2"/>
<feBlend mode="normal" in="SourceGraphic" in2="effect1_dropShadow_125_2" result="shape"/>
</filter>
<filter id="filter4_d_125_2" x="1764" y="0" width="332" height="119" filterUnits="userSpaceOnUse" color-interpolation-filters="sRGB">
<feFlood flood-opacity="0" result="BackgroundImageFix"/>
<feColorMatrix in="SourceAlpha" type="matrix" values="0 0 0 0 0 0 0 0 0 0 0 0 0 0 0 0 0 0 127 0" result="hardAlpha"/>
<feOffset dy="4"/>
<feGaussianBlur stdDeviation="1.5"/>
<feComposite in2="hardAlpha" operator="out"/>
<feColorMatrix type="matrix" values="0 0 0 0 0.766667 0 0 0 0 1 0 0 0 0 0.788188 0 0 0 1 0"/>
<feBlend mode="normal" in2="BackgroundImageFix" result="effect1_dropShadow_125_2"/>
<feBlend mode="normal" in="SourceGraphic" in2="effect1_dropShadow_125_2" result="shape"/>
</filter>
</defs>
</svg>
