<svg xmlns="http://www.w3.org/2000/svg" xmlns:xlink="http://www.w3.org/1999/xlink" width="1920" height="1455" viewBox="0 0 1920 1455"><defs><style>.a{clip-path:url(#ap);}.b,.g,.i{stroke:#707070;}.c{fill:rgba(0,0,0,0.95);}.d{fill:rgba(255,255,255,0.72);stroke:#000;stroke-width:12px;}.e{font-size:60px;}.e,.j{font-family:Gumbo-Bold, Gumbo;font-weight:700;}.f,.g,.h{fill:#fff;}.f{font-size:40px;font-family:Poppins-Regular, Poppins;}.i,.l{fill:none;}.j{font-size:90px;}.k{stroke:none;}.m{filter:url(#al);}.n{filter:url(#aj);}.o{filter:url(#ag);}.p{filter:url(#ae);}.q{filter:url(#ab);}.r{filter:url(#z);}.s{filter:url(#w);}.t{filter:url(#u);}.u{filter:url(#r);}.v{filter:url(#p);}.w{filter:url(#m);}.x{filter:url(#k);}.y{filter:url(#h);}.z{filter:url(#f);}.aa{filter:url(#c);}.ab{filter:url(#a);}</style><filter id="a" x="1127" y="129" width="110" height="1081" filterUnits="userSpaceOnUse"><feOffset dy="3" input="SourceAlpha"/><feGaussianBlur stdDeviation="3" result="b"/><feFlood flood-opacity="0.161"/><feComposite operator="in" in2="b"/></filter><filter id="c" x="1127" y="129" width="110" height="1081" filterUnits="userSpaceOnUse"><feOffset dy="3" input="SourceAlpha"/><feGaussianBlur stdDeviation="3" result="d"/><feFlood flood-opacity="0.161" result="e"/><feComposite operator="out" in="SourceGraphic" in2="d"/><feComposite operator="in" in="e"/><feComposite operator="in" in2="SourceGraphic"/></filter><filter id="f" x="952" y="129" width="110" height="1081" filterUnits="userSpaceOnUse"><feOffset dy="3" input="SourceAlpha"/><feGaussianBlur stdDeviation="3" result="g"/><feFlood flood-opacity="0.161"/><feComposite operator="in" in2="g"/></filter><filter id="h" x="952" y="129" width="110" height="1081" filterUnits="userSpaceOnUse"><feOffset dy="3" input="SourceAlpha"/><feGaussianBlur stdDeviation="3" result="i"/><feFlood flood-opacity="0.161" result="j"/><feComposite operator="out" in="SourceGraphic" in2="i"/><feComposite operator="in" in="j"/><feComposite operator="in" in2="SourceGraphic"/></filter><filter id="k" x="1325" y="129" width="111" height="1081" filterUnits="userSpaceOnUse"><feOffset dy="3" input="SourceAlpha"/><feGaussianBlur stdDeviation="3" result="l"/><feFlood flood-opacity="0.161"/><feComposite operator="in" in2="l"/></filter><filter id="m" x="1325" y="129" width="111" height="1081" filterUnits="userSpaceOnUse"><feOffset dy="3" input="SourceAlpha"/><feGaussianBlur stdDeviation="3" result="n"/><feFlood flood-opacity="0.161" result="o"/><feComposite operator="out" in="SourceGraphic" in2="n"/><feComposite operator="in" in="o"/><feComposite operator="in" in2="SourceGraphic"/></filter><filter id="p" x="1524" y="129" width="111" height="1081" filterUnits="userSpaceOnUse"><feOffset dy="3" input="SourceAlpha"/><feGaussianBlur stdDeviation="3" result="q"/><feFlood flood-opacity="0.161"/><feComposite operator="in" in2="q"/></filter><filter id="r" x="1524" y="129" width="111" height="1081" filterUnits="userSpaceOnUse"><feOffset dy="3" input="SourceAlpha"/><feGaussianBlur stdDeviation="3" result="s"/><feFlood flood-opacity="0.161" result="t"/><feComposite operator="out" in="SourceGraphic" in2="s"/><feComposite operator="in" in="t"/><feComposite operator="in" in2="SourceGraphic"/></filter><filter id="u" x="1700" y="129" width="111" height="1081" filterUnits="userSpaceOnUse"><feOffset dy="3" input="SourceAlpha"/><feGaussianBlur stdDeviation="3" result="v"/><feFlood flood-opacity="0.161"/><feComposite operator="in" in2="v"/></filter><filter id="w" x="1700" y="129" width="111" height="1081" filterUnits="userSpaceOnUse"><feOffset dy="3" input="SourceAlpha"/><feGaussianBlur stdDeviation="3" result="x"/><feFlood flood-opacity="0.161" result="y"/><feComposite operator="out" in="SourceGraphic" in2="x"/><feComposite operator="in" in="y"/><feComposite operator="in" in2="SourceGraphic"/></filter><filter id="z" x="952" y="203" width="925" height="109" filterUnits="userSpaceOnUse"><feOffset dy="3" input="SourceAlpha"/><feGaussianBlur stdDeviation="3" result="aa"/><feFlood flood-opacity="0.161"/><feComposite operator="in" in2="aa"/></filter><filter id="ab" x="952" y="203" width="925" height="109" filterUnits="userSpaceOnUse"><feOffset dy="3" input="SourceAlpha"/><feGaussianBlur stdDeviation="3" result="ac"/><feFlood flood-opacity="0.161" result="ad"/><feComposite operator="out" in="SourceGraphic" in2="ac"/><feComposite operator="in" in="ad"/><feComposite operator="in" in2="SourceGraphic"/></filter><filter id="ae" x="953" y="551" width="924" height="110" filterUnits="userSpaceOnUse"><feOffset dy="3" input="SourceAlpha"/><feGaussianBlur stdDeviation="3" result="af"/><feFlood flood-opacity="0.161"/><feComposite operator="in" in2="af"/></filter><filter id="ag" x="953" y="551" width="924" height="110" filterUnits="userSpaceOnUse"><feOffset dy="3" input="SourceAlpha"/><feGaussianBlur stdDeviation="3" result="ah"/><feFlood flood-opacity="0.161" result="ai"/><feComposite operator="out" in="SourceGraphic" in2="ah"/><feComposite operator="in" in="ai"/><feComposite operator="in" in2="SourceGraphic"/></filter><filter id="aj" x="951" y="885" width="924" height="111" filterUnits="userSpaceOnUse"><feOffset dy="3" input="SourceAlpha"/><feGaussianBlur stdDeviation="3" result="ak"/><feFlood flood-opacity="0.161"/><feComposite operator="in" in2="ak"/></filter><filter id="al" x="951" y="885" width="924" height="111" filterUnits="userSpaceOnUse"><feOffset dy="3" input="SourceAlpha"/><feGaussianBlur stdDeviation="3" result="am"/><feFlood flood-opacity="0.161" result="an"/><feComposite operator="out" in="SourceGraphic" in2="am"/><feComposite operator="in" in="an"/><feComposite operator="in" in2="SourceGraphic"/></filter><clipPath id="ap"><rect width="1920" height="1455"/></clipPath></defs><g id="ao" class="a"><rect class="h" width="1920" height="1455"/><g class="b" transform="translate(843)"><rect class="k" width="1077" height="1455"/><rect class="l" x="0.5" y="0.5" width="1076" height="1454"/></g><rect class="c" width="674" height="142" rx="24" transform="translate(140 879)"/><g class="d" transform="translate(140 236)"><rect class="k" width="674" height="142"/><rect class="l" x="6" y="6" width="662" height="130"/></g><g class="d" transform="translate(140 632)"><rect class="k" width="674" height="142"/><rect class="l" x="6" y="6" width="662" height="130"/></g><text class="e" transform="translate(140 189)"><tspan x="0" y="0">Email:</tspan></text><text class="e" transform="translate(140 585)"><tspan x="0" y="0">Password:</tspan></text><text class="f" transform="translate(427 964)"><tspan x="0" y="0">Enter</tspan></text><g data-type="innerShadowGroup"><g class="ab" transform="matrix(1, 0, 0, 1, 0, 0)"><g class="g" transform="translate(1136 135)"><rect class="k" width="92" height="1063"/><rect class="l" x="0.5" y="0.5" width="91" height="1062"/></g></g><rect class="h" width="92" height="1063" transform="translate(1136 135)"/><g class="aa" transform="matrix(1, 0, 0, 1, 0, 0)"><rect class="h" width="92" height="1063" transform="translate(1136 135)"/></g><g class="i" transform="translate(1136 135)"><rect class="k" width="92" height="1063"/><rect class="l" x="0.5" y="0.5" width="91" height="1062"/></g></g><g data-type="innerShadowGroup"><g class="z" transform="matrix(1, 0, 0, 1, 0, 0)"><g class="g" transform="translate(961 135)"><rect class="k" width="92" height="1063"/><rect class="l" x="0.5" y="0.5" width="91" height="1062"/></g></g><rect class="h" width="92" height="1063" transform="translate(961 135)"/><g class="y" transform="matrix(1, 0, 0, 1, 0, 0)"><rect class="h" width="92" height="1063" transform="translate(961 135)"/></g><g class="i" transform="translate(961 135)"><rect class="k" width="92" height="1063"/><rect class="l" x="0.5" y="0.5" width="91" height="1062"/></g></g><g data-type="innerShadowGroup"><g class="x" transform="matrix(1, 0, 0, 1, 0, 0)"><g class="g" transform="translate(1334 135)"><rect class="k" width="93" height="1063"/><rect class="l" x="0.5" y="0.5" width="92" height="1062"/></g></g><rect class="h" width="93" height="1063" transform="translate(1334 135)"/><g class="w" transform="matrix(1, 0, 0, 1, 0, 0)"><rect class="h" width="93" height="1063" transform="translate(1334 135)"/></g><g class="i" transform="translate(1334 135)"><rect class="k" width="93" height="1063"/><rect class="l" x="0.5" y="0.5" width="92" height="1062"/></g></g><g data-type="innerShadowGroup"><g class="v" transform="matrix(1, 0, 0, 1, 0, 0)"><g class="g" transform="translate(1533 135)"><rect class="k" width="93" height="1063"/><rect class="l" x="0.5" y="0.5" width="92" height="1062"/></g></g><rect class="h" width="93" height="1063" transform="translate(1533 135)"/><g class="u" transform="matrix(1, 0, 0, 1, 0, 0)"><rect class="h" width="93" height="1063" transform="translate(1533 135)"/></g><g class="i" transform="translate(1533 135)"><rect class="k" width="93" height="1063"/><rect class="l" x="0.5" y="0.5" width="92" height="1062"/></g></g><g data-type="innerShadowGroup"><g class="t" transform="matrix(1, 0, 0, 1, 0, 0)"><g class="g" transform="translate(1709 135)"><rect class="k" width="93" height="1063"/><rect class="l" x="0.5" y="0.5" width="92" height="1062"/></g></g><rect class="h" width="93" height="1063" transform="translate(1709 135)"/><g class="s" transform="matrix(1, 0, 0, 1, 0, 0)"><rect class="h" width="93" height="1063" transform="translate(1709 135)"/></g><g class="i" transform="translate(1709 135)"><rect class="k" width="93" height="1063"/><rect class="l" x="0.5" y="0.5" width="92" height="1062"/></g></g><g data-type="innerShadowGroup"><g class="r" transform="matrix(1, 0, 0, 1, 0, 0)"><g class="g" transform="translate(961 300) rotate(-90)"><rect class="k" width="91" height="907"/><rect class="l" x="0.5" y="0.5" width="90" height="906"/></g></g><rect class="h" width="91" height="907" transform="translate(961 300) rotate(-90)"/><g class="q" transform="matrix(1, 0, 0, 1, 0, 0)"><rect class="h" width="91" height="907" transform="translate(961 300) rotate(-90)"/></g><g class="i" transform="translate(961 300) rotate(-90)"><rect class="k" width="91" height="907"/><rect class="l" x="0.5" y="0.5" width="90" height="906"/></g></g><g data-type="innerShadowGroup"><g class="p" transform="matrix(1, 0, 0, 1, 0, 0)"><g class="g" transform="translate(962 649) rotate(-90)"><rect class="k" width="92" height="906"/><rect class="l" x="0.5" y="0.5" width="91" height="905"/></g></g><rect class="h" width="92" height="906" transform="translate(962 649) rotate(-90)"/><g class="o" transform="matrix(1, 0, 0, 1, 0, 0)"><rect class="h" width="92" height="906" transform="translate(962 649) rotate(-90)"/></g><g class="i" transform="translate(962 649) rotate(-90)"><rect class="k" width="92" height="906"/><rect class="l" x="0.5" y="0.5" width="91" height="905"/></g></g><g data-type="innerShadowGroup"><g class="n" transform="matrix(1, 0, 0, 1, 0, 0)"><g class="g" transform="translate(960 984) rotate(-90)"><rect class="k" width="93" height="906"/><rect class="l" x="0.5" y="0.5" width="92" height="905"/></g></g><rect class="h" width="93" height="906" transform="translate(960 984) rotate(-90)"/><g class="m" transform="matrix(1, 0, 0, 1, 0, 0)"><rect class="h" width="93" height="906" transform="translate(960 984) rotate(-90)"/></g><g class="i" transform="translate(960 984) rotate(-90)"><rect class="k" width="93" height="906"/><rect class="l" x="0.5" y="0.5" width="92" height="905"/></g></g><text class="j" transform="translate(148 1426)"><tspan x="0" y="0">Rueful</tspan></text></g></svg>