<svg width="123" height="123" viewBox="0 0 123 123" fill="none" xmlns="http://www.w3.org/2000/svg">
<g filter="url(#filter0_d_177_46)">
<rect x="4" width="115" height="115" rx="29" fill="#0AD81D" fill-opacity="0.11" shape-rendering="crispEdges"/>
</g>
<path d="M86.1767 82.2486L75.1965 71.2643C78.4887 66.9743 80.0258 61.5927 79.4958 56.2112C78.9659 50.8296 76.4087 45.8511 72.343 42.2856C68.2772 38.7201 63.0074 36.8345 57.6025 37.0114C52.1976 37.1883 47.0623 39.4144 43.2384 43.2381C39.4145 47.0618 37.1883 52.1969 37.0114 57.6015C36.8345 63.0062 38.7202 68.2758 42.2859 72.3413C45.8516 76.4069 50.8303 78.964 56.2121 79.4939C61.5939 80.0238 66.9757 78.4868 71.2659 75.1947L82.2554 86.186C82.5134 86.4441 82.8198 86.6488 83.157 86.7884C83.4943 86.9281 83.8557 87 84.2207 87C84.5856 87 84.9471 86.9281 85.2843 86.7884C85.6215 86.6488 85.9279 86.4441 86.1859 86.186C86.444 85.9279 86.6488 85.6215 86.7884 85.2843C86.9281 84.9472 87 84.5858 87 84.2208C87 83.8558 86.9281 83.4944 86.7884 83.1572C86.6488 82.82 86.444 82.5136 86.1859 82.2556L86.1767 82.2486ZM42.5957 58.3171C42.5957 55.2076 43.5178 52.168 45.2454 49.5826C46.973 46.9972 49.4285 44.9821 52.3014 43.7922C55.1743 42.6023 58.3355 42.2909 61.3854 42.8975C64.4352 43.5042 67.2366 45.0015 69.4355 47.2002C71.6343 49.3989 73.1317 52.2003 73.7383 55.2499C74.345 58.2996 74.0336 61.4607 72.8436 64.3335C71.6536 67.2062 69.6385 69.6616 67.0529 71.3891C64.4674 73.1167 61.4277 74.0387 58.3181 74.0387C54.1496 74.0344 50.153 72.3767 47.2054 69.4292C44.2578 66.4818 42.6 62.4854 42.5957 58.3171Z" fill="#0AD81D"/>
<defs>
<filter id="filter0_d_177_46" x="0" y="0" width="123" height="123" filterUnits="userSpaceOnUse" color-interpolation-filters="sRGB">
<feFlood flood-opacity="0" result="BackgroundImageFix"/>
<feColorMatrix in="SourceAlpha" type="matrix" values="0 0 0 0 0 0 0 0 0 0 0 0 0 0 0 0 0 0 127 0" result="hardAlpha"/>
<feOffset dy="4"/>
<feGaussianBlur stdDeviation="2"/>
<feComposite in2="hardAlpha" operator="out"/>
<feColorMatrix type="matrix" values="0 0 0 0 0.0392157 0 0 0 0 0.847059 0 0 0 0 0.113725 0 0 0 0.25 0"/>
<feBlend mode="normal" in2="BackgroundImageFix" result="effect1_dropShadow_177_46"/>
<feBlend mode="normal" in="SourceGraphic" in2="effect1_dropShadow_177_46" result="shape"/>
</filter>
</defs>
</svg>
