<svg width="123" height="123" viewBox="0 0 123 123" fill="none" xmlns="http://www.w3.org/2000/svg">
<g filter="url(#filter0_d_177_49)">
<rect x="4" width="115" height="115" rx="29" fill="#D80F0E" fill-opacity="0.11" shape-rendering="crispEdges"/>
</g>
<path d="M69.1644 55.3636C71.1367 55.3636 72.7373 56.9673 72.7373 58.9432V72.748C72.7373 75.7322 71.554 78.5942 69.4478 80.7044C67.3415 82.8145 64.4848 84 61.5061 84C58.5274 84 55.6707 82.8145 53.5645 80.7044C51.4582 78.5942 50.2749 75.7322 50.2749 72.748V58.9432C50.2749 56.9673 51.8735 55.3636 53.8478 55.3636H69.1644ZM40.5729 55.3636L49.5195 55.3595C48.7838 56.2477 48.3408 57.3425 48.2516 58.4932L48.2312 58.9432V72.748C48.2312 75.0655 48.8253 77.2459 49.8645 79.1441C48.4658 79.7555 46.9371 80.0083 45.4165 79.8797C43.8958 79.7511 42.4311 79.2451 41.1545 78.4074C39.8779 77.5697 38.8296 76.4267 38.1043 75.0815C37.379 73.7363 36.9995 72.2314 37 70.7025V58.9432C37.0005 57.9936 37.3774 57.0832 38.0478 56.4119C38.7182 55.7407 39.6251 55.3636 40.5729 55.3636ZM73.4928 55.3595L82.4271 55.3636C84.3993 55.3636 86 56.9673 86 58.9432V70.7045C86.0006 72.2328 85.6214 73.7372 84.8965 75.082C84.1717 76.4267 83.124 77.5694 81.8481 78.4071C80.5722 79.2447 79.1082 79.7509 77.5882 79.8799C76.0681 80.009 74.54 79.7568 73.1416 79.1461L73.2559 78.9375C74.1318 77.2745 74.6647 75.4009 74.7627 73.4148L74.779 72.748V58.9432C74.779 57.5809 74.2951 56.3332 73.4928 55.3595ZM61.5 39C62.4384 39 63.3676 39.1852 64.2346 39.545C65.1016 39.9047 65.8893 40.4321 66.5529 41.0968C67.2164 41.7616 67.7428 42.5508 68.1019 43.4194C68.461 44.288 68.6458 45.2189 68.6458 46.1591C68.6458 47.0992 68.461 48.0302 68.1019 48.8988C67.7428 49.7673 67.2164 50.5565 66.5529 51.2213C65.8893 51.8861 65.1016 52.4135 64.2346 52.7732C63.3676 53.133 62.4384 53.3182 61.5 53.3182C59.6048 53.3182 57.7872 52.5639 56.4471 51.2213C55.107 49.8787 54.3542 48.0578 54.3542 46.1591C54.3542 44.2604 55.107 42.4394 56.4471 41.0968C57.7872 39.7543 59.6048 39 61.5 39ZM77.8395 41.0455C78.6438 41.0455 79.4403 41.2042 80.1834 41.5126C80.9265 41.8209 81.6017 42.2729 82.1705 42.8428C82.7392 43.4126 83.1904 44.089 83.4982 44.8335C83.806 45.578 83.9645 46.376 83.9645 47.1818C83.9645 47.9877 83.806 48.7856 83.4982 49.5301C83.1904 50.2746 82.7392 50.9511 82.1705 51.5209C81.6017 52.0907 80.9265 52.5427 80.1834 52.8511C79.4403 53.1595 78.6438 53.3182 77.8395 53.3182C76.215 53.3182 74.6571 52.6717 73.5084 51.5209C72.3598 50.3701 71.7145 48.8093 71.7145 47.1818C71.7145 45.5544 72.3598 43.9935 73.5084 42.8428C74.6571 41.692 76.215 41.0455 77.8395 41.0455ZM45.1605 41.0455C45.9649 41.0455 46.7614 41.2042 47.5045 41.5126C48.2476 41.8209 48.9228 42.2729 49.4916 42.8428C50.0603 43.4126 50.5115 44.089 50.8193 44.8335C51.1271 45.578 51.2855 46.376 51.2855 47.1818C51.2855 47.9877 51.1271 48.7856 50.8193 49.5301C50.5115 50.2746 50.0603 50.9511 49.4916 51.5209C48.9228 52.0907 48.2476 52.5427 47.5045 52.8511C46.7614 53.1595 45.9649 53.3182 45.1605 53.3182C43.5361 53.3182 41.9782 52.6717 40.8295 51.5209C39.6809 50.3701 39.0355 48.8093 39.0355 47.1818C39.0355 45.5544 39.6809 43.9935 40.8295 42.8428C41.9782 41.692 43.5361 41.0455 45.1605 41.0455Z" fill="#D80F0E"/>
<defs>
<filter id="filter0_d_177_49" x="0" y="0" width="123" height="123" filterUnits="userSpaceOnUse" color-interpolation-filters="sRGB">
<feFlood flood-opacity="0" result="BackgroundImageFix"/>
<feColorMatrix in="SourceAlpha" type="matrix" values="0 0 0 0 0 0 0 0 0 0 0 0 0 0 0 0 0 0 127 0" result="hardAlpha"/>
<feOffset dy="4"/>
<feGaussianBlur stdDeviation="2"/>
<feComposite in2="hardAlpha" operator="out"/>
<feColorMatrix type="matrix" values="0 0 0 0 0.847059 0 0 0 0 0.0588235 0 0 0 0 0.054902 0 0 0 0.25 0"/>
<feBlend mode="normal" in2="BackgroundImageFix" result="effect1_dropShadow_177_49"/>
<feBlend mode="normal" in="SourceGraphic" in2="effect1_dropShadow_177_49" result="shape"/>
</filter>
</defs>
</svg>
