<svg width="123" height="123" viewBox="0 0 123 123" fill="none" xmlns="http://www.w3.org/2000/svg">
<g filter="url(#filter0_d_177_47)">
<rect x="4" width="115" height="115" rx="29" fill="#FDAE38" fill-opacity="0.11" shape-rendering="crispEdges"/>
</g>
<path d="M62.2734 33L62.4567 83M77.3446 36.0514L77.4996 78.6307M47.0529 36.0975L47.1994 78.9903M38 58.1819H86M41.105 73.9424H83.0782M41.0049 43.1447H82.6286M68.2311 52.7213C67.7696 54.2416 66.7188 55.5178 65.3097 56.2694C63.9006 57.0209 62.2485 57.1862 60.7166 56.729C59.1847 56.2718 57.8984 55.2295 57.1404 53.8312C56.3825 52.4329 56.2149 50.7931 56.6746 49.2722C57.1342 47.7513 58.1835 46.4738 59.5917 45.7206C60.9999 44.9674 62.6517 44.8 64.1842 45.2554C65.7166 45.7107 67.0042 46.7515 67.7639 48.1489C68.5236 49.5462 68.6932 51.1859 68.2354 52.7073M74.8076 68.016C72.7921 71.2478 65.6378 73.0946 58.8259 72.139C52.0141 71.1834 48.1198 67.7907 50.1268 64.556C52.1339 61.3214 59.2812 59.4718 66.0958 60.4218C72.9105 61.3718 76.8132 64.7645 74.8161 67.9992" stroke="#FDAE38" stroke-linecap="round" stroke-linejoin="round"/>
<path d="M62 87C78.0163 87 91 74.0163 91 58C91 41.9837 78.0163 29 62 29C45.9837 29 33 41.9837 33 58C33 74.0163 45.9837 87 62 87Z" stroke="#FDAE38" stroke-linecap="round" stroke-linejoin="round"/>
<defs>
<filter id="filter0_d_177_47" x="0" y="0" width="123" height="123" filterUnits="userSpaceOnUse" color-interpolation-filters="sRGB">
<feFlood flood-opacity="0" result="BackgroundImageFix"/>
<feColorMatrix in="SourceAlpha" type="matrix" values="0 0 0 0 0 0 0 0 0 0 0 0 0 0 0 0 0 0 127 0" result="hardAlpha"/>
<feOffset dy="4"/>
<feGaussianBlur stdDeviation="2"/>
<feComposite in2="hardAlpha" operator="out"/>
<feColorMatrix type="matrix" values="0 0 0 0 0.992157 0 0 0 0 0.682353 0 0 0 0 0.219608 0 0 0 0.25 0"/>
<feBlend mode="normal" in2="BackgroundImageFix" result="effect1_dropShadow_177_47"/>
<feBlend mode="normal" in="SourceGraphic" in2="effect1_dropShadow_177_47" result="shape"/>
</filter>
</defs>
</svg>
